G70*
%FSLAX55Y55*%
%ADD11C,0.03937*%
%ADD12C,0.01575*%
%ADD13C,0.00945*%
%ADD14C,0.00100*%
%ADD15R,0.06500X0.06500*%
%ADD16C,0.06500*%
%ADD17R,0.12000X0.08000*%
%ADD18C,0.11800*%
%ADD19R,0.06000X0.06000*%
%ADD20C,0.06000*%
%ADD21O,0.09100X0.16974*%
%ADD22O,0.16974X0.09100*%
%ADD23C,0.08700*%
%ADD24C,0.06000*%
%ADD25C,0.01181*%
%ADD26C,0.00591*%
%ADD27P,0.06061X8X22.500*%
D11*
X357500Y355000D02*
X357500Y360000D01*
X363778Y366278*
X395250Y366278*
X235000Y285844D02*
X253400Y285844D01*
X265825Y298270*
X235000Y285844D02*
X235000Y297500D01*
X146250Y333278D02*
X190722Y333278D01*
X196500Y327500*
X196500Y292500*
X203000Y286000*
X215000Y286000*
X215156Y285844*
X235000Y285844*
X11848Y326813D02*
X18911Y319750D01*
X40386Y319750*
X53913Y333278*
X146250Y333278*
D12*
X124000Y371278D02*
X132778Y362500D01*
X210000Y362500*
X222500Y350000*
X232500Y350000*
X245000Y337500*
X260000Y337500*
X269803Y347303*
X307697Y347303*
X310000Y345000*
X310000Y342500*
X146250Y381028D02*
X133750Y381028D01*
X124000Y371278*
D11*
X286250Y287750D02*
X276344Y287750D01*
X265825Y298270*
D12*
X258250Y387750D02*
X259250Y387750D01*
X261778Y390278*
X597250Y390278*
X601250Y386278*
X603250Y386278*
X11848Y366813D02*
X34785Y389750D01*
X62778Y389750*
X71250Y381278*
D11*
X520000Y317500D02*
X535028Y317500D01*
X546750Y305778*
D12*
X219500Y374778D02*
X225000Y380278D01*
X230748Y380278*
X237250Y373776*
X237250Y371750*
X166250Y381028D02*
X173528Y373750D01*
X200972Y373750*
X208250Y381028*
X213250Y381028*
X219500Y374778*
X209500Y344778D02*
X208000Y346278D01*
X161500Y346278*
X156250Y341028*
D11*
X345000Y145000D02*
X345000Y144545D01*
X611250Y164545D02*
X611250Y154545D01*
X601250Y144545*
X345000Y144545*
X204750Y182795D02*
X232205Y182795D01*
X270455Y144545*
X345000Y144545*
X89250Y144545D02*
X157500Y144545D01*
X181977Y169023*
X190977Y169023*
X204750Y182795*
X89250Y144545D02*
X89250Y151545D01*
X18250Y159545D02*
X18250Y151545D01*
X25250Y144545*
X89250Y144545*
D12*
X313750Y334278D02*
X313750Y334778D01*
X301000Y334778*
X52250Y381278D02*
X52250Y382278D01*
X44312Y382278*
X33250Y371215*
X33250Y368750*
X26473Y361973*
D13*
X26250Y361750D02*
X18250Y361750D01*
D12*
X17935Y361750D02*
X16785Y361750D01*
X11848Y356813*
X168250Y177545D02*
X165000Y180795D01*
X165000Y215295*
X198205Y248500*
X461295Y248500*
X475045Y234750*
X559250Y234750*
X142250Y155045D02*
X142250Y155545D01*
X147250Y160545*
X167250Y160545*
X196250Y189545*
X233250Y189545*
X268250Y154545*
X552045Y154545*
X595045Y197545*
X608250Y197545*
X59500Y153295D02*
X71750Y165545D01*
X131750Y165545*
X142250Y155045*
X18250Y174545D02*
X38250Y174545D01*
X59500Y153295*
X57500Y245000D02*
X57500Y231381D01*
X47500Y221381*
X47500Y210045*
X29500Y192045*
X570250Y237750D02*
X571250Y237750D01*
X561045Y227545*
X475250Y227545*
X458250Y244545*
X202250Y244545*
X170250Y212545*
X170250Y193545*
X142250Y185045D02*
X135750Y191545D01*
X114250Y191545*
X239250Y227750D02*
X211455Y227750D01*
X187500Y203795*
X187500Y202500*
D11*
X232250Y41750D02*
X254000Y20000D01*
X265000Y20000*
X270000Y25000*
X287500Y25000*
X305000Y07500*
X370000Y07500*
X375000Y12500*
X89250Y06750D02*
X197250Y06750D01*
X232250Y41750*
X89250Y06750D02*
X89250Y13750D01*
X20250Y18750D02*
X20250Y12750D01*
X26250Y06750*
X89250Y06750*
D12*
X59500Y15500D02*
X59500Y16500D01*
X42250Y33750*
X31250Y33750*
X16250Y48750*
X16250Y49750*
X168500Y20500D02*
X163250Y25750D01*
X69750Y25750*
X59500Y15500*
X29500Y152045D02*
X30750Y153295D01*
X49500Y153295*
X122750Y54500D02*
X115500Y61750D01*
X51250Y61750*
X38250Y48750*
X27250Y48750*
X19250Y56750*
X20250Y56750*
X168500Y50500D02*
X181250Y63250D01*
X181250Y85750*
X140000Y54250D02*
X141500Y55750D01*
X163250Y55750*
X168500Y50500*
X49500Y15500D02*
X30750Y15500D01*
X29500Y14250*
X101250Y151545D02*
X110250Y160545D01*
X126750Y160545*
X132250Y155045*
X21848Y366813D02*
X41313Y386278D01*
X57250Y386278*
X68778Y374750*
X82250Y374750*
X87250Y379750*
X120250Y379750*
X130250Y389750*
X153250Y389750*
X156250Y386750*
X156250Y381028*
X158500Y20500D02*
X128750Y20500D01*
X122750Y14500*
X59500Y45500D02*
X67750Y53750D01*
X89250Y53750*
D11*
X178500Y50500D02*
X222000Y50500D01*
X235250Y63750*
X258114Y63750*
X271250Y76886*
X396250Y363750D02*
X395250Y363750D01*
X395250Y366278*
X399250Y370278*
X519722Y370278*
X545750Y344250*
X545750Y327500*
X282250Y79750D02*
X282250Y80750D01*
X297000Y95500*
X494500Y95500*
X544409Y45591*
X544409Y30409*
X535500Y21500*
X500000Y22500D02*
X500000Y21500D01*
X535500Y21500*
X262250Y173545D02*
X262250Y191410D01*
X239250Y214410*
X239250Y217545*
X261250Y239545*
X460000Y162500D02*
X487750Y162500D01*
X487750Y163545*
X496250Y172045*
X496250Y196545*
X453250Y239545*
X261250Y239545*
X197500Y227500D02*
X197500Y226545D01*
X210500Y239545*
X261250Y239545*
X546750Y325778D02*
X545750Y325778D01*
X545750Y327500*
X517028Y327500*
X511250Y333278*
X427500Y333278*
X427500Y332500*
X134000Y371278D02*
X137000Y368278D01*
X223000Y368278*
X313750Y287500D02*
X313750Y294278D01*
X608250Y292278D02*
X590972Y287500D01*
X313750Y287500*
X223000Y368278D02*
X225722Y368278D01*
X226250Y367750*
X226250Y357750*
X225250Y357750*
X313750Y287500D02*
X313750Y286278D01*
X297722Y286278*
X265729Y318271*
X265825Y318270D02*
X265722Y318278D01*
X265729Y318271*
D12*
X71250Y341278D02*
X114000Y341278D01*
X59500Y183295D02*
X59500Y183619D01*
X72381Y196500*
X85250Y196500*
X89250Y192500*
X89250Y191545*
D11*
X166250Y341028D02*
X191972Y341028D01*
X198000Y335000*
X223988Y335000*
X230238Y328750*
X235114Y328750*
X238864Y325000*
X257500Y325000*
X266500Y334000*
X266500Y335000*
X273250Y341750*
X273250Y342278*
X210250Y07750D02*
X223250Y20750D01*
X231250Y20750*
X232250Y21750*
X245250Y08750*
X278250Y08750*
X286250Y16750*
X500250Y42750D02*
X510500Y32500D01*
X526500Y32500*
X535500Y41500*
X486500Y90500*
X305000Y90500*
X297250Y82750*
X297250Y80750*
X296250Y81750*
X287250Y72750*
X281114Y72750*
X277114Y76750*
X271250Y76750*
X271250Y76886*
X271250Y80750D02*
X271250Y76886D01*
X265250Y29750D02*
X265250Y62750D01*
X270250Y67750*
X180250Y153545D02*
X189500Y162795D01*
X204750Y162795*
X546750Y305778D02*
X555250Y314278D01*
X555250Y341961*
X520933Y376278*
X358250Y376278*
X346250Y364278*
X204750Y162795D02*
X240000Y162795D01*
X251250Y151545*
X69500Y183295D02*
X76250Y176545D01*
X143750Y176545*
X152250Y185045*
X160000Y185045*
X160000Y210000*
X223000Y368278D02*
X229500Y374778D01*
X246250Y215545D02*
X261250Y230545D01*
X294250Y230545*
X146250Y333278D02*
X146250Y341028D01*
X365250Y207750D02*
X350000Y192500D01*
X332500Y192500*
X318250Y206750*
X301250Y206750*
X293250Y214750*
X293250Y229545*
X294250Y230545*
X450250Y230545*
X488250Y192545*
X488250Y184045*
X487750Y183545*
X476455Y183545*
X464455Y195545*
X365250Y195545*
X223189Y317972D02*
X265000Y317972D01*
X265000Y318271*
X265729Y318271*
D12*
X239500Y332500D02*
X231778Y332500D01*
X219500Y344778*
X124000Y341278D02*
X118000Y347278D01*
X68250Y347278*
X59250Y338278*
X49250Y338278*
X42722Y331750*
X25565Y331750*
D13*
X25250Y331750D02*
X17250Y331750D01*
D12*
X16935Y331750D02*
X16911Y331750D01*
X11848Y336813*
D11*
X301000Y294778D02*
X301000Y304028D01*
X320250Y323278*
X320250Y358278*
X326250Y364278*
X346250Y364278*
D12*
X21848Y356813D02*
X26313Y356813D01*
X41250Y371750*
X41250Y372750*
X124000Y341278D02*
X132472Y349750D01*
X214528Y349750*
X219500Y344778*
X603250Y378278D02*
X594250Y387278D01*
X289250Y387278*
X283722Y381750*
X255250Y381750*
X252250Y384750*
X250250Y384750*
D11*
X69500Y45500D02*
X73250Y41750D01*
X169750Y41750*
X178500Y50500*
D12*
X21848Y346813D02*
X30911Y337750D01*
X41250Y337750*
X609250Y339278D02*
X609250Y338278D01*
X564222Y338278*
X521222Y381278*
X295778Y381278*
X290250Y375750*
X242250Y375750*
X242250Y377750*
D11*
X21848Y326813D02*
X21848Y326750D01*
X39250Y326750*
D12*
X603250Y371278D02*
X602250Y371278D01*
X589250Y384278*
X292250Y384278*
X286722Y378750*
X247715Y378750*
X242188Y384278*
X206778Y384278*
X200250Y377750*
X181250Y377750*
X172250Y386750*
X164250Y386750*
X161473Y383973*
D13*
X161250Y383750D02*
X161250Y378750D01*
D12*
X161027Y378527D02*
X158250Y375750D01*
X153250Y375750*
X151473Y377527*
D13*
X151250Y377750D02*
X151250Y384750D01*
D12*
X151027Y384973D02*
X149250Y386750D01*
X132250Y386750*
X122250Y376750*
X90250Y376750*
X81250Y367750*
X44250Y367750*
X36250Y359750*
X36250Y356750*
X31250Y351750*
X26565Y351750*
D13*
X26250Y351750D02*
X18250Y351750D01*
D12*
X17935Y351750D02*
X16785Y351750D01*
X11848Y346813*
D14*
G36*
X602894Y23543D02*
X602894Y20394D01*
X606043Y20394*
X606043Y21575*
X604075Y21575*
X604075Y23543*
X602894Y23543*
G37*
X602894Y20394*
X606043Y20394*
X606043Y21575*
X604075Y21575*
X604075Y23543*
X602894Y23543*
G36*
X598957Y20394D02*
X602106Y20394D01*
X602106Y23543*
X600925Y23543*
X600925Y21575*
X598957Y21575*
X598957Y20394*
G37*
X602106Y20394*
X602106Y23543*
X600925Y23543*
X600925Y21575*
X598957Y21575*
X598957Y20394*
G36*
X602106Y16457D02*
X602106Y19606D01*
X598957Y19606*
X598957Y18425*
X600925Y18425*
X600925Y16457*
X602106Y16457*
G37*
X602106Y19606*
X598957Y19606*
X598957Y18425*
X600925Y18425*
X600925Y16457*
X602106Y16457*
G36*
X606043Y19606D02*
X602894Y19606D01*
X602894Y16457*
X604075Y16457*
X604075Y18425*
X606043Y18425*
X606043Y19606*
G37*
X602894Y19606*
X602894Y16457*
X604075Y16457*
X604075Y18425*
X606043Y18425*
X606043Y19606*
D15*
X367203Y356656D03*
D16*
X377203Y356656D03*
X387203Y356656D03*
D17*
X623266Y339333D03*
D18*
X82500Y317500D03*
D16*
X275250Y56750D03*
X275250Y16750D03*
D19*
X132250Y155045D03*
D20*
X142250Y155045D03*
X152250Y155045D03*
X152250Y185045D03*
X142250Y185045D03*
X132250Y185045D03*
D21*
X235000Y297500D03*
X210591Y297500D03*
D22*
X223189Y317972D03*
D23*
X232250Y41750D03*
X232250Y21750D03*
X535500Y21500D03*
X535500Y41500D03*
X265825Y298270D03*
X265825Y318270D03*
X546750Y305778D03*
X546750Y325778D03*
X204750Y182795D03*
X204750Y162795D03*
X487750Y163545D03*
X487750Y183545D03*
D14*
G36*
X45516Y299508D02*
X47587Y298263D01*
X48397Y304981*
X49178Y297307*
X51482Y295922*
X53472Y306594*
X51115Y307997*
X50163Y301158*
X49456Y309007*
X47268Y310321*
X46502Y303357*
X45623Y311310*
X43290Y312711*
X45516Y299508*
X42699Y301200*
X39444Y299126*
X37160Y300498*
X40416Y302572*
X37609Y304258*
X27990Y298130*
X30797Y296444*
X34560Y298841*
X36843Y297469*
X33080Y295072*
X35897Y293380*
X45516Y299508*
G37*
X47587Y298263*
X48397Y304981*
X49178Y297307*
X51482Y295922*
X53472Y306594*
X51115Y307997*
X50163Y301158*
X49456Y309007*
X47268Y310321*
X46502Y303357*
X45623Y311310*
X43290Y312711*
X45516Y299508*
X42699Y301200*
X39444Y299126*
X37160Y300498*
X40416Y302572*
X37609Y304258*
X27990Y298130*
X30797Y296444*
X34560Y298841*
X36843Y297469*
X33080Y295072*
X35897Y293380*
X45516Y299508*
D24*
X617518Y12010D03*
X583974Y323663D03*
X29407Y99136D03*
D14*
G36*
X12894Y388543D02*
X12894Y385394D01*
X16043Y385394*
X16043Y386575*
X14075Y386575*
X14075Y388543*
X12894Y388543*
G37*
X12894Y385394*
X16043Y385394*
X16043Y386575*
X14075Y386575*
X14075Y388543*
X12894Y388543*
G36*
X08957Y385394D02*
X12106Y385394D01*
X12106Y388543*
X10925Y388543*
X10925Y386575*
X08957Y386575*
X08957Y385394*
G37*
X12106Y385394*
X12106Y388543*
X10925Y388543*
X10925Y386575*
X08957Y386575*
X08957Y385394*
G36*
X12106Y381457D02*
X12106Y384606D01*
X08957Y384606*
X08957Y383425*
X10925Y383425*
X10925Y381457*
X12106Y381457*
G37*
X12106Y384606*
X08957Y384606*
X08957Y383425*
X10925Y383425*
X10925Y381457*
X12106Y381457*
G36*
X16043Y384606D02*
X12894Y384606D01*
X12894Y381457*
X14075Y381457*
X14075Y383425*
X16043Y383425*
X16043Y384606*
G37*
X12894Y384606*
X12894Y381457*
X14075Y381457*
X14075Y383425*
X16043Y383425*
X16043Y384606*
D19*
X49500Y15500D03*
D20*
X59500Y15500D03*
X69500Y15500D03*
X69500Y45500D03*
X59500Y45500D03*
X49500Y45500D03*
D19*
X158500Y20500D03*
D20*
X168500Y20500D03*
X178500Y20500D03*
X178500Y50500D03*
X168500Y50500D03*
X158500Y50500D03*
D19*
X114000Y341278D03*
D20*
X124000Y341278D03*
X134000Y341278D03*
X134000Y371278D03*
X124000Y371278D03*
X114000Y371278D03*
D19*
X209500Y344778D03*
D20*
X219500Y344778D03*
X229500Y344778D03*
X229500Y374778D03*
X219500Y374778D03*
X209500Y374778D03*
D19*
X49500Y153295D03*
D20*
X59500Y153295D03*
X69500Y153295D03*
X69500Y183295D03*
X59500Y183295D03*
X49500Y183295D03*
D16*
X29500Y192045D03*
X29500Y152045D03*
X101250Y191545D03*
X101250Y151545D03*
X89250Y191545D03*
X89250Y151545D03*
X114250Y151545D03*
X114250Y191545D03*
X313750Y294278D03*
X313750Y334278D03*
X301000Y334778D03*
X301000Y294778D03*
X29500Y54250D03*
X29500Y14250D03*
X122750Y54500D03*
X122750Y14500D03*
X89250Y53750D03*
X89250Y13750D03*
X140000Y14250D03*
X140000Y54250D03*
X251250Y151545D03*
X251250Y191545D03*
X71250Y381278D03*
X71250Y341278D03*
X286250Y16750D03*
X286250Y56750D03*
X146250Y381028D03*
X146250Y341028D03*
X240250Y191545D03*
X240250Y151545D03*
X156250Y381028D03*
X156250Y341028D03*
X166250Y341028D03*
X166250Y381028D03*
D18*
X590000Y160000D03*
X182500Y105000D03*
D15*
X11848Y366813D03*
D16*
X21848Y366813D03*
X11848Y356813D03*
X21848Y356813D03*
X11848Y346813D03*
X21848Y346813D03*
X11848Y336813D03*
X21848Y336813D03*
X11848Y326813D03*
X21848Y326813D03*
D17*
X623266Y355081D03*
X623266Y370829D03*
X623266Y386577D03*
X05156Y150356D03*
X05156Y166104D03*
X05156Y181852D03*
X05156Y197600D03*
D15*
X461691Y356656D03*
D16*
X471691Y356656D03*
X481691Y356656D03*
D15*
X556179Y356656D03*
D16*
X566179Y356656D03*
X576179Y356656D03*
D15*
X20746Y214923D03*
D16*
X30746Y214923D03*
X40746Y214923D03*
D15*
X115234Y214923D03*
D16*
X125234Y214923D03*
X135234Y214923D03*
D15*
X209722Y214923D03*
D16*
X219722Y214923D03*
X229722Y214923D03*
D15*
X304211Y214923D03*
D16*
X314211Y214923D03*
X324211Y214923D03*
D17*
X05156Y213348D03*
X05156Y229096D03*
X05156Y244844D03*
X623266Y150356D03*
X623266Y166104D03*
X623250Y181852D03*
X623250Y197600D03*
X623266Y213348D03*
X623266Y229096D03*
X05156Y12561D03*
X05156Y28309D03*
X05156Y44057D03*
X05156Y59805D03*
D15*
X398699Y214923D03*
D16*
X408699Y214923D03*
X418699Y214923D03*
D15*
X493187Y214923D03*
D16*
X503187Y214923D03*
X513187Y214923D03*
D15*
X587675Y214923D03*
D16*
X597675Y214923D03*
X607675Y214923D03*
D15*
X52242Y77128D03*
D16*
X62242Y77128D03*
X72242Y77128D03*
D15*
X146730Y77128D03*
D16*
X156730Y77128D03*
X166730Y77128D03*
D15*
X241219Y77128D03*
D16*
X251219Y77128D03*
X261219Y77128D03*
D15*
X335707Y77128D03*
D16*
X345707Y77128D03*
X355707Y77128D03*
D15*
X430195Y77128D03*
D16*
X440195Y77128D03*
X450195Y77128D03*
D15*
X524683Y77128D03*
D16*
X534683Y77128D03*
X544683Y77128D03*
D15*
X83738Y356656D03*
D16*
X93738Y356656D03*
X103738Y356656D03*
D15*
X178226Y356656D03*
D16*
X188226Y356656D03*
X198226Y356656D03*
D15*
X272715Y356656D03*
D16*
X282715Y356656D03*
X292715Y356656D03*
D17*
X05156Y75553D03*
X05156Y91301D03*
X623266Y292089D03*
X623266Y307837D03*
X623266Y323585D03*
D25*
X137668Y-56111D02*
X137668Y-45000*
X139308Y-53796D01*
X140949Y-45000*
X142589Y-53796*
X144230Y-45000*
X149479Y-49167D02*
X148822Y-48241D01*
X146198Y-48241*
X145542Y-49167*
X145542Y-52870*
X146198Y-53796*
X148822Y-53796*
X149479Y-52870*
X149479Y-49167*
X153415Y-53796D02*
X153415Y-48241D01*
X153415Y-49167D02*
X154071Y-48241D01*
X156040Y-48241*
X156696Y-49167*
X163586Y-45000D02*
X163586Y-52870D01*
X164242Y-53796*
X164898Y-53796*
X162601Y-48241D02*
X164570Y-48241D01*
X169163Y-48241D02*
X169163Y-52870D01*
X169819Y-53796*
X172444Y-53796*
X173100Y-52870*
X173100Y-53796D02*
X173100Y-48241D01*
X177036Y-53796D02*
X177036Y-45000D01*
X177036Y-49167D02*
X177693Y-48241D01*
X180317Y-48241*
X180973Y-49167*
X180973Y-53796*
X184910Y-53796D02*
X184910Y-48241D01*
X184910Y-49167D02*
X185566Y-48241D01*
X187535Y-48241*
X188191Y-49167*
X193440Y-49167D02*
X197377Y-49167D01*
X200657Y-53796D02*
X200657Y-45000D01*
X205251Y-45000*
X205907Y-45926*
X205907Y-48241*
X205251Y-49167*
X200657Y-49167*
X212468Y-49167D02*
X211812Y-48241D01*
X209187Y-48241*
X208531Y-49167*
X208531Y-52870*
X209187Y-53796*
X211812Y-53796*
X212468Y-52870*
X212468Y-49167*
X216405Y-48241D02*
X218045Y-53796D01*
X219686Y-48241*
X221326Y-53796*
X222967Y-48241*
X224279Y-51019D02*
X228216Y-51019D01*
X228216Y-49167*
X227559Y-48241*
X224935Y-48241*
X224279Y-49167*
X224279Y-52870*
X224935Y-53796*
X227559Y-53796*
X228216Y-52870*
X232152Y-53796D02*
X232152Y-48241D01*
X232152Y-49167D02*
X232808Y-48241D01*
X234777Y-48241*
X235433Y-49167*
X240026Y-48241D02*
X240026Y-56111D01*
X240026Y-49167D02*
X240682Y-48241D01*
X243307Y-48241*
X243963Y-49167*
X243963Y-52870*
X243307Y-53796*
X240682Y-53796*
X240026Y-52870*
X249048Y-45000D02*
X249048Y-52870D01*
X249376Y-53796*
X249704Y-53796*
X251837Y-49167D02*
X252493Y-48241D01*
X255117Y-48241*
X255774Y-49167*
X255774Y-53796*
X255774Y-52870D02*
X255774Y-53796D01*
X252493Y-53796*
X251837Y-52870*
X251837Y-51944*
X252493Y-51019*
X255774Y-51019*
X262007Y-45000D02*
X262007Y-52870D01*
X262663Y-53796*
X263319Y-53796*
X261023Y-48241D02*
X262991Y-48241D01*
X268896Y-53796D02*
X268896Y-48704D01*
X268896Y-45463D02*
X268896Y-45000D01*
X268568Y-53796D02*
X269224Y-53796D01*
X271521Y-53796D02*
X271521Y-48241D01*
X271521Y-49167D02*
X272177Y-48241D01*
X274802Y-48241*
X275458Y-49167*
X275458Y-53796*
X279394Y-51019D02*
X283331Y-51019D01*
X283331Y-49167*
X282675Y-48241*
X280051Y-48241*
X279394Y-49167*
X279394Y-52870*
X280051Y-53796*
X282675Y-53796*
X283331Y-52870*
X287268Y-53796D02*
X292518Y-53796D01*
X295142Y-45000D02*
X297767Y-53796D01*
X300391Y-45000*
X303016Y-51019D02*
X306953Y-51019D01*
X306953Y-49167*
X306296Y-48241*
X303672Y-48241*
X303016Y-49167*
X303016Y-52870*
X303672Y-53796*
X306296Y-53796*
X306953Y-52870*
X310889Y-53796D02*
X310889Y-48241D01*
X310889Y-49167D02*
X311545Y-48241D01*
X313514Y-48241*
X314170Y-49167*
X318763Y-52870D02*
X319419Y-53796D01*
X322044Y-53796*
X322700Y-52870*
X322700Y-51944*
X322044Y-51019*
X319419Y-51019*
X318763Y-50093*
X318763Y-49167*
X319419Y-48241*
X322044Y-48241*
X322700Y-49167*
X327949Y-53796D02*
X327949Y-48704D01*
X327949Y-45463D02*
X327949Y-45000D01*
X327621Y-53796D02*
X328277Y-53796D01*
X334511Y-49167D02*
X333854Y-48241D01*
X331230Y-48241*
X330574Y-49167*
X330574Y-52870*
X331230Y-53796*
X333854Y-53796*
X334511Y-52870*
X334511Y-49167*
X338447Y-53796D02*
X338447Y-48241D01*
X338447Y-49167D02*
X339103Y-48241D01*
X341728Y-48241*
X342384Y-49167*
X342384Y-53796*
X346321Y-45926D02*
X346977Y-45000D01*
X350258Y-45000*
X350914Y-45926*
X350914Y-47778*
X350258Y-48704*
X346321Y-53796*
X350914Y-53796*
X355179Y-53796D02*
X355015Y-53796D01*
X355015Y-53333*
X355179Y-53333*
X355179Y-53796*
X359280Y-53796D02*
X359280Y-45000D01*
X358624Y-46852*
X362724Y-49167D02*
X366661Y-49167D01*
X369942Y-53796D02*
X369942Y-45000D01*
X369942Y-49167D02*
X370270Y-49167D01*
X374535Y-45000*
X370270Y-49167D02*
X374535Y-53796D01*
X377816Y-49167D02*
X378472Y-48241D01*
X381097Y-48241*
X381753Y-49167*
X381753Y-53796*
X381753Y-52870D02*
X381753Y-53796D01*
X378472Y-53796*
X377816Y-52870*
X377816Y-51944*
X378472Y-51019*
X381753Y-51019*
X387986Y-45000D02*
X387986Y-52870D01*
X388642Y-53796*
X389298Y-53796*
X387002Y-48241D02*
X388970Y-48241D01*
X394875Y-53796D02*
X394875Y-48704D01*
X394875Y-45463D02*
X394875Y-45000D01*
X394547Y-53796D02*
X395204Y-53796D01*
X509250Y291278D02*
X504657Y293592*
X509250Y293592D01*
X509250Y302389*
X497439Y298222D02*
X498095Y299148D01*
X500720Y299148*
X501376Y298222*
X501376Y294518*
X500720Y293592*
X498095Y293592*
X497439Y294518*
X497439Y298222*
X500064Y300537D02*
X500064Y300074D01*
X498752Y300074D02*
X498752Y300537D01*
X491206Y302389D02*
X491206Y294518D01*
X490550Y293592*
X489894Y293592*
X492190Y299148D02*
X490222Y299148D01*
X485629Y294518D02*
X484973Y293592D01*
X482348Y293592*
X481692Y294518*
X481692Y295444*
X482348Y296370*
X484973Y296370*
X485629Y297296*
X485629Y298222*
X484973Y299148*
X482348Y299148*
X481692Y298222*
X477755Y296370D02*
X473818Y296370D01*
X473818Y298222*
X474474Y299148*
X477099Y299148*
X477755Y298222*
X477755Y294518*
X477099Y293592*
X474474Y293592*
X473818Y294518*
X468569Y293592D02*
X468569Y298685D01*
X468569Y301926D02*
X468569Y302389D01*
X468897Y293592D02*
X468241Y293592D01*
X463648Y302389D02*
X463648Y294518D01*
X462992Y293592*
X462336Y293592*
X464632Y299148D02*
X462664Y299148D01*
X458071Y296370D02*
X454134Y296370D01*
X454134Y298222*
X454790Y299148*
X457415Y299148*
X458071Y298222*
X458071Y294518*
X457415Y293592*
X454790Y293592*
X454134Y294518*
X117500Y315000D02*
X114875Y321019*
X112251Y321019D01*
X112251Y318241*
X112907Y317315*
X116844Y317315*
X117500Y318241*
X117500Y325185*
X116844Y326111*
X112907Y326111*
X112251Y325185*
X109626Y317315D02*
X109626Y326111D01*
X104377Y317315*
X104377Y326111*
X101753Y326111D02*
X98472Y326111D01*
X97159Y325185*
X96503Y323333*
X96503Y320093*
X97159Y318241*
X98472Y317315*
X101753Y317315*
X100440Y317315D02*
X100440Y326111D01*
X570000Y192500D02*
X565407Y194815*
X570000Y194815D01*
X570000Y203611*
X558189Y199444D02*
X558845Y200370D01*
X561470Y200370*
X562126Y199444*
X562126Y195741*
X561470Y194815*
X558845Y194815*
X558189Y195741*
X558189Y199444*
X560814Y201759D02*
X560814Y201296D01*
X559502Y201296D02*
X559502Y201759D01*
X551956Y203611D02*
X551956Y195741D01*
X551300Y194815*
X550644Y194815*
X552940Y200370D02*
X550972Y200370D01*
X546379Y195741D02*
X545723Y194815D01*
X543098Y194815*
X542442Y195741*
X542442Y196667*
X543098Y197593*
X545723Y197593*
X546379Y198519*
X546379Y199444*
X545723Y200370*
X543098Y200370*
X542442Y199444*
X538505Y197593D02*
X534568Y197593D01*
X534568Y199444*
X535224Y200370*
X537849Y200370*
X538505Y199444*
X538505Y195741*
X537849Y194815*
X535224Y194815*
X534568Y195741*
X529319Y194815D02*
X529319Y199907D01*
X529319Y203148D02*
X529319Y203611D01*
X529647Y194815D02*
X528991Y194815D01*
X524398Y203611D02*
X524398Y195741D01*
X523742Y194815*
X523086Y194815*
X525382Y200370D02*
X523414Y200370D01*
X518821Y197593D02*
X514884Y197593D01*
X514884Y199444*
X515540Y200370*
X518165Y200370*
X518821Y199444*
X518821Y195741*
X518165Y194815*
X515540Y194815*
X514884Y195741*
X153423Y293703D02*
X153423Y304814*
X151783Y296018D01*
X150142Y304814*
X148502Y296018*
X146862Y304814*
X141613Y300647D02*
X142269Y301573D01*
X144893Y301573*
X145550Y300647*
X145550Y296944*
X144893Y296018*
X142269Y296018*
X141613Y296944*
X141613Y300647*
X137676Y296018D02*
X137676Y301573D01*
X137676Y300647D02*
X137020Y301573D01*
X135051Y301573*
X134395Y300647*
X127506Y304814D02*
X127506Y296944D01*
X126849Y296018*
X126193Y296018*
X128490Y301573D02*
X126521Y301573D01*
X121928Y304814D02*
X121928Y296944D01*
X121272Y296018*
X117335Y296018*
X116679Y296944*
X116679Y304814*
X114055Y296018D02*
X114055Y304814D01*
X114055Y300647D02*
X113399Y301573D01*
X110774Y301573*
X110118Y300647*
X110118Y296018*
X106181Y296018D02*
X106181Y301573D01*
X106181Y300647D02*
X105525Y301573D01*
X103556Y301573*
X102900Y300647*
X93058Y293703D02*
X90434Y303888*
X89777Y304814D01*
X86497Y304814*
X85840Y303888*
X85840Y302036*
X86497Y301110*
X90434Y296018*
X85840Y296018*
X77967Y296944D02*
X78623Y296018D01*
X81904Y296018*
X82560Y296944*
X82560Y303888*
X81904Y304814*
X78623Y304814*
X77967Y303888*
X77967Y296944*
X82560Y296944D02*
X77967Y303888D01*
X73538Y296018D02*
X73538Y304814D01*
X74194Y302962*
X70749Y296944D02*
X70749Y299721D01*
X70093Y300647*
X66812Y300647*
X66156Y301573*
X66156Y303888*
X66812Y304814*
X70093Y304814*
X70749Y303888*
X70749Y301573*
X70093Y300647*
X66812Y300647*
X66156Y299721*
X66156Y296944*
X66812Y296018*
X70093Y296018*
X70749Y296944*
X607500Y170000D02*
X604875Y176019*
X602251Y176019D01*
X602251Y173241*
X602907Y172315*
X606844Y172315*
X607500Y173241*
X607500Y180185*
X606844Y181111*
X602907Y181111*
X602251Y180185*
X599626Y172315D02*
X599626Y181111D01*
X594377Y172315*
X594377Y181111*
X591753Y181111D02*
X588472Y181111D01*
X587159Y180185*
X586503Y178333*
X586503Y175093*
X587159Y173241*
X588472Y172315*
X591753Y172315*
X590440Y172315D02*
X590440Y181111D01*
X616250Y41875D02*
X611657Y44190*
X616250Y44190D01*
X616250Y52986*
X604439Y48819D02*
X605095Y49745D01*
X607720Y49745*
X608376Y48819*
X608376Y45116*
X607720Y44190*
X605095Y44190*
X604439Y45116*
X604439Y48819*
X607064Y51134D02*
X607064Y50671D01*
X605752Y50671D02*
X605752Y51134D01*
X598206Y52986D02*
X598206Y45116D01*
X597550Y44190*
X596894Y44190*
X599190Y49745D02*
X597222Y49745D01*
X592629Y45116D02*
X591973Y44190D01*
X589348Y44190*
X588692Y45116*
X588692Y46042*
X589348Y46968*
X591973Y46968*
X592629Y47894*
X592629Y48819*
X591973Y49745*
X589348Y49745*
X588692Y48819*
X584755Y46968D02*
X580818Y46968D01*
X580818Y48819*
X581474Y49745*
X584099Y49745*
X584755Y48819*
X584755Y45116*
X584099Y44190*
X581474Y44190*
X580818Y45116*
X575569Y44190D02*
X575569Y49282D01*
X575569Y52523D02*
X575569Y52986D01*
X575897Y44190D02*
X575241Y44190D01*
X570648Y52986D02*
X570648Y45116D01*
X569992Y44190*
X569336Y44190*
X571632Y49745D02*
X569664Y49745D01*
X565071Y46968D02*
X561134Y46968D01*
X561134Y48819*
X561790Y49745*
X564415Y49745*
X565071Y48819*
X565071Y45116*
X564415Y44190*
X561790Y44190*
X561134Y45116*
X217500Y97500D02*
X214875Y103519*
X212251Y103519D01*
X212251Y100741*
X212907Y99815*
X216844Y99815*
X217500Y100741*
X217500Y107685*
X216844Y108611*
X212907Y108611*
X212251Y107685*
X209626Y99815D02*
X209626Y108611D01*
X204377Y99815*
X204377Y108611*
X201753Y108611D02*
X198472Y108611D01*
X197159Y107685*
X196503Y105833*
X196503Y102593*
X197159Y100741*
X198472Y99815*
X201753Y99815*
X200440Y99815D02*
X200440Y108611D01*
D26*
X-22500Y-25000D02*
X-24744Y-23570*
X-26240Y-25000D01*
X-27986Y-23570*
X-23747Y-20709D02*
X-28484Y-20709D01*
X-23747Y-17848*
X-28484Y-17848*
X-26240Y-14273D02*
X-26739Y-14631D01*
X-26739Y-16061*
X-26240Y-16419*
X-24245Y-16419*
X-23747Y-16061*
X-23747Y-14631*
X-24245Y-14273*
X-26240Y-14273*
X-28484Y-10876D02*
X-24245Y-10876D01*
X-23747Y-10519*
X-23747Y-10161*
X-26739Y-11413D02*
X-26739Y-10340D01*
X-22500Y-04976D02*
X-24245Y-03546*
X-23747Y-03189D01*
X-23747Y-01401*
X-24245Y-01043*
X-25741Y-01043*
X-26240Y-01401*
X-26240Y-03189*
X-26739Y-03546*
X-27986Y-03546*
X-28484Y-03189*
X-28484Y-01401*
X-27986Y-01043*
X-26240Y00744D02*
X-26739Y01102D01*
X-26739Y02532*
X-26240Y02890*
X-23747Y02890*
X-24245Y02890D02*
X-23747Y02890D01*
X-23747Y01102*
X-24245Y00744*
X-24744Y00744*
X-25243Y01102*
X-25243Y02890*
X-26739Y05035D02*
X-23747Y06108D01*
X-26739Y07181*
X-25243Y09326D02*
X-25243Y11471D01*
X-26240Y11471*
X-26739Y11114*
X-26739Y09683*
X-26240Y09326*
X-24245Y09326*
X-23747Y09683*
X-23747Y11114*
X-24245Y11471*
X-26240Y15762D02*
X-26739Y15404D01*
X-26739Y13974*
X-26240Y13616*
X-24245Y13616*
X-23747Y13974*
X-23747Y15404*
X-24245Y15762*
X-23747Y15762D02*
X-28484Y15762D01*
X-24495Y19338D02*
X-26240Y20768D01*
X-27986Y19338*
D25*
X220342Y-30000D02*
X220342Y-27685*
X220342Y-18889D01*
X220342Y-24907D02*
X220670Y-24907D01*
X223623Y-22130*
X220670Y-24907D02*
X223623Y-27685D01*
X228215Y-23056D02*
X228872Y-22130D01*
X231496Y-22130*
X232152Y-23056*
X232152Y-27685*
X232152Y-26759D02*
X232152Y-27685D01*
X228872Y-27685*
X228215Y-26759*
X228215Y-25833*
X228872Y-24907*
X232152Y-24907*
X236089Y-18889D02*
X240682Y-18889D01*
X236745Y-27685*
X243963Y-26759D02*
X244619Y-27685D01*
X247900Y-27685*
X248556Y-26759*
X248556Y-23519*
X247900Y-22593*
X244619Y-22593*
X243963Y-23519*
X243963Y-18889*
X248556Y-18889*
X251837Y-23519D02*
X252493Y-22593D01*
X255774Y-22593*
X256430Y-23519*
X256430Y-26759*
X255774Y-27685*
X252493Y-27685*
X251837Y-26759*
X251837Y-19815*
X252493Y-18889*
X255774Y-18889*
X256430Y-19815*
X259710Y-18889D02*
X264303Y-18889D01*
X260366Y-27685*
X267584Y-26759D02*
X268240Y-27685D01*
X271521Y-27685*
X272177Y-26759*
X272177Y-23519*
X271521Y-22593*
X268240Y-22593*
X267584Y-23519*
X267584Y-18889*
X272177Y-18889*
X280707Y-30000D02*
X283331Y-19815*
X283987Y-18889D01*
X287268Y-18889*
X287924Y-19815*
X287924Y-21667*
X287268Y-22593*
X283331Y-27685*
X287924Y-27685*
X291205Y-18889D02*
X295798Y-18889D01*
X291861Y-27685*
X300063Y-27685D02*
X299899Y-27685D01*
X299899Y-27222*
X300063Y-27222*
X300063Y-27685*
X307609Y-26759D02*
X306953Y-27685D01*
X303672Y-27685*
X303016Y-26759*
X303016Y-19815*
X303672Y-18889*
X306953Y-18889*
X307609Y-19815*
X307609Y-26759*
X303016Y-26759D02*
X307609Y-19815D01*
X310889Y-26759D02*
X311545Y-27685D01*
X314826Y-27685*
X315482Y-26759*
X315482Y-23519*
X314826Y-22593*
X311545Y-22593*
X310889Y-23519*
X310889Y-18889*
X315482Y-18889*
X319747Y-27685D02*
X319583Y-27685D01*
X319583Y-27222*
X319747Y-27222*
X319747Y-27685*
X322700Y-19815D02*
X323356Y-18889D01*
X326637Y-18889*
X327293Y-19815*
X327293Y-21667*
X326637Y-22593*
X322700Y-27685*
X327293Y-27685*
X335167Y-26759D02*
X334511Y-27685D01*
X331230Y-27685*
X330574Y-26759*
X330574Y-19815*
X331230Y-18889*
X334511Y-18889*
X335167Y-19815*
X335167Y-26759*
X330574Y-26759D02*
X335167Y-19815D01*
X339596Y-27685D02*
X339596Y-18889D01*
X338939Y-20741*
X346977Y-22593D02*
X346321Y-23519D01*
X342712Y-23519*
X342384Y-22593*
X342384Y-19815*
X343040Y-18889*
X346321Y-18889*
X346977Y-19815*
X346977Y-26759*
X346321Y-27685*
X343040Y-27685*
X342384Y-26759*
X355507Y-30000D02*
X363381Y-30000*
X367153Y-27685*
X367153Y-18889D01*
X366497Y-20741*
X369942Y-26759D02*
X370598Y-27685D01*
X373879Y-27685*
X374535Y-26759*
X374535Y-23519*
X373879Y-22593*
X370598Y-22593*
X369942Y-23519*
X369942Y-18889*
X374535Y-18889*
X378800Y-27685D02*
X378636Y-27685D01*
X378636Y-27222*
X378800Y-27222*
X378800Y-27685*
X378800Y-23056D02*
X378636Y-23056D01*
X378636Y-22593*
X378800Y-22593*
X378800Y-23056*
X381753Y-26759D02*
X382409Y-27685D01*
X385690Y-27685*
X386346Y-26759*
X386346Y-23519*
X385690Y-22593*
X382409Y-22593*
X381753Y-23519*
X381753Y-18889*
X386346Y-18889*
X389626Y-18889D02*
X394219Y-18889D01*
X390282Y-27685*
X-60000Y-25000D02*
X-71111Y-25000*
X-62315Y-23360D01*
X-71111Y-21719*
X-62315Y-20079*
X-71111Y-18438*
X-65093Y-17126D02*
X-65093Y-13189D01*
X-66944Y-13189*
X-67870Y-13845*
X-67870Y-16470*
X-66944Y-17126*
X-63241Y-17126*
X-62315Y-16470*
X-62315Y-13845*
X-63241Y-13189*
X-63241Y-09253D02*
X-62315Y-08596D01*
X-62315Y-05972*
X-63241Y-05316*
X-64167Y-05316*
X-65093Y-05972*
X-65093Y-08596*
X-66019Y-09253*
X-66944Y-09253*
X-67870Y-08596*
X-67870Y-05972*
X-66944Y-05316*
X-71111Y00918D02*
X-63241Y00918D01*
X-62315Y01574*
X-62315Y02230*
X-67870Y-00067D02*
X-67870Y01902D01*
X-62315Y08463D02*
X-70185Y08463D01*
X-71111Y09119*
X-71111Y09776*
X-67870Y07479D02*
X-67870Y09448D01*
X-66944Y14369D02*
X-67870Y15025D01*
X-67870Y17649*
X-66944Y18306*
X-62315Y18306*
X-63241Y18306D02*
X-62315Y18306D01*
X-62315Y15025*
X-63241Y14369*
X-64167Y14369*
X-65093Y15025*
X-65093Y18306*
X-68333Y15681D02*
X-68796Y15681D01*
X-68333Y16993D02*
X-68796Y16993D01*
X-71111Y23390D02*
X-63241Y23390D01*
X-62315Y23719*
X-62315Y24047*
X-62315Y27491D02*
X-67407Y27491D01*
X-70648Y27491D02*
X-71111Y27491D01*
X-62315Y27163D02*
X-62315Y27819D01*
X-63241Y30116D02*
X-62315Y30772D01*
X-62315Y33397*
X-63241Y34053*
X-64167Y34053*
X-65093Y33397*
X-65093Y30772*
X-66019Y30116*
X-66944Y30116*
X-67870Y30772*
X-67870Y33397*
X-66944Y34053*
X-66944Y41927D02*
X-67870Y41270D01*
X-67870Y38646*
X-66944Y37990*
X-63241Y37990*
X-62315Y38646*
X-62315Y41270*
X-63241Y41927*
X-62315Y45863D02*
X-71111Y45863D01*
X-66944Y45863D02*
X-67870Y46519D01*
X-67870Y49144*
X-66944Y49800*
X-62315Y49800*
X-65093Y53737D02*
X-65093Y57674D01*
X-66944Y57674*
X-67870Y57018*
X-67870Y54393*
X-66944Y53737*
X-63241Y53737*
X-62315Y54393*
X-62315Y57018*
X-63241Y57674*
X-60000Y66860D02*
X-62315Y69484*
X-71111Y69484D01*
X-66944Y69484D02*
X-66944Y74734D01*
X-71111Y74734D02*
X-62315Y74734D01*
X-66944Y81295D02*
X-67870Y80639D01*
X-67870Y78014*
X-66944Y77358*
X-63241Y77358*
X-62315Y78014*
X-62315Y80639*
X-63241Y81295*
X-66944Y81295*
X-66944Y89169D02*
X-67870Y88513D01*
X-67870Y85888*
X-66944Y85232*
X-63241Y85232*
X-62315Y85888*
X-62315Y88513*
X-63241Y89169*
X-62315Y93106D02*
X-71111Y93106D01*
X-66944Y93106D02*
X-67870Y93762D01*
X-67870Y96386*
X-66944Y97043*
X-62315Y97043*
X-63241Y100979D02*
X-62315Y101635D01*
X-62315Y104260*
X-63241Y104916*
X-64167Y104916*
X-65093Y104260*
X-65093Y101635*
X-66019Y100979*
X-66944Y100979*
X-67870Y101635*
X-67870Y104260*
X-66944Y104916*
X-66944Y112790D02*
X-67870Y112134D01*
X-67870Y109509*
X-66944Y108853*
X-63241Y108853*
X-62315Y109509*
X-62315Y112134*
X-63241Y112790*
X-62315Y116727D02*
X-71111Y116727D01*
X-66944Y116727D02*
X-67870Y117383D01*
X-67870Y120007*
X-66944Y120664*
X-62315Y120664*
X-67870Y124600D02*
X-63241Y124600D01*
X-62315Y125256*
X-62315Y127881*
X-63241Y128537*
X-62315Y128537D02*
X-67870Y128537D01*
X-71111Y133622D02*
X-63241Y133622D01*
X-62315Y133950*
X-62315Y134278*
X-65093Y136411D02*
X-65093Y140348D01*
X-66944Y140348*
X-67870Y139692*
X-67870Y137067*
X-66944Y136411*
X-63241Y136411*
X-62315Y137067*
X-62315Y139692*
X-63241Y140348*
X-60000Y149534D02*
X-63241Y157408*
X-62315Y156751D01*
X-62315Y152814*
X-63241Y152158*
X-70185Y152158*
X-71111Y152814*
X-71111Y156751*
X-70185Y157408*
X-66944Y160032D02*
X-67870Y160688D01*
X-67870Y163313*
X-66944Y163969*
X-62315Y163969*
X-63241Y163969D02*
X-62315Y163969D01*
X-62315Y160688*
X-63241Y160032*
X-64167Y160032*
X-65093Y160688*
X-65093Y163969*
X-62315Y167906D02*
X-67870Y167906D01*
X-66944Y167906D02*
X-67870Y168562D01*
X-67870Y169874*
X-66944Y170530*
X-62315Y170530*
X-66944Y170530D02*
X-67870Y171186D01*
X-67870Y172499*
X-66944Y173155*
X-62315Y173155*
X-67870Y175779D02*
X-60000Y175779D01*
X-66944Y175779D02*
X-67870Y176436D01*
X-67870Y179060*
X-66944Y179716*
X-63241Y179716*
X-62315Y179060*
X-62315Y176436*
X-63241Y175779*
X-67870Y183653D02*
X-63241Y183653D01*
X-62315Y184309*
X-62315Y186934*
X-63241Y187590*
X-62315Y187590D02*
X-67870Y187590D01*
X-63241Y191527D02*
X-62315Y192183D01*
X-62315Y194808*
X-63241Y195464*
X-64167Y195464*
X-65093Y194808*
X-65093Y192183*
X-66019Y191527*
X-66944Y191527*
X-67870Y192183*
X-67870Y194808*
X-66944Y195464*
X-60000Y204650D02*
X-62315Y207274*
X-71111Y207274D01*
X-71111Y211867*
X-70185Y212524*
X-67870Y212524*
X-66944Y211867*
X-66944Y207274D02*
X-66944Y211867D01*
X-66019Y212524*
X-63241Y212524*
X-62315Y211867*
X-62315Y207274*
X-66944Y219085D02*
X-67870Y218429D01*
X-67870Y215804*
X-66944Y215148*
X-63241Y215148*
X-62315Y215804*
X-62315Y218429*
X-63241Y219085*
X-66944Y219085*
X-66944Y226959D02*
X-67870Y226302D01*
X-67870Y223678*
X-66944Y223022*
X-63241Y223022*
X-62315Y223678*
X-62315Y226302*
X-63241Y226959*
X-62315Y230895D02*
X-71111Y230895D01*
X-66944Y230895D02*
X-67870Y231551D01*
X-67870Y234176*
X-66944Y234832*
X-62315Y234832*
X-66944Y242706D02*
X-67870Y242050D01*
X-67870Y239425*
X-66944Y238769*
X-63241Y238769*
X-62315Y239425*
X-62315Y242050*
X-63241Y242706*
X-66944Y242706*
X-71111Y247791D02*
X-63241Y247791D01*
X-62315Y248119*
X-62315Y248447*
X-71111Y252876D02*
X-63241Y252876D01*
X-62315Y253532*
X-62315Y254188*
X-67870Y251892D02*
X-67870Y253860D01*
X-47870Y-20407D02*
X-47870Y-25000D01*
X-56667Y-25000*
X-52500Y-17126D02*
X-53426Y-16470D01*
X-53426Y-13845*
X-52500Y-13189*
X-47870Y-13189*
X-48796Y-13189D02*
X-47870Y-13189D01*
X-47870Y-16470*
X-48796Y-17126*
X-49722Y-17126*
X-50648Y-16470*
X-50648Y-13189*
X-47870Y-09253D02*
X-56667Y-09253D01*
X-52500Y-09253D02*
X-53426Y-08596D01*
X-53426Y-05972*
X-52500Y-05316*
X-48796Y-05316*
X-47870Y-05972*
X-47870Y-08596*
X-48796Y-09253*
X-52500Y02558D02*
X-53426Y01902D01*
X-53426Y-00723*
X-52500Y-01379*
X-48796Y-01379*
X-47870Y-00723*
X-47870Y01902*
X-48796Y02558*
X-52500Y02558*
X-47870Y06495D02*
X-53426Y06495D01*
X-52500Y06495D02*
X-53426Y07151D01*
X-53426Y09119*
X-52500Y09776*
X-45555Y19618D02*
X-47870Y22242*
X-56667Y22242D01*
X-56667Y26835*
X-55741Y27492*
X-53426Y27492*
X-52500Y26835*
X-52500Y22242*
X-52500Y26179D02*
X-52500Y26835D01*
X-47870Y27492*
X-56667Y30116D02*
X-56667Y35365D01*
X-56667Y32741D02*
X-47870Y32741D01*
D27*
X286250Y287750D03*
X239250Y227750D03*
X57500Y245000D03*
X271250Y80750D03*
X375000Y12500D03*
X225250Y357750D03*
X608250Y292278D03*
X427500Y332500D03*
X181250Y85750D03*
X20250Y56750D03*
X346250Y364278D03*
X273250Y342278D03*
X520000Y317500D03*
X16250Y49750D03*
X187500Y202500D03*
X603250Y386278D03*
X258250Y387750D03*
X52250Y381278D03*
X239500Y332500D03*
X310000Y342500D03*
X396250Y363750D03*
X237250Y371750D03*
X18250Y174545D03*
X608250Y197545D03*
X168250Y177545D03*
X559250Y234750D03*
X18250Y159545D03*
X611250Y164545D03*
X345000Y145000D03*
X570250Y237750D03*
X170250Y193545D03*
X20250Y18750D03*
X357500Y355000D03*
X261250Y239545D03*
X180250Y153545D03*
X160000Y210000D03*
X246250Y215545D03*
X365250Y207750D03*
X293250Y214750D03*
X365250Y195545D03*
X39250Y326750D03*
X265250Y29750D03*
X270250Y67750D03*
X282250Y79750D03*
X500000Y22500D03*
X262250Y173545D03*
X460000Y162500D03*
X197500Y227500D03*
X210250Y07750D03*
X500250Y42750D03*
X296250Y81750D03*
X603250Y378278D03*
X250250Y384750D03*
X41250Y372750D03*
X609250Y339278D03*
X242250Y377750D03*
X41250Y337750D03*
X603250Y371278D03*
M02*
