G70*
%FSLAX55Y55*%
%ADD11C,0.07874*%
%ADD12C,0.03937*%
%ADD13C,0.01575*%
%ADD14C,0.00945*%
%ADD15C,0.01969*%
%ADD16R,0.06500X0.06500*%
%ADD17C,0.06500*%
%ADD18R,0.13000X0.09000*%
%ADD19C,0.11800*%
%ADD20C,0.00984*%
%ADD21R,0.05992X0.03000*%
%ADD22R,0.06000X0.06000*%
%ADD23C,0.06000*%
%ADD24O,0.09100X0.16974*%
%ADD25O,0.16974X0.09100*%
%ADD26C,0.08700*%
%ADD27R,0.13858X0.06772*%
%ADD28R,0.14000X0.05000*%
%ADD29R,0.32992X0.41299*%
%ADD30R,0.15748X0.11811*%
%ADD31C,0.00100*%
%ADD32C,0.06000*%
%ADD33C,0.01181*%
%ADD34C,0.00591*%
%ADD35P,0.06061X8X22.500*%
D11*
X355250Y160000D02*
X355250Y161186D01*
X368109Y174045*
X381120Y174045*
X355250Y160000D02*
X355204Y158124D01*
X355250Y160000D02*
X355085Y159835D01*
D12*
X353694Y158444D02*
X342137Y170000D01*
X327500Y170000*
X362500Y25000D02*
X362500Y24570D01*
X375000Y24570*
D11*
X376969Y24570D02*
X390430Y24570D01*
X414120Y35250D02*
X401109Y35250D01*
X390430Y24570*
X388191Y16079D02*
X388191Y22391D01*
X390430Y24570*
X417052Y297418D02*
X416970Y297500D01*
X416970Y307049*
D12*
X392500Y307500D02*
X407008Y307500D01*
D11*
X407457Y307049D02*
X407457Y307049D01*
X416970Y307049*
X441870Y318028D02*
X438520Y318028D01*
X427500Y307049*
X416970Y307049*
D13*
X310000Y342500D02*
X315000Y342500D01*
X322303Y349803*
X350197Y349803*
X352218Y347782*
D14*
X352441Y347559D02*
X352500Y347500D01*
X377500Y347500*
X387500Y337500*
X387500Y330000*
D13*
X387815Y330000D02*
X392500Y330000D01*
X286250Y65000D02*
X323881Y65000D01*
X328881Y60000*
X347500Y60000*
X352500Y55000*
X352500Y42151*
X354651Y40000*
X362500Y40000*
X286250Y65000D02*
X286250Y56750D01*
X275250Y56750D02*
X275250Y60250D01*
X280000Y65000*
X286250Y65000*
X603250Y386278D02*
X603549Y386577D01*
X623266Y386577*
X52250Y381278D02*
X57250Y381278D01*
X66250Y390278*
X258250Y390278*
X258250Y387750*
D12*
X450195Y77128D02*
X427573Y99750D01*
X358329Y99750*
X335707Y77128*
X450195Y77128D02*
X524683Y77128D01*
X398061Y215561D02*
X383077Y230545D01*
X323250Y230545*
D13*
X503187Y214923D02*
X496565Y221545D01*
X415321Y221545*
X408699Y214923*
X282715Y356656D02*
X288140Y362081D01*
X327912Y362081*
X331243Y358750*
X353250Y358750*
X358250Y363750*
X370250Y363750*
X377203Y356797*
X377203Y356656*
X125234Y214923D02*
X107407Y232750D01*
X48573Y232750*
X30746Y214923*
X314211Y214923D02*
X308833Y209545D01*
X278250Y209545*
X266250Y221545*
X226344Y221545*
X219722Y214923*
X338250Y371528D02*
X284472Y371528D01*
X283250Y372750*
X237250Y372750*
X237250Y371750*
X345707Y77128D02*
X363329Y94750D01*
X422573Y94750*
X440195Y77128*
D12*
X327500Y162500D02*
X340169Y162500D01*
X345000Y157669*
X345000Y145000*
X623266Y166104D02*
X611250Y166104D01*
X611250Y164545*
X05156Y166104D02*
X11396Y166104D01*
X17955Y159545*
X18250Y159545*
D13*
X240250Y191545D02*
X251250Y191545D01*
X327500Y185000D02*
X318513Y185000D01*
X317500Y186013*
X317500Y191381*
X306381Y202500*
X262205Y202500*
X251250Y191545*
X392500Y322500D02*
X385000Y322500D01*
X382500Y325000*
X382500Y337500*
X375000Y345000*
X326119Y345000*
X315397Y334278*
X313750Y334278*
X559250Y234750D02*
X559250Y232750D01*
X587045Y232750*
X593250Y226545*
X610069Y226545*
X623266Y213348*
X05156Y181852D02*
X15648Y181852D01*
X17795Y179705*
X17795Y175000*
X18250Y174545*
X623250Y197600D02*
X608250Y197600D01*
X608250Y197545*
X101250Y191545D02*
X95250Y197545D01*
X24578Y197545*
X14250Y207873*
X14250Y220002*
X05156Y229096*
X05156Y244844D02*
X05156Y245000D01*
X57500Y245000*
X623250Y181852D02*
X614943Y181852D01*
X601659Y195136*
X601659Y198955*
X614250Y211545*
X614250Y217545*
X610250Y221545*
X604297Y221545*
X597675Y214923*
X566179Y356656D02*
X560281Y362553D01*
X477589Y362553*
X471691Y356656*
X170250Y193545D02*
X170045Y193545D01*
X150045Y173545*
X35250Y173545*
X18250Y190545*
X18250Y200254*
X05156Y213348*
X623266Y229096D02*
X618817Y233545D01*
X599250Y233545*
X595045Y237750*
X570250Y237750*
X114250Y191545D02*
X122250Y191545D01*
X133205Y202500*
X187500Y202500*
X274750Y229045D02*
X239250Y229045D01*
X239250Y227750*
D12*
X375000Y12500D02*
X370000Y17500D01*
X362500Y17500*
X05156Y28309D02*
X10691Y28309D01*
X20250Y18750*
D13*
X05156Y59805D02*
X12695Y59805D01*
X15000Y57500*
X15000Y50000*
X15250Y49750*
X16250Y49750*
X05156Y44057D02*
X29171Y44057D01*
X62242Y77128*
X05156Y75553D02*
X05156Y73311D01*
X20250Y58216*
X20250Y56750*
X272750Y90750D02*
X255250Y90750D01*
X252250Y93750*
X189250Y93750*
X181250Y85750*
X05156Y91301D02*
X13699Y91301D01*
X17500Y87500*
X17500Y82500*
X15250Y80250*
X15250Y68215*
X29215Y54250*
X29500Y54250*
X89250Y53750D02*
X98000Y45000D01*
X180000Y45000*
X182500Y47500*
X227500Y47500*
X240000Y60000*
X256789Y60000*
X259289Y62500*
X271465Y62500*
X278965Y70000*
X322500Y70000*
X327500Y65000*
X350000Y65000*
X357500Y57500*
X372500Y57500*
X375000Y55000*
X375000Y50000*
X372500Y47500*
X362500Y47500*
D12*
X390500Y371528D02*
X358719Y371528D01*
X483250Y356656D02*
X556179Y356656D01*
X576179Y356656D02*
X566085Y366750D01*
X471785Y366750*
X461691Y356656*
X437872Y356656*
X420250Y374278*
X393250Y374278*
X390500Y371528*
X483250Y356656D02*
X481691Y356656D01*
X387203Y356656D02*
X387203Y368230D01*
X390500Y371528*
X483250Y356656D02*
X476872Y350278D01*
X434250Y350278*
X415250Y369278*
X399250Y369278*
X396250Y366278*
X396250Y363750*
X261219Y69750D02*
X261219Y77128D01*
X146730Y77128D02*
X72242Y77128D01*
X146730Y77128D02*
X163858Y60000D01*
X182500Y60000*
X190000Y52500*
X197303Y52500*
X197500Y52303*
X226803Y52303*
X239500Y65000*
X256500Y65000*
X261219Y69719*
X261219Y69750*
X270250Y69750*
X271250Y70750*
X280250Y79750*
X282250Y79750*
X282250Y101903*
X278403Y105750*
X273219Y105750*
X475537Y35250D02*
X487250Y35250D01*
X500000Y22500*
X114250Y151545D02*
X125250Y162545D01*
X182250Y162545*
X193250Y151545*
X240250Y151545*
X262250Y173545D02*
X240250Y151545D01*
X442537Y174045D02*
X453455Y174045D01*
X460000Y167500*
X460000Y162500*
X202146Y222500D02*
X209722Y214923D01*
X20746Y214923D02*
X43573Y237750D01*
X112407Y237750*
X135234Y214923*
X146856Y226545*
X198100Y226545*
X202146Y222500*
D13*
X202146Y222854D01*
X197500Y227500*
X93738Y356656D02*
X98833Y361750D01*
X107500Y361750*
X116250Y353000*
X163972Y353000*
X174722Y363750*
X181132Y363750*
X188226Y356656*
D12*
X274281Y244045D02*
X267089Y244045D01*
X262589Y239545*
X261250Y239545*
X427500Y332500D02*
X427500Y333278D01*
X427643Y333135*
X417441Y323012*
X410661Y323012*
X402669Y315000*
X392500Y315000*
D13*
X313750Y294278D02*
X313750Y292363D01*
D12*
X623266Y292089D02*
X609439Y292089D01*
X609250Y292278*
X608250Y292278*
X292715Y356656D02*
X292715Y352715D01*
X275000Y335000*
X255000Y335000*
X250000Y340000*
X503287Y318028D02*
X520000Y318028D01*
X520000Y317500*
X273250Y342278D02*
X273250Y356734D01*
X272793Y356734*
D13*
X603250Y371278D02*
X603250Y369250D01*
X617419Y355081*
X623266Y355081*
D12*
X225250Y352500D02*
X225250Y357750D01*
X83738Y356656D02*
X92833Y365750D01*
X110000Y365750*
X119000Y356750*
X158250Y356750*
X169250Y367750*
X187132Y367750*
X198226Y356656*
X103738Y356656D02*
X111394Y349000D01*
X167344Y349000*
X175000Y356656*
X178226Y356656*
D13*
X89250Y191545D02*
X95795Y185000D01*
X120000Y185000*
X134803Y199803*
X180197Y199803*
X182500Y197500*
X227500Y197500*
X240000Y210000*
X272500Y210000*
X276000Y206500*
X311000Y206500*
X325000Y192500*
X327500Y192500*
D12*
X198226Y356656D02*
X205321Y363750D01*
X239250Y363750*
X244250Y368750*
X258778Y368750*
X270872Y356656*
X272715Y356656*
X178226Y356656D02*
X184882Y350000D01*
X202500Y350000*
X205000Y352500*
X225250Y352500*
X367203Y356656D02*
X367203Y355000D01*
X357500Y355000*
X265250Y16750D02*
X275250Y16750D01*
X544683Y77128D02*
X537305Y69750D01*
X437573Y69750*
X430195Y77128*
X225250Y352500D02*
X237500Y352500D01*
X250000Y340000*
X430195Y77128D02*
X429872Y77128D01*
X417250Y89750*
X368329Y89750*
X355707Y77128*
X320250Y229045D02*
X321750Y229045D01*
X355707Y77128D02*
X348329Y69750D01*
X330250Y69750*
X318250Y81750*
X296250Y81750*
D13*
X322500Y32500D02*
X362500Y32500D01*
D12*
X324211Y230545D02*
X324211Y214923D01*
X05156Y12561D02*
X16439Y12561D01*
X22250Y06750*
X209250Y06750*
X210250Y07750*
X250000Y340000D02*
X242500Y347500D01*
X232500Y337500*
X196722Y337500*
X192500Y333278*
D13*
X286250Y16750D02*
X293137Y09863D01*
X322500Y09863*
X322500Y32500*
D12*
X388191Y41512D02*
X379008Y32250D01*
X372669Y32250*
X362500Y32500*
X388191Y41512D02*
X404508Y57750D01*
X485250Y57750*
X500250Y42750*
X271250Y80750D02*
X271250Y83750D01*
X270250Y84750*
X248841Y84750*
X241219Y77128*
X228596Y89750*
X199250Y89750*
X186628Y77128*
X172500Y77128*
X166730Y77128D02*
X172500Y77128D01*
X270250Y67750D02*
X271250Y67750D01*
X271250Y70750*
X05156Y150356D02*
X20439Y150356D01*
X26250Y144545*
X172045Y144545*
X180250Y152750*
X180250Y153545*
X265250Y29750D02*
X265250Y16750D01*
X320250Y229045D02*
X295219Y229045D01*
X398061Y215561D02*
X398699Y214923D01*
X251250Y151545D02*
X252205Y152500D01*
X272793Y356734D02*
X282140Y366081D01*
X334447Y366081*
X336250Y364278*
X346250Y364278*
X40746Y214923D02*
X54368Y228545D01*
X101612Y228545*
X115234Y214923*
X338719Y386528D02*
X343903Y386528D01*
X346250Y384180*
X346250Y364278*
X115234Y214923D02*
X122407Y207750D01*
X147077Y207750*
X154250Y214923*
X160000Y214923*
X160000Y210000*
X160000Y214923D02*
X198872Y214923D01*
X206250Y207545*
X222344Y207545*
X229722Y214923*
X230344Y215545*
X246250Y215545*
X304211Y214923D02*
X293250Y214923D01*
X293250Y214750*
X210591Y317972D02*
X210591Y297500D01*
X607675Y214923D02*
X587297Y194545D01*
X555455Y194545*
X623266Y150356D02*
X599644Y150356D01*
X590000Y160000*
X575000Y160000*
X555455Y179545*
X555455Y194545*
X513565Y194545*
X493187Y214923*
X418699Y214923D02*
X493187Y214923D01*
X192500Y333278D02*
X194722Y333278D01*
X210028Y317972*
X210591Y317972*
X418699Y214923D02*
X411321Y207545D01*
X365250Y207545*
X365250Y207750*
X365250Y195545D02*
X354246Y184541D01*
X355191Y183557*
X327500Y177500D02*
X340000Y177500D01*
X346037Y183557*
X355191Y183557*
X192500Y333278D02*
X82500Y333278D01*
D13*
X623266Y323585D02*
X599943Y323585D01*
X585250Y338278*
X390250Y338278*
X378528Y350000*
X355000Y350000*
X350000Y355000*
X330000Y355000*
X327500Y357500*
X307500Y357500*
X300000Y350000*
X295289Y350000*
X275289Y330000*
X242000Y330000*
X239500Y332500*
D12*
X287500Y177500D02*
X327500Y177500D01*
X223189Y317972D02*
X210591Y317972D01*
X251250Y151545D02*
X287500Y151545D01*
X287500Y152500*
X287500Y154863*
X287500Y162500*
X287500Y177500*
X82500Y333278D02*
X82500Y317500D01*
X587675Y214923D02*
X586872Y214923D01*
X574250Y227545*
X525809Y227545*
X513187Y214923*
D13*
X623266Y370829D02*
X611699Y370829D01*
X604250Y378278*
X603250Y378278*
D12*
X140000Y14250D02*
X140000Y13750D01*
X259250Y13750*
X262250Y16750*
X265250Y16750*
X52242Y77128D02*
X58864Y83750D01*
X160108Y83750*
X166730Y77128*
X39250Y326750D02*
X44250Y326750D01*
X50778Y333278*
X82500Y333278*
D13*
X250250Y384750D02*
X177778Y384750D01*
X175250Y387278*
X67250Y387278*
X52722Y372750*
X41250Y372750*
D12*
X182500Y105000D02*
X172500Y95000D01*
X172500Y77128*
X392500Y315000D02*
X375000Y315000D01*
X354278Y294278*
X352500Y294278*
D13*
X623266Y339333D02*
X609305Y339333D01*
X609250Y339278*
D12*
X293219Y90750D02*
X322085Y90750D01*
X335707Y77128*
X392500Y300000D02*
X402669Y300000D01*
X405000Y297669*
X405000Y286278*
X623266Y307837D02*
X609809Y307837D01*
X588250Y286278*
X405000Y286278*
X513187Y214923D02*
X502557Y225553D01*
X408053Y225553*
X398061Y215561*
D13*
X242250Y377750D02*
X239250Y380750D01*
X201250Y380750*
X195250Y374750*
X140778Y374750*
X139250Y376278*
X90778Y376278*
X68250Y353750*
X68250Y346750*
X59250Y337750*
X41250Y337750*
D12*
X272793Y356734D02*
X272715Y356656D01*
D13*
X156730Y77128D02*
X163858Y70000D01*
X180000Y70000*
X193697Y56303*
X222303Y56303*
X236000Y70000*
X244091Y70000*
X251219Y77128*
D12*
X352500Y294278D02*
X339278Y294278D01*
X313750Y294278*
X352500Y294278D02*
X352500Y307500D01*
X352500Y315000*
D13*
X05156Y197600D02*
X35211Y167545D01*
X158250Y167545*
X168250Y177545*
D12*
X405000Y286278D02*
X287722Y286278D01*
X286250Y287750*
D15*
G36*
X377409Y45716D02*
X375846Y44154D01*
G75*
G02X373461Y42866I-03347J03347*
G03X373445Y42847I00004J-00019*
G01X373445Y33555*
X351555Y33555*
X351555Y36412*
G75*
G03X351548Y36427I-00020J00000*
G02X351305Y36654I03109J03578*
G01X349154Y38805*
G75*
G02X347767Y42160I03347J03347*
G01X347767Y53031*
G75*
G03X347762Y53045I-00020J00000*
G01X345545Y55262*
G75*
G03X345531Y55267I-00014J-00014*
G01X328890Y55267*
G75*
G02X325534Y56654I-00008J04733*
G01X321926Y60262*
G75*
G03X321912Y60267I-00014J-00014*
G01X292560Y60267*
G75*
G03X292543Y60238I00000J-00020*
G02X280765Y52093I-06293J-03488*
G03X280735Y52093I-00015J-00013*
G02X268124Y57745I-05485J04657*
G03X268104Y57767I-00019J00003*
G01X261258Y57767*
G75*
G03X261244Y57762I-00000J-00020*
G01X260136Y56654*
G75*
G02X256781Y55267I-03347J03347*
G01X241969Y55267*
G75*
G03X241955Y55262I-00000J-00020*
G01X239933Y53240*
G75*
G03X239928Y53226I00014J-00014*
G01X239928Y44895*
G75*
G03X239929Y44888I00020J00000*
G02X239929Y38612I-07680J-03138*
G03X239928Y38605I00018J-00007*
G01X239928Y19683*
G75*
G03X239947Y19664I00020J00000*
G01X256792Y19664*
G75*
G03X256806Y19670I00000J00020*
G01X258064Y20927*
G75*
G02X259326Y21890I04188J-04179*
G03X259336Y21908I-00010J00017*
G01X259336Y26116*
G75*
G03X259330Y26130I-00020J00000*
G01X258505Y26956*
X258505Y32544*
X262456Y36495*
X268044Y36495*
X271995Y32544*
X271995Y26956*
X271170Y26130*
G75*
G03X271164Y26116I00014J-00014*
G01X271164Y22710*
G75*
G03X271195Y22694I00020J00000*
G02X282445Y16728I04055J-05944*
G02X271156Y10833I-07195J00023*
G03X271145Y10836I-00011J-00016*
G01X264708Y10836*
G75*
G03X264694Y10830I-00000J-00020*
G01X263436Y09573*
G75*
G02X259250Y07836I-04186J04178*
G01X239947Y07836*
G75*
G03X239928Y07817I00000J-00020*
G01X239928Y06130*
G75*
G03X239947Y06111I00020J00000*
G01X371803Y06111*
G75*
G03X371817Y06144I00000J00020*
G01X368255Y09706*
X368255Y10874*
G75*
G03X368249Y10888I-00020J00000*
G01X368088Y11049*
G75*
G03X368074Y11055I-00014J-00014*
G01X351555Y11055*
X351555Y31445*
X371139Y31445*
G75*
G03X371149Y31448I-00000J00020*
G02X375000Y32453I03851J-06878*
G01X377423Y32453*
G75*
G03X377443Y32472I00000J00020*
G01X377443Y45702*
G75*
G03X377409Y45716I-00020J00000*
G37*
G01X375846Y44154*
G75*
G02X373461Y42866I-03347J03347*
G03X373445Y42847I00004J-00019*
G01X373445Y33555*
X351555Y33555*
X351555Y36412*
G75*
G03X351548Y36427I-00020J00000*
G02X351305Y36654I03109J03578*
G01X349154Y38805*
G75*
G02X347767Y42160I03347J03347*
G01X347767Y53031*
G75*
G03X347762Y53045I-00020J00000*
G01X345545Y55262*
G75*
G03X345531Y55267I-00014J-00014*
G01X328890Y55267*
G75*
G02X325534Y56654I-00008J04733*
G01X321926Y60262*
G75*
G03X321912Y60267I-00014J-00014*
G01X292560Y60267*
G75*
G03X292543Y60238I00000J-00020*
G02X280765Y52093I-06293J-03488*
G03X280735Y52093I-00015J-00013*
G02X268124Y57745I-05485J04657*
G03X268104Y57767I-00019J00003*
G01X261258Y57767*
G75*
G03X261244Y57762I-00000J-00020*
G01X260136Y56654*
G75*
G02X256781Y55267I-03347J03347*
G01X241969Y55267*
G75*
G03X241955Y55262I-00000J-00020*
G01X239933Y53240*
G75*
G03X239928Y53226I00014J-00014*
G01X239928Y44895*
G75*
G03X239929Y44888I00020J00000*
G02X239929Y38612I-07680J-03138*
G03X239928Y38605I00018J-00007*
G01X239928Y19683*
G75*
G03X239947Y19664I00020J00000*
G01X256792Y19664*
G75*
G03X256806Y19670I00000J00020*
G01X258064Y20927*
G75*
G02X259326Y21890I04188J-04179*
G03X259336Y21908I-00010J00017*
G01X259336Y26116*
G75*
G03X259330Y26130I-00020J00000*
G01X258505Y26956*
X258505Y32544*
X262456Y36495*
X268044Y36495*
X271995Y32544*
X271995Y26956*
X271170Y26130*
G75*
G03X271164Y26116I00014J-00014*
G01X271164Y22710*
G75*
G03X271195Y22694I00020J00000*
G02X282445Y16728I04055J-05944*
G02X271156Y10833I-07195J00023*
G03X271145Y10836I-00011J-00016*
G01X264708Y10836*
G75*
G03X264694Y10830I-00000J-00020*
G01X263436Y09573*
G75*
G02X259250Y07836I-04186J04178*
G01X239947Y07836*
G75*
G03X239928Y07817I00000J-00020*
G01X239928Y06130*
G75*
G03X239947Y06111I00020J00000*
G01X371803Y06111*
G75*
G03X371817Y06144I00000J00020*
G01X368255Y09706*
X368255Y10874*
G75*
G03X368249Y10888I-00020J00000*
G01X368088Y11049*
G75*
G03X368074Y11055I-00014J-00014*
G01X351555Y11055*
X351555Y31445*
X371139Y31445*
G75*
G03X371149Y31448I-00000J00020*
G02X375000Y32453I03851J-06878*
G01X377423Y32453*
G75*
G03X377443Y32472I00000J00020*
G01X377443Y45702*
G75*
G03X377409Y45716I-00020J00000*
G36*
G01X342889Y200714D02*
G75*
G02X335674Y206791I02819J10666D01*
G03X335656Y206803I-00018J-00008*
G01X317438Y206803*
G75*
G03X317424Y206769I00000J-00020*
G01X325242Y198951*
G75*
G03X325256Y198945I00014J00014*
G01X338445Y198945*
X338445Y178555*
X316555Y178555*
X316555Y180679*
G75*
G03X316543Y180697I-00020J00000*
G02X315166Y181654I01970J04305*
G01X314154Y182666*
G75*
G02X312767Y186021I03347J03347*
G01X312767Y189412*
G75*
G03X312762Y189426I-00020J00000*
G01X304426Y197762*
G75*
G03X304412Y197767I-00014J-00014*
G01X264173Y197767*
G75*
G03X264159Y197762I-00000J-00020*
G01X258435Y192037*
G75*
G03X258429Y192022I00014J-00014*
G02X245836Y186806I-07179J-00477*
G03X245821Y186813I-00015J-00013*
G01X245679Y186813*
G75*
G03X245664Y186806I00000J-00020*
G02X233055Y191545I-05414J04739*
G02X245664Y196285I07195J00000*
G03X245679Y196278I00015J00013*
G01X245821Y196278*
G75*
G03X245836Y196285I00000J00020*
G02X251727Y198725I05414J-04740*
G03X251742Y198730I00001J00020*
G01X258245Y205234*
G75*
G03X258231Y205267I-00014J00014*
G01X241969Y205267*
G75*
G03X241955Y205262I-00000J-00020*
G01X230846Y194154*
G75*
G02X227491Y192767I-03347J03347*
G01X216262Y192767*
G75*
G03X216243Y192748I00000J-00020*
G01X216243Y157479*
G75*
G03X216262Y157459I00020J00000*
G01X236145Y157459*
G75*
G03X236156Y157463I-00000J00020*
G02X238961Y158624I04094J-05919*
G03X238971Y158629I-00004J00019*
G01X255499Y175158*
G75*
G03X255505Y175171I-00014J00014*
G01X255505Y176339*
X259456Y180291*
X265044Y180291*
X268995Y176339*
X268995Y170751*
X265044Y166800*
X263876Y166800*
G75*
G03X263862Y166794I-00000J-00020*
G01X247334Y150266*
G75*
G03X247329Y150256I00014J-00014*
G02X236156Y145628I-07079J01290*
G03X236145Y145631I-00011J-00016*
G01X216262Y145631*
G75*
G03X216243Y145612I00000J-00020*
G01X216243Y143630*
G75*
G03X216262Y143611I00020J00000*
G01X312500Y143611*
G75*
G02X314992Y143079I-00000J-06112*
G03X315008Y143079I00008J00018*
G02X317500Y143611I02492J-05581*
G01X338235Y143611*
G75*
G03X338255Y143630I00000J00020*
G01X338255Y147794*
X339080Y148620*
G75*
G03X339086Y148634I-00014J00014*
G01X339086Y155211*
G75*
G03X339080Y155225I-00020J00000*
G01X338256Y156049*
G75*
G03X338242Y156055I-00014J-00014*
G01X316555Y156055*
X316555Y176445*
X338445Y176445*
X338445Y175933*
G75*
G03X338465Y175914I00020J00000*
G01X342137Y175914*
G75*
G02X342881Y175867I-00000J-05921*
G03X342903Y175886I00002J00020*
G01X342903Y200695*
G75*
G03X342889Y200714I-00020J00000*
G37*
G02X335674Y206791I02819J10666*
G03X335656Y206803I-00018J-00008*
G01X317438Y206803*
G75*
G03X317424Y206769I00000J-00020*
G01X325242Y198951*
G75*
G03X325256Y198945I00014J00014*
G01X338445Y198945*
X338445Y178555*
X316555Y178555*
X316555Y180679*
G75*
G03X316543Y180697I-00020J00000*
G02X315166Y181654I01970J04305*
G01X314154Y182666*
G75*
G02X312767Y186021I03347J03347*
G01X312767Y189412*
G75*
G03X312762Y189426I-00020J00000*
G01X304426Y197762*
G75*
G03X304412Y197767I-00014J-00014*
G01X264173Y197767*
G75*
G03X264159Y197762I-00000J-00020*
G01X258435Y192037*
G75*
G03X258429Y192022I00014J-00014*
G02X245836Y186806I-07179J-00477*
G03X245821Y186813I-00015J-00013*
G01X245679Y186813*
G75*
G03X245664Y186806I00000J-00020*
G02X233055Y191545I-05414J04739*
G02X245664Y196285I07195J00000*
G03X245679Y196278I00015J00013*
G01X245821Y196278*
G75*
G03X245836Y196285I00000J00020*
G02X251727Y198725I05414J-04740*
G03X251742Y198730I00001J00020*
G01X258245Y205234*
G75*
G03X258231Y205267I-00014J00014*
G01X241969Y205267*
G75*
G03X241955Y205262I-00000J-00020*
G01X230846Y194154*
G75*
G02X227491Y192767I-03347J03347*
G01X216262Y192767*
G75*
G03X216243Y192748I00000J-00020*
G01X216243Y157479*
G75*
G03X216262Y157459I00020J00000*
G01X236145Y157459*
G75*
G03X236156Y157463I-00000J00020*
G02X238961Y158624I04094J-05919*
G03X238971Y158629I-00004J00019*
G01X255499Y175158*
G75*
G03X255505Y175171I-00014J00014*
G01X255505Y176339*
X259456Y180291*
X265044Y180291*
X268995Y176339*
X268995Y170751*
X265044Y166800*
X263876Y166800*
G75*
G03X263862Y166794I-00000J-00020*
G01X247334Y150266*
G75*
G03X247329Y150256I00014J-00014*
G02X236156Y145628I-07079J01290*
G03X236145Y145631I-00011J-00016*
G01X216262Y145631*
G75*
G03X216243Y145612I00000J-00020*
G01X216243Y143630*
G75*
G03X216262Y143611I00020J00000*
G01X312500Y143611*
G75*
G02X314992Y143079I-00000J-06112*
G03X315008Y143079I00008J00018*
G02X317500Y143611I02492J-05581*
G01X338235Y143611*
G75*
G03X338255Y143630I00000J00020*
G01X338255Y147794*
X339080Y148620*
G75*
G03X339086Y148634I-00014J00014*
G01X339086Y155211*
G75*
G03X339080Y155225I-00020J00000*
G01X338256Y156049*
G75*
G03X338242Y156055I-00014J-00014*
G01X316555Y156055*
X316555Y176445*
X338445Y176445*
X338445Y175933*
G75*
G03X338465Y175914I00020J00000*
G01X342137Y175914*
G75*
G02X342881Y175867I-00000J-05921*
G03X342903Y175886I00002J00020*
G01X342903Y200695*
G75*
G03X342889Y200714I-00020J00000*
G36*
G01X306518Y108889D02*
X290762Y108889D01*
G75*
G03X290743Y108870I00000J-00020*
G01X290743Y89762*
G75*
G03X290762Y89743I00020J00000*
G01X324000Y89743*
G75*
G03X324019Y89762I00000J00020*
G01X324245Y108745*
G75*
G03X324226Y108765I-00020J00000*
G01X306518Y108889*
G37*
X290762Y108889*
G75*
G03X290743Y108870I00000J-00020*
G01X290743Y89762*
G75*
G03X290762Y89743I00020J00000*
G01X324000Y89743*
G75*
G03X324019Y89762I00000J00020*
G01X324245Y108745*
G75*
G03X324226Y108765I-00020J00000*
G01X306518Y108889*
G36*
X408488Y333545D02*
X403465Y333545D01*
G75*
G03X403445Y333525I00000J-00020*
G01X403445Y316055*
X381555Y316055*
X381555Y319244*
G75*
G03X381549Y319258I-00020J00000*
G01X379154Y321654*
G75*
G02X377767Y325009I03347J03347*
G01X377767Y335531*
G75*
G03X377762Y335545I-00020J00000*
G01X373045Y340262*
G75*
G03X373031Y340267I-00014J-00014*
G01X328088Y340267*
G75*
G03X328074Y340262I-00000J-00020*
G01X320839Y333027*
G75*
G03X320834Y333017I00014J-00014*
G02X307261Y331169I-07084J01261*
G03X307226Y331171I-00018J-00009*
G02X297337Y340971I-06226J03607*
G03X297327Y341007I-00010J00017*
G01X292998Y341007*
G75*
G03X292984Y341002I-00000J-00020*
G01X278636Y326654*
G75*
G02X275281Y325267I-03347J03347*
G01X273512Y325267*
G75*
G03X273493Y325248I00000J-00020*
G01X273493Y301439*
G75*
G03X273494Y301431I00020J00000*
G02X273494Y295108I-07669J-03161*
G03X273493Y295101I00018J-00008*
G01X273493Y286130*
G75*
G03X273512Y286111I00020J00000*
G01X279485Y286111*
G75*
G03X279505Y286130I00000J00020*
G01X279505Y290544*
X283456Y294495*
X289044Y294495*
X291342Y292197*
G75*
G03X291356Y292191I00014J00014*
G01X294257Y292191*
G75*
G03X294275Y292218I00000J00020*
G02X307725Y292218I06725J02559*
G03X307743Y292191I00018J-00007*
G01X399067Y292191*
G75*
G03X399086Y292211I00000J00020*
G01X399086Y293535*
G75*
G03X399067Y293555I-00020J00000*
G01X381555Y293555*
X381555Y313945*
X402464Y313945*
G75*
G03X402476Y313949I00000J00020*
G02X408484Y315243I04532J-06449*
G03X408507Y315262I00004J00019*
G01X408507Y333525*
G75*
G03X408488Y333545I-00020J00000*
G37*
G01X403465Y333545*
G75*
G03X403445Y333525I00000J-00020*
G01X403445Y316055*
X381555Y316055*
X381555Y319244*
G75*
G03X381549Y319258I-00020J00000*
G01X379154Y321654*
G75*
G02X377767Y325009I03347J03347*
G01X377767Y335531*
G75*
G03X377762Y335545I-00020J00000*
G01X373045Y340262*
G75*
G03X373031Y340267I-00014J-00014*
G01X328088Y340267*
G75*
G03X328074Y340262I-00000J-00020*
G01X320839Y333027*
G75*
G03X320834Y333017I00014J-00014*
G02X307261Y331169I-07084J01261*
G03X307226Y331171I-00018J-00009*
G02X297337Y340971I-06226J03607*
G03X297327Y341007I-00010J00017*
G01X292998Y341007*
G75*
G03X292984Y341002I-00000J-00020*
G01X278636Y326654*
G75*
G02X275281Y325267I-03347J03347*
G01X273512Y325267*
G75*
G03X273493Y325248I00000J-00020*
G01X273493Y301439*
G75*
G03X273494Y301431I00020J00000*
G02X273494Y295108I-07669J-03161*
G03X273493Y295101I00018J-00008*
G01X273493Y286130*
G75*
G03X273512Y286111I00020J00000*
G01X279485Y286111*
G75*
G03X279505Y286130I00000J00020*
G01X279505Y290544*
X283456Y294495*
X289044Y294495*
X291342Y292197*
G75*
G03X291356Y292191I00014J00014*
G01X294257Y292191*
G75*
G03X294275Y292218I00000J00020*
G02X307725Y292218I06725J02559*
G03X307743Y292191I00018J-00007*
G01X399067Y292191*
G75*
G03X399086Y292211I00000J00020*
G01X399086Y293535*
G75*
G03X399067Y293555I-00020J00000*
G01X381555Y293555*
X381555Y313945*
X402464Y313945*
G75*
G03X402476Y313949I00000J00020*
G02X408484Y315243I04532J-06449*
G03X408507Y315262I00004J00019*
G01X408507Y333525*
G75*
G03X408488Y333545I-00020J00000*
G36*
G01X292232Y244779D02*
X292003Y223050D01*
G75*
G03X292023Y223030I00020J-00000*
G01X322394Y222791*
G75*
G03X322406Y222795I00000J00020*
G01X334124Y232316*
G75*
G02X334770Y232538I00626J-00771*
G01X345987Y232309*
G75*
G03X346007Y232328I00000J00020*
G01X346007Y244538*
G75*
G03X345988Y244557I-00020J00000*
G01X292252Y244798*
G75*
G03X292232Y244779I-00000J-00020*
G37*
G01X292003Y223050*
G75*
G03X292023Y223030I00020J-00000*
G01X322394Y222791*
G75*
G03X322406Y222795I00000J00020*
G01X334124Y232316*
G75*
G02X334770Y232538I00626J-00771*
G01X345987Y232309*
G75*
G03X346007Y232328I00000J00020*
G01X346007Y244538*
G75*
G03X345988Y244557I-00020J00000*
G01X292252Y244798*
G75*
G03X292232Y244779I-00000J-00020*
G36*
G01X344817Y376020D02*
X347238Y376020D01*
G75*
G03X347257Y376040I00000J00020*
G01X347257Y384382*
G75*
G03X347252Y384395I-00020J-00000*
G01X344521Y387354*
G75*
G02X344265Y387903I00730J00673*
G01X344142Y388872*
G75*
G03X344123Y388889I-00020J-00002*
G01X301012Y388889*
G75*
G03X300993Y388870I00000J-00020*
G01X300993Y376280*
G75*
G03X301012Y376260I00020J00000*
G01X330895Y376260*
G75*
G03X330915Y376280I00000J00020*
G01X330915Y376973*
X344798Y376973*
X344798Y376040*
G75*
G03X344817Y376020I00020J00000*
G37*
G01X347238Y376020*
G75*
G03X347257Y376040I00000J00020*
G01X347257Y384382*
G75*
G03X347252Y384395I-00020J-00000*
G01X344521Y387354*
G75*
G02X344265Y387903I00730J00673*
G01X344142Y388872*
G75*
G03X344123Y388889I-00020J-00002*
G01X301012Y388889*
G75*
G03X300993Y388870I00000J-00020*
G01X300993Y376280*
G75*
G03X301012Y376260I00020J00000*
G01X330895Y376260*
G75*
G03X330915Y376280I00000J00020*
G01X330915Y376973*
X344798Y376973*
X344798Y376040*
G75*
G03X344817Y376020I00020J00000*
G36*
G01X279317Y95743D02*
X280754Y95743D01*
G75*
G03X280774Y95762I00000J00020*
G01X280989Y108869*
G75*
G03X280969Y108889I-00020J00000*
G01X245062Y108889*
G75*
G03X245048Y108856I00000J-00020*
G01X258155Y95748*
G75*
G03X258169Y95743I00014J00014*
G01X265395Y95743*
G75*
G03X265415Y95762I00000J00020*
G01X265415Y96195*
X279298Y96195*
X279298Y95762*
G75*
G03X279317Y95743I00020J00000*
G37*
G01X280754Y95743*
G75*
G03X280774Y95762I00000J00020*
G01X280989Y108869*
G75*
G03X280969Y108889I-00020J00000*
G01X245062Y108889*
G75*
G03X245048Y108856I00000J-00020*
G01X258155Y95748*
G75*
G03X258169Y95743I00014J00014*
G01X265395Y95743*
G75*
G03X265415Y95762I00000J00020*
G01X265415Y96195*
X279298Y96195*
X279298Y95762*
G75*
G03X279317Y95743I00020J00000*
G36*
G01X281317Y233812D02*
X284257Y233794D01*
G75*
G03X284277Y233813I00000J00020*
G01X284488Y244794*
G75*
G03X284469Y244814I-00020J00000*
G01X241652Y245298*
G75*
G03X241638Y245293I-00000J-00020*
G01X236187Y240079*
X231445Y235520*
G75*
G03X231458Y235486I00014J-00014*
G01X240771Y235288*
G75*
G02X241084Y235230I-00021J-00993*
G01X244422Y234038*
G75*
G03X244428Y234037I00007J00019*
G01X267395Y233897*
G75*
G03X267415Y233916I00000J00020*
G01X267415Y234491*
X281298Y234491*
X281298Y233831*
G75*
G03X281317Y233812I00020J00000*
G37*
G01X284257Y233794*
G75*
G03X284277Y233813I00000J00020*
G01X284488Y244794*
G75*
G03X284469Y244814I-00020J00000*
G01X241652Y245298*
G75*
G03X241638Y245293I-00000J-00020*
G01X236187Y240079*
X231445Y235520*
G75*
G03X231458Y235486I00014J-00014*
G01X240771Y235288*
G75*
G02X241084Y235230I-00021J-00993*
G01X244422Y234038*
G75*
G03X244428Y234037I00007J00019*
G01X267395Y233897*
G75*
G03X267415Y233916I00000J00020*
G01X267415Y234491*
X281298Y234491*
X281298Y233831*
G75*
G03X281317Y233812I00020J00000*
G36*
G01X372968Y367629D02*
X388307Y367523D01*
G75*
G03X388321Y367530I00000J00020*
G01X396017Y375947*
G75*
G02X396731Y376270I00733J-00670*
G01X409026Y376501*
G75*
G03X409045Y376521I-00000J00020*
G01X409045Y388870*
G75*
G03X409025Y388889I-00020J00000*
G01X353740Y388889*
G75*
G03X353720Y388870I00000J-00020*
G01X353503Y367783*
G75*
G03X353523Y367763I00020J-00000*
G01X355711Y367748*
G75*
G03X355722Y367751I00000J00020*
G02X358259Y368483I02528J-04001*
G01X370241Y368483*
G75*
G02X372956Y367632I00009J-04733*
G03X372968Y367629I00011J00016*
G37*
G01X388307Y367523*
G75*
G03X388321Y367530I00000J00020*
G01X396017Y375947*
G75*
G02X396731Y376270I00733J-00670*
G01X409026Y376501*
G75*
G03X409045Y376521I-00000J00020*
G01X409045Y388870*
G75*
G03X409025Y388889I-00020J00000*
G01X353740Y388889*
G75*
G03X353720Y388870I00000J-00020*
G01X353503Y367783*
G75*
G03X353523Y367763I00020J-00000*
G01X355711Y367748*
G75*
G03X355722Y367751I00000J00020*
G02X358259Y368483I02528J-04001*
G01X370241Y368483*
G75*
G02X372956Y367632I00009J-04733*
G03X372968Y367629I00011J00016*
D16*
X367203Y356656D03*
D17*
X377203Y356656D03*
X387203Y356656D03*
D18*
X623266Y339333D03*
D19*
X82500Y317500D03*
D20*
G36*
G01X337000Y382153D02*
X337000Y375903D01*
X339500Y375903*
X339500Y382153*
X337000Y382153*
G37*
X337000Y375903*
X339500Y375903*
X339500Y382153*
X337000Y382153*
G36*
X357625Y377153D02*
X357625Y370903D01*
X360125Y370903*
X360125Y377153*
X357625Y377153*
G37*
X357625Y370903*
X360125Y370903*
X360125Y377153*
X357625Y377153*
G36*
X357625Y382153D02*
X357625Y375903D01*
X360125Y375903*
X360125Y382153*
X357625Y382153*
G37*
X357625Y375903*
X360125Y375903*
X360125Y382153*
X357625Y382153*
G36*
X357625Y387153D02*
X357625Y380903D01*
X360125Y380903*
X360125Y387153*
X357625Y387153*
G37*
X357625Y380903*
X360125Y380903*
X360125Y387153*
X357625Y387153*
G36*
X337000Y387153D02*
X337000Y380903D01*
X339500Y380903*
X339500Y387153*
X337000Y387153*
G37*
X337000Y380903*
X339500Y380903*
X339500Y387153*
X337000Y387153*
D21*
X337856Y386528D03*
X337856Y381498D03*
X337856Y376528D03*
X337856Y371528D03*
X358644Y371528D03*
X358644Y376528D03*
X358644Y381528D03*
X358644Y386528D03*
D17*
X275250Y56750D03*
X275250Y16750D03*
D22*
X132250Y155045D03*
D23*
X142250Y155045D03*
X152250Y155045D03*
X152250Y185045D03*
X142250Y185045D03*
X132250Y185045D03*
D24*
X235000Y297500D03*
X210591Y297500D03*
D25*
X223189Y317972D03*
D26*
X232250Y41750D03*
X232250Y21750D03*
X535500Y21500D03*
X535500Y41500D03*
X265825Y298270D03*
X265825Y318270D03*
X546750Y305778D03*
X546750Y325778D03*
X204750Y182795D03*
X204750Y162795D03*
X487750Y163545D03*
X487750Y183545D03*
D27*
X417441Y323012D03*
X417441Y297028D03*
X355191Y183557D03*
X355191Y157573D03*
X388191Y41512D03*
X388191Y15528D03*
D28*
X327500Y170000D03*
D29*
X287500Y177500D03*
D28*
X327500Y185000D03*
X327500Y192500D03*
X327500Y177500D03*
X327500Y162500D03*
X362500Y25000D03*
D29*
X322500Y32500D03*
D28*
X362500Y40000D03*
X362500Y47500D03*
X362500Y32500D03*
X362500Y17500D03*
X392500Y307500D03*
D29*
X352500Y315000D03*
D28*
X392500Y322500D03*
X392500Y330000D03*
X392500Y315000D03*
X392500Y300000D03*
D30*
X441870Y318028D03*
X503287Y318028D03*
X381120Y174045D03*
X442537Y174045D03*
X414120Y35250D03*
X475537Y35250D03*
D31*
G36*
X19244Y297893D02*
X17173Y296649D01*
X16363Y303366*
X15581Y295693*
X13278Y294308*
X11288Y304980*
X13645Y306383*
X14597Y299544*
X15304Y307393*
X17492Y308707*
X18257Y301743*
X19137Y309696*
X21469Y311097*
X19244Y297893*
X22061Y299586*
X25316Y297512*
X27600Y298884*
X24344Y300958*
X27151Y302644*
X36770Y296516*
X33963Y294830*
X30200Y297227*
X27917Y295855*
X31680Y293458*
X28863Y291766*
X19244Y297893*
G37*
X17173Y296649*
X16363Y303366*
X15581Y295693*
X13278Y294308*
X11288Y304980*
X13645Y306383*
X14597Y299544*
X15304Y307393*
X17492Y308707*
X18257Y301743*
X19137Y309696*
X21469Y311097*
X19244Y297893*
X22061Y299586*
X25316Y297512*
X27600Y298884*
X24344Y300958*
X27151Y302644*
X36770Y296516*
X33963Y294830*
X30200Y297227*
X27917Y295855*
X31680Y293458*
X28863Y291766*
X19244Y297893*
D32*
X617518Y12010D03*
X583974Y323663D03*
X29407Y99136D03*
D31*
G36*
X47106Y99168D02*
X47106Y96019D01*
X43957Y96019*
X43957Y97200*
X45925Y97200*
X45925Y99168*
X47106Y99168*
G37*
X47106Y96019*
X43957Y96019*
X43957Y97200*
X45925Y97200*
X45925Y99168*
X47106Y99168*
G36*
X51043Y96019D02*
X47894Y96019D01*
X47894Y99168*
X49075Y99168*
X49075Y97200*
X51043Y97200*
X51043Y96019*
G37*
X47894Y96019*
X47894Y99168*
X49075Y99168*
X49075Y97200*
X51043Y97200*
X51043Y96019*
G36*
X47894Y92082D02*
X47894Y95231D01*
X51043Y95231*
X51043Y94050*
X49075Y94050*
X49075Y92082*
X47894Y92082*
G37*
X47894Y95231*
X51043Y95231*
X51043Y94050*
X49075Y94050*
X49075Y92082*
X47894Y92082*
G36*
X43957Y95231D02*
X47106Y95231D01*
X47106Y92082*
X45925Y92082*
X45925Y94050*
X43957Y94050*
X43957Y95231*
G37*
X47106Y95231*
X47106Y92082*
X45925Y92082*
X45925Y94050*
X43957Y94050*
X43957Y95231*
G36*
X589606Y373543D02*
X589606Y370394D01*
X586457Y370394*
X586457Y371575*
X588425Y371575*
X588425Y373543*
X589606Y373543*
G37*
X589606Y370394*
X586457Y370394*
X586457Y371575*
X588425Y371575*
X588425Y373543*
X589606Y373543*
G36*
X593543Y370394D02*
X590394Y370394D01*
X590394Y373543*
X591575Y373543*
X591575Y371575*
X593543Y371575*
X593543Y370394*
G37*
X590394Y370394*
X590394Y373543*
X591575Y373543*
X591575Y371575*
X593543Y371575*
X593543Y370394*
G36*
X590394Y366457D02*
X590394Y369606D01*
X593543Y369606*
X593543Y368425*
X591575Y368425*
X591575Y366457*
X590394Y366457*
G37*
X590394Y369606*
X593543Y369606*
X593543Y368425*
X591575Y368425*
X591575Y366457*
X590394Y366457*
G36*
X586457Y369606D02*
X589606Y369606D01*
X589606Y366457*
X588425Y366457*
X588425Y368425*
X586457Y368425*
X586457Y369606*
G37*
X589606Y369606*
X589606Y366457*
X588425Y366457*
X588425Y368425*
X586457Y368425*
X586457Y369606*
D22*
X49500Y15500D03*
D23*
X59500Y15500D03*
X69500Y15500D03*
X69500Y45500D03*
X59500Y45500D03*
X49500Y45500D03*
D22*
X158500Y20500D03*
D23*
X168500Y20500D03*
X178500Y20500D03*
X178500Y50500D03*
X168500Y50500D03*
X158500Y50500D03*
D22*
X114000Y341278D03*
D23*
X124000Y341278D03*
X134000Y341278D03*
X134000Y371278D03*
X124000Y371278D03*
X114000Y371278D03*
D22*
X209500Y344778D03*
D23*
X219500Y344778D03*
X229500Y344778D03*
X229500Y374778D03*
X219500Y374778D03*
X209500Y374778D03*
D22*
X49500Y153295D03*
D23*
X59500Y153295D03*
X69500Y153295D03*
X69500Y183295D03*
X59500Y183295D03*
X49500Y183295D03*
D17*
X29500Y192045D03*
X29500Y152045D03*
X101250Y191545D03*
X101250Y151545D03*
X89250Y191545D03*
X89250Y151545D03*
X114250Y151545D03*
X114250Y191545D03*
X313750Y294278D03*
X313750Y334278D03*
X301000Y334778D03*
X301000Y294778D03*
X29500Y54250D03*
X29500Y14250D03*
X122750Y54500D03*
X122750Y14500D03*
X89250Y53750D03*
X89250Y13750D03*
X140000Y14250D03*
X140000Y54250D03*
X251250Y151545D03*
X251250Y191545D03*
X71250Y381278D03*
X71250Y341278D03*
X286250Y16750D03*
X286250Y56750D03*
X146250Y381028D03*
X146250Y341028D03*
X240250Y191545D03*
X240250Y151545D03*
X156250Y381028D03*
X156250Y341028D03*
X166250Y341028D03*
X166250Y381028D03*
D20*
G36*
X273500Y239670D02*
X273500Y233420D01*
X276000Y233420*
X276000Y239670*
X273500Y239670*
G37*
X273500Y233420*
X276000Y233420*
X276000Y239670*
X273500Y239670*
G36*
X294125Y234670D02*
X294125Y228420D01*
X296625Y228420*
X296625Y234670*
X294125Y234670*
G37*
X294125Y228420*
X296625Y228420*
X296625Y234670*
X294125Y234670*
G36*
X294125Y239670D02*
X294125Y233420D01*
X296625Y233420*
X296625Y239670*
X294125Y239670*
G37*
X294125Y233420*
X296625Y233420*
X296625Y239670*
X294125Y239670*
G36*
X294125Y244670D02*
X294125Y238420D01*
X296625Y238420*
X296625Y244670*
X294125Y244670*
G37*
X294125Y238420*
X296625Y238420*
X296625Y244670*
X294125Y244670*
G36*
X273500Y244670D02*
X273500Y238420D01*
X276000Y238420*
X276000Y244670*
X273500Y244670*
G37*
X273500Y238420*
X276000Y238420*
X276000Y244670*
X273500Y244670*
D21*
X274356Y244045D03*
X274356Y239015D03*
X274356Y234045D03*
X274356Y229045D03*
X295144Y229045D03*
X295144Y234045D03*
X295144Y239045D03*
X295144Y244045D03*
D20*
G36*
X271500Y101375D02*
X271500Y95125D01*
X274000Y95125*
X274000Y101375*
X271500Y101375*
G37*
X271500Y95125*
X274000Y95125*
X274000Y101375*
X271500Y101375*
G36*
X292125Y96375D02*
X292125Y90125D01*
X294625Y90125*
X294625Y96375*
X292125Y96375*
G37*
X292125Y90125*
X294625Y90125*
X294625Y96375*
X292125Y96375*
G36*
X292125Y101375D02*
X292125Y95125D01*
X294625Y95125*
X294625Y101375*
X292125Y101375*
G37*
X292125Y95125*
X294625Y95125*
X294625Y101375*
X292125Y101375*
G36*
X292125Y106375D02*
X292125Y100125D01*
X294625Y100125*
X294625Y106375*
X292125Y106375*
G37*
X292125Y100125*
X294625Y100125*
X294625Y106375*
X292125Y106375*
G36*
X271500Y106375D02*
X271500Y100125D01*
X274000Y100125*
X274000Y106375*
X271500Y106375*
G37*
X271500Y100125*
X274000Y100125*
X274000Y106375*
X271500Y106375*
D21*
X272356Y105750D03*
X272356Y100720D03*
X272356Y95750D03*
X272356Y90750D03*
X293144Y90750D03*
X293144Y95750D03*
X293144Y100750D03*
X293144Y105750D03*
D19*
X590000Y160000D03*
X182500Y105000D03*
D16*
X11848Y366813D03*
D17*
X21848Y366813D03*
X11848Y356813D03*
X21848Y356813D03*
X11848Y346813D03*
X21848Y346813D03*
X11848Y336813D03*
X21848Y336813D03*
X11848Y326813D03*
X21848Y326813D03*
D18*
X623266Y355081D03*
X623266Y370829D03*
X623266Y386577D03*
X05156Y150356D03*
X05156Y166104D03*
X05156Y181852D03*
X05156Y197600D03*
D16*
X461691Y356656D03*
D17*
X471691Y356656D03*
X481691Y356656D03*
D16*
X556179Y356656D03*
D17*
X566179Y356656D03*
X576179Y356656D03*
D16*
X20746Y214923D03*
D17*
X30746Y214923D03*
X40746Y214923D03*
D16*
X115234Y214923D03*
D17*
X125234Y214923D03*
X135234Y214923D03*
D16*
X209722Y214923D03*
D17*
X219722Y214923D03*
X229722Y214923D03*
D16*
X304211Y214923D03*
D17*
X314211Y214923D03*
X324211Y214923D03*
D18*
X05156Y213348D03*
X05156Y229096D03*
X05156Y244844D03*
X623266Y150356D03*
X623266Y166104D03*
X623250Y181852D03*
X623250Y197600D03*
X623266Y213348D03*
X623266Y229096D03*
X05156Y12561D03*
X05156Y28309D03*
X05156Y44057D03*
X05156Y59805D03*
D16*
X398699Y214923D03*
D17*
X408699Y214923D03*
X418699Y214923D03*
D16*
X493187Y214923D03*
D17*
X503187Y214923D03*
X513187Y214923D03*
D16*
X587675Y214923D03*
D17*
X597675Y214923D03*
X607675Y214923D03*
D16*
X52242Y77128D03*
D17*
X62242Y77128D03*
X72242Y77128D03*
D16*
X146730Y77128D03*
D17*
X156730Y77128D03*
X166730Y77128D03*
D16*
X241219Y77128D03*
D17*
X251219Y77128D03*
X261219Y77128D03*
D16*
X335707Y77128D03*
D17*
X345707Y77128D03*
X355707Y77128D03*
D16*
X430195Y77128D03*
D17*
X440195Y77128D03*
X450195Y77128D03*
D16*
X524683Y77128D03*
D17*
X534683Y77128D03*
X544683Y77128D03*
D16*
X83738Y356656D03*
D17*
X93738Y356656D03*
X103738Y356656D03*
D16*
X178226Y356656D03*
D17*
X188226Y356656D03*
X198226Y356656D03*
D16*
X272715Y356656D03*
D17*
X282715Y356656D03*
X292715Y356656D03*
D18*
X05156Y75553D03*
X05156Y91301D03*
X623266Y292089D03*
X623266Y307837D03*
X623266Y323585D03*
D33*
X137668Y-56111D02*
X137668Y-45000*
X139308Y-53796D01*
X140949Y-45000*
X142589Y-53796*
X144230Y-45000*
X149479Y-49167D02*
X148822Y-48241D01*
X146198Y-48241*
X145542Y-49167*
X145542Y-52870*
X146198Y-53796*
X148822Y-53796*
X149479Y-52870*
X149479Y-49167*
X153415Y-53796D02*
X153415Y-48241D01*
X153415Y-49167D02*
X154071Y-48241D01*
X156040Y-48241*
X156696Y-49167*
X163586Y-45000D02*
X163586Y-52870D01*
X164242Y-53796*
X164898Y-53796*
X162601Y-48241D02*
X164570Y-48241D01*
X169163Y-48241D02*
X169163Y-52870D01*
X169819Y-53796*
X172444Y-53796*
X173100Y-52870*
X173100Y-53796D02*
X173100Y-48241D01*
X177036Y-53796D02*
X177036Y-45000D01*
X177036Y-49167D02*
X177693Y-48241D01*
X180317Y-48241*
X180973Y-49167*
X180973Y-53796*
X184910Y-53796D02*
X184910Y-48241D01*
X184910Y-49167D02*
X185566Y-48241D01*
X187535Y-48241*
X188191Y-49167*
X193440Y-49167D02*
X197377Y-49167D01*
X200657Y-53796D02*
X200657Y-45000D01*
X205251Y-45000*
X205907Y-45926*
X205907Y-48241*
X205251Y-49167*
X200657Y-49167*
X212468Y-49167D02*
X211812Y-48241D01*
X209187Y-48241*
X208531Y-49167*
X208531Y-52870*
X209187Y-53796*
X211812Y-53796*
X212468Y-52870*
X212468Y-49167*
X216405Y-48241D02*
X218045Y-53796D01*
X219686Y-48241*
X221326Y-53796*
X222967Y-48241*
X224279Y-51019D02*
X228216Y-51019D01*
X228216Y-49167*
X227559Y-48241*
X224935Y-48241*
X224279Y-49167*
X224279Y-52870*
X224935Y-53796*
X227559Y-53796*
X228216Y-52870*
X232152Y-53796D02*
X232152Y-48241D01*
X232152Y-49167D02*
X232808Y-48241D01*
X234777Y-48241*
X235433Y-49167*
X240026Y-48241D02*
X240026Y-56111D01*
X240026Y-49167D02*
X240682Y-48241D01*
X243307Y-48241*
X243963Y-49167*
X243963Y-52870*
X243307Y-53796*
X240682Y-53796*
X240026Y-52870*
X249048Y-45000D02*
X249048Y-52870D01*
X249376Y-53796*
X249704Y-53796*
X251837Y-49167D02*
X252493Y-48241D01*
X255117Y-48241*
X255774Y-49167*
X255774Y-53796*
X255774Y-52870D02*
X255774Y-53796D01*
X252493Y-53796*
X251837Y-52870*
X251837Y-51944*
X252493Y-51019*
X255774Y-51019*
X262007Y-45000D02*
X262007Y-52870D01*
X262663Y-53796*
X263319Y-53796*
X261023Y-48241D02*
X262991Y-48241D01*
X268896Y-53796D02*
X268896Y-48704D01*
X268896Y-45463D02*
X268896Y-45000D01*
X268568Y-53796D02*
X269224Y-53796D01*
X271521Y-53796D02*
X271521Y-48241D01*
X271521Y-49167D02*
X272177Y-48241D01*
X274802Y-48241*
X275458Y-49167*
X275458Y-53796*
X279394Y-51019D02*
X283331Y-51019D01*
X283331Y-49167*
X282675Y-48241*
X280051Y-48241*
X279394Y-49167*
X279394Y-52870*
X280051Y-53796*
X282675Y-53796*
X283331Y-52870*
X287268Y-53796D02*
X292518Y-53796D01*
X295142Y-45000D02*
X297767Y-53796D01*
X300391Y-45000*
X303016Y-51019D02*
X306953Y-51019D01*
X306953Y-49167*
X306296Y-48241*
X303672Y-48241*
X303016Y-49167*
X303016Y-52870*
X303672Y-53796*
X306296Y-53796*
X306953Y-52870*
X310889Y-53796D02*
X310889Y-48241D01*
X310889Y-49167D02*
X311545Y-48241D01*
X313514Y-48241*
X314170Y-49167*
X318763Y-52870D02*
X319419Y-53796D01*
X322044Y-53796*
X322700Y-52870*
X322700Y-51944*
X322044Y-51019*
X319419Y-51019*
X318763Y-50093*
X318763Y-49167*
X319419Y-48241*
X322044Y-48241*
X322700Y-49167*
X327949Y-53796D02*
X327949Y-48704D01*
X327949Y-45463D02*
X327949Y-45000D01*
X327621Y-53796D02*
X328277Y-53796D01*
X334511Y-49167D02*
X333854Y-48241D01*
X331230Y-48241*
X330574Y-49167*
X330574Y-52870*
X331230Y-53796*
X333854Y-53796*
X334511Y-52870*
X334511Y-49167*
X338447Y-53796D02*
X338447Y-48241D01*
X338447Y-49167D02*
X339103Y-48241D01*
X341728Y-48241*
X342384Y-49167*
X342384Y-53796*
X346321Y-45926D02*
X346977Y-45000D01*
X350258Y-45000*
X350914Y-45926*
X350914Y-47778*
X350258Y-48704*
X346321Y-53796*
X350914Y-53796*
X355179Y-53796D02*
X355015Y-53796D01*
X355015Y-53333*
X355179Y-53333*
X355179Y-53796*
X359280Y-53796D02*
X359280Y-45000D01*
X358624Y-46852*
X362724Y-49167D02*
X366661Y-49167D01*
X369942Y-53796D02*
X369942Y-45000D01*
X369942Y-49167D02*
X370270Y-49167D01*
X374535Y-45000*
X370270Y-49167D02*
X374535Y-53796D01*
X377816Y-49167D02*
X378472Y-48241D01*
X381097Y-48241*
X381753Y-49167*
X381753Y-53796*
X381753Y-52870D02*
X381753Y-53796D01*
X378472Y-53796*
X377816Y-52870*
X377816Y-51944*
X378472Y-51019*
X381753Y-51019*
X387986Y-45000D02*
X387986Y-52870D01*
X388642Y-53796*
X389298Y-53796*
X387002Y-48241D02*
X388970Y-48241D01*
X394875Y-53796D02*
X394875Y-48704D01*
X394875Y-45463D02*
X394875Y-45000D01*
X394547Y-53796D02*
X395204Y-53796D01*
X569750Y377528D02*
X569750Y388639*
X572375Y379842D01*
X574999Y388639*
X577624Y387713D02*
X578280Y388639D01*
X581561Y388639*
X582217Y387713*
X582217Y385861*
X581561Y384935*
X577624Y379842*
X582217Y379842*
X586482Y379842D02*
X586318Y379842D01*
X586318Y380305*
X586482Y380305*
X586482Y379842*
X590583Y379842D02*
X590583Y388639D01*
X589926Y386787*
X527000Y236295D02*
X527000Y247406*
X529625Y238610D01*
X532249Y247406*
X534874Y246481D02*
X535530Y247406D01*
X538811Y247406*
X539467Y246481*
X539467Y244629*
X538811Y243703*
X534874Y238610*
X539467Y238610*
X543732Y238610D02*
X543568Y238610D01*
X543568Y239073*
X543732Y239073*
X543732Y238610*
X547833Y238610D02*
X547833Y247406D01*
X547176Y245555*
X577250Y94250D02*
X577250Y105361*
X579875Y96565D01*
X582499Y105361*
X585124Y104435D02*
X585780Y105361D01*
X589061Y105361*
X589717Y104435*
X589717Y102583*
X589061Y101657*
X585124Y96565*
X589717Y96565*
X593982Y96565D02*
X593818Y96565D01*
X593818Y97028*
X593982Y97028*
X593982Y96565*
X598083Y96565D02*
X598083Y105361D01*
X597426Y103509*
D34*
X557500Y297500D02*
X557858Y301240*
X560003Y301240D01*
X558930Y299744D02*
X558930Y302736D01*
D33*
X580000Y172500D02*
X582625Y178519*
X585249Y178519D01*
X585249Y175741*
X584593Y174815*
X580656Y174815*
X580000Y175741*
X580000Y182685*
X580656Y183611*
X584593Y183611*
X585249Y182685*
X587874Y174815D02*
X587874Y183611D01*
X593123Y174815*
X593123Y183611*
X595747Y183611D02*
X599028Y183611D01*
X600341Y182685*
X600997Y180833*
X600997Y177593*
X600341Y175741*
X599028Y174815*
X595747Y174815*
X597060Y174815D02*
X597060Y183611D01*
X440000Y295000D02*
X440000Y297315*
X440000Y306111D01*
X444593Y306111*
X445249Y305185*
X445249Y302870*
X444593Y301944*
X440000Y301944D02*
X444593Y301944D01*
X445249Y301019*
X445249Y298241*
X444593Y297315*
X440000Y297315*
X447874Y301944D02*
X448530Y302870D01*
X451155Y302870*
X451811Y301944*
X451811Y297315*
X451811Y298241D02*
X451811Y297315D01*
X448530Y297315*
X447874Y298241*
X447874Y299167*
X448530Y300093*
X451811Y300093*
X455747Y302870D02*
X455747Y298241D01*
X456404Y297315*
X459028Y297315*
X459684Y298241*
X459684Y297315D02*
X459684Y302870D01*
X465918Y306111D02*
X465918Y298241D01*
X466574Y297315*
X467230Y297315*
X464933Y302870D02*
X466902Y302870D01*
X471495Y300093D02*
X475432Y300093D01*
X475432Y301944*
X474776Y302870*
X472151Y302870*
X471495Y301944*
X471495Y298241*
X472151Y297315*
X474776Y297315*
X475432Y298241*
X480681Y297315D02*
X480681Y302407D01*
X480681Y305648D02*
X480681Y306111D01*
X480353Y297315D02*
X481009Y297315D01*
X484454Y306111D02*
X484454Y298241D01*
X484782Y297315*
X485110Y297315*
X487242Y298241D02*
X487898Y297315D01*
X490523Y297315*
X491179Y298241*
X491179Y299167*
X490523Y300093*
X487898Y300093*
X487242Y301019*
X487242Y301944*
X487898Y302870*
X490523Y302870*
X491179Y301944*
X495116Y300093D02*
X499053Y300093D01*
X499053Y301944*
X498397Y302870*
X495772Y302870*
X495116Y301944*
X495116Y298241*
X495772Y297315*
X498397Y297315*
X499053Y298241*
X504302Y297315D02*
X504302Y302407D01*
X504302Y305648D02*
X504302Y306111D01*
X503974Y297315D02*
X504630Y297315D01*
X509223Y306111D02*
X509223Y298241D01*
X509879Y297315*
X510535Y297315*
X508239Y302870D02*
X510207Y302870D01*
X514800Y300093D02*
X518737Y300093D01*
X518737Y301944*
X518081Y302870*
X515456Y302870*
X514800Y301944*
X514800Y298241*
X515456Y297315*
X518081Y297315*
X518737Y298241*
X500000Y145000D02*
X500000Y147315*
X500000Y156111D01*
X504593Y156111*
X505249Y155185*
X505249Y152870*
X504593Y151944*
X500000Y151944D02*
X504593Y151944D01*
X505249Y151019*
X505249Y148241*
X504593Y147315*
X500000Y147315*
X507874Y151944D02*
X508530Y152870D01*
X511155Y152870*
X511811Y151944*
X511811Y147315*
X511811Y148241D02*
X511811Y147315D01*
X508530Y147315*
X507874Y148241*
X507874Y149167*
X508530Y150093*
X511811Y150093*
X515747Y152870D02*
X515747Y148241D01*
X516404Y147315*
X519028Y147315*
X519684Y148241*
X519684Y147315D02*
X519684Y152870D01*
X525918Y156111D02*
X525918Y148241D01*
X526574Y147315*
X527230Y147315*
X524933Y152870D02*
X526902Y152870D01*
X531495Y150093D02*
X535432Y150093D01*
X535432Y151944*
X534776Y152870*
X532151Y152870*
X531495Y151944*
X531495Y148241*
X532151Y147315*
X534776Y147315*
X535432Y148241*
X540681Y147315D02*
X540681Y152407D01*
X540681Y155648D02*
X540681Y156111D01*
X540353Y147315D02*
X541009Y147315D01*
X544454Y156111D02*
X544454Y148241D01*
X544782Y147315*
X545110Y147315*
X547242Y148241D02*
X547898Y147315D01*
X550523Y147315*
X551179Y148241*
X551179Y149167*
X550523Y150093*
X547898Y150093*
X547242Y151019*
X547242Y151944*
X547898Y152870*
X550523Y152870*
X551179Y151944*
X555116Y150093D02*
X559053Y150093D01*
X559053Y151944*
X558397Y152870*
X555772Y152870*
X555116Y151944*
X555116Y148241*
X555772Y147315*
X558397Y147315*
X559053Y148241*
X564302Y147315D02*
X564302Y152407D01*
X564302Y155648D02*
X564302Y156111D01*
X563974Y147315D02*
X564630Y147315D01*
X569223Y156111D02*
X569223Y148241D01*
X569879Y147315*
X570535Y147315*
X568239Y152870D02*
X570207Y152870D01*
X574800Y150093D02*
X578737Y150093D01*
X578737Y151944*
X578081Y152870*
X575456Y152870*
X574800Y151944*
X574800Y148241*
X575456Y147315*
X578081Y147315*
X578737Y148241*
X145000Y100000D02*
X147625Y106019*
X150249Y106019D01*
X150249Y103241*
X149593Y102315*
X145656Y102315*
X145000Y103241*
X145000Y110185*
X145656Y111111*
X149593Y111111*
X150249Y110185*
X152874Y102315D02*
X152874Y111111D01*
X158123Y102315*
X158123Y111111*
X160747Y111111D02*
X164028Y111111D01*
X165341Y110185*
X165997Y108333*
X165997Y105093*
X165341Y103241*
X164028Y102315*
X160747Y102315*
X162060Y102315D02*
X162060Y111111D01*
X543125Y48125D02*
X543125Y50440*
X543125Y59236D01*
X547718Y59236*
X548374Y58310*
X548374Y55995*
X547718Y55069*
X543125Y55069D02*
X547718Y55069D01*
X548374Y54144*
X548374Y51366*
X547718Y50440*
X543125Y50440*
X550999Y55069D02*
X551655Y55995D01*
X554280Y55995*
X554936Y55069*
X554936Y50440*
X554936Y51366D02*
X554936Y50440D01*
X551655Y50440*
X550999Y51366*
X550999Y52292*
X551655Y53218*
X554936Y53218*
X558872Y55995D02*
X558872Y51366D01*
X559529Y50440*
X562153Y50440*
X562809Y51366*
X562809Y50440D02*
X562809Y55995D01*
X569043Y59236D02*
X569043Y51366D01*
X569699Y50440*
X570355Y50440*
X568058Y55995D02*
X570027Y55995D01*
X574620Y53218D02*
X578557Y53218D01*
X578557Y55069*
X577901Y55995*
X575276Y55995*
X574620Y55069*
X574620Y51366*
X575276Y50440*
X577901Y50440*
X578557Y51366*
X583806Y50440D02*
X583806Y55532D01*
X583806Y58773D02*
X583806Y59236D01*
X583478Y50440D02*
X584134Y50440D01*
X587579Y59236D02*
X587579Y51366D01*
X587907Y50440*
X588235Y50440*
X590367Y51366D02*
X591023Y50440D01*
X593648Y50440*
X594304Y51366*
X594304Y52292*
X593648Y53218*
X591023Y53218*
X590367Y54144*
X590367Y55069*
X591023Y55995*
X593648Y55995*
X594304Y55069*
X598241Y53218D02*
X602178Y53218D01*
X602178Y55069*
X601522Y55995*
X598897Y55995*
X598241Y55069*
X598241Y51366*
X598897Y50440*
X601522Y50440*
X602178Y51366*
X607427Y50440D02*
X607427Y55532D01*
X607427Y58773D02*
X607427Y59236D01*
X607099Y50440D02*
X607755Y50440D01*
X612348Y59236D02*
X612348Y51366D01*
X613004Y50440*
X613660Y50440*
X611364Y55995D02*
X613332Y55995D01*
X617925Y53218D02*
X621862Y53218D01*
X621862Y55069*
X621206Y55995*
X618581Y55995*
X617925Y55069*
X617925Y51366*
X618581Y50440*
X621206Y50440*
X621862Y51366*
X462250Y95250D02*
X462250Y97565*
X462250Y106361D01*
X466843Y106361*
X467499Y105435*
X467499Y103120*
X466843Y102194*
X462250Y102194*
X474061Y102194D02*
X473405Y103120D01*
X470780Y103120*
X470124Y102194*
X470124Y98491*
X470780Y97565*
X473405Y97565*
X474061Y98491*
X474061Y102194*
X477997Y103120D02*
X479638Y97565D01*
X481278Y103120*
X482919Y97565*
X484559Y103120*
X485871Y100343D02*
X489808Y100343D01*
X489808Y102194*
X489152Y103120*
X486527Y103120*
X485871Y102194*
X485871Y98491*
X486527Y97565*
X489152Y97565*
X489808Y98491*
X493745Y97565D02*
X493745Y103120D01*
X493745Y102194D02*
X494401Y103120D01*
X496369Y103120*
X497026Y102194*
X501619Y103120D02*
X501619Y95250D01*
X501619Y102194D02*
X502275Y103120D01*
X504899Y103120*
X505556Y102194*
X505556Y98491*
X504899Y97565*
X502275Y97565*
X501619Y98491*
X510640Y106361D02*
X510640Y98491D01*
X510969Y97565*
X511297Y97565*
X513429Y102194D02*
X514085Y103120D01*
X516710Y103120*
X517366Y102194*
X517366Y97565*
X517366Y98491D02*
X517366Y97565D01*
X514085Y97565*
X513429Y98491*
X513429Y99417*
X514085Y100343*
X517366Y100343*
X523599Y106361D02*
X523599Y98491D01*
X524256Y97565*
X524912Y97565*
X522615Y103120D02*
X524584Y103120D01*
X530489Y97565D02*
X530489Y102657D01*
X530489Y105898D02*
X530489Y106361D01*
X530161Y97565D02*
X530817Y97565D01*
X533113Y97565D02*
X533113Y103120D01*
X533113Y102194D02*
X533769Y103120D01*
X536394Y103120*
X537050Y102194*
X537050Y97565*
X540987Y100343D02*
X544924Y100343D01*
X544924Y102194*
X544268Y103120*
X541643Y103120*
X540987Y102194*
X540987Y98491*
X541643Y97565*
X544268Y97565*
X544924Y98491*
X554110Y95250D02*
X556734Y105435*
X557391Y106361D01*
X560671Y106361*
X561328Y105435*
X561328Y103120*
X560671Y102194*
X558703Y102194*
X560671Y102194*
X561328Y101269*
X561328Y98954*
X560671Y97565*
X557391Y97565*
X556734Y98491*
X65470Y296144D02*
X65470Y307255*
X67111Y298459D01*
X68751Y307255*
X70392Y298459*
X72032Y307255*
X77281Y303088D02*
X76625Y304014D01*
X74000Y304014*
X73344Y303088*
X73344Y299384*
X74000Y298459*
X76625Y298459*
X77281Y299384*
X77281Y303088*
X81218Y298459D02*
X81218Y304014D01*
X81218Y303088D02*
X81874Y304014D01*
X83843Y304014*
X84499Y303088*
X91388Y307255D02*
X91388Y299384D01*
X92044Y298459*
X92700Y298459*
X90404Y304014D02*
X92372Y304014D01*
X96965Y307255D02*
X96965Y299384D01*
X97621Y298459*
X101558Y298459*
X102215Y299384*
X102215Y307255*
X104839Y298459D02*
X104839Y307255D01*
X104839Y303088D02*
X105495Y304014D01*
X108120Y304014*
X108776Y303088*
X108776Y298459*
X112713Y298459D02*
X112713Y304014D01*
X112713Y303088D02*
X113369Y304014D01*
X115337Y304014*
X115994Y303088*
X125836Y296144D02*
X128460Y306329*
X129116Y307255D01*
X132397Y307255*
X133053Y306329*
X133053Y304477*
X132397Y303551*
X128460Y298459*
X133053Y298459*
X140927Y299384D02*
X140271Y298459D01*
X136990Y298459*
X136334Y299384*
X136334Y306329*
X136990Y307255*
X140271Y307255*
X140927Y306329*
X140927Y299384*
X136334Y299384D02*
X140927Y306329D01*
X145356Y298459D02*
X145356Y307255D01*
X144700Y305403*
X148144Y299384D02*
X148144Y302162D01*
X148800Y303088*
X152081Y303088*
X152737Y304014*
X152737Y306329*
X152081Y307255*
X148800Y307255*
X148144Y306329*
X148144Y304014*
X148800Y303088*
X152081Y303088*
X152737Y302162*
X152737Y299384*
X152081Y298459*
X148800Y298459*
X148144Y299384*
X398500Y234295D02*
X398500Y236610*
X398500Y245406D01*
X403093Y245406*
X403749Y244481*
X403749Y242166*
X403093Y241240*
X398500Y241240*
X410311Y241240D02*
X409655Y242166D01*
X407030Y242166*
X406374Y241240*
X406374Y237536*
X407030Y236610*
X409655Y236610*
X410311Y237536*
X410311Y241240*
X414247Y242166D02*
X415888Y236610D01*
X417528Y242166*
X419169Y236610*
X420809Y242166*
X422121Y239388D02*
X426058Y239388D01*
X426058Y241240*
X425402Y242166*
X422777Y242166*
X422121Y241240*
X422121Y237536*
X422777Y236610*
X425402Y236610*
X426058Y237536*
X429995Y236610D02*
X429995Y242166D01*
X429995Y241240D02*
X430651Y242166D01*
X432619Y242166*
X433276Y241240*
X437869Y242166D02*
X437869Y234295D01*
X437869Y241240D02*
X438525Y242166D01*
X441149Y242166*
X441806Y241240*
X441806Y237536*
X441149Y236610*
X438525Y236610*
X437869Y237536*
X446890Y245406D02*
X446890Y237536D01*
X447219Y236610*
X447547Y236610*
X449679Y241240D02*
X450335Y242166D01*
X452960Y242166*
X453616Y241240*
X453616Y236610*
X453616Y237536D02*
X453616Y236610D01*
X450335Y236610*
X449679Y237536*
X449679Y238462*
X450335Y239388*
X453616Y239388*
X459849Y245406D02*
X459849Y237536D01*
X460506Y236610*
X461162Y236610*
X458865Y242166D02*
X460834Y242166D01*
X466739Y236610D02*
X466739Y241703D01*
X466739Y244943D02*
X466739Y245406D01*
X466411Y236610D02*
X467067Y236610D01*
X469363Y236610D02*
X469363Y242166D01*
X469363Y241240D02*
X470019Y242166D01*
X472644Y242166*
X473300Y241240*
X473300Y236610*
X477237Y239388D02*
X481174Y239388D01*
X481174Y241240*
X480518Y242166*
X477893Y242166*
X477237Y241240*
X477237Y237536*
X477893Y236610*
X480518Y236610*
X481174Y237536*
X490360Y234295D02*
X492984Y244481*
X493641Y245406D01*
X496921Y245406*
X497578Y244481*
X497578Y242629*
X496921Y241703*
X492984Y236610*
X497578Y236610*
X455250Y377528D02*
X455250Y379842*
X455250Y388639D01*
X459843Y388639*
X460499Y387713*
X460499Y385398*
X459843Y384472*
X455250Y384472*
X467061Y384472D02*
X466405Y385398D01*
X463780Y385398*
X463124Y384472*
X463124Y380768*
X463780Y379842*
X466405Y379842*
X467061Y380768*
X467061Y384472*
X470997Y385398D02*
X472638Y379842D01*
X474278Y385398*
X475919Y379842*
X477559Y385398*
X478871Y382620D02*
X482808Y382620D01*
X482808Y384472*
X482152Y385398*
X479527Y385398*
X478871Y384472*
X478871Y380768*
X479527Y379842*
X482152Y379842*
X482808Y380768*
X486745Y379842D02*
X486745Y385398D01*
X486745Y384472D02*
X487401Y385398D01*
X489369Y385398*
X490026Y384472*
X494619Y385398D02*
X494619Y377528D01*
X494619Y384472D02*
X495275Y385398D01*
X497899Y385398*
X498556Y384472*
X498556Y380768*
X497899Y379842*
X495275Y379842*
X494619Y380768*
X503640Y388639D02*
X503640Y380768D01*
X503969Y379842*
X504297Y379842*
X506429Y384472D02*
X507085Y385398D01*
X509710Y385398*
X510366Y384472*
X510366Y379842*
X510366Y380768D02*
X510366Y379842D01*
X507085Y379842*
X506429Y380768*
X506429Y381694*
X507085Y382620*
X510366Y382620*
X516599Y388639D02*
X516599Y380768D01*
X517256Y379842*
X517912Y379842*
X515615Y385398D02*
X517584Y385398D01*
X523489Y379842D02*
X523489Y384935D01*
X523489Y388176D02*
X523489Y388639D01*
X523161Y379842D02*
X523817Y379842D01*
X526113Y379842D02*
X526113Y385398D01*
X526113Y384472D02*
X526769Y385398D01*
X529394Y385398*
X530050Y384472*
X530050Y379842*
X533987Y382620D02*
X537924Y382620D01*
X537924Y384472*
X537268Y385398*
X534643Y385398*
X533987Y384472*
X533987Y380768*
X534643Y379842*
X537268Y379842*
X537924Y380768*
X547110Y377528D02*
X550883Y379842*
X550883Y388639D01*
X550227Y386787*
D34*
X545000Y17500D02*
X545358Y21240*
X547503Y21240D01*
X546430Y19744D02*
X546430Y22736D01*
X220000Y37500D02*
X220358Y41240*
X222503Y41240D01*
X221430Y39744D02*
X221430Y42736D01*
X497500Y160000D02*
X497858Y163740*
X500003Y163740D01*
X498930Y162244D02*
X498930Y165236D01*
X192500Y182500D02*
X192858Y186240*
X195003Y186240D01*
X193930Y184744D02*
X193930Y187736D01*
X255000Y295000D02*
X255358Y298740*
X257503Y298740D01*
X256430Y297244D02*
X256430Y300236D01*
D33*
X95000Y310000D02*
X97625Y316019*
X100249Y316019D01*
X100249Y313241*
X99593Y312315*
X95656Y312315*
X95000Y313241*
X95000Y320185*
X95656Y321111*
X99593Y321111*
X100249Y320185*
X102874Y312315D02*
X102874Y321111D01*
X108123Y312315*
X108123Y321111*
X110747Y321111D02*
X114028Y321111D01*
X115341Y320185*
X115997Y318333*
X115997Y315093*
X115341Y313241*
X114028Y312315*
X110747Y312315*
X112060Y312315D02*
X112060Y321111D01*
D34*
X-22500Y-25000D02*
X-24744Y-23570*
X-26240Y-25000D01*
X-27986Y-23570*
X-23747Y-20709D02*
X-28484Y-20709D01*
X-23747Y-17848*
X-28484Y-17848*
X-26240Y-14273D02*
X-26739Y-14631D01*
X-26739Y-16061*
X-26240Y-16419*
X-24245Y-16419*
X-23747Y-16061*
X-23747Y-14631*
X-24245Y-14273*
X-26240Y-14273*
X-28484Y-10876D02*
X-24245Y-10876D01*
X-23747Y-10519*
X-23747Y-10161*
X-26739Y-11413D02*
X-26739Y-10340D01*
X-22500Y-04976D02*
X-24245Y-03546*
X-23747Y-03189D01*
X-23747Y-01401*
X-24245Y-01043*
X-25741Y-01043*
X-26240Y-01401*
X-26240Y-03189*
X-26739Y-03546*
X-27986Y-03546*
X-28484Y-03189*
X-28484Y-01401*
X-27986Y-01043*
X-26240Y00744D02*
X-26739Y01102D01*
X-26739Y02532*
X-26240Y02890*
X-23747Y02890*
X-24245Y02890D02*
X-23747Y02890D01*
X-23747Y01102*
X-24245Y00744*
X-24744Y00744*
X-25243Y01102*
X-25243Y02890*
X-26739Y05035D02*
X-23747Y06108D01*
X-26739Y07181*
X-25243Y09326D02*
X-25243Y11471D01*
X-26240Y11471*
X-26739Y11114*
X-26739Y09683*
X-26240Y09326*
X-24245Y09326*
X-23747Y09683*
X-23747Y11114*
X-24245Y11471*
X-26240Y15762D02*
X-26739Y15404D01*
X-26739Y13974*
X-26240Y13616*
X-24245Y13616*
X-23747Y13974*
X-23747Y15404*
X-24245Y15762*
X-23747Y15762D02*
X-28484Y15762D01*
X-24495Y19338D02*
X-26240Y20768D01*
X-27986Y19338*
D33*
X220342Y-30000D02*
X220342Y-27685*
X220342Y-18889D01*
X220342Y-24907D02*
X220670Y-24907D01*
X223623Y-22130*
X220670Y-24907D02*
X223623Y-27685D01*
X228215Y-23056D02*
X228872Y-22130D01*
X231496Y-22130*
X232152Y-23056*
X232152Y-27685*
X232152Y-26759D02*
X232152Y-27685D01*
X228872Y-27685*
X228215Y-26759*
X228215Y-25833*
X228872Y-24907*
X232152Y-24907*
X236089Y-18889D02*
X240682Y-18889D01*
X236745Y-27685*
X243963Y-26759D02*
X244619Y-27685D01*
X247900Y-27685*
X248556Y-26759*
X248556Y-23519*
X247900Y-22593*
X244619Y-22593*
X243963Y-23519*
X243963Y-18889*
X248556Y-18889*
X251837Y-23519D02*
X252493Y-22593D01*
X255774Y-22593*
X256430Y-23519*
X256430Y-26759*
X255774Y-27685*
X252493Y-27685*
X251837Y-26759*
X251837Y-19815*
X252493Y-18889*
X255774Y-18889*
X256430Y-19815*
X259710Y-18889D02*
X264303Y-18889D01*
X260366Y-27685*
X267584Y-26759D02*
X268240Y-27685D01*
X271521Y-27685*
X272177Y-26759*
X272177Y-23519*
X271521Y-22593*
X268240Y-22593*
X267584Y-23519*
X267584Y-18889*
X272177Y-18889*
X280707Y-30000D02*
X283331Y-19815*
X283987Y-18889D01*
X287268Y-18889*
X287924Y-19815*
X287924Y-21667*
X287268Y-22593*
X283331Y-27685*
X287924Y-27685*
X291205Y-18889D02*
X295798Y-18889D01*
X291861Y-27685*
X300063Y-27685D02*
X299899Y-27685D01*
X299899Y-27222*
X300063Y-27222*
X300063Y-27685*
X307609Y-26759D02*
X306953Y-27685D01*
X303672Y-27685*
X303016Y-26759*
X303016Y-19815*
X303672Y-18889*
X306953Y-18889*
X307609Y-19815*
X307609Y-26759*
X303016Y-26759D02*
X307609Y-19815D01*
X310889Y-26759D02*
X311545Y-27685D01*
X314826Y-27685*
X315482Y-26759*
X315482Y-23519*
X314826Y-22593*
X311545Y-22593*
X310889Y-23519*
X310889Y-18889*
X315482Y-18889*
X319747Y-27685D02*
X319583Y-27685D01*
X319583Y-27222*
X319747Y-27222*
X319747Y-27685*
X322700Y-19815D02*
X323356Y-18889D01*
X326637Y-18889*
X327293Y-19815*
X327293Y-21667*
X326637Y-22593*
X322700Y-27685*
X327293Y-27685*
X335167Y-26759D02*
X334511Y-27685D01*
X331230Y-27685*
X330574Y-26759*
X330574Y-19815*
X331230Y-18889*
X334511Y-18889*
X335167Y-19815*
X335167Y-26759*
X330574Y-26759D02*
X335167Y-19815D01*
X339596Y-27685D02*
X339596Y-18889D01*
X338939Y-20741*
X346977Y-22593D02*
X346321Y-23519D01*
X342712Y-23519*
X342384Y-22593*
X342384Y-19815*
X343040Y-18889*
X346321Y-18889*
X346977Y-19815*
X346977Y-26759*
X346321Y-27685*
X343040Y-27685*
X342384Y-26759*
X355507Y-30000D02*
X363381Y-30000*
X367153Y-27685*
X367153Y-18889D01*
X366497Y-20741*
X369942Y-26759D02*
X370598Y-27685D01*
X373879Y-27685*
X374535Y-26759*
X374535Y-23519*
X373879Y-22593*
X370598Y-22593*
X369942Y-23519*
X369942Y-18889*
X374535Y-18889*
X378800Y-27685D02*
X378636Y-27685D01*
X378636Y-27222*
X378800Y-27222*
X378800Y-27685*
X378800Y-23056D02*
X378636Y-23056D01*
X378636Y-22593*
X378800Y-22593*
X378800Y-23056*
X381753Y-26759D02*
X382409Y-27685D01*
X385690Y-27685*
X386346Y-26759*
X386346Y-23519*
X385690Y-22593*
X382409Y-22593*
X381753Y-23519*
X381753Y-18889*
X386346Y-18889*
X389626Y-18889D02*
X394219Y-18889D01*
X390282Y-27685*
X-60000Y-25000D02*
X-71111Y-25000*
X-62315Y-23360D01*
X-71111Y-21719*
X-62315Y-20079*
X-71111Y-18438*
X-65093Y-17126D02*
X-65093Y-13189D01*
X-66944Y-13189*
X-67870Y-13845*
X-67870Y-16470*
X-66944Y-17126*
X-63241Y-17126*
X-62315Y-16470*
X-62315Y-13845*
X-63241Y-13189*
X-63241Y-09253D02*
X-62315Y-08596D01*
X-62315Y-05972*
X-63241Y-05316*
X-64167Y-05316*
X-65093Y-05972*
X-65093Y-08596*
X-66019Y-09253*
X-66944Y-09253*
X-67870Y-08596*
X-67870Y-05972*
X-66944Y-05316*
X-71111Y00918D02*
X-63241Y00918D01*
X-62315Y01574*
X-62315Y02230*
X-67870Y-00067D02*
X-67870Y01902D01*
X-62315Y08463D02*
X-70185Y08463D01*
X-71111Y09119*
X-71111Y09776*
X-67870Y07479D02*
X-67870Y09448D01*
X-66944Y14369D02*
X-67870Y15025D01*
X-67870Y17649*
X-66944Y18306*
X-62315Y18306*
X-63241Y18306D02*
X-62315Y18306D01*
X-62315Y15025*
X-63241Y14369*
X-64167Y14369*
X-65093Y15025*
X-65093Y18306*
X-68333Y15681D02*
X-68796Y15681D01*
X-68333Y16993D02*
X-68796Y16993D01*
X-71111Y23390D02*
X-63241Y23390D01*
X-62315Y23719*
X-62315Y24047*
X-62315Y27491D02*
X-67407Y27491D01*
X-70648Y27491D02*
X-71111Y27491D01*
X-62315Y27163D02*
X-62315Y27819D01*
X-63241Y30116D02*
X-62315Y30772D01*
X-62315Y33397*
X-63241Y34053*
X-64167Y34053*
X-65093Y33397*
X-65093Y30772*
X-66019Y30116*
X-66944Y30116*
X-67870Y30772*
X-67870Y33397*
X-66944Y34053*
X-66944Y41927D02*
X-67870Y41270D01*
X-67870Y38646*
X-66944Y37990*
X-63241Y37990*
X-62315Y38646*
X-62315Y41270*
X-63241Y41927*
X-62315Y45863D02*
X-71111Y45863D01*
X-66944Y45863D02*
X-67870Y46519D01*
X-67870Y49144*
X-66944Y49800*
X-62315Y49800*
X-65093Y53737D02*
X-65093Y57674D01*
X-66944Y57674*
X-67870Y57018*
X-67870Y54393*
X-66944Y53737*
X-63241Y53737*
X-62315Y54393*
X-62315Y57018*
X-63241Y57674*
X-60000Y66860D02*
X-62315Y69484*
X-71111Y69484D01*
X-66944Y69484D02*
X-66944Y74734D01*
X-71111Y74734D02*
X-62315Y74734D01*
X-66944Y81295D02*
X-67870Y80639D01*
X-67870Y78014*
X-66944Y77358*
X-63241Y77358*
X-62315Y78014*
X-62315Y80639*
X-63241Y81295*
X-66944Y81295*
X-66944Y89169D02*
X-67870Y88513D01*
X-67870Y85888*
X-66944Y85232*
X-63241Y85232*
X-62315Y85888*
X-62315Y88513*
X-63241Y89169*
X-62315Y93106D02*
X-71111Y93106D01*
X-66944Y93106D02*
X-67870Y93762D01*
X-67870Y96386*
X-66944Y97043*
X-62315Y97043*
X-63241Y100979D02*
X-62315Y101635D01*
X-62315Y104260*
X-63241Y104916*
X-64167Y104916*
X-65093Y104260*
X-65093Y101635*
X-66019Y100979*
X-66944Y100979*
X-67870Y101635*
X-67870Y104260*
X-66944Y104916*
X-66944Y112790D02*
X-67870Y112134D01*
X-67870Y109509*
X-66944Y108853*
X-63241Y108853*
X-62315Y109509*
X-62315Y112134*
X-63241Y112790*
X-62315Y116727D02*
X-71111Y116727D01*
X-66944Y116727D02*
X-67870Y117383D01*
X-67870Y120007*
X-66944Y120664*
X-62315Y120664*
X-67870Y124600D02*
X-63241Y124600D01*
X-62315Y125256*
X-62315Y127881*
X-63241Y128537*
X-62315Y128537D02*
X-67870Y128537D01*
X-71111Y133622D02*
X-63241Y133622D01*
X-62315Y133950*
X-62315Y134278*
X-65093Y136411D02*
X-65093Y140348D01*
X-66944Y140348*
X-67870Y139692*
X-67870Y137067*
X-66944Y136411*
X-63241Y136411*
X-62315Y137067*
X-62315Y139692*
X-63241Y140348*
X-60000Y149534D02*
X-63241Y157408*
X-62315Y156751D01*
X-62315Y152814*
X-63241Y152158*
X-70185Y152158*
X-71111Y152814*
X-71111Y156751*
X-70185Y157408*
X-66944Y160032D02*
X-67870Y160688D01*
X-67870Y163313*
X-66944Y163969*
X-62315Y163969*
X-63241Y163969D02*
X-62315Y163969D01*
X-62315Y160688*
X-63241Y160032*
X-64167Y160032*
X-65093Y160688*
X-65093Y163969*
X-62315Y167906D02*
X-67870Y167906D01*
X-66944Y167906D02*
X-67870Y168562D01*
X-67870Y169874*
X-66944Y170530*
X-62315Y170530*
X-66944Y170530D02*
X-67870Y171186D01*
X-67870Y172499*
X-66944Y173155*
X-62315Y173155*
X-67870Y175779D02*
X-60000Y175779D01*
X-66944Y175779D02*
X-67870Y176436D01*
X-67870Y179060*
X-66944Y179716*
X-63241Y179716*
X-62315Y179060*
X-62315Y176436*
X-63241Y175779*
X-67870Y183653D02*
X-63241Y183653D01*
X-62315Y184309*
X-62315Y186934*
X-63241Y187590*
X-62315Y187590D02*
X-67870Y187590D01*
X-63241Y191527D02*
X-62315Y192183D01*
X-62315Y194808*
X-63241Y195464*
X-64167Y195464*
X-65093Y194808*
X-65093Y192183*
X-66019Y191527*
X-66944Y191527*
X-67870Y192183*
X-67870Y194808*
X-66944Y195464*
X-60000Y204650D02*
X-62315Y207274*
X-71111Y207274D01*
X-71111Y211867*
X-70185Y212524*
X-67870Y212524*
X-66944Y211867*
X-66944Y207274D02*
X-66944Y211867D01*
X-66019Y212524*
X-63241Y212524*
X-62315Y211867*
X-62315Y207274*
X-66944Y219085D02*
X-67870Y218429D01*
X-67870Y215804*
X-66944Y215148*
X-63241Y215148*
X-62315Y215804*
X-62315Y218429*
X-63241Y219085*
X-66944Y219085*
X-66944Y226959D02*
X-67870Y226302D01*
X-67870Y223678*
X-66944Y223022*
X-63241Y223022*
X-62315Y223678*
X-62315Y226302*
X-63241Y226959*
X-62315Y230895D02*
X-71111Y230895D01*
X-66944Y230895D02*
X-67870Y231551D01*
X-67870Y234176*
X-66944Y234832*
X-62315Y234832*
X-66944Y242706D02*
X-67870Y242050D01*
X-67870Y239425*
X-66944Y238769*
X-63241Y238769*
X-62315Y239425*
X-62315Y242050*
X-63241Y242706*
X-66944Y242706*
X-71111Y247791D02*
X-63241Y247791D01*
X-62315Y248119*
X-62315Y248447*
X-71111Y252876D02*
X-63241Y252876D01*
X-62315Y253532*
X-62315Y254188*
X-67870Y251892D02*
X-67870Y253860D01*
X-47870Y-20407D02*
X-47870Y-25000D01*
X-56667Y-25000*
X-52500Y-17126D02*
X-53426Y-16470D01*
X-53426Y-13845*
X-52500Y-13189*
X-47870Y-13189*
X-48796Y-13189D02*
X-47870Y-13189D01*
X-47870Y-16470*
X-48796Y-17126*
X-49722Y-17126*
X-50648Y-16470*
X-50648Y-13189*
X-47870Y-09253D02*
X-56667Y-09253D01*
X-52500Y-09253D02*
X-53426Y-08596D01*
X-53426Y-05972*
X-52500Y-05316*
X-48796Y-05316*
X-47870Y-05972*
X-47870Y-08596*
X-48796Y-09253*
X-52500Y02558D02*
X-53426Y01902D01*
X-53426Y-00723*
X-52500Y-01379*
X-48796Y-01379*
X-47870Y-00723*
X-47870Y01902*
X-48796Y02558*
X-52500Y02558*
X-47870Y06495D02*
X-53426Y06495D01*
X-52500Y06495D02*
X-53426Y07151D01*
X-53426Y09119*
X-52500Y09776*
X-45555Y19618D02*
X-47870Y22242*
X-56667Y22242D01*
X-56667Y26835*
X-55741Y27492*
X-53426Y27492*
X-52500Y26835*
X-52500Y22242*
X-52500Y26179D02*
X-52500Y26835D01*
X-47870Y27492*
X-56667Y30116D02*
X-56667Y35365D01*
X-56667Y32741D02*
X-47870Y32741D01*
D35*
X286250Y287750D03*
X239250Y227750D03*
X57500Y245000D03*
X271250Y80750D03*
X375000Y12500D03*
X225250Y357750D03*
X608250Y292278D03*
X427500Y332500D03*
X181250Y85750D03*
X20250Y56750D03*
X346250Y364278D03*
X273250Y342278D03*
X520000Y317500D03*
X16250Y49750D03*
X187500Y202500D03*
X603250Y386278D03*
X258250Y387750D03*
X52250Y381278D03*
X239500Y332500D03*
X310000Y342500D03*
X396250Y363750D03*
X237250Y371750D03*
X18250Y174545D03*
X608250Y197545D03*
X168250Y177545D03*
X559250Y234750D03*
X18250Y159545D03*
X611250Y164545D03*
X345000Y145000D03*
X570250Y237750D03*
X170250Y193545D03*
X20250Y18750D03*
X357500Y355000D03*
X261250Y239545D03*
X180250Y153545D03*
X160000Y210000D03*
X246250Y215545D03*
X365250Y207750D03*
X293250Y214750D03*
X365250Y195545D03*
X39250Y326750D03*
X265250Y29750D03*
X270250Y67750D03*
X282250Y79750D03*
X500000Y22500D03*
X262250Y173545D03*
X460000Y162500D03*
X197500Y227500D03*
X210250Y07750D03*
X500250Y42750D03*
X296250Y81750D03*
X603250Y378278D03*
X250250Y384750D03*
X41250Y372750D03*
X609250Y339278D03*
X242250Y377750D03*
X41250Y337750D03*
X603250Y371278D03*
M02*
