G70*
%FSLAX55Y55*%
%ADD11C,0.00591*%
%ADD12C,0.01000*%
%ADD13C,0.01500*%
%ADD14C,0.00500*%
%ADD15C,0.00472*%
%ADD16C,0.01181*%
D11*
X601233Y330266D02*
X601233Y331512*
X604093Y336250D01*
X601233Y336250D02*
X604093Y331512D01*
X606149Y331512D02*
X606149Y336250D01*
X605791Y335253*
X610172Y332011D02*
X609814Y331512D01*
X608026Y331512*
X607669Y332011*
X607669Y335751*
X608026Y336250*
X609814Y336250*
X610172Y335751*
X610172Y332011*
X607669Y332011D02*
X610172Y335751D01*
X611959Y333757D02*
X612317Y334255D01*
X614105Y334255*
X614463Y333757*
X614463Y332011*
X614105Y331512*
X612317Y331512*
X611959Y332011*
X611959Y335751*
X612317Y336250*
X614105Y336250*
X614463Y335751*
D12*
X82500Y310000D02*
G75*
G02X82500Y325000I00000J07500D01*
G02X82500Y310000I00000J-07500*
D11*
G01X77500Y325625D02*
X77500Y326872*
X80361Y331609D01*
X77500Y331609D02*
X80361Y326872D01*
X82416Y326872D02*
X82416Y331609D01*
X82059Y330612*
D13*
X333250Y366528D02*
X363250Y366528D01*
X363250Y391528*
X333250Y391528*
X333250Y366528*
D11*
X352360Y373192D02*
X346376Y373192*
X346376Y376053D01*
X346376Y374623D02*
X351114Y374623D01*
X351114Y378109D02*
X346376Y378109D01*
X347373Y377751*
X351114Y380254D02*
X346376Y380254D01*
X347373Y379896*
D13*
X270250Y24250D02*
X280250Y24250D01*
X280250Y49250*
X270250Y49250*
X270250Y24250*
D11*
X279109Y34003D02*
X277863Y34003*
X273125Y34003D01*
X273125Y36506*
X273624Y36864*
X274870Y36864*
X275369Y36506*
X275369Y34003*
X275369Y36149D02*
X275369Y36506D01*
X277863Y36864*
X273624Y38294D02*
X273125Y38651D01*
X273125Y40439*
X273624Y40797*
X274870Y40797*
X275369Y40439*
X275369Y39366*
X275369Y40439*
X275868Y40797*
X277115Y40797*
X277863Y40439*
X277863Y38651*
X277364Y38294*
X273624Y42584D02*
X273125Y42942D01*
X273125Y44730*
X273624Y45088*
X274621Y45088*
X275120Y44730*
X277863Y42584*
X277863Y45088*
D12*
X127250Y172545D02*
X132250Y172545D01*
X132250Y167545*
X127250Y167545*
X157250Y180045D02*
X127250Y180045D01*
X127250Y160045*
X157250Y160045*
X157250Y180045*
X127250Y180045D02*
X127250Y190045D01*
X157250Y190045*
X157250Y180045*
X127250Y160045D02*
X127250Y150045D01*
X157250Y150045*
X157250Y160545*
D11*
X136022Y162089D02*
X138883Y164083*
X138346Y163335D01*
X136558Y163335*
X136022Y164083*
X136022Y167325*
X136558Y168073*
X138346Y168073*
X138883Y167325*
X138883Y164083*
X140312Y163335D02*
X140312Y168073D01*
X140312Y165829D02*
X140491Y165829D01*
X142816Y168073*
X140491Y165829D02*
X142816Y163335D01*
X144603Y167574D02*
X144961Y168073D01*
X146749Y168073*
X147106Y167574*
X147106Y166577*
X146749Y166078*
X144603Y163335*
X147106Y163335*
X148894Y167574D02*
X149251Y168073D01*
X151039Y168073*
X151397Y167574*
X151397Y166577*
X151039Y166078*
X148894Y163335*
X151397Y163335*
D12*
X31875Y59375D02*
G75*
G02X31875Y86875I00000J13750D01*
G02X31875Y59375I00000J-13750*
G01X390143Y59375D02*
G75*
G02X390143Y86875I00000J13750D01*
G02X390143Y59375I00000J-13750*
G01X579119Y59375D02*
G75*
G02X579119Y86875I00000J13750D01*
G02X579119Y59375I00000J-13750*
G01X211250Y60000D02*
G75*
G02X211250Y87500I00000J13750D01*
G02X211250Y60000I00000J-13750*
G01X62242Y197630D02*
G75*
G02X62242Y225130I00000J13750D01*
G02X62242Y197630I00000J-13750*
G01X345707Y197630D02*
G75*
G02X345707Y225130I00000J13750D01*
G02X345707Y197630I00000J-13750*
G01X50431Y339362D02*
G75*
G02X50431Y366862I00000J13750D01*
G02X50431Y339362I00000J-13750*
G01X251219Y339362D02*
G75*
G02X251219Y366862I00000J13750D01*
G02X251219Y339362I00000J-13750*
G01X408699Y339362D02*
G75*
G02X408699Y366862I00000J13750D01*
G02X408699Y339362I00000J-13750*
G01X597675Y339362D02*
G75*
G02X597675Y366862I00000J13750D01*
G02X597675Y339362I00000J-13750*
D14*
G01X238500Y48000D02*
X238500Y45500D01*
D12*
X212250Y31750D02*
G75*
G02X252250Y31750I20000J00000D01*
G02X212250Y31750I-20000J00000*
D14*
G01X239750Y46750D02*
X237250Y46750D01*
X239750Y46750D02*
X237250Y46750D01*
X238500Y48000D02*
X238500Y45500D01*
D11*
X226415Y28348D02*
X229276Y30094*
X228919Y29595D01*
X226773Y29595*
X226415Y30094*
X226415Y33834*
X226773Y34333*
X228919Y34333*
X229276Y33834*
X230706Y33834D02*
X231064Y34333D01*
X232852Y34333*
X233209Y33834*
X233209Y32587*
X232852Y32089*
X231779Y32089*
X232852Y32089*
X233209Y31590*
X233209Y30343*
X232852Y29595*
X231064Y29595*
X230706Y30094*
X235623Y29595D02*
X235623Y34333D01*
X235265Y33335*
D14*
X529250Y15250D02*
X529250Y17750D01*
D12*
X555500Y31500D02*
G75*
G02X515500Y31500I-20000J00000D01*
G02X555500Y31500I20000J00000*
D14*
G01X528000Y16500D02*
X530500Y16500D01*
X528000Y16500D02*
X530500Y16500D01*
X529250Y15250D02*
X529250Y17750D01*
D11*
X529685Y28033D02*
X532546Y29779*
X532188Y29280D01*
X530043Y29280*
X529685Y29779*
X529685Y33519*
X530043Y34018*
X532188Y34018*
X532546Y33519*
X533976Y33519D02*
X534333Y34018D01*
X536121Y34018*
X536479Y33519*
X536479Y32272*
X536121Y31774*
X535049Y31774*
X536121Y31774*
X536479Y31275*
X536479Y30028*
X536121Y29280*
X534333Y29280*
X533976Y29779*
X538266Y33519D02*
X538624Y34018D01*
X540412Y34018*
X540770Y33519*
X540770Y32522*
X540412Y32023*
X538266Y29280*
X540770Y29280*
D14*
X259575Y292020D02*
X259575Y294520D01*
D12*
X285825Y308270D02*
G75*
G02X245825Y308270I-20000J00000D01*
G02X285825Y308270I20000J00000*
D14*
G01X258325Y293270D02*
X260825Y293270D01*
X258325Y293270D02*
X260825Y293270D01*
X259575Y292020D02*
X259575Y294520D01*
D11*
X260787Y304451D02*
X263648Y306196*
X263290Y305697D01*
X261144Y305697*
X260787Y306196*
X260787Y309936*
X261144Y310435*
X263290Y310435*
X263648Y309936*
X265703Y305697D02*
X265703Y310435D01*
X265346Y309438*
X267849Y305697D02*
X267849Y310435D01*
X267491Y309438*
D14*
X540500Y299528D02*
X540500Y302028D01*
D12*
X566750Y315778D02*
G75*
G02X526750Y315778I-20000J00000D01*
G02X566750Y315778I20000J00000*
D14*
G01X539250Y300778D02*
X541750Y300778D01*
X539250Y300778D02*
X541750Y300778D01*
X540500Y299528D02*
X540500Y302028D01*
D11*
X541773Y311516D02*
X544634Y313261*
X544276Y312762D01*
X542131Y312762*
X541773Y313261*
X541773Y317001*
X542131Y317500*
X544276Y317500*
X544634Y317001*
X546690Y312762D02*
X546690Y317500D01*
X546332Y316503*
X548209Y317001D02*
X548567Y317500D01*
X550355Y317500*
X550713Y317001*
X550713Y316004*
X550355Y315505*
X548209Y312762*
X550713Y312762*
D14*
X211000Y189045D02*
X211000Y186545D01*
D12*
X184750Y172795D02*
G75*
G02X224750Y172795I20000J00000D01*
G02X184750Y172795I-20000J00000*
D14*
G01X212250Y187795D02*
X209750Y187795D01*
X212250Y187795D02*
X209750Y187795D01*
X211000Y189045D02*
X211000Y186545D01*
D11*
X200077Y168978D02*
X202938Y170724*
X202580Y170225D01*
X200434Y170225*
X200077Y170724*
X200077Y174464*
X200434Y174963*
X202580Y174963*
X202938Y174464*
X204367Y174464D02*
X204725Y174963D01*
X206513Y174963*
X206871Y174464*
X206871Y173467*
X206513Y172968*
X204367Y170225*
X206871Y170225*
X209284Y170225D02*
X209284Y174963D01*
X208926Y173965*
D14*
X481500Y157295D02*
X481500Y159795D01*
D12*
X507750Y173545D02*
G75*
G02X467750Y173545I-20000J00000D01*
G02X507750Y173545I20000J00000*
D14*
G01X480250Y158545D02*
X482750Y158545D01*
X480250Y158545D02*
X482750Y158545D01*
X481500Y157295D02*
X481500Y159795D01*
D11*
X482128Y169016D02*
X484989Y170761*
X484631Y170262D01*
X482485Y170262*
X482128Y170761*
X482128Y174501*
X482485Y175000*
X484631Y175000*
X484989Y174501*
X486419Y174501D02*
X486776Y175000D01*
X488564Y175000*
X488922Y174501*
X488922Y173504*
X488564Y173005*
X486419Y170262*
X488922Y170262*
X490709Y174501D02*
X491067Y175000D01*
X492855Y175000*
X493213Y174501*
X493213Y173504*
X492855Y173005*
X490709Y170262*
X493213Y170262*
D15*
X429685Y300413D02*
X429685Y326161D01*
X405197Y300413D02*
X405197Y326161D01*
X428740Y301220D02*
X406240Y301220D01*
D11*
X414736Y306026D02*
X414736Y312010*
X416524Y312010D01*
X417239Y311511*
X417597Y310514*
X417597Y308768*
X417239Y307771*
X416524Y307272*
X414736Y307272*
X415451Y307272D02*
X415451Y312010D01*
X419653Y307272D02*
X419653Y312010D01*
X419295Y311012*
X421798Y307272D02*
X421798Y312010D01*
X421440Y311012*
D15*
X367435Y160959D02*
X367435Y186707D01*
X342947Y160959D02*
X342947Y186707D01*
X366490Y161766D02*
X343990Y161766D01*
D11*
X349211Y167758D02*
X349211Y173742*
X350999Y173742D01*
X351714Y173243*
X352071Y172246*
X352071Y170501*
X351714Y169503*
X350999Y169005*
X349211Y169005*
X349926Y169005D02*
X349926Y173742D01*
X353501Y173243D02*
X353859Y173742D01*
X355647Y173742*
X356005Y173243*
X356005Y172246*
X355647Y171747*
X353501Y169005*
X356005Y169005*
X358418Y169005D02*
X358418Y173742D01*
X358060Y172745*
D15*
X400435Y18913D02*
X400435Y44661D01*
X375947Y18913D02*
X375947Y44661D01*
X399490Y19720D02*
X376990Y19720D01*
D11*
X380825Y25907D02*
X380825Y31892*
X382613Y31892D01*
X383328Y31393*
X383686Y30396*
X383686Y28650*
X383328Y27653*
X382613Y27154*
X380825Y27154*
X381540Y27154D02*
X381540Y31892D01*
X385116Y31393D02*
X385473Y31892D01*
X387261Y31892*
X387619Y31393*
X387619Y30146*
X387261Y29648*
X386188Y29648*
X387261Y29648*
X387619Y29149*
X387619Y27902*
X387261Y27154*
X385473Y27154*
X385116Y27653*
X390032Y27154D02*
X390032Y31892D01*
X389674Y30894*
D12*
X337500Y155000D02*
X337500Y200000D01*
X267500Y200000*
X267500Y155000*
X337500Y155000*
D11*
X297500Y165000D02*
X296253Y165715*
X291516Y165715D01*
X296253Y165358D02*
X296253Y166073D01*
X291516Y165358D02*
X291516Y166073D01*
X295755Y170006D02*
X296253Y169649D01*
X296253Y167503*
X295755Y167145*
X292014Y167145*
X291516Y167503*
X291516Y169649*
X292014Y170006*
X292014Y171436D02*
X291516Y171794D01*
X291516Y173582*
X292014Y173939*
X293012Y173939*
X293511Y173582*
X296253Y171436*
X296253Y173939*
D12*
X372500Y10000D02*
X372500Y55000D01*
X302500Y55000*
X302500Y10000*
X372500Y10000*
D11*
X330000Y17500D02*
X328753Y18215*
X324016Y18215D01*
X328753Y17858D02*
X328753Y18573D01*
X324016Y17858D02*
X324016Y18573D01*
X328255Y22506D02*
X328753Y22149D01*
X328753Y20003*
X328255Y19645*
X324514Y19645*
X324016Y20003*
X324016Y22149*
X324514Y22506*
X324514Y23936D02*
X324016Y24294D01*
X324016Y26082*
X324514Y26439*
X325761Y26439*
X326260Y26082*
X326260Y25009*
X326260Y26082*
X326759Y26439*
X328005Y26439*
X328753Y26082*
X328753Y24294*
X328255Y23936*
D12*
X402500Y292500D02*
X402500Y337500D01*
X332500Y337500*
X332500Y292500*
X402500Y292500*
D11*
X346419Y304016D02*
X347134Y305262*
X347134Y310000D01*
X346776Y305262D02*
X347491Y305262D01*
X346776Y310000D02*
X347491Y310000D01*
X351425Y305761D02*
X351067Y305262D01*
X348922Y305262*
X348564Y305761*
X348564Y309501*
X348922Y310000*
X351067Y310000*
X351425Y309501*
X353480Y305262D02*
X353480Y310000D01*
X353123Y309003*
D12*
X432500Y310528D02*
G75*
G03X512500Y310528I40000J19500D01*
G01X512500Y325528*
G75*
G03X432500Y325528I-40000J-19500*
G01X432500Y310528*
D11*
X468069Y313781D02*
X470572Y315028*
X468069Y315028D01*
X468069Y319766*
X472985Y315028D02*
X472985Y319766D01*
X472628Y318768*
X475131Y315028D02*
X475131Y319766D01*
X474773Y318768*
D12*
X371750Y166545D02*
G75*
G03X451750Y166545I40000J19500D01*
G01X451750Y181545*
G75*
G03X371750Y181545I-40000J-19500*
G01X371750Y166545*
D11*
X400982Y167049D02*
X403486Y168296*
X400982Y168296D01*
X400982Y173033*
X405273Y172535D02*
X405631Y173033D01*
X407419Y173033*
X407776Y172535*
X407776Y171537*
X407419Y171039*
X405273Y168296*
X407776Y168296*
X410189Y168296D02*
X410189Y173033D01*
X409832Y172036*
D12*
X404750Y27750D02*
G75*
G03X484750Y27750I40000J19500D01*
G01X484750Y42750*
G75*
G03X404750Y42750I-40000J-19500*
G01X404750Y27750*
D11*
X437163Y36026D02*
X439667Y37272*
X437163Y37272D01*
X437163Y42010*
X441454Y41511D02*
X441812Y42010D01*
X443600Y42010*
X443957Y41511*
X443957Y40264*
X443600Y39766*
X442527Y39766*
X443600Y39766*
X443957Y39267*
X443957Y38020*
X443600Y37272*
X441812Y37272*
X441454Y37771*
X446371Y37272D02*
X446371Y42010D01*
X446013Y41012*
X37500Y297500D02*
X40003Y298747*
X37500Y298747D01*
X37500Y303484*
X44652Y299495D02*
X44115Y298747D01*
X42327Y298747*
X41791Y299495*
X41791Y302736*
X42327Y303484*
X44115Y303484*
X44652Y302736*
X44652Y299495*
X47512Y300741D02*
X48942Y300741D01*
X48942Y299245*
X48585Y298747*
X46439Y298747*
X46081Y299245*
X46081Y302986*
X46439Y303484*
X48585Y303484*
X48942Y302986*
X53233Y299495D02*
X52697Y298747D01*
X50909Y298747*
X50372Y299495*
X50372Y302736*
X50909Y303484*
X52697Y303484*
X53233Y302736*
X53233Y299495*
X55289Y298747D02*
X55289Y303484D01*
X54931Y302487*
X612500Y15000D02*
X612500Y16247*
X612500Y20984D01*
X614109Y16247*
X615719Y20984*
X615719Y16247*
X616791Y20486D02*
X617148Y20984D01*
X618936Y20984*
X619294Y20486*
X619294Y19488*
X618936Y18989*
X616791Y16247*
X619294Y16247*
X590000Y320000D02*
X590000Y321247*
X590000Y325984D01*
X591609Y321247*
X593219Y325984*
X593219Y321247*
X594291Y325486D02*
X594648Y325984D01*
X596436Y325984*
X596794Y325486*
X596794Y324239*
X596436Y323740*
X595364Y323740*
X596436Y323740*
X596794Y323241*
X596794Y321995*
X596436Y321247*
X594648Y321247*
X594291Y321745*
X35000Y97500D02*
X35000Y98747*
X35000Y103484D01*
X36609Y98747*
X38219Y103484*
X38219Y98747*
X39916Y98747D02*
X39916Y103484D01*
X39559Y102487*
X52500Y88125D02*
X52500Y89372*
X52500Y94109D01*
X54109Y89372*
X55719Y94109*
X55719Y89372*
X58579Y89372D02*
X58579Y94109D01*
X56791Y91117*
X59294Y91117*
X38750Y53125D02*
X38750Y54372*
X38750Y59109D01*
X40359Y54372*
X41969Y59109*
X41969Y54372*
X43041Y54870D02*
X43398Y54372D01*
X45186Y54372*
X45544Y54870*
X45544Y56616*
X45186Y57114*
X43398Y57114*
X43041Y56616*
X43041Y59109*
X45544Y59109*
D12*
X44500Y33000D02*
X49500Y33000D01*
X49500Y28000*
X44500Y28000*
X74500Y40500D02*
X44500Y40500D01*
X44500Y20500*
X74500Y20500*
X74500Y40500*
X44500Y40500D02*
X44500Y50500D01*
X74500Y50500*
X74500Y40500*
X44500Y20500D02*
X44500Y10500D01*
X74500Y10500*
X74500Y21000*
D11*
X52518Y22246D02*
X55379Y24241*
X54842Y23493D01*
X53054Y23493*
X52518Y24241*
X52518Y27482*
X53054Y28230*
X54842Y28230*
X55379Y27482*
X55379Y24241*
X56808Y23493D02*
X56808Y28230D01*
X56808Y25986D02*
X56987Y25986D01*
X59312Y28230*
X56987Y25986D02*
X59312Y23493D01*
X61099Y27732D02*
X61457Y28230D01*
X63245Y28230*
X63602Y27732*
X63602Y26485*
X63245Y25986*
X62172Y25986*
X63245Y25986*
X63602Y25488*
X63602Y24241*
X63245Y23493*
X61457Y23493*
X61099Y23991*
X66016Y23493D02*
X66016Y28230D01*
X65658Y27233*
D12*
X153500Y38000D02*
X158500Y38000D01*
X158500Y33000*
X153500Y33000*
X183500Y45500D02*
X153500Y45500D01*
X153500Y25500*
X183500Y25500*
X183500Y45500*
X153500Y45500D02*
X153500Y55500D01*
X183500Y55500*
X183500Y45500*
X153500Y25500D02*
X153500Y15500D01*
X183500Y15500*
X183500Y26000*
D11*
X161140Y27522D02*
X164001Y29516*
X163464Y28768D01*
X161676Y28768*
X161140Y29516*
X161140Y32758*
X161676Y33506*
X163464Y33506*
X164001Y32758*
X164001Y29516*
X165430Y28768D02*
X165430Y33506D01*
X165430Y31262D02*
X165609Y31262D01*
X167934Y33506*
X165609Y31262D02*
X167934Y28768D01*
X169721Y33007D02*
X170079Y33506D01*
X171867Y33506*
X172224Y33007*
X172224Y31760*
X171867Y31262*
X170794Y31262*
X171867Y31262*
X172224Y30763*
X172224Y29516*
X171867Y28768*
X170079Y28768*
X169721Y29267*
X174012Y33007D02*
X174369Y33506D01*
X176158Y33506*
X176515Y33007*
X176515Y32010*
X176158Y31511*
X174012Y28768*
X176515Y28768*
D12*
X109000Y358778D02*
X114000Y358778D01*
X114000Y353778*
X109000Y353778*
X139000Y366278D02*
X109000Y366278D01*
X109000Y346278*
X139000Y346278*
X139000Y366278*
X109000Y366278D02*
X109000Y376278D01*
X139000Y376278*
X139000Y366278*
X109000Y346278D02*
X109000Y336278D01*
X139000Y336278*
X139000Y346778*
D11*
X117203Y348388D02*
X120064Y350383*
X119527Y349634D01*
X117739Y349634*
X117203Y350383*
X117203Y353624*
X117739Y354372*
X119527Y354372*
X120064Y353624*
X120064Y350383*
X121493Y349634D02*
X121493Y354372D01*
X121493Y352128D02*
X121672Y352128D01*
X123997Y354372*
X121672Y352128D02*
X123997Y349634D01*
X126410Y349634D02*
X126410Y354372D01*
X126052Y353375*
X128555Y349634D02*
X128555Y354372D01*
X128198Y353375*
D12*
X204500Y362278D02*
X209500Y362278D01*
X209500Y357278*
X204500Y357278*
X234500Y369778D02*
X204500Y369778D01*
X204500Y349778*
X234500Y349778*
X234500Y369778*
X204500Y369778D02*
X204500Y379778D01*
X234500Y379778*
X234500Y369778*
X204500Y349778D02*
X204500Y339778D01*
X234500Y339778*
X234500Y350278*
D11*
X210000Y350625D02*
X212861Y352620*
X212324Y351872D01*
X210536Y351872*
X210000Y352620*
X210000Y355861*
X210536Y356609*
X212324Y356609*
X212861Y355861*
X212861Y352620*
X214291Y351872D02*
X214291Y356609D01*
X214291Y354365D02*
X214469Y354365D01*
X216794Y356609*
X214469Y354365D02*
X216794Y351872D01*
X219207Y351872D02*
X219207Y356609D01*
X218850Y355612*
X220727Y356111D02*
X221084Y356609D01*
X222872Y356609*
X223230Y356111*
X223230Y355113*
X222872Y354614*
X220727Y351872*
X223230Y351872*
D12*
X44500Y170795D02*
X49500Y170795D01*
X49500Y165795*
X44500Y165795*
X74500Y178295D02*
X44500Y178295D01*
X44500Y158295*
X74500Y158295*
X74500Y178295*
X44500Y178295D02*
X44500Y188295D01*
X74500Y188295*
X74500Y178295*
X44500Y158295D02*
X44500Y148295D01*
X74500Y148295*
X74500Y158795*
D11*
X54959Y160474D02*
X57820Y162469*
X57283Y161721D01*
X55495Y161721*
X54959Y162469*
X54959Y165711*
X55495Y166459*
X57283Y166459*
X57820Y165711*
X57820Y162469*
X59249Y161721D02*
X59249Y166459D01*
X59249Y164215D02*
X59428Y164215D01*
X61753Y166459*
X59428Y164215D02*
X61753Y161721D01*
X63540Y165960D02*
X63898Y166459D01*
X65686Y166459*
X66043Y165960*
X66043Y164963*
X65686Y164464*
X63540Y161721*
X66043Y161721*
X68457Y161721D02*
X68457Y166459D01*
X68099Y165461*
D13*
X24500Y159545D02*
X34500Y159545D01*
X34500Y184545*
X24500Y184545*
X24500Y159545*
D11*
X33484Y165253D02*
X32238Y165253*
X27500Y165253D01*
X27500Y167756*
X27999Y168114*
X29245Y168114*
X29744Y167756*
X29744Y165253*
X29744Y167399D02*
X29744Y167756D01*
X32238Y168114*
X27999Y169544D02*
X27500Y169901D01*
X27500Y171689*
X27999Y172047*
X28996Y172047*
X29495Y171689*
X32238Y169544*
X32238Y172047*
X27999Y173834D02*
X27500Y174192D01*
X27500Y175980*
X27999Y176338*
X29245Y176338*
X29744Y175980*
X29744Y174907*
X29744Y175980*
X30243Y176338*
X31490Y176338*
X32238Y175980*
X32238Y174192*
X31739Y173834*
D13*
X96250Y159045D02*
X106250Y159045D01*
X106250Y184045*
X96250Y184045*
X96250Y159045*
D11*
X104734Y165253D02*
X103488Y165253*
X98750Y165253D01*
X98750Y167756*
X99249Y168114*
X100495Y168114*
X100994Y167756*
X100994Y165253*
X100994Y167399D02*
X100994Y167756D01*
X103488Y168114*
X99249Y169544D02*
X98750Y169901D01*
X98750Y171689*
X99249Y172047*
X100246Y172047*
X100745Y171689*
X103488Y169544*
X103488Y172047*
X103488Y175622D02*
X98750Y175622D01*
X101742Y173834*
X101742Y176338*
D13*
X84250Y159045D02*
X94250Y159045D01*
X94250Y184045*
X84250Y184045*
X84250Y159045*
D11*
X92859Y165878D02*
X91613Y165878*
X86875Y165878D01*
X86875Y168381*
X87374Y168739*
X88620Y168739*
X89119Y168381*
X89119Y165878*
X89119Y168024D02*
X89119Y168381D01*
X91613Y168739*
X87374Y170169D02*
X86875Y170526D01*
X86875Y172314*
X87374Y172672*
X88371Y172672*
X88870Y172314*
X91613Y170169*
X91613Y172672*
X91114Y174459D02*
X91613Y174817D01*
X91613Y176605*
X91114Y176963*
X89368Y176963*
X88870Y176605*
X88870Y174817*
X89368Y174459*
X86875Y174459*
X86875Y176963*
D13*
X119250Y184045D02*
X109250Y184045D01*
X109250Y159045*
X119250Y159045*
X119250Y184045*
D11*
X117500Y165625D02*
X116253Y165625*
X111516Y165625D01*
X111516Y168128*
X112014Y168486*
X113261Y168486*
X113760Y168128*
X113760Y165625*
X113760Y167771D02*
X113760Y168128D01*
X116253Y168486*
X112014Y169916D02*
X111516Y170273D01*
X111516Y172061*
X112014Y172419*
X113012Y172419*
X113511Y172061*
X116253Y169916*
X116253Y172419*
X114009Y174206D02*
X113511Y174564D01*
X113511Y176352*
X114009Y176710*
X115755Y176710*
X116253Y176352*
X116253Y174564*
X115755Y174206*
X112014Y174206*
X111516Y174564*
X111516Y176352*
X112014Y176710*
D13*
X318750Y326778D02*
X308750Y326778D01*
X308750Y301778*
X318750Y301778*
X318750Y326778*
D11*
X317500Y308125D02*
X316253Y308125*
X311516Y308125D01*
X311516Y310628*
X312014Y310986*
X313261Y310986*
X313760Y310628*
X313760Y308125*
X313760Y310271D02*
X313760Y310628D01*
X316253Y310986*
X316253Y313041D02*
X311516Y313041D01*
X312513Y312684*
X316253Y315187D02*
X311516Y315187D01*
X312513Y314829*
D13*
X296000Y302278D02*
X306000Y302278D01*
X306000Y327278*
X296000Y327278*
X296000Y302278*
D11*
X304734Y309898D02*
X303488Y309898*
X298750Y309898D01*
X298750Y312401*
X299249Y312759*
X300495Y312759*
X300994Y312401*
X300994Y309898*
X300994Y312044D02*
X300994Y312401D01*
X303488Y312759*
X303488Y314815D02*
X298750Y314815D01*
X299747Y314457*
X299249Y316334D02*
X298750Y316692D01*
X298750Y318480*
X299249Y318838*
X300246Y318838*
X300745Y318480*
X303488Y316334*
X303488Y318838*
D13*
X24500Y21750D02*
X34500Y21750D01*
X34500Y46750*
X24500Y46750*
X24500Y21750*
D11*
X32859Y28378D02*
X31613Y28378*
X26875Y28378D01*
X26875Y30881*
X27374Y31239*
X28620Y31239*
X29119Y30881*
X29119Y28378*
X29119Y30524D02*
X29119Y30881D01*
X31613Y31239*
X27374Y32669D02*
X26875Y33026D01*
X26875Y34814*
X27374Y35172*
X28620Y35172*
X29119Y34814*
X29119Y33741*
X29119Y34814*
X29618Y35172*
X30865Y35172*
X31613Y34814*
X31613Y33026*
X31114Y32669*
X27374Y36959D02*
X26875Y37317D01*
X26875Y39105*
X27374Y39463*
X28620Y39463*
X29119Y39105*
X29119Y38032*
X29119Y39105*
X29618Y39463*
X30865Y39463*
X31613Y39105*
X31613Y37317*
X31114Y36959*
D13*
X117750Y22000D02*
X127750Y22000D01*
X127750Y47000*
X117750Y47000*
X117750Y22000*
D11*
X126609Y29628D02*
X125363Y29628*
X120625Y29628D01*
X120625Y32131*
X121124Y32489*
X122370Y32489*
X122869Y32131*
X122869Y29628*
X122869Y31774D02*
X122869Y32131D01*
X125363Y32489*
X121124Y33919D02*
X120625Y34276D01*
X120625Y36064*
X121124Y36422*
X122370Y36422*
X122869Y36064*
X122869Y34991*
X122869Y36064*
X123368Y36422*
X124615Y36422*
X125363Y36064*
X125363Y34276*
X124864Y33919*
X125363Y39997D02*
X120625Y39997D01*
X123617Y38209*
X123617Y40713*
D13*
X84250Y21250D02*
X94250Y21250D01*
X94250Y46250*
X84250Y46250*
X84250Y21250*
D11*
X92859Y28378D02*
X91613Y28378*
X86875Y28378D01*
X86875Y30881*
X87374Y31239*
X88620Y31239*
X89119Y30881*
X89119Y28378*
X89119Y30524D02*
X89119Y30881D01*
X91613Y31239*
X87374Y32669D02*
X86875Y33026D01*
X86875Y34814*
X87374Y35172*
X88620Y35172*
X89119Y34814*
X89119Y33741*
X89119Y34814*
X89618Y35172*
X90865Y35172*
X91613Y34814*
X91613Y33026*
X91114Y32669*
X91114Y36959D02*
X91613Y37317D01*
X91613Y39105*
X91114Y39463*
X89368Y39463*
X88870Y39105*
X88870Y37317*
X89368Y36959*
X86875Y36959*
X86875Y39463*
D13*
X145000Y46750D02*
X135000Y46750D01*
X135000Y21750*
X145000Y21750*
X145000Y46750*
D11*
X143125Y28750D02*
X141878Y28750*
X137141Y28750D01*
X137141Y31253*
X137639Y31611*
X138886Y31611*
X139385Y31253*
X139385Y28750*
X139385Y30896D02*
X139385Y31253D01*
X141878Y31611*
X137639Y33041D02*
X137141Y33398D01*
X137141Y35186*
X137639Y35544*
X138886Y35544*
X139385Y35186*
X139385Y34114*
X139385Y35186*
X139884Y35544*
X141130Y35544*
X141878Y35186*
X141878Y33398*
X141380Y33041*
X139634Y37331D02*
X139136Y37689D01*
X139136Y39477*
X139634Y39835*
X141380Y39835*
X141878Y39477*
X141878Y37689*
X141380Y37331*
X137639Y37331*
X137141Y37689*
X137141Y39477*
X137639Y39835*
D13*
X256250Y184045D02*
X246250Y184045D01*
X246250Y159045*
X256250Y159045*
X256250Y184045*
D11*
X255000Y165000D02*
X253753Y165000*
X249016Y165000D01*
X249016Y167503*
X249514Y167861*
X250761Y167861*
X251260Y167503*
X251260Y165000*
X251260Y167146D02*
X251260Y167503D01*
X253753Y167861*
X249514Y169291D02*
X249016Y169648D01*
X249016Y171436*
X249514Y171794*
X250512Y171794*
X251011Y171436*
X253753Y169291*
X253753Y171794*
X253753Y174207D02*
X249016Y174207D01*
X250013Y173850*
D13*
X66250Y348778D02*
X76250Y348778D01*
X76250Y373778*
X66250Y373778*
X66250Y348778*
D11*
X74734Y355523D02*
X73488Y355523*
X68750Y355523D01*
X68750Y358026*
X69249Y358384*
X70495Y358384*
X70994Y358026*
X70994Y355523*
X70994Y357669D02*
X70994Y358026D01*
X73488Y358384*
X73488Y360440D02*
X68750Y360440D01*
X69747Y360082*
X69249Y361959D02*
X68750Y362317D01*
X68750Y364105*
X69249Y364463*
X70495Y364463*
X70994Y364105*
X70994Y363032*
X70994Y364105*
X71493Y364463*
X72740Y364463*
X73488Y364105*
X73488Y362317*
X72989Y361959*
D13*
X291250Y49250D02*
X281250Y49250D01*
X281250Y24250*
X291250Y24250*
X291250Y49250*
D11*
X289375Y34375D02*
X288128Y34375*
X283391Y34375D01*
X283391Y36878*
X283889Y37236*
X285136Y37236*
X285635Y36878*
X285635Y34375*
X285635Y36521D02*
X285635Y36878D01*
X288128Y37236*
X283889Y38666D02*
X283391Y39023D01*
X283391Y40811*
X283889Y41169*
X285136Y41169*
X285635Y40811*
X285635Y39739*
X285635Y40811*
X286134Y41169*
X287380Y41169*
X288128Y40811*
X288128Y39023*
X287630Y38666*
X288128Y43582D02*
X283391Y43582D01*
X284388Y43225*
D13*
X141250Y348528D02*
X151250Y348528D01*
X151250Y373528*
X141250Y373528*
X141250Y348528*
D11*
X150984Y356773D02*
X149738Y356773*
X145000Y356773D01*
X145000Y359276*
X145499Y359634*
X146745Y359634*
X147244Y359276*
X147244Y356773*
X147244Y358919D02*
X147244Y359276D01*
X149738Y359634*
X149738Y361690D02*
X145000Y361690D01*
X145997Y361332*
X149239Y363209D02*
X149738Y363567D01*
X149738Y365355*
X149239Y365713*
X147493Y365713*
X146995Y365355*
X146995Y363567*
X147493Y363209*
X145000Y363209*
X145000Y365713*
D13*
X235250Y159045D02*
X245250Y159045D01*
X245250Y184045*
X235250Y184045*
X235250Y159045*
D11*
X244109Y164628D02*
X242863Y164628*
X238125Y164628D01*
X238125Y167131*
X238624Y167489*
X239870Y167489*
X240369Y167131*
X240369Y164628*
X240369Y166774D02*
X240369Y167131D01*
X242863Y167489*
X238624Y168919D02*
X238125Y169276D01*
X238125Y171064*
X238624Y171422*
X239621Y171422*
X240120Y171064*
X242863Y168919*
X242863Y171422*
X238624Y173209D02*
X238125Y173567D01*
X238125Y175355*
X238624Y175713*
X239621Y175713*
X240120Y175355*
X242863Y173209*
X242863Y175713*
D13*
X151250Y348528D02*
X161250Y348528D01*
X161250Y373528*
X151250Y373528*
X151250Y348528*
D11*
X160984Y356773D02*
X159738Y356773*
X155000Y356773D01*
X155000Y359276*
X155499Y359634*
X156745Y359634*
X157244Y359276*
X157244Y356773*
X157244Y358919D02*
X157244Y359276D01*
X159738Y359634*
X159738Y361690D02*
X155000Y361690D01*
X155997Y361332*
X159738Y364997D02*
X155000Y364997D01*
X157992Y363209*
X157992Y365713*
D13*
X171250Y373528D02*
X161250Y373528D01*
X161250Y348528*
X171250Y348528*
X171250Y373528*
D11*
X170000Y357500D02*
X168753Y357500*
X164016Y357500D01*
X164016Y360003*
X164514Y360361*
X165761Y360361*
X166260Y360003*
X166260Y357500*
X166260Y359646D02*
X166260Y360003D01*
X168753Y360361*
X168753Y362416D02*
X164016Y362416D01*
X165013Y362059*
X166509Y363936D02*
X166011Y364294D01*
X166011Y366082*
X166509Y366439*
X168255Y366439*
X168753Y366082*
X168753Y364294*
X168255Y363936*
X164514Y363936*
X164016Y364294*
X164016Y366082*
X164514Y366439*
D13*
X269750Y224045D02*
X299750Y224045D01*
X299750Y249045*
X269750Y249045*
X269750Y224045*
D11*
X288344Y229590D02*
X282360Y229590*
X282360Y232451D01*
X282360Y231021D02*
X287098Y231021D01*
X282859Y233881D02*
X282360Y234238D01*
X282360Y236027*
X282859Y236384*
X283856Y236384*
X284355Y236027*
X287098Y233881*
X287098Y236384*
X287098Y238797D02*
X282360Y238797D01*
X283358Y238440*
D13*
X267750Y85750D02*
X297750Y85750D01*
X297750Y110750*
X267750Y110750*
X267750Y85750*
D11*
X286297Y90574D02*
X280313Y90574*
X280313Y93435D01*
X280313Y92005D02*
X285051Y92005D01*
X280812Y94865D02*
X280313Y95223D01*
X280313Y97011*
X280812Y97368*
X282058Y97368*
X282557Y97011*
X282557Y95938*
X282557Y97011*
X283056Y97368*
X284303Y97368*
X285051Y97011*
X285051Y95223*
X284552Y94865*
X285051Y99782D02*
X280313Y99782D01*
X281310Y99424*
D12*
X590000Y152500D02*
G75*
G02X590000Y167500I00000J07500D01*
G02X590000Y152500I00000J-07500*
D11*
G01X586875Y144375D02*
X586875Y145622*
X589736Y150359D01*
X586875Y150359D02*
X589736Y145622D01*
X591166Y149861D02*
X591523Y150359D01*
X593311Y150359*
X593669Y149861*
X593669Y148863*
X593311Y148364*
X591166Y145622*
X593669Y145622*
D12*
X182500Y97500D02*
G75*
G02X182500Y112500I00000J07500D01*
G02X182500Y97500I00000J-07500*
D11*
G01X195000Y105000D02*
X195000Y106247*
X197861Y110984D01*
X195000Y110984D02*
X197861Y106247D01*
X199291Y110486D02*
X199648Y110984D01*
X201436Y110984*
X201794Y110486*
X201794Y109239*
X201436Y108740*
X200364Y108740*
X201436Y108740*
X201794Y108241*
X201794Y106995*
X201436Y106247*
X199648Y106247*
X199291Y106745*
D13*
X-00652Y386813D02*
X-00652Y354313D01*
X04348Y354313*
X04348Y339313*
X-00652Y339313*
X-00652Y306813*
X34348Y306813*
X34348Y386813*
X-00652Y386813*
D11*
X11061Y377049D02*
X11061Y378296*
X13922Y383033D01*
X11061Y383033D02*
X13922Y378296D01*
X15978Y378296D02*
X15978Y383033D01*
X15620Y382036*
X20000Y378795D02*
X19643Y378296D01*
X17855Y378296*
X17497Y378795*
X17497Y382535*
X17855Y383033*
X19643Y383033*
X20000Y382535*
X20000Y378795*
X17497Y378795D02*
X20000Y382535D01*
X22414Y378296D02*
X22414Y383033D01*
X22056Y382036*
X634983Y351516D02*
X634983Y352762*
X637843Y357500D01*
X634983Y357500D02*
X637843Y352762D01*
X639899Y352762D02*
X639899Y357500D01*
X639541Y356503*
X643922Y353261D02*
X643564Y352762D01*
X641776Y352762*
X641419Y353261*
X641419Y357001*
X641776Y357500*
X643564Y357500*
X643922Y357001*
X643922Y353261*
X641419Y353261D02*
X643922Y357001D01*
X645709Y357500D02*
X648213Y357500D01*
X646067Y352762*
X601233Y367141D02*
X601233Y368387*
X604093Y373125D01*
X601233Y373125D02*
X604093Y368387D01*
X606149Y368387D02*
X606149Y373125D01*
X605791Y372128*
X610172Y368886D02*
X609814Y368387D01*
X608026Y368387*
X607669Y368886*
X607669Y372626*
X608026Y373125*
X609814Y373125*
X610172Y372626*
X610172Y368886*
X607669Y368886D02*
X610172Y372626D01*
X611959Y368886D02*
X611959Y370382D01*
X612317Y370881*
X614105Y370881*
X614463Y371380*
X614463Y372626*
X614105Y373125*
X612317Y373125*
X611959Y372626*
X611959Y371380*
X612317Y370881*
X614105Y370881*
X614463Y370382*
X614463Y368886*
X614105Y368387*
X612317Y368387*
X611959Y368886*
X601858Y382766D02*
X601858Y384012*
X604718Y388750D01*
X601858Y388750D02*
X604718Y384012D01*
X606774Y384012D02*
X606774Y388750D01*
X606416Y387753*
X610797Y384511D02*
X610439Y384012D01*
X608651Y384012*
X608294Y384511*
X608294Y388251*
X608651Y388750*
X610439Y388750*
X610797Y388251*
X610797Y384511*
X608294Y384511D02*
X610797Y388251D01*
X615088Y386755D02*
X614730Y386257D01*
X612763Y386257*
X612584Y386755*
X612584Y388251*
X612942Y388750*
X614730Y388750*
X615088Y388251*
X615088Y384511*
X614730Y384012*
X612942Y384012*
X612584Y384511*
X13125Y141875D02*
X13125Y143122*
X15986Y147859D01*
X13125Y147859D02*
X15986Y143122D01*
X17416Y147361D02*
X17773Y147859D01*
X19561Y147859*
X19919Y147361*
X19919Y146363*
X19561Y145864*
X17416Y143122*
X19919Y143122*
X24210Y143620D02*
X23852Y143122D01*
X22064Y143122*
X21706Y143620*
X21706Y147361*
X22064Y147859*
X23852Y147859*
X24210Y147361*
X24210Y143620*
X21706Y143620D02*
X24210Y147361D01*
X25997Y147361D02*
X26355Y147859D01*
X28143Y147859*
X28500Y147361*
X28500Y146114*
X28143Y145615*
X27070Y145615*
X28143Y145615*
X28500Y145116*
X28500Y143870*
X28143Y143122*
X26355Y143122*
X25997Y143620*
X08125Y162500D02*
X08125Y163747*
X10986Y168484D01*
X08125Y168484D02*
X10986Y163747D01*
X12416Y167986D02*
X12773Y168484D01*
X14561Y168484*
X14919Y167986*
X14919Y166988*
X14561Y166489*
X12416Y163747*
X14919Y163747*
X19210Y164245D02*
X18852Y163747D01*
X17064Y163747*
X16706Y164245*
X16706Y167986*
X17064Y168484*
X18852Y168484*
X19210Y167986*
X19210Y164245*
X16706Y164245D02*
X19210Y167986D01*
X22785Y163747D02*
X22785Y168484D01*
X20997Y165492*
X23500Y165492*
X08125Y177500D02*
X08125Y178747*
X10986Y183484D01*
X08125Y183484D02*
X10986Y178747D01*
X12416Y182986D02*
X12773Y183484D01*
X14561Y183484*
X14919Y182986*
X14919Y181988*
X14561Y181489*
X12416Y178747*
X14919Y178747*
X19210Y179245D02*
X18852Y178747D01*
X17064Y178747*
X16706Y179245*
X16706Y182986*
X17064Y183484*
X18852Y183484*
X19210Y182986*
X19210Y179245*
X16706Y179245D02*
X19210Y182986D01*
X20997Y179245D02*
X21355Y178747D01*
X23143Y178747*
X23500Y179245*
X23500Y180991*
X23143Y181489*
X21355Y181489*
X20997Y180991*
X20997Y183484*
X23500Y183484*
X08125Y194375D02*
X08125Y195622*
X10986Y200359D01*
X08125Y200359D02*
X10986Y195622D01*
X12416Y199861D02*
X12773Y200359D01*
X14561Y200359*
X14919Y199861*
X14919Y198863*
X14561Y198364*
X12416Y195622*
X14919Y195622*
X19210Y196120D02*
X18852Y195622D01*
X17064Y195622*
X16706Y196120*
X16706Y199861*
X17064Y200359*
X18852Y200359*
X19210Y199861*
X19210Y196120*
X16706Y196120D02*
X19210Y199861D01*
X20997Y197866D02*
X21355Y198364D01*
X23143Y198364*
X23500Y197866*
X23500Y196120*
X23143Y195622*
X21355Y195622*
X20997Y196120*
X20997Y199861*
X21355Y200359*
X23143Y200359*
X23500Y199861*
X13125Y203750D02*
X13125Y204997*
X15986Y209734D01*
X13125Y209734D02*
X15986Y204997D01*
X17416Y209236D02*
X17773Y209734D01*
X19561Y209734*
X19919Y209236*
X19919Y208238*
X19561Y207739*
X17416Y204997*
X19919Y204997*
X24210Y205495D02*
X23852Y204997D01*
X22064Y204997*
X21706Y205495*
X21706Y209236*
X22064Y209734*
X23852Y209734*
X24210Y209236*
X24210Y205495*
X21706Y205495D02*
X24210Y209236D01*
X25997Y209734D02*
X28500Y209734D01*
X26355Y204997*
X14375Y225625D02*
X14375Y226872*
X17236Y231609D01*
X14375Y231609D02*
X17236Y226872D01*
X18666Y231111D02*
X19023Y231609D01*
X20811Y231609*
X21169Y231111*
X21169Y230113*
X20811Y229614*
X18666Y226872*
X21169Y226872*
X25460Y227370D02*
X25102Y226872D01*
X23314Y226872*
X22956Y227370*
X22956Y231111*
X23314Y231609*
X25102Y231609*
X25460Y231111*
X25460Y227370*
X22956Y227370D02*
X25460Y231111D01*
X27247Y227370D02*
X27247Y228866D01*
X27605Y229365*
X29393Y229365*
X29750Y229864*
X29750Y231111*
X29393Y231609*
X27605Y231609*
X27247Y231111*
X27247Y229864*
X27605Y229365*
X29393Y229365*
X29750Y228866*
X29750Y227370*
X29393Y226872*
X27605Y226872*
X27247Y227370*
X13750Y240625D02*
X13750Y241872*
X16611Y246609D01*
X13750Y246609D02*
X16611Y241872D01*
X18041Y246111D02*
X18398Y246609D01*
X20186Y246609*
X20544Y246111*
X20544Y245113*
X20186Y244614*
X18041Y241872*
X20544Y241872*
X24835Y242370D02*
X24477Y241872D01*
X22689Y241872*
X22331Y242370*
X22331Y246111*
X22689Y246609*
X24477Y246609*
X24835Y246111*
X24835Y242370*
X22331Y242370D02*
X24835Y246111D01*
X29125Y244614D02*
X28768Y244116D01*
X26801Y244116*
X26622Y244614*
X26622Y246111*
X26980Y246609*
X28768Y246609*
X29125Y246111*
X29125Y242370*
X28768Y241872*
X26980Y241872*
X26622Y242370*
X601233Y146516D02*
X601233Y147762*
X604093Y152500D01*
X601233Y152500D02*
X604093Y147762D01*
X605523Y152001D02*
X605881Y152500D01*
X607669Y152500*
X608026Y152001*
X608026Y151004*
X607669Y150505*
X605523Y147762*
X608026Y147762*
X610440Y147762D02*
X610440Y152500D01*
X610082Y151503*
X611959Y152001D02*
X612317Y152500D01*
X614105Y152500*
X614463Y152001*
X614463Y150755*
X614105Y150256*
X613032Y150256*
X614105Y150256*
X614463Y149757*
X614463Y148510*
X614105Y147762*
X612317Y147762*
X611959Y148261*
X601858Y165891D02*
X601858Y167137*
X604718Y171875D01*
X601858Y171875D02*
X604718Y167137D01*
X606148Y171376D02*
X606506Y171875D01*
X608294Y171875*
X608651Y171376*
X608651Y170379*
X608294Y169880*
X606148Y167137*
X608651Y167137*
X611065Y167137D02*
X611065Y171875D01*
X610707Y170878*
X614372Y167137D02*
X614372Y171875D01*
X612584Y168883*
X615088Y168883*
X602483Y179016D02*
X602483Y180262*
X605343Y185000D01*
X602483Y185000D02*
X605343Y180262D01*
X606773Y184501D02*
X607131Y185000D01*
X608919Y185000*
X609276Y184501*
X609276Y183504*
X608919Y183005*
X606773Y180262*
X609276Y180262*
X611690Y180262D02*
X611690Y185000D01*
X611332Y184003*
X613209Y180761D02*
X613567Y180262D01*
X615355Y180262*
X615713Y180761*
X615713Y182507*
X615355Y183005*
X613567Y183005*
X613209Y182507*
X613209Y185000*
X615713Y185000*
X600608Y199016D02*
X600608Y200262*
X603468Y205000D01*
X600608Y205000D02*
X603468Y200262D01*
X604898Y204501D02*
X605256Y205000D01*
X607044Y205000*
X607401Y204501*
X607401Y203504*
X607044Y203005*
X604898Y200262*
X607401Y200262*
X609815Y200262D02*
X609815Y205000D01*
X609457Y204003*
X611334Y202507D02*
X611692Y203005D01*
X613480Y203005*
X613838Y202507*
X613838Y200761*
X613480Y200262*
X611692Y200262*
X611334Y200761*
X611334Y204501*
X611692Y205000*
X613480Y205000*
X613838Y204501*
X601233Y205266D02*
X601233Y206512*
X604093Y211250D01*
X601233Y211250D02*
X604093Y206512D01*
X605523Y210751D02*
X605881Y211250D01*
X607669Y211250*
X608026Y210751*
X608026Y209754*
X607669Y209255*
X605523Y206512*
X608026Y206512*
X610440Y206512D02*
X610440Y211250D01*
X610082Y210253*
X611959Y211250D02*
X614463Y211250D01*
X612317Y206512*
X600608Y225891D02*
X600608Y227137*
X603468Y231875D01*
X600608Y231875D02*
X603468Y227137D01*
X604898Y231376D02*
X605256Y231875D01*
X607044Y231875*
X607401Y231376*
X607401Y230379*
X607044Y229880*
X604898Y227137*
X607401Y227137*
X609815Y227137D02*
X609815Y231875D01*
X609457Y230878*
X611334Y227636D02*
X611334Y229132D01*
X611692Y229631*
X613480Y229631*
X613838Y230130*
X613838Y231376*
X613480Y231875*
X611692Y231875*
X611334Y231376*
X611334Y230130*
X611692Y229631*
X613480Y229631*
X613838Y229132*
X613838Y227636*
X613480Y227137*
X611692Y227137*
X611334Y227636*
X12500Y06250D02*
X12500Y07497*
X15361Y12234D01*
X12500Y12234D02*
X15361Y07497D01*
X16791Y11736D02*
X17148Y12234D01*
X18936Y12234*
X19294Y11736*
X19294Y10489*
X18936Y09990*
X17864Y09990*
X18936Y09990*
X19294Y09491*
X19294Y08245*
X18936Y07497*
X17148Y07497*
X16791Y07995*
X21707Y07497D02*
X21707Y12234D01*
X21350Y11237*
X23227Y11736D02*
X23584Y12234D01*
X25372Y12234*
X25730Y11736*
X25730Y10489*
X25372Y09990*
X24300Y09990*
X25372Y09990*
X25730Y09491*
X25730Y08245*
X25372Y07497*
X23584Y07497*
X23227Y07995*
X09375Y24375D02*
X09375Y25622*
X12236Y30359D01*
X09375Y30359D02*
X12236Y25622D01*
X13666Y29861D02*
X14023Y30359D01*
X15811Y30359*
X16169Y29861*
X16169Y28614*
X15811Y28115*
X14739Y28115*
X15811Y28115*
X16169Y27616*
X16169Y26370*
X15811Y25622*
X14023Y25622*
X13666Y26120*
X18582Y25622D02*
X18582Y30359D01*
X18225Y29362*
X21890Y25622D02*
X21890Y30359D01*
X20102Y27367*
X22605Y27367*
X08125Y40000D02*
X08125Y41247*
X10986Y45984D01*
X08125Y45984D02*
X10986Y41247D01*
X12416Y45486D02*
X12773Y45984D01*
X14561Y45984*
X14919Y45486*
X14919Y44239*
X14561Y43740*
X13489Y43740*
X14561Y43740*
X14919Y43241*
X14919Y41995*
X14561Y41247*
X12773Y41247*
X12416Y41745*
X17332Y41247D02*
X17332Y45984D01*
X16975Y44987*
X18852Y41745D02*
X19209Y41247D01*
X20997Y41247*
X21355Y41745*
X21355Y43491*
X20997Y43989*
X19209Y43989*
X18852Y43491*
X18852Y45984*
X21355Y45984*
X07500Y58125D02*
X07500Y59372*
X10361Y64109D01*
X07500Y64109D02*
X10361Y59372D01*
X11791Y63611D02*
X12148Y64109D01*
X13936Y64109*
X14294Y63611*
X14294Y62364*
X13936Y61865*
X12864Y61865*
X13936Y61865*
X14294Y61366*
X14294Y60120*
X13936Y59372*
X12148Y59372*
X11791Y59870*
X16707Y59372D02*
X16707Y64109D01*
X16350Y63112*
X18227Y61616D02*
X18584Y62114D01*
X20372Y62114*
X20730Y61616*
X20730Y59870*
X20372Y59372*
X18584Y59372*
X18227Y59870*
X18227Y63611*
X18584Y64109*
X20372Y64109*
X20730Y63611*
X-16875Y71875D02*
X-16875Y73122*
X-14014Y77859D01*
X-16875Y77859D02*
X-14014Y73122D01*
X-12584Y77361D02*
X-12227Y77859D01*
X-10439Y77859*
X-10081Y77361*
X-10081Y76114*
X-10439Y75615*
X-11511Y75615*
X-10439Y75615*
X-10081Y75116*
X-10081Y73870*
X-10439Y73122*
X-12227Y73122*
X-12584Y73620*
X-07668Y73122D02*
X-07668Y77859D01*
X-08025Y76862*
X-06148Y77859D02*
X-03645Y77859D01*
X-05791Y73122*
X12500Y88125D02*
X12500Y89372*
X15361Y94109D01*
X12500Y94109D02*
X15361Y89372D01*
X16791Y93611D02*
X17148Y94109D01*
X18936Y94109*
X19294Y93611*
X19294Y92364*
X18936Y91865*
X17864Y91865*
X18936Y91865*
X19294Y91366*
X19294Y90120*
X18936Y89372*
X17148Y89372*
X16791Y89870*
X21707Y89372D02*
X21707Y94109D01*
X21350Y93112*
X23227Y89870D02*
X23227Y91366D01*
X23584Y91865*
X25372Y91865*
X25730Y92364*
X25730Y93611*
X25372Y94109*
X23584Y94109*
X23227Y93611*
X23227Y92364*
X23584Y91865*
X25372Y91865*
X25730Y91366*
X25730Y89870*
X25372Y89372*
X23584Y89372*
X23227Y89870*
X600608Y282766D02*
X600608Y284012*
X603468Y288750D01*
X600608Y288750D02*
X603468Y284012D01*
X605524Y284012D02*
X605524Y288750D01*
X605166Y287753*
X609547Y284511D02*
X609189Y284012D01*
X607401Y284012*
X607044Y284511*
X607044Y288251*
X607401Y288750*
X609189Y288750*
X609547Y288251*
X609547Y284511*
X607044Y284511D02*
X609547Y288251D01*
X611334Y288251D02*
X611692Y288750D01*
X613480Y288750*
X613838Y288251*
X613838Y287005*
X613480Y286506*
X612407Y286506*
X613480Y286506*
X613838Y286007*
X613838Y284760*
X613480Y284012*
X611692Y284012*
X611334Y284511*
X601233Y303391D02*
X601233Y304637*
X604093Y309375D01*
X601233Y309375D02*
X604093Y304637D01*
X606149Y304637D02*
X606149Y309375D01*
X605791Y308378*
X610172Y305136D02*
X609814Y304637D01*
X608026Y304637*
X607669Y305136*
X607669Y308876*
X608026Y309375*
X609814Y309375*
X610172Y308876*
X610172Y305136*
X607669Y305136D02*
X610172Y308876D01*
X613747Y304637D02*
X613747Y309375D01*
X611959Y306383*
X614463Y306383*
X601858Y318391D02*
X601858Y319637*
X604718Y324375D01*
X601858Y324375D02*
X604718Y319637D01*
X606774Y319637D02*
X606774Y324375D01*
X606416Y323378*
X610797Y320136D02*
X610439Y319637D01*
X608651Y319637*
X608294Y320136*
X608294Y323876*
X608651Y324375*
X610439Y324375*
X610797Y323876*
X610797Y320136*
X608294Y320136D02*
X610797Y323876D01*
X612584Y320136D02*
X612942Y319637D01*
X614730Y319637*
X615088Y320136*
X615088Y321882*
X614730Y322380*
X612942Y322380*
X612584Y321882*
X612584Y324375*
X615088Y324375*
D16*
X137668Y-56111D02*
X137668Y-45000*
X139308Y-53796D01*
X140949Y-45000*
X142589Y-53796*
X144230Y-45000*
X149479Y-49167D02*
X148822Y-48241D01*
X146198Y-48241*
X145542Y-49167*
X145542Y-52870*
X146198Y-53796*
X148822Y-53796*
X149479Y-52870*
X149479Y-49167*
X153415Y-53796D02*
X153415Y-48241D01*
X153415Y-49167D02*
X154071Y-48241D01*
X156040Y-48241*
X156696Y-49167*
X163586Y-45000D02*
X163586Y-52870D01*
X164242Y-53796*
X164898Y-53796*
X162601Y-48241D02*
X164570Y-48241D01*
X169163Y-48241D02*
X169163Y-52870D01*
X169819Y-53796*
X172444Y-53796*
X173100Y-52870*
X173100Y-53796D02*
X173100Y-48241D01*
X177036Y-53796D02*
X177036Y-45000D01*
X177036Y-49167D02*
X177693Y-48241D01*
X180317Y-48241*
X180973Y-49167*
X180973Y-53796*
X184910Y-53796D02*
X184910Y-48241D01*
X184910Y-49167D02*
X185566Y-48241D01*
X187535Y-48241*
X188191Y-49167*
X193440Y-49167D02*
X197377Y-49167D01*
X200657Y-53796D02*
X200657Y-45000D01*
X205251Y-45000*
X205907Y-45926*
X205907Y-48241*
X205251Y-49167*
X200657Y-49167*
X212468Y-49167D02*
X211812Y-48241D01*
X209187Y-48241*
X208531Y-49167*
X208531Y-52870*
X209187Y-53796*
X211812Y-53796*
X212468Y-52870*
X212468Y-49167*
X216405Y-48241D02*
X218045Y-53796D01*
X219686Y-48241*
X221326Y-53796*
X222967Y-48241*
X224279Y-51019D02*
X228216Y-51019D01*
X228216Y-49167*
X227559Y-48241*
X224935Y-48241*
X224279Y-49167*
X224279Y-52870*
X224935Y-53796*
X227559Y-53796*
X228216Y-52870*
X232152Y-53796D02*
X232152Y-48241D01*
X232152Y-49167D02*
X232808Y-48241D01*
X234777Y-48241*
X235433Y-49167*
X240026Y-48241D02*
X240026Y-56111D01*
X240026Y-49167D02*
X240682Y-48241D01*
X243307Y-48241*
X243963Y-49167*
X243963Y-52870*
X243307Y-53796*
X240682Y-53796*
X240026Y-52870*
X249048Y-45000D02*
X249048Y-52870D01*
X249376Y-53796*
X249704Y-53796*
X251837Y-49167D02*
X252493Y-48241D01*
X255117Y-48241*
X255774Y-49167*
X255774Y-53796*
X255774Y-52870D02*
X255774Y-53796D01*
X252493Y-53796*
X251837Y-52870*
X251837Y-51944*
X252493Y-51019*
X255774Y-51019*
X262007Y-45000D02*
X262007Y-52870D01*
X262663Y-53796*
X263319Y-53796*
X261023Y-48241D02*
X262991Y-48241D01*
X268896Y-53796D02*
X268896Y-48704D01*
X268896Y-45463D02*
X268896Y-45000D01*
X268568Y-53796D02*
X269224Y-53796D01*
X271521Y-53796D02*
X271521Y-48241D01*
X271521Y-49167D02*
X272177Y-48241D01*
X274802Y-48241*
X275458Y-49167*
X275458Y-53796*
X279394Y-51019D02*
X283331Y-51019D01*
X283331Y-49167*
X282675Y-48241*
X280051Y-48241*
X279394Y-49167*
X279394Y-52870*
X280051Y-53796*
X282675Y-53796*
X283331Y-52870*
X287268Y-53796D02*
X292518Y-53796D01*
X295142Y-45000D02*
X297767Y-53796D01*
X300391Y-45000*
X303016Y-51019D02*
X306953Y-51019D01*
X306953Y-49167*
X306296Y-48241*
X303672Y-48241*
X303016Y-49167*
X303016Y-52870*
X303672Y-53796*
X306296Y-53796*
X306953Y-52870*
X310889Y-53796D02*
X310889Y-48241D01*
X310889Y-49167D02*
X311545Y-48241D01*
X313514Y-48241*
X314170Y-49167*
X318763Y-52870D02*
X319419Y-53796D01*
X322044Y-53796*
X322700Y-52870*
X322700Y-51944*
X322044Y-51019*
X319419Y-51019*
X318763Y-50093*
X318763Y-49167*
X319419Y-48241*
X322044Y-48241*
X322700Y-49167*
X327949Y-53796D02*
X327949Y-48704D01*
X327949Y-45463D02*
X327949Y-45000D01*
X327621Y-53796D02*
X328277Y-53796D01*
X334511Y-49167D02*
X333854Y-48241D01*
X331230Y-48241*
X330574Y-49167*
X330574Y-52870*
X331230Y-53796*
X333854Y-53796*
X334511Y-52870*
X334511Y-49167*
X338447Y-53796D02*
X338447Y-48241D01*
X338447Y-49167D02*
X339103Y-48241D01*
X341728Y-48241*
X342384Y-49167*
X342384Y-53796*
X346321Y-45926D02*
X346977Y-45000D01*
X350258Y-45000*
X350914Y-45926*
X350914Y-47778*
X350258Y-48704*
X346321Y-53796*
X350914Y-53796*
X355179Y-53796D02*
X355015Y-53796D01*
X355015Y-53333*
X355179Y-53333*
X355179Y-53796*
X359280Y-53796D02*
X359280Y-45000D01*
X358624Y-46852*
X362724Y-49167D02*
X366661Y-49167D01*
X369942Y-53796D02*
X369942Y-45000D01*
X369942Y-49167D02*
X370270Y-49167D01*
X374535Y-45000*
X370270Y-49167D02*
X374535Y-53796D01*
X377816Y-49167D02*
X378472Y-48241D01*
X381097Y-48241*
X381753Y-49167*
X381753Y-53796*
X381753Y-52870D02*
X381753Y-53796D01*
X378472Y-53796*
X377816Y-52870*
X377816Y-51944*
X378472Y-51019*
X381753Y-51019*
X387986Y-45000D02*
X387986Y-52870D01*
X388642Y-53796*
X389298Y-53796*
X387002Y-48241D02*
X388970Y-48241D01*
X394875Y-53796D02*
X394875Y-48704D01*
X394875Y-45463D02*
X394875Y-45000D01*
X394547Y-53796D02*
X395204Y-53796D01*
D11*
X92500Y310000D02*
X93930Y313241*
X95361Y313241D01*
X95361Y311745*
X95003Y311247*
X92858Y311247*
X92500Y311745*
X92500Y315486*
X92858Y315984*
X95003Y315984*
X95361Y315486*
X96791Y311247D02*
X96791Y315984D01*
X99652Y311247*
X99652Y315984*
X101081Y315984D02*
X102869Y315984D01*
X103585Y315486*
X103942Y314488*
X103942Y312743*
X103585Y311745*
X102869Y311247*
X101081Y311247*
X101797Y311247D02*
X101797Y315984D01*
X157500Y95000D02*
X158930Y98241*
X160361Y98241D01*
X160361Y96745*
X160003Y96247*
X157858Y96247*
X157500Y96745*
X157500Y100486*
X157858Y100984*
X160003Y100984*
X160361Y100486*
X161791Y96247D02*
X161791Y100984D01*
X164652Y96247*
X164652Y100984*
X166081Y100984D02*
X167869Y100984D01*
X168585Y100486*
X168942Y99488*
X168942Y97743*
X168585Y96745*
X167869Y96247*
X166081Y96247*
X166797Y96247D02*
X166797Y100984D01*
X570000Y165000D02*
X571430Y168241*
X572861Y168241D01*
X572861Y166745*
X572503Y166247*
X570358Y166247*
X570000Y166745*
X570000Y170486*
X570358Y170984*
X572503Y170984*
X572861Y170486*
X574291Y166247D02*
X574291Y170984D01*
X577152Y166247*
X577152Y170984*
X578581Y170984D02*
X580369Y170984D01*
X581085Y170486*
X581442Y169488*
X581442Y167743*
X581085Y166745*
X580369Y166247*
X578581Y166247*
X579297Y166247D02*
X579297Y170984D01*
D16*
X455000Y82500D02*
X455000Y84815*
X455000Y93611D01*
X459593Y93611*
X460249Y92685*
X460249Y90370*
X459593Y89444*
X455000Y89444D02*
X459593Y89444D01*
X460249Y88519*
X460249Y85741*
X459593Y84815*
X455000Y84815*
X462874Y89444D02*
X463530Y90370D01*
X466155Y90370*
X466811Y89444*
X466811Y84815*
X466811Y85741D02*
X466811Y84815D01*
X463530Y84815*
X462874Y85741*
X462874Y86667*
X463530Y87593*
X466811Y87593*
X470747Y90370D02*
X470747Y85741D01*
X471404Y84815*
X474028Y84815*
X474684Y85741*
X474684Y84815D02*
X474684Y90370D01*
X480918Y93611D02*
X480918Y85741D01*
X481574Y84815*
X482230Y84815*
X479933Y90370D02*
X481902Y90370D01*
X486495Y87593D02*
X490432Y87593D01*
X490432Y89444*
X489776Y90370*
X487151Y90370*
X486495Y89444*
X486495Y85741*
X487151Y84815*
X489776Y84815*
X490432Y85741*
X495681Y84815D02*
X495681Y89907D01*
X495681Y93148D02*
X495681Y93611D01*
X495353Y84815D02*
X496009Y84815D01*
X499454Y93611D02*
X499454Y85741D01*
X499782Y84815*
X500110Y84815*
X502242Y85741D02*
X502898Y84815D01*
X505523Y84815*
X506179Y85741*
X506179Y86667*
X505523Y87593*
X502898Y87593*
X502242Y88519*
X502242Y89444*
X502898Y90370*
X505523Y90370*
X506179Y89444*
X510116Y87593D02*
X514053Y87593D01*
X514053Y89444*
X513397Y90370*
X510772Y90370*
X510116Y89444*
X510116Y85741*
X510772Y84815*
X513397Y84815*
X514053Y85741*
X519302Y84815D02*
X519302Y89907D01*
X519302Y93148D02*
X519302Y93611D01*
X518974Y84815D02*
X519630Y84815D01*
X524223Y93611D02*
X524223Y85741D01*
X524879Y84815*
X525535Y84815*
X523239Y90370D02*
X525207Y90370D01*
X529800Y87593D02*
X533737Y87593D01*
X533737Y89444*
X533081Y90370*
X530456Y90370*
X529800Y89444*
X529800Y85741*
X530456Y84815*
X533081Y84815*
X533737Y85741*
X425000Y220000D02*
X425000Y222315*
X425000Y231111D01*
X429593Y231111*
X430249Y230185*
X430249Y227870*
X429593Y226944*
X425000Y226944D02*
X429593Y226944D01*
X430249Y226019*
X430249Y223241*
X429593Y222315*
X425000Y222315*
X432874Y226944D02*
X433530Y227870D01*
X436155Y227870*
X436811Y226944*
X436811Y222315*
X436811Y223241D02*
X436811Y222315D01*
X433530Y222315*
X432874Y223241*
X432874Y224167*
X433530Y225093*
X436811Y225093*
X440747Y227870D02*
X440747Y223241D01*
X441404Y222315*
X444028Y222315*
X444684Y223241*
X444684Y222315D02*
X444684Y227870D01*
X450918Y231111D02*
X450918Y223241D01*
X451574Y222315*
X452230Y222315*
X449933Y227870D02*
X451902Y227870D01*
X456495Y225093D02*
X460432Y225093D01*
X460432Y226944*
X459776Y227870*
X457151Y227870*
X456495Y226944*
X456495Y223241*
X457151Y222315*
X459776Y222315*
X460432Y223241*
X465681Y222315D02*
X465681Y227407D01*
X465681Y230648D02*
X465681Y231111D01*
X465353Y222315D02*
X466009Y222315D01*
X469454Y231111D02*
X469454Y223241D01*
X469782Y222315*
X470110Y222315*
X472242Y223241D02*
X472898Y222315D01*
X475523Y222315*
X476179Y223241*
X476179Y224167*
X475523Y225093*
X472898Y225093*
X472242Y226019*
X472242Y226944*
X472898Y227870*
X475523Y227870*
X476179Y226944*
X480116Y225093D02*
X484053Y225093D01*
X484053Y226944*
X483397Y227870*
X480772Y227870*
X480116Y226944*
X480116Y223241*
X480772Y222315*
X483397Y222315*
X484053Y223241*
X489302Y222315D02*
X489302Y227407D01*
X489302Y230648D02*
X489302Y231111D01*
X488974Y222315D02*
X489630Y222315D01*
X494223Y231111D02*
X494223Y223241D01*
X494879Y222315*
X495535Y222315*
X493239Y227870D02*
X495207Y227870D01*
X499800Y225093D02*
X503737Y225093D01*
X503737Y226944*
X503081Y227870*
X500456Y227870*
X499800Y226944*
X499800Y223241*
X500456Y222315*
X503081Y222315*
X503737Y223241*
X452500Y365000D02*
X452500Y367315*
X452500Y376111D01*
X457093Y376111*
X457749Y375185*
X457749Y372870*
X457093Y371944*
X452500Y371944D02*
X457093Y371944D01*
X457749Y371019*
X457749Y368241*
X457093Y367315*
X452500Y367315*
X460374Y371944D02*
X461030Y372870D01*
X463655Y372870*
X464311Y371944*
X464311Y367315*
X464311Y368241D02*
X464311Y367315D01*
X461030Y367315*
X460374Y368241*
X460374Y369167*
X461030Y370093*
X464311Y370093*
X468247Y372870D02*
X468247Y368241D01*
X468904Y367315*
X471528Y367315*
X472184Y368241*
X472184Y367315D02*
X472184Y372870D01*
X478418Y376111D02*
X478418Y368241D01*
X479074Y367315*
X479730Y367315*
X477433Y372870D02*
X479402Y372870D01*
X483995Y370093D02*
X487932Y370093D01*
X487932Y371944*
X487276Y372870*
X484651Y372870*
X483995Y371944*
X483995Y368241*
X484651Y367315*
X487276Y367315*
X487932Y368241*
X493181Y367315D02*
X493181Y372407D01*
X493181Y375648D02*
X493181Y376111D01*
X492853Y367315D02*
X493509Y367315D01*
X496954Y376111D02*
X496954Y368241D01*
X497282Y367315*
X497610Y367315*
X499742Y368241D02*
X500398Y367315D01*
X503023Y367315*
X503679Y368241*
X503679Y369167*
X503023Y370093*
X500398Y370093*
X499742Y371019*
X499742Y371944*
X500398Y372870*
X503023Y372870*
X503679Y371944*
X507616Y370093D02*
X511553Y370093D01*
X511553Y371944*
X510897Y372870*
X508272Y372870*
X507616Y371944*
X507616Y368241*
X508272Y367315*
X510897Y367315*
X511553Y368241*
X516802Y367315D02*
X516802Y372407D01*
X516802Y375648D02*
X516802Y376111D01*
X516474Y367315D02*
X517130Y367315D01*
X521723Y376111D02*
X521723Y368241D01*
X522379Y367315*
X523035Y367315*
X520739Y372870D02*
X522707Y372870D01*
X527300Y370093D02*
X531237Y370093D01*
X531237Y371944*
X530581Y372870*
X527956Y372870*
X527300Y371944*
X527300Y368241*
X527956Y367315*
X530581Y367315*
X531237Y368241*
X65000Y90000D02*
X65000Y97870*
X66640Y92315D01*
X68281Y97870*
X69921Y92315*
X71562Y97870*
X74186Y92315D02*
X74186Y97407D01*
X74186Y100648D02*
X74186Y101111D01*
X73858Y92315D02*
X74514Y92315D01*
X76811Y92315D02*
X76811Y97870D01*
X76811Y96944D02*
X77467Y97870D01*
X80091Y97870*
X80748Y96944*
X80748Y92315*
X85669Y92315D02*
X85504Y92315D01*
X85504Y92778*
X85669Y92778*
X85669Y92315*
X88621Y97870D02*
X90261Y92315D01*
X91902Y97870*
X93542Y92315*
X95183Y97870*
X97151Y96944D02*
X101088Y96944D01*
X104369Y92315D02*
X104369Y101111D01*
X104369Y96944D02*
X105025Y97870D01*
X107649Y97870*
X108306Y96944*
X108306Y92315*
X112242Y93241D02*
X112898Y92315D01*
X115523Y92315*
X116179Y93241*
X116179Y94167*
X115523Y95093*
X112898Y95093*
X112242Y96019*
X112242Y96944*
X112898Y97870*
X115523Y97870*
X116179Y96944*
X121100Y92315D02*
X120936Y92315D01*
X120936Y92778*
X121100Y92778*
X121100Y92315*
X127990Y96944D02*
X127334Y97870D01*
X124709Y97870*
X124053Y96944*
X124053Y93241*
X124709Y92315*
X127334Y92315*
X127990Y93241*
X127990Y92315D02*
X127990Y101111D01*
X131926Y95093D02*
X135863Y95093D01*
X135863Y96944*
X135207Y97870*
X132583Y97870*
X131926Y96944*
X131926Y93241*
X132583Y92315*
X135207Y92315*
X135863Y93241*
X90000Y285000D02*
X95249Y288241*
X94593Y287315D01*
X90656Y287315*
X90000Y288241*
X90000Y295185*
X90656Y296111*
X94593Y296111*
X95249Y295185*
X97874Y291944D02*
X98530Y292870D01*
X101155Y292870*
X101811Y291944*
X101811Y287315*
X101811Y288241D02*
X101811Y287315D01*
X98530Y287315*
X97874Y288241*
X97874Y289167*
X98530Y290093*
X101811Y290093*
X105747Y287315D02*
X105747Y292870D01*
X105747Y291944D02*
X106404Y292870D01*
X107716Y292870*
X108372Y291944*
X108372Y287315*
X108372Y291944D02*
X109028Y292870D01*
X110341Y292870*
X110997Y291944*
X110997Y287315*
X113621Y292870D02*
X113621Y285000D01*
X113621Y291944D02*
X114277Y292870D01*
X116902Y292870*
X117558Y291944*
X117558Y288241*
X116902Y287315*
X114277Y287315*
X113621Y288241*
X121495Y292870D02*
X121495Y288241D01*
X122151Y287315*
X124776Y287315*
X125432Y288241*
X125432Y287315D02*
X125432Y292870D01*
X129369Y288241D02*
X130025Y287315D01*
X132649Y287315*
X133306Y288241*
X133306Y289167*
X132649Y290093*
X130025Y290093*
X129369Y291019*
X129369Y291944*
X130025Y292870*
X132649Y292870*
X133306Y291944*
X137242Y292870D02*
X138883Y287315D01*
X140523Y292870*
X142163Y287315*
X143804Y292870*
X149053Y291944D02*
X148397Y292870D01*
X145772Y292870*
X145116Y291944*
X145116Y288241*
X145772Y287315*
X148397Y287315*
X149053Y288241*
X149053Y291944*
X156927Y291944D02*
X156270Y292870D01*
X153646Y292870*
X152990Y291944*
X152990Y288241*
X153646Y287315*
X156270Y287315*
X156927Y288241*
X160863Y287315D02*
X160863Y296111D01*
X160863Y291944D02*
X161519Y292870D01*
X164144Y292870*
X164800Y291944*
X164800Y287315*
X168737Y290093D02*
X172674Y290093D01*
X172674Y291944*
X172018Y292870*
X169393Y292870*
X168737Y291944*
X168737Y288241*
X169393Y287315*
X172018Y287315*
X172674Y288241*
X177595Y287315D02*
X177431Y287315D01*
X177431Y287778*
X177595Y287778*
X177595Y287315*
X184485Y291944D02*
X183828Y292870D01*
X181204Y292870*
X180548Y291944*
X180548Y288241*
X181204Y287315*
X183828Y287315*
X184485Y288241*
X184485Y287315D02*
X184485Y296111D01*
X188421Y290093D02*
X192358Y290093D01*
X192358Y291944*
X191702Y292870*
X189077Y292870*
X188421Y291944*
X188421Y288241*
X189077Y287315*
X191702Y287315*
X192358Y288241*
X517500Y192500D02*
X520781Y194815*
X520781Y203611D01*
X517500Y198056*
X522093Y198056*
X525374Y202685D02*
X526030Y203611D01*
X529311Y203611*
X529967Y202685*
X529967Y200833*
X529311Y199907*
X525374Y194815*
X529967Y194815*
X533247Y200370D02*
X535216Y194815D01*
X537184Y200370*
X545058Y199444D02*
X544402Y200370D01*
X541777Y200370*
X541121Y199444*
X541121Y195741*
X541777Y194815*
X544402Y194815*
X545058Y195741*
X545058Y199444*
X550143Y203611D02*
X550143Y195741D01*
X550471Y194815*
X550799Y194815*
X555228Y203611D02*
X555228Y195741D01*
X555884Y194815*
X556541Y194815*
X554244Y200370D02*
X556212Y200370D01*
X561790Y194815D02*
X561626Y194815D01*
X561626Y195278*
X561790Y195278*
X561790Y194815*
X568679Y199444D02*
X568023Y200370D01*
X565398Y200370*
X564742Y199444*
X564742Y195741*
X565398Y194815*
X568023Y194815*
X568679Y195741*
X568679Y194815D02*
X568679Y203611D01*
X572616Y197593D02*
X576553Y197593D01*
X576553Y199444*
X575897Y200370*
X573272Y200370*
X572616Y199444*
X572616Y195741*
X573272Y194815*
X575897Y194815*
X576553Y195741*
D11*
X-22500Y-25000D02*
X-24744Y-23570*
X-26240Y-25000D01*
X-27986Y-23570*
X-23747Y-20709D02*
X-28484Y-20709D01*
X-23747Y-17848*
X-28484Y-17848*
X-26240Y-14273D02*
X-26739Y-14631D01*
X-26739Y-16061*
X-26240Y-16419*
X-24245Y-16419*
X-23747Y-16061*
X-23747Y-14631*
X-24245Y-14273*
X-26240Y-14273*
X-28484Y-10876D02*
X-24245Y-10876D01*
X-23747Y-10519*
X-23747Y-10161*
X-26739Y-11413D02*
X-26739Y-10340D01*
X-22500Y-04976D02*
X-24245Y-03546*
X-23747Y-03189D01*
X-23747Y-01401*
X-24245Y-01043*
X-25741Y-01043*
X-26240Y-01401*
X-26240Y-03189*
X-26739Y-03546*
X-27986Y-03546*
X-28484Y-03189*
X-28484Y-01401*
X-27986Y-01043*
X-26240Y00744D02*
X-26739Y01102D01*
X-26739Y02532*
X-26240Y02890*
X-23747Y02890*
X-24245Y02890D02*
X-23747Y02890D01*
X-23747Y01102*
X-24245Y00744*
X-24744Y00744*
X-25243Y01102*
X-25243Y02890*
X-26739Y05035D02*
X-23747Y06108D01*
X-26739Y07181*
X-25243Y09326D02*
X-25243Y11471D01*
X-26240Y11471*
X-26739Y11114*
X-26739Y09683*
X-26240Y09326*
X-24245Y09326*
X-23747Y09683*
X-23747Y11114*
X-24245Y11471*
X-26240Y15762D02*
X-26739Y15404D01*
X-26739Y13974*
X-26240Y13616*
X-24245Y13616*
X-23747Y13974*
X-23747Y15404*
X-24245Y15762*
X-23747Y15762D02*
X-28484Y15762D01*
X-24495Y19338D02*
X-26240Y20768D01*
X-27986Y19338*
D16*
X220342Y-30000D02*
X220342Y-27685*
X220342Y-18889D01*
X220342Y-24907D02*
X220670Y-24907D01*
X223623Y-22130*
X220670Y-24907D02*
X223623Y-27685D01*
X228215Y-23056D02*
X228872Y-22130D01*
X231496Y-22130*
X232152Y-23056*
X232152Y-27685*
X232152Y-26759D02*
X232152Y-27685D01*
X228872Y-27685*
X228215Y-26759*
X228215Y-25833*
X228872Y-24907*
X232152Y-24907*
X236089Y-18889D02*
X240682Y-18889D01*
X236745Y-27685*
X243963Y-26759D02*
X244619Y-27685D01*
X247900Y-27685*
X248556Y-26759*
X248556Y-23519*
X247900Y-22593*
X244619Y-22593*
X243963Y-23519*
X243963Y-18889*
X248556Y-18889*
X251837Y-23519D02*
X252493Y-22593D01*
X255774Y-22593*
X256430Y-23519*
X256430Y-26759*
X255774Y-27685*
X252493Y-27685*
X251837Y-26759*
X251837Y-19815*
X252493Y-18889*
X255774Y-18889*
X256430Y-19815*
X259710Y-18889D02*
X264303Y-18889D01*
X260366Y-27685*
X267584Y-26759D02*
X268240Y-27685D01*
X271521Y-27685*
X272177Y-26759*
X272177Y-23519*
X271521Y-22593*
X268240Y-22593*
X267584Y-23519*
X267584Y-18889*
X272177Y-18889*
X280707Y-30000D02*
X283331Y-19815*
X283987Y-18889D01*
X287268Y-18889*
X287924Y-19815*
X287924Y-21667*
X287268Y-22593*
X283331Y-27685*
X287924Y-27685*
X291205Y-18889D02*
X295798Y-18889D01*
X291861Y-27685*
X300063Y-27685D02*
X299899Y-27685D01*
X299899Y-27222*
X300063Y-27222*
X300063Y-27685*
X307609Y-26759D02*
X306953Y-27685D01*
X303672Y-27685*
X303016Y-26759*
X303016Y-19815*
X303672Y-18889*
X306953Y-18889*
X307609Y-19815*
X307609Y-26759*
X303016Y-26759D02*
X307609Y-19815D01*
X310889Y-26759D02*
X311545Y-27685D01*
X314826Y-27685*
X315482Y-26759*
X315482Y-23519*
X314826Y-22593*
X311545Y-22593*
X310889Y-23519*
X310889Y-18889*
X315482Y-18889*
X319747Y-27685D02*
X319583Y-27685D01*
X319583Y-27222*
X319747Y-27222*
X319747Y-27685*
X322700Y-19815D02*
X323356Y-18889D01*
X326637Y-18889*
X327293Y-19815*
X327293Y-21667*
X326637Y-22593*
X322700Y-27685*
X327293Y-27685*
X335167Y-26759D02*
X334511Y-27685D01*
X331230Y-27685*
X330574Y-26759*
X330574Y-19815*
X331230Y-18889*
X334511Y-18889*
X335167Y-19815*
X335167Y-26759*
X330574Y-26759D02*
X335167Y-19815D01*
X339596Y-27685D02*
X339596Y-18889D01*
X338939Y-20741*
X346977Y-22593D02*
X346321Y-23519D01*
X342712Y-23519*
X342384Y-22593*
X342384Y-19815*
X343040Y-18889*
X346321Y-18889*
X346977Y-19815*
X346977Y-26759*
X346321Y-27685*
X343040Y-27685*
X342384Y-26759*
X355507Y-30000D02*
X363381Y-30000*
X367153Y-27685*
X367153Y-18889D01*
X366497Y-20741*
X369942Y-26759D02*
X370598Y-27685D01*
X373879Y-27685*
X374535Y-26759*
X374535Y-23519*
X373879Y-22593*
X370598Y-22593*
X369942Y-23519*
X369942Y-18889*
X374535Y-18889*
X378800Y-27685D02*
X378636Y-27685D01*
X378636Y-27222*
X378800Y-27222*
X378800Y-27685*
X378800Y-23056D02*
X378636Y-23056D01*
X378636Y-22593*
X378800Y-22593*
X378800Y-23056*
X381753Y-26759D02*
X382409Y-27685D01*
X385690Y-27685*
X386346Y-26759*
X386346Y-23519*
X385690Y-22593*
X382409Y-22593*
X381753Y-23519*
X381753Y-18889*
X386346Y-18889*
X389626Y-18889D02*
X394219Y-18889D01*
X390282Y-27685*
X-60000Y-25000D02*
X-71111Y-25000*
X-62315Y-23360D01*
X-71111Y-21719*
X-62315Y-20079*
X-71111Y-18438*
X-65093Y-17126D02*
X-65093Y-13189D01*
X-66944Y-13189*
X-67870Y-13845*
X-67870Y-16470*
X-66944Y-17126*
X-63241Y-17126*
X-62315Y-16470*
X-62315Y-13845*
X-63241Y-13189*
X-63241Y-09253D02*
X-62315Y-08596D01*
X-62315Y-05972*
X-63241Y-05316*
X-64167Y-05316*
X-65093Y-05972*
X-65093Y-08596*
X-66019Y-09253*
X-66944Y-09253*
X-67870Y-08596*
X-67870Y-05972*
X-66944Y-05316*
X-71111Y00918D02*
X-63241Y00918D01*
X-62315Y01574*
X-62315Y02230*
X-67870Y-00067D02*
X-67870Y01902D01*
X-62315Y08463D02*
X-70185Y08463D01*
X-71111Y09119*
X-71111Y09776*
X-67870Y07479D02*
X-67870Y09448D01*
X-66944Y14369D02*
X-67870Y15025D01*
X-67870Y17649*
X-66944Y18306*
X-62315Y18306*
X-63241Y18306D02*
X-62315Y18306D01*
X-62315Y15025*
X-63241Y14369*
X-64167Y14369*
X-65093Y15025*
X-65093Y18306*
X-68333Y15681D02*
X-68796Y15681D01*
X-68333Y16993D02*
X-68796Y16993D01*
X-71111Y23390D02*
X-63241Y23390D01*
X-62315Y23719*
X-62315Y24047*
X-62315Y27491D02*
X-67407Y27491D01*
X-70648Y27491D02*
X-71111Y27491D01*
X-62315Y27163D02*
X-62315Y27819D01*
X-63241Y30116D02*
X-62315Y30772D01*
X-62315Y33397*
X-63241Y34053*
X-64167Y34053*
X-65093Y33397*
X-65093Y30772*
X-66019Y30116*
X-66944Y30116*
X-67870Y30772*
X-67870Y33397*
X-66944Y34053*
X-66944Y41927D02*
X-67870Y41270D01*
X-67870Y38646*
X-66944Y37990*
X-63241Y37990*
X-62315Y38646*
X-62315Y41270*
X-63241Y41927*
X-62315Y45863D02*
X-71111Y45863D01*
X-66944Y45863D02*
X-67870Y46519D01*
X-67870Y49144*
X-66944Y49800*
X-62315Y49800*
X-65093Y53737D02*
X-65093Y57674D01*
X-66944Y57674*
X-67870Y57018*
X-67870Y54393*
X-66944Y53737*
X-63241Y53737*
X-62315Y54393*
X-62315Y57018*
X-63241Y57674*
X-60000Y66860D02*
X-62315Y69484*
X-71111Y69484D01*
X-66944Y69484D02*
X-66944Y74734D01*
X-71111Y74734D02*
X-62315Y74734D01*
X-66944Y81295D02*
X-67870Y80639D01*
X-67870Y78014*
X-66944Y77358*
X-63241Y77358*
X-62315Y78014*
X-62315Y80639*
X-63241Y81295*
X-66944Y81295*
X-66944Y89169D02*
X-67870Y88513D01*
X-67870Y85888*
X-66944Y85232*
X-63241Y85232*
X-62315Y85888*
X-62315Y88513*
X-63241Y89169*
X-62315Y93106D02*
X-71111Y93106D01*
X-66944Y93106D02*
X-67870Y93762D01*
X-67870Y96386*
X-66944Y97043*
X-62315Y97043*
X-63241Y100979D02*
X-62315Y101635D01*
X-62315Y104260*
X-63241Y104916*
X-64167Y104916*
X-65093Y104260*
X-65093Y101635*
X-66019Y100979*
X-66944Y100979*
X-67870Y101635*
X-67870Y104260*
X-66944Y104916*
X-66944Y112790D02*
X-67870Y112134D01*
X-67870Y109509*
X-66944Y108853*
X-63241Y108853*
X-62315Y109509*
X-62315Y112134*
X-63241Y112790*
X-62315Y116727D02*
X-71111Y116727D01*
X-66944Y116727D02*
X-67870Y117383D01*
X-67870Y120007*
X-66944Y120664*
X-62315Y120664*
X-67870Y124600D02*
X-63241Y124600D01*
X-62315Y125256*
X-62315Y127881*
X-63241Y128537*
X-62315Y128537D02*
X-67870Y128537D01*
X-71111Y133622D02*
X-63241Y133622D01*
X-62315Y133950*
X-62315Y134278*
X-65093Y136411D02*
X-65093Y140348D01*
X-66944Y140348*
X-67870Y139692*
X-67870Y137067*
X-66944Y136411*
X-63241Y136411*
X-62315Y137067*
X-62315Y139692*
X-63241Y140348*
X-60000Y149534D02*
X-63241Y157408*
X-62315Y156751D01*
X-62315Y152814*
X-63241Y152158*
X-70185Y152158*
X-71111Y152814*
X-71111Y156751*
X-70185Y157408*
X-66944Y160032D02*
X-67870Y160688D01*
X-67870Y163313*
X-66944Y163969*
X-62315Y163969*
X-63241Y163969D02*
X-62315Y163969D01*
X-62315Y160688*
X-63241Y160032*
X-64167Y160032*
X-65093Y160688*
X-65093Y163969*
X-62315Y167906D02*
X-67870Y167906D01*
X-66944Y167906D02*
X-67870Y168562D01*
X-67870Y169874*
X-66944Y170530*
X-62315Y170530*
X-66944Y170530D02*
X-67870Y171186D01*
X-67870Y172499*
X-66944Y173155*
X-62315Y173155*
X-67870Y175779D02*
X-60000Y175779D01*
X-66944Y175779D02*
X-67870Y176436D01*
X-67870Y179060*
X-66944Y179716*
X-63241Y179716*
X-62315Y179060*
X-62315Y176436*
X-63241Y175779*
X-67870Y183653D02*
X-63241Y183653D01*
X-62315Y184309*
X-62315Y186934*
X-63241Y187590*
X-62315Y187590D02*
X-67870Y187590D01*
X-63241Y191527D02*
X-62315Y192183D01*
X-62315Y194808*
X-63241Y195464*
X-64167Y195464*
X-65093Y194808*
X-65093Y192183*
X-66019Y191527*
X-66944Y191527*
X-67870Y192183*
X-67870Y194808*
X-66944Y195464*
X-60000Y204650D02*
X-62315Y207274*
X-71111Y207274D01*
X-71111Y211867*
X-70185Y212524*
X-67870Y212524*
X-66944Y211867*
X-66944Y207274D02*
X-66944Y211867D01*
X-66019Y212524*
X-63241Y212524*
X-62315Y211867*
X-62315Y207274*
X-66944Y219085D02*
X-67870Y218429D01*
X-67870Y215804*
X-66944Y215148*
X-63241Y215148*
X-62315Y215804*
X-62315Y218429*
X-63241Y219085*
X-66944Y219085*
X-66944Y226959D02*
X-67870Y226302D01*
X-67870Y223678*
X-66944Y223022*
X-63241Y223022*
X-62315Y223678*
X-62315Y226302*
X-63241Y226959*
X-62315Y230895D02*
X-71111Y230895D01*
X-66944Y230895D02*
X-67870Y231551D01*
X-67870Y234176*
X-66944Y234832*
X-62315Y234832*
X-66944Y242706D02*
X-67870Y242050D01*
X-67870Y239425*
X-66944Y238769*
X-63241Y238769*
X-62315Y239425*
X-62315Y242050*
X-63241Y242706*
X-66944Y242706*
X-71111Y247791D02*
X-63241Y247791D01*
X-62315Y248119*
X-62315Y248447*
X-71111Y252876D02*
X-63241Y252876D01*
X-62315Y253532*
X-62315Y254188*
X-67870Y251892D02*
X-67870Y253860D01*
X-47870Y-20407D02*
X-47870Y-25000D01*
X-56667Y-25000*
X-52500Y-17126D02*
X-53426Y-16470D01*
X-53426Y-13845*
X-52500Y-13189*
X-47870Y-13189*
X-48796Y-13189D02*
X-47870Y-13189D01*
X-47870Y-16470*
X-48796Y-17126*
X-49722Y-17126*
X-50648Y-16470*
X-50648Y-13189*
X-47870Y-09253D02*
X-56667Y-09253D01*
X-52500Y-09253D02*
X-53426Y-08596D01*
X-53426Y-05972*
X-52500Y-05316*
X-48796Y-05316*
X-47870Y-05972*
X-47870Y-08596*
X-48796Y-09253*
X-52500Y02558D02*
X-53426Y01902D01*
X-53426Y-00723*
X-52500Y-01379*
X-48796Y-01379*
X-47870Y-00723*
X-47870Y01902*
X-48796Y02558*
X-52500Y02558*
X-47870Y06495D02*
X-53426Y06495D01*
X-52500Y06495D02*
X-53426Y07151D01*
X-53426Y09119*
X-52500Y09776*
X-45555Y19618D02*
X-47870Y22242*
X-56667Y22242D01*
X-56667Y26835*
X-55741Y27492*
X-53426Y27492*
X-52500Y26835*
X-52500Y22242*
X-52500Y26179D02*
X-52500Y26835D01*
X-47870Y27492*
X-56667Y30116D02*
X-56667Y35365D01*
X-56667Y32741D02*
X-47870Y32741D01*
M02*
