0
SECTION
2
HEADER
9
$INSUNITS
70
4
9
$ACADVER
1
AC1014
9
$HANDSEED
5
FFFF
0
ENDSEC
0
SECTION
2
TABLES
0
TABLE
2
VPORT
5
8
100
AcDbSymbolTable
0
ENDTAB
0
TABLE
2
LTYPE
5
5
100
AcDbSymbolTable
0
LTYPE
5
14
100
AcDbSymbolTableRecord
100
AcDbLinetypeTableRecord
2
BYBLOCK
70
0
0
LTYPE
5
15
100
AcDbSymbolTableRecord
100
AcDbLinetypeTableRecord
2
BYLAYER
70
0
0
ENDTAB
0
TABLE
2
LAYER
5
2
100
AcDbSymbolTable
70
2
0
LAYER
5
50
100
AcDbSymbolTableRecord
100
AcDbLayerTableRecord
2
0
70
0
6
CONTINUOUS
0
ENDTAB
0
TABLE
2
STYLE
5
3
100
AcDbSymbolTable
70
1
0
STYLE
5
11
100
AcDbSymbolTableRecord
100
AcDbTextStyleTableRecord
2
STANDARD
70
0
0
ENDTAB
0
TABLE
2
VIEW
5
6
100
AcDbSymbolTable
70
0
0
ENDTAB
0
TABLE
2
UCS
5
7
100
AcDbSymbolTable
70
0
0
ENDTAB
0
TABLE
2
APPID
5
9
100
AcDbSymbolTable
70
2
0
APPID
5
12
100
AcDbSymbolTableRecord
100
AcDbRegAppTableRecord
2
ACAD
70
0
0
ENDTAB
0
TABLE
2
DIMSTYLE
5
A
100
AcDbSymbolTable
70
1
0
ENDTAB
0
TABLE
2
BLOCK_RECORD
5
1
100
AcDbSymbolTable
70
1
0
BLOCK_RECORD
5
1F
100
AcDbSymbolTableRecord
100
AcDbBlockTableRecord
2
*MODEL_SPACE
0
BLOCK_RECORD
5
1B
100
AcDbSymbolTableRecord
100
AcDbBlockTableRecord
2
*PAPER_SPACE
0
ENDTAB
0
ENDSEC
0
SECTION
2
BLOCKS
0
BLOCK
5
20
100
AcDbEntity
100
AcDbBlockBegin
2
*MODEL_SPACE
0
ENDBLK
5
21
100
AcDbEntity
100
AcDbBlockEnd
0
BLOCK
5
1C
100
AcDbEntity
100
AcDbBlockBegin
2
*PAPER_SPACE
0
ENDBLK
5
1D
100
AcDbEntity
100
AcDbBlockEnd
0
ENDSEC
0
SECTION
2
ENTITIES
0
LWPOLYLINE
5
100
100
AcDbEntity
8
0
100
AcDbPolyline
90
4
70
1
43
0.0
10
500
20
0
10
0
20
0
10
0
20
25
10
500
20
25
0
LWPOLYLINE
5
101
100
AcDbEntity
8
0
100
AcDbPolyline
90
4
70
1
43
0.0
10
45
20
0
10
42.999999999999972
20
0
10
42.999999999999972
20
12.5
10
45
20
12.5
0
LINE
5
102
100
AcDbEntity
8
0
100
AcDbLine
10
68
20
0
30
0
11
68
21
12.5
31
0
0
LINE
5
103
100
AcDbEntity
8
0
100
AcDbLine
10
65.999999999999972
20
12.5
30
0
11
65.999999999999972
21
0
31
0
0
LINE
5
104
100
AcDbEntity
8
0
100
AcDbLine
10
68
20
12.5
30
0
11
65.999999999999972
21
12.5
31
0
0
LINE
5
105
100
AcDbEntity
8
0
100
AcDbLine
10
91.000000000000014
20
0
30
0
11
91.000000000000014
21
12.5
31
0
0
LINE
5
106
100
AcDbEntity
8
0
100
AcDbLine
10
88.999999999999986
20
12.5
30
0
11
88.999999999999986
21
0
31
0
0
LINE
5
107
100
AcDbEntity
8
0
100
AcDbLine
10
91.000000000000014
20
12.5
30
0
11
88.999999999999986
21
12.5
31
0
0
LINE
5
108
100
AcDbEntity
8
0
100
AcDbLine
10
114
20
0
30
0
11
114
21
12.5
31
0
0
LINE
5
109
100
AcDbEntity
8
0
100
AcDbLine
10
111.99999999999997
20
12.5
30
0
11
111.99999999999997
21
0
31
0
0
LINE
5
110
100
AcDbEntity
8
0
100
AcDbLine
10
114
20
12.5
30
0
11
111.99999999999997
21
12.5
31
0
0
LINE
5
111
100
AcDbEntity
8
0
100
AcDbLine
10
137
20
0
30
0
11
137
21
12.5
31
0
0
LINE
5
112
100
AcDbEntity
8
0
100
AcDbLine
10
134.99999999999997
20
12.5
30
0
11
134.99999999999997
21
0
31
0
0
LINE
5
113
100
AcDbEntity
8
0
100
AcDbLine
10
137
20
12.5
30
0
11
134.99999999999997
21
12.5
31
0
0
LINE
5
114
100
AcDbEntity
8
0
100
AcDbLine
10
160
20
0
30
0
11
160
21
12.5
31
0
0
LINE
5
115
100
AcDbEntity
8
0
100
AcDbLine
10
158
20
12.5
30
0
11
158
21
0
31
0
0
LINE
5
116
100
AcDbEntity
8
0
100
AcDbLine
10
160
20
12.5
30
0
11
158
21
12.5
31
0
0
LINE
5
117
100
AcDbEntity
8
0
100
AcDbLine
10
183
20
0
30
0
11
183
21
12.5
31
0
0
LINE
5
118
100
AcDbEntity
8
0
100
AcDbLine
10
180.99999999999997
20
12.5
30
0
11
180.99999999999997
21
0
31
0
0
LINE
5
119
100
AcDbEntity
8
0
100
AcDbLine
10
183
20
12.5
30
0
11
180.99999999999997
21
12.5
31
0
0
LINE
5
120
100
AcDbEntity
8
0
100
AcDbLine
10
206
20
0
30
0
11
206
21
12.5
31
0
0
LINE
5
121
100
AcDbEntity
8
0
100
AcDbLine
10
204
20
12.5
30
0
11
204
21
0
31
0
0
LINE
5
122
100
AcDbEntity
8
0
100
AcDbLine
10
206
20
12.5
30
0
11
204
21
12.5
31
0
0
LINE
5
123
100
AcDbEntity
8
0
100
AcDbLine
10
229.00000000000003
20
0
30
0
11
229.00000000000003
21
12.5
31
0
0
LINE
5
124
100
AcDbEntity
8
0
100
AcDbLine
10
227
20
12.5
30
0
11
227
21
0
31
0
0
LINE
5
125
100
AcDbEntity
8
0
100
AcDbLine
10
229.00000000000003
20
12.5
30
0
11
227
21
12.5
31
0
0
LINE
5
126
100
AcDbEntity
8
0
100
AcDbLine
10
252.00000000000003
20
0
30
0
11
252.00000000000003
21
12.5
31
0
0
LINE
5
127
100
AcDbEntity
8
0
100
AcDbLine
10
250
20
12.5
30
0
11
250
21
0
31
0
0
LINE
5
128
100
AcDbEntity
8
0
100
AcDbLine
10
252.00000000000003
20
12.5
30
0
11
250
21
12.5
31
0
0
LINE
5
129
100
AcDbEntity
8
0
100
AcDbLine
10
275.00000000000006
20
0
30
0
11
275.00000000000006
21
12.5
31
0
0
LINE
5
130
100
AcDbEntity
8
0
100
AcDbLine
10
273
20
12.5
30
0
11
273
21
0
31
0
0
LINE
5
131
100
AcDbEntity
8
0
100
AcDbLine
10
275.00000000000006
20
12.5
30
0
11
273
21
12.5
31
0
0
LINE
5
132
100
AcDbEntity
8
0
100
AcDbLine
10
298.00000000000006
20
0
30
0
11
298.00000000000006
21
12.5
31
0
0
LINE
5
133
100
AcDbEntity
8
0
100
AcDbLine
10
296
20
12.5
30
0
11
296
21
0
31
0
0
LINE
5
134
100
AcDbEntity
8
0
100
AcDbLine
10
298.00000000000006
20
12.5
30
0
11
296
21
12.5
31
0
0
LINE
5
135
100
AcDbEntity
8
0
100
AcDbLine
10
321
20
0
30
0
11
321
21
12.5
31
0
0
LINE
5
136
100
AcDbEntity
8
0
100
AcDbLine
10
319
20
12.5
30
0
11
319
21
0
31
0
0
LINE
5
137
100
AcDbEntity
8
0
100
AcDbLine
10
321
20
12.5
30
0
11
319
21
12.5
31
0
0
LINE
5
138
100
AcDbEntity
8
0
100
AcDbLine
10
344
20
0
30
0
11
344
21
12.5
31
0
0
LINE
5
139
100
AcDbEntity
8
0
100
AcDbLine
10
341.99999999999994
20
12.5
30
0
11
341.99999999999994
21
0
31
0
0
LINE
5
140
100
AcDbEntity
8
0
100
AcDbLine
10
344
20
12.5
30
0
11
341.99999999999994
21
12.5
31
0
0
LINE
5
141
100
AcDbEntity
8
0
100
AcDbLine
10
367
20
0
30
0
11
367
21
12.5
31
0
0
LINE
5
142
100
AcDbEntity
8
0
100
AcDbLine
10
365
20
12.5
30
0
11
365
21
0
31
0
0
LINE
5
143
100
AcDbEntity
8
0
100
AcDbLine
10
367
20
12.5
30
0
11
365
21
12.5
31
0
0
LINE
5
144
100
AcDbEntity
8
0
100
AcDbLine
10
390.00000000000006
20
0
30
0
11
390.00000000000006
21
12.5
31
0
0
LINE
5
145
100
AcDbEntity
8
0
100
AcDbLine
10
388.00000000000006
20
12.5
30
0
11
388.00000000000006
21
0
31
0
0
LINE
5
146
100
AcDbEntity
8
0
100
AcDbLine
10
390.00000000000006
20
12.5
30
0
11
388.00000000000006
21
12.5
31
0
0
LINE
5
147
100
AcDbEntity
8
0
100
AcDbLine
10
413.00000000000006
20
0
30
0
11
413.00000000000006
21
12.5
31
0
0
LINE
5
148
100
AcDbEntity
8
0
100
AcDbLine
10
411
20
12.5
30
0
11
411
21
0
31
0
0
LINE
5
149
100
AcDbEntity
8
0
100
AcDbLine
10
413.00000000000006
20
12.5
30
0
11
411
21
12.5
31
0
0
LINE
5
150
100
AcDbEntity
8
0
100
AcDbLine
10
436
20
0
30
0
11
436
21
12.5
31
0
0
LINE
5
151
100
AcDbEntity
8
0
100
AcDbLine
10
434
20
12.5
30
0
11
434
21
0
31
0
0
LINE
5
152
100
AcDbEntity
8
0
100
AcDbLine
10
436
20
12.5
30
0
11
434
21
12.5
31
0
0
LINE
5
153
100
AcDbEntity
8
0
100
AcDbLine
10
459.00000000000006
20
0
30
0
11
459.00000000000006
21
12.5
31
0
0
LINE
5
154
100
AcDbEntity
8
0
100
AcDbLine
10
457
20
12.5
30
0
11
457
21
0
31
0
0
LINE
5
155
100
AcDbEntity
8
0
100
AcDbLine
10
459.00000000000006
20
12.5
30
0
11
457
21
12.5
31
0
0
ENDSEC
0
SECTION
2
OBJECTS
0
DICTIONARY
5
C
100
AcDbDictionary
3
ACAD_GROUP
350
D
3
ACAD_MLINESTYLE
350
17
0
DICTIONARY
5
D
100
AcDbDictionary
0
DICTIONARY
5
1A
330
C
100
AcDbDictionary
0
DICTIONARY
5
17
100
AcDbDictionary
0
ENDSEC
0
EOF
