0
SECTION
2
HEADER
9
$INSUNITS
70
4
9
$ACADVER
1
AC1014
9
$HANDSEED
5
FFFF
0
ENDSEC
0
SECTION
2
TABLES
0
TABLE
2
VPORT
5
8
100
AcDbSymbolTable
0
ENDTAB
0
TABLE
2
LTYPE
5
5
100
AcDbSymbolTable
0
LTYPE
5
14
100
AcDbSymbolTableRecord
100
AcDbLinetypeTableRecord
2
BYBLOCK
70
0
0
LTYPE
5
15
100
AcDbSymbolTableRecord
100
AcDbLinetypeTableRecord
2
BYLAYER
70
0
0
ENDTAB
0
TABLE
2
LAYER
5
2
100
AcDbSymbolTable
70
2
0
LAYER
5
50
100
AcDbSymbolTableRecord
100
AcDbLayerTableRecord
2
0
70
0
6
CONTINUOUS
0
ENDTAB
0
TABLE
2
STYLE
5
3
100
AcDbSymbolTable
70
1
0
STYLE
5
11
100
AcDbSymbolTableRecord
100
AcDbTextStyleTableRecord
2
STANDARD
70
0
0
ENDTAB
0
TABLE
2
VIEW
5
6
100
AcDbSymbolTable
70
0
0
ENDTAB
0
TABLE
2
UCS
5
7
100
AcDbSymbolTable
70
0
0
ENDTAB
0
TABLE
2
APPID
5
9
100
AcDbSymbolTable
70
2
0
APPID
5
12
100
AcDbSymbolTableRecord
100
AcDbRegAppTableRecord
2
ACAD
70
0
0
ENDTAB
0
TABLE
2
DIMSTYLE
5
A
100
AcDbSymbolTable
70
1
0
ENDTAB
0
TABLE
2
BLOCK_RECORD
5
1
100
AcDbSymbolTable
70
1
0
BLOCK_RECORD
5
1F
100
AcDbSymbolTableRecord
100
AcDbBlockTableRecord
2
*MODEL_SPACE
0
BLOCK_RECORD
5
1B
100
AcDbSymbolTableRecord
100
AcDbBlockTableRecord
2
*PAPER_SPACE
0
ENDTAB
0
ENDSEC
0
SECTION
2
BLOCKS
0
BLOCK
5
20
100
AcDbEntity
100
AcDbBlockBegin
2
*MODEL_SPACE
0
ENDBLK
5
21
100
AcDbEntity
100
AcDbBlockEnd
0
BLOCK
5
1C
100
AcDbEntity
100
AcDbBlockBegin
2
*PAPER_SPACE
0
ENDBLK
5
1D
100
AcDbEntity
100
AcDbBlockEnd
0
ENDSEC
0
SECTION
2
ENTITIES
0
LWPOLYLINE
5
100
100
AcDbEntity
8
0
100
AcDbPolyline
90
168
70
1
43
0.0
10
489.00000000000006
20
-12.500000000000002
10
487
20
-12.500000000000002
10
487
20
-24.5
10
475.00000000000006
20
-24.5
10
475.00000000000006
20
-26.500000000000004
10
465.4500000000001
20
-26.500000000000004
10
465.4500000000001
20
-24.5
10
455.4500000000001
20
-24.5
10
455.4500000000001
20
-26.500000000000004
10
441.45000000000005
20
-26.500000000000004
10
441.45000000000005
20
-24.5
10
431.45000000000005
20
-24.5
10
431.45000000000005
20
-26.500000000000004
10
417.4500000000001
20
-26.500000000000004
10
417.4500000000001
20
-24.5
10
407.4500000000001
20
-24.5
10
407.4500000000001
20
-26.500000000000004
10
393.45000000000005
20
-26.500000000000004
10
393.45000000000005
20
-24.5
10
383.45000000000005
20
-24.5
10
383.45000000000005
20
-26.500000000000004
10
369.45000000000016
20
-26.500000000000004
10
369.45000000000016
20
-24.5
10
359.45000000000016
20
-24.5
10
359.45000000000016
20
-26.500000000000004
10
345.4500000000001
20
-26.500000000000004
10
345.4500000000001
20
-24.5
10
335.4500000000001
20
-24.5
10
335.4500000000001
20
-26.500000000000004
10
321.45000000000005
20
-26.500000000000004
10
321.45000000000005
20
-24.5
10
311.45000000000005
20
-24.5
10
311.45000000000005
20
-26.500000000000004
10
297.45000000000005
20
-26.500000000000004
10
297.45000000000005
20
-24.5
10
287.45000000000005
20
-24.5
10
287.45000000000005
20
-26.500000000000004
10
273.45000000000005
20
-26.500000000000004
10
273.45000000000005
20
-24.5
10
263.45000000000005
20
-24.5
10
263.45000000000005
20
-26.500000000000004
10
249.44999999999999
20
-26.500000000000004
10
249.44999999999999
20
-24.5
10
239.44999999999999
20
-24.5
10
239.44999999999999
20
-26.500000000000004
10
225.45000000000002
20
-26.500000000000004
10
225.45000000000002
20
-24.5
10
215.45000000000002
20
-24.5
10
215.45000000000002
20
-26.500000000000004
10
201.45000000000005
20
-26.500000000000004
10
201.45000000000005
20
-24.5
10
191.45000000000005
20
-24.5
10
191.45000000000005
20
-26.500000000000004
10
177.45000000000002
20
-26.500000000000004
10
177.45000000000002
20
-24.5
10
167.45000000000002
20
-24.5
10
167.45000000000002
20
-26.500000000000004
10
153.45000000000002
20
-26.500000000000004
10
153.45000000000002
20
-24.5
10
143.45000000000002
20
-24.5
10
143.45000000000002
20
-26.500000000000004
10
129.44999999999999
20
-26.500000000000004
10
129.44999999999999
20
-24.5
10
119.45
20
-24.5
10
119.45
20
-26.500000000000004
10
105.45000000000002
20
-26.500000000000004
10
105.45000000000002
20
-24.5
10
95.450000000000017
20
-24.5
10
95.450000000000017
20
-26.500000000000004
10
81.449999999999989
20
-26.500000000000004
10
81.449999999999989
20
-24.5
10
71.450000000000003
20
-24.5
10
71.450000000000003
20
-26.500000000000004
10
57.450000000000003
20
-26.500000000000004
10
57.450000000000003
20
-24.5
10
47.450000000000003
20
-24.5
10
47.450000000000003
20
-26.500000000000004
10
33.449999999999996
20
-26.500000000000004
10
33.449999999999996
20
-24.5
10
23.449999999999996
20
-24.5
10
23.449999999999996
20
-26.500000000000004
10
14.000000000000002
20
-26.500000000000004
10
14.000000000000002
20
-24.5
10
2
20
-24.5
10
2
20
-12.500000000000002
10
0
20
-12.500000000000002
10
0
20
0
10
15.550000000000001
20
0
10
15.550000000000001
20
-13.250000000000002
10
17.450000000000003
20
-13.250000000000002
10
17.450000000000003
20
-3.3029698546241095e-31
10
39.549999999999997
20
0
10
39.549999999999997
20
-13.250000000000002
10
41.450000000000003
20
-13.250000000000002
10
41.450000000000003
20
-3.3029698546241095e-31
10
63.550000000000004
20
0
10
63.550000000000004
20
-13.250000000000002
10
65.450000000000003
20
-13.250000000000002
10
65.450000000000003
20
-3.3029698546241095e-31
10
87.550000000000026
20
0
10
87.550000000000026
20
-13.250000000000002
10
89.450000000000017
20
-13.250000000000002
10
89.450000000000017
20
-3.3029698546241095e-31
10
111.55000000000003
20
0
10
111.55000000000003
20
-13.250000000000002
10
113.45000000000002
20
-13.250000000000002
10
113.45000000000002
20
-3.3029698546241095e-31
10
135.55000000000004
20
0
10
135.55000000000004
20
-13.250000000000002
10
137.45000000000002
20
-13.250000000000002
10
137.45000000000002
20
-3.3029698546241095e-31
10
159.55000000000004
20
0
10
159.55000000000004
20
-13.250000000000002
10
161.44999999999999
20
-13.250000000000002
10
161.44999999999999
20
-3.3029698546241095e-31
10
183.55000000000004
20
0
10
183.55000000000004
20
-13.250000000000002
10
185.45000000000002
20
-13.250000000000002
10
185.45000000000002
20
-3.3029698546241095e-31
10
207.55000000000001
20
0
10
207.55000000000001
20
-13.250000000000002
10
209.44999999999999
20
-13.250000000000002
10
209.44999999999999
20
-3.3029698546241095e-31
10
231.55000000000001
20
0
10
231.55000000000001
20
-13.250000000000002
10
233.44999999999999
20
-13.250000000000002
10
233.44999999999999
20
-3.3029698546241095e-31
10
255.55000000000004
20
0
10
255.55000000000004
20
-13.250000000000002
10
257.44999999999999
20
-13.250000000000002
10
257.44999999999999
20
-3.3029698546241095e-31
10
279.55000000000007
20
0
10
279.55000000000007
20
-13.250000000000002
10
281.45000000000005
20
-13.250000000000002
10
281.45000000000005
20
-3.3029698546241095e-31
10
303.55000000000007
20
0
10
303.55000000000007
20
-13.250000000000002
10
305.45000000000005
20
-13.250000000000002
10
305.45000000000005
20
-3.3029698546241095e-31
10
327.55000000000001
20
0
10
327.55000000000001
20
-13.250000000000002
10
329.45000000000005
20
-13.250000000000002
10
329.45000000000005
20
-3.3029698546241095e-31
10
351.55000000000007
20
0
10
351.55000000000007
20
-13.250000000000002
10
353.45000000000016
20
-13.250000000000002
10
353.45000000000016
20
-3.3029698546241095e-31
10
375.55000000000007
20
0
10
375.55000000000007
20
-13.250000000000002
10
377.4500000000001
20
-13.250000000000002
10
377.4500000000001
20
-3.3029698546241095e-31
10
399.55000000000007
20
0
10
399.55000000000007
20
-13.250000000000002
10
401.4500000000001
20
-13.250000000000002
10
401.4500000000001
20
-3.3029698546241095e-31
10
423.55000000000007
20
0
10
423.55000000000007
20
-13.250000000000002
10
425.4500000000001
20
-13.250000000000002
10
425.4500000000001
20
-3.3029698546241095e-31
10
447.55000000000001
20
0
10
447.55000000000001
20
-13.250000000000002
10
449.45000000000005
20
-13.250000000000002
10
449.45000000000005
20
-3.3029698546241095e-31
10
471.55000000000007
20
0
10
471.55000000000007
20
-13.250000000000002
10
473.45000000000016
20
-13.250000000000002
10
473.45000000000016
20
-3.3029698546241095e-31
10
489.00000000000006
20
0
0
ENDSEC
0
SECTION
2
OBJECTS
0
DICTIONARY
5
C
100
AcDbDictionary
3
ACAD_GROUP
350
D
3
ACAD_MLINESTYLE
350
17
0
DICTIONARY
5
D
100
AcDbDictionary
0
DICTIONARY
5
1A
330
C
100
AcDbDictionary
0
DICTIONARY
5
17
100
AcDbDictionary
0
ENDSEC
0
EOF
