0
SECTION
2
HEADER
9
$INSUNITS
70
4
9
$ACADVER
1
AC1014
9
$HANDSEED
5
FFFF
0
ENDSEC
0
SECTION
2
TABLES
0
TABLE
2
VPORT
5
8
100
AcDbSymbolTable
0
ENDTAB
0
TABLE
2
LTYPE
5
5
100
AcDbSymbolTable
0
LTYPE
5
14
100
AcDbSymbolTableRecord
100
AcDbLinetypeTableRecord
2
BYBLOCK
70
0
0
LTYPE
5
15
100
AcDbSymbolTableRecord
100
AcDbLinetypeTableRecord
2
BYLAYER
70
0
0
ENDTAB
0
TABLE
2
LAYER
5
2
100
AcDbSymbolTable
70
2
0
LAYER
5
50
100
AcDbSymbolTableRecord
100
AcDbLayerTableRecord
2
0
70
0
6
CONTINUOUS
0
ENDTAB
0
TABLE
2
STYLE
5
3
100
AcDbSymbolTable
70
1
0
STYLE
5
11
100
AcDbSymbolTableRecord
100
AcDbTextStyleTableRecord
2
STANDARD
70
0
0
ENDTAB
0
TABLE
2
VIEW
5
6
100
AcDbSymbolTable
70
0
0
ENDTAB
0
TABLE
2
UCS
5
7
100
AcDbSymbolTable
70
0
0
ENDTAB
0
TABLE
2
APPID
5
9
100
AcDbSymbolTable
70
2
0
APPID
5
12
100
AcDbSymbolTableRecord
100
AcDbRegAppTableRecord
2
ACAD
70
0
0
ENDTAB
0
TABLE
2
DIMSTYLE
5
A
100
AcDbSymbolTable
70
1
0
ENDTAB
0
TABLE
2
BLOCK_RECORD
5
1
100
AcDbSymbolTable
70
1
0
BLOCK_RECORD
5
1F
100
AcDbSymbolTableRecord
100
AcDbBlockTableRecord
2
*MODEL_SPACE
0
BLOCK_RECORD
5
1B
100
AcDbSymbolTableRecord
100
AcDbBlockTableRecord
2
*PAPER_SPACE
0
ENDTAB
0
ENDSEC
0
SECTION
2
BLOCKS
0
BLOCK
5
20
100
AcDbEntity
100
AcDbBlockBegin
2
*MODEL_SPACE
0
ENDBLK
5
21
100
AcDbEntity
100
AcDbBlockEnd
0
BLOCK
5
1C
100
AcDbEntity
100
AcDbBlockBegin
2
*PAPER_SPACE
0
ENDBLK
5
1D
100
AcDbEntity
100
AcDbBlockEnd
0
ENDSEC
0
SECTION
2
ENTITIES
0
LINE
5
100
100
AcDbEntity
8
0
100
AcDbLine
10
-13.396250253319742
20
5.3283594346046437
30
0
11
-13.396250253319742
21
5.0451563096046437
31
0
0
SPLINE
5
101
100
AcDbEntity
8
0
100
AcDbSpline
70
1064
71
3
72
10
73
6
74
0
42
0.000000001
43
0.0000000001
44
0.0000000001
40
0
40
0
40
0
40
0
40
0.034789623665679462
40
0.034789623665679462
40
0.069099834324206605
40
0.069099834324206605
40
0.069099834324206605
40
0.069099834324206605
10
-13.396250253319742
20
5.0451563096046437
30
0
10
-13.49573289824243
20
4.985564530051648
30
0
10
-13.57329000481505
20
4.9391065171868362
30
0
10
-13.73293662601499
20
4.8067755379924382
30
0
10
-13.803851252167371
20
4.7306534237985334
30
0
10
-13.874765878319742
20
4.6545313096046446
30
0
0
SPLINE
5
102
100
AcDbEntity
8
0
100
AcDbSpline
70
1064
71
3
72
10
73
6
74
0
42
0.000000001
43
0.0000000001
44
0.0000000001
40
0
40
0
40
0
40
0
40
0.040360824123865144
40
0.040360824123865144
40
0.080675851479550559
40
0.080675851479550559
40
0.080675851479550559
40
0.080675851479550559
10
-13.874765878319742
20
4.6545313096046446
30
0
10
-13.960110039853822
20
4.5505297181509237
30
0
10
-14.038286759813609
20
4.455262471460558
30
0
10
-14.17797209739404
20
4.2400559213155766
30
0
10
-14.23632992535688
20
4.1250279904601328
30
0
10
-14.294687753319742
20
4.0100000596046446
30
0
0
LINE
5
103
100
AcDbEntity
8
0
100
AcDbLine
10
-14.294687753319742
20
4.0100000596046446
30
0
11
-14.719492440819742
21
4.0100000596046446
31
0
0
SPLINE
5
104
100
AcDbEntity
8
0
100
AcDbSpline
70
1064
71
3
72
10
73
6
74
0
42
0.000000001
43
0.0000000001
44
0.0000000001
40
0
40
0
40
0
40
0
40
0.028558515888360579
40
0.028558515888360579
40
0.056820126028682721
40
0.056820126028682721
40
0.056820126028682721
40
0.056820126028682721
10
-14.719492440819742
20
4.0100000596046446
30
0
10
-14.683389010715713
20
4.0980832046609468
30
0
10
-14.654551685259484
20
4.1684389108605471
30
0
10
-14.57799860978839
20
4.3232348563124035
30
0
10
-14.535220134679086
20
4.3979407001459867
30
0
10
-14.492441659569742
20
4.4726465439796446
30
0
0
SPLINE
5
105
100
AcDbEntity
8
0
100
AcDbSpline
70
1064
71
3
72
10
73
6
74
0
42
0.000000001
43
0.0000000001
44
0.0000000001
40
0
40
0
40
0
40
0
40
0.025833185376235645
40
0.025833185376235645
40
0.051934609116310315
40
0.051934609116310315
40
0.051934609116310315
40
0.051934609116310315
10
-14.492441659569742
20
4.4726465439796446
30
0
10
-14.447729459535692
20
4.5462390550579777
30
0
10
-14.40301725950164
20
4.6198315661363134
30
0
10
-14.302127787215388
20
4.7597058896227482
30
0
10
-14.252179848346213
20
4.81710907255877
30
0
10
-14.189707284569742
20
4.8889063096046446
30
0
0
LINE
5
106
100
AcDbEntity
8
0
100
AcDbLine
10
-14.189707284569739
20
4.8889063096046446
30
0
11
-16.990000253319742
21
4.8889063096046446
31
0
0
LINE
5
107
100
AcDbEntity
8
0
100
AcDbLine
10
-16.990000253319742
20
4.8889063096046446
30
0
11
-16.990000253319742
21
5.3283594346046446
31
0
0
LINE
5
108
100
AcDbEntity
8
0
100
AcDbLine
10
-16.990000253319742
20
5.3283594346046446
30
0
11
-13.396250253319742
21
5.3283594346046437
31
0
0
LINE
5
109
100
AcDbEntity
8
0
100
AcDbLine
10
-8.3919175749447188
20
2.5821791577326634
30
0
11
-8.3919175749447188
21
2.2989760327326634
31
0
0
SPLINE
5
110
100
AcDbEntity
8
0
100
AcDbSpline
70
1064
71
3
72
10
73
6
74
0
42
0.000000001
43
0.0000000001
44
0.0000000001
40
0
40
0
40
0
40
0
40
0.034789623665658638
40
0.034789623665658638
40
0.069099834324160808
40
0.069099834324160808
40
0.069099834324160808
40
0.069099834324160808
10
-8.3919175749447188
20
2.2989760327326634
30
0
10
-8.4914002198673479
20
2.2393842531797019
30
0
10
-8.5689573264400138
20
2.1929262403148622
30
0
10
-8.7286039476399662
20
2.0605952611204579
30
0
10
-8.7995185737923443
20
1.9844731469265589
30
0
10
-8.8704331999447188
20
1.9083510327326634
30
0
0
SPLINE
5
111
100
AcDbEntity
8
0
100
AcDbSpline
70
1064
71
3
72
10
73
6
74
0
42
0.000000001
43
0.0000000001
44
0.0000000001
40
0
40
0
40
0
40
0
40
0.040360824123879563
40
0.040360824123879563
40
0.080675851479589195
40
0.080675851479589195
40
0.080675851479589195
40
0.080675851479589195
10
-8.8704331999447188
20
1.9083510327326634
30
0
10
-8.9557773614788303
20
1.8043494412789054
30
0
10
-9.0339540814385959
20
1.7090821945885653
30
0
10
-9.1736394190190289
20
1.4938756444435806
30
0
10
-9.2319972469818801
20
1.3788477135881099
30
0
10
-9.2903550749447188
20
1.2638197827326634
30
0
0
LINE
5
112
100
AcDbEntity
8
0
100
AcDbLine
10
-9.2903550749447206
20
1.2638197827326636
30
0
11
-9.7151597624447206
21
1.2638197827326634
31
0
0
SPLINE
5
113
100
AcDbEntity
8
0
100
AcDbSpline
70
1064
71
3
72
10
73
6
74
0
42
0.000000001
43
0.0000000001
44
0.0000000001
40
0
40
0
40
0
40
0
40
0.028558515888375959
40
0.028558515888375959
40
0.056820126028720476
40
0.056820126028720476
40
0.056820126028720476
40
0.056820126028720476
10
-9.7151597624447206
20
1.2638197827326634
30
0
10
-9.6790563323406715
20
1.3519029277890122
30
0
10
-9.6502190068844449
20
1.4222586339885979
30
0
10
-9.5736659314133714
20
1.5770545794404103
30
0
10
-9.5308874563040682
20
1.6517604232739982
30
0
10
-9.4881089811947188
20
1.7264662671076636
30
0
0
SPLINE
5
114
100
AcDbEntity
8
0
100
AcDbSpline
70
1064
71
3
72
10
73
6
74
0
42
0.000000001
43
0.0000000001
44
0.0000000001
40
0
40
0
40
0
40
0
40
0.025833185376242549
40
0.025833185376242549
40
0.051934609116342713
40
0.051934609116342713
40
0.051934609116342713
40
0.051934609116342713
10
-9.4881089811947188
20
1.7264662671076636
30
0
10
-9.4433967811606578
20
1.8000587781860165
30
0
10
-9.3986845811266111
20
1.8736512892643422
30
0
10
-9.297795108840333
20
2.0135256127508074
30
0
10
-9.2478471699710756
20
2.0709287956869216
30
0
10
-9.1853746061947188
20
2.1427260327326634
30
0
0
LINE
5
115
100
AcDbEntity
8
0
100
AcDbLine
10
-9.1853746061947206
20
2.1427260327326634
30
0
11
-11.985667574944721
21
2.1427260327326643
31
0
0
LINE
5
116
100
AcDbEntity
8
0
100
AcDbLine
10
-11.985667574944721
20
2.1427260327326643
30
0
11
-11.985667574944721
21
2.5821791577326643
31
0
0
LINE
5
117
100
AcDbEntity
8
0
100
AcDbLine
10
-11.985667574944721
20
2.5821791577326643
30
0
11
-8.3919175749447188
21
2.5821791577326634
31
0
0
LWPOLYLINE
5
118
100
AcDbEntity
8
0
100
AcDbPolyline
90
82
70
1
43
0.0
10
-489.00000000000006
20
21.500000000000004
10
-461.45000000000005
20
21.500000000000004
10
-461.45000000000005
20
13.250000000000007
10
-459.55000000000007
20
13.250000000000004
10
-459.55000000000007
20
26.500000000000004
10
-437.45000000000005
20
26.500000000000004
10
-437.45000000000005
20
13.250000000000007
10
-435.55000000000007
20
13.250000000000004
10
-435.55000000000007
20
26.500000000000004
10
-413.45000000000005
20
26.500000000000004
10
-413.45000000000005
20
13.250000000000007
10
-411.55000000000007
20
13.250000000000004
10
-411.55000000000007
20
26.500000000000004
10
-389.45000000000005
20
26.500000000000004
10
-389.45000000000005
20
13.250000000000007
10
-387.55000000000007
20
13.250000000000004
10
-387.55000000000007
20
26.500000000000004
10
-365.4500000000001
20
26.500000000000004
10
-365.4500000000001
20
13.250000000000007
10
-363.55000000000013
20
13.250000000000004
10
-363.55000000000013
20
26.500000000000004
10
-341.45000000000005
20
26.500000000000004
10
-341.45000000000005
20
13.250000000000007
10
-339.55000000000007
20
13.250000000000004
10
-339.55000000000007
20
26.500000000000004
10
-317.45000000000005
20
26.500000000000004
10
-317.45000000000005
20
13.250000000000007
10
-315.55000000000001
20
13.250000000000004
10
-315.55000000000001
20
26.500000000000004
10
-293.45000000000005
20
26.500000000000004
10
-293.45000000000005
20
13.250000000000007
10
-291.55000000000007
20
13.250000000000004
10
-291.55000000000007
20
26.500000000000004
10
-269.45000000000005
20
26.500000000000004
10
-269.45000000000005
20
13.250000000000007
10
-267.55000000000001
20
13.250000000000004
10
-267.55000000000001
20
26.500000000000004
10
-245.45000000000002
20
26.500000000000004
10
-245.45000000000002
20
13.250000000000007
10
-243.55000000000001
20
13.250000000000004
10
-243.55000000000001
20
26.500000000000004
10
-221.45000000000005
20
26.500000000000004
10
-221.45000000000005
20
13.250000000000007
10
-219.55000000000001
20
13.250000000000004
10
-219.55000000000001
20
26.500000000000004
10
-197.45000000000005
20
26.500000000000004
10
-197.45000000000005
20
13.250000000000007
10
-195.55000000000004
20
13.250000000000004
10
-195.55000000000004
20
26.500000000000004
10
-173.45000000000002
20
26.500000000000004
10
-173.45000000000002
20
13.250000000000007
10
-171.55000000000001
20
13.250000000000004
10
-171.55000000000001
20
26.500000000000004
10
-149.45000000000002
20
26.500000000000004
10
-149.45000000000002
20
13.250000000000007
10
-147.55000000000001
20
13.250000000000004
10
-147.55000000000001
20
26.500000000000004
10
-125.45000000000002
20
26.500000000000004
10
-125.45000000000002
20
13.250000000000007
10
-123.55000000000003
20
13.250000000000004
10
-123.55000000000003
20
26.500000000000004
10
-101.45000000000002
20
26.500000000000004
10
-101.45000000000002
20
13.250000000000007
10
-99.550000000000011
20
13.250000000000004
10
-99.550000000000011
20
26.500000000000004
10
-77.450000000000017
20
26.500000000000004
10
-77.450000000000017
20
13.250000000000007
10
-75.550000000000011
20
13.250000000000004
10
-75.550000000000011
20
26.500000000000004
10
-53.450000000000003
20
26.500000000000004
10
-53.450000000000003
20
13.250000000000007
10
-51.550000000000011
20
13.250000000000004
10
-51.550000000000011
20
26.500000000000004
10
-29.5
20
26.500000000000004
10
-29.5
20
21.500000000000004
10
-29.450000000000003
20
21.500000000000004
10
-29.450000000000003
20
13.250000000000007
10
-27.550000000000004
20
13.250000000000004
10
-27.550000000000004
20
21.500000000000004
10
-6.1629758220391547e-32
20
21.500000000000004
10
0
20
0
10
-489.00000000000006
20
0
0
ENDSEC
0
SECTION
2
OBJECTS
0
DICTIONARY
5
C
100
AcDbDictionary
3
ACAD_GROUP
350
D
3
ACAD_MLINESTYLE
350
17
0
DICTIONARY
5
D
100
AcDbDictionary
0
DICTIONARY
5
1A
330
C
100
AcDbDictionary
0
DICTIONARY
5
17
100
AcDbDictionary
0
ENDSEC
0
EOF
