0
SECTION
2
HEADER
9
$INSUNITS
70
4
9
$ACADVER
1
AC1014
9
$HANDSEED
5
FFFF
0
ENDSEC
0
SECTION
2
TABLES
0
TABLE
2
VPORT
5
8
100
AcDbSymbolTable
0
ENDTAB
0
TABLE
2
LTYPE
5
5
100
AcDbSymbolTable
0
LTYPE
5
14
100
AcDbSymbolTableRecord
100
AcDbLinetypeTableRecord
2
BYBLOCK
70
0
0
LTYPE
5
15
100
AcDbSymbolTableRecord
100
AcDbLinetypeTableRecord
2
BYLAYER
70
0
0
ENDTAB
0
TABLE
2
LAYER
5
2
100
AcDbSymbolTable
70
2
0
LAYER
5
50
100
AcDbSymbolTableRecord
100
AcDbLayerTableRecord
2
0
70
0
6
CONTINUOUS
0
ENDTAB
0
TABLE
2
STYLE
5
3
100
AcDbSymbolTable
70
1
0
STYLE
5
11
100
AcDbSymbolTableRecord
100
AcDbTextStyleTableRecord
2
STANDARD
70
0
0
ENDTAB
0
TABLE
2
VIEW
5
6
100
AcDbSymbolTable
70
0
0
ENDTAB
0
TABLE
2
UCS
5
7
100
AcDbSymbolTable
70
0
0
ENDTAB
0
TABLE
2
APPID
5
9
100
AcDbSymbolTable
70
2
0
APPID
5
12
100
AcDbSymbolTableRecord
100
AcDbRegAppTableRecord
2
ACAD
70
0
0
ENDTAB
0
TABLE
2
DIMSTYLE
5
A
100
AcDbSymbolTable
70
1
0
ENDTAB
0
TABLE
2
BLOCK_RECORD
5
1
100
AcDbSymbolTable
70
1
0
BLOCK_RECORD
5
1F
100
AcDbSymbolTableRecord
100
AcDbBlockTableRecord
2
*MODEL_SPACE
0
BLOCK_RECORD
5
1B
100
AcDbSymbolTableRecord
100
AcDbBlockTableRecord
2
*PAPER_SPACE
0
ENDTAB
0
ENDSEC
0
SECTION
2
BLOCKS
0
BLOCK
5
20
100
AcDbEntity
100
AcDbBlockBegin
2
*MODEL_SPACE
0
ENDBLK
5
21
100
AcDbEntity
100
AcDbBlockEnd
0
BLOCK
5
1C
100
AcDbEntity
100
AcDbBlockBegin
2
*PAPER_SPACE
0
ENDBLK
5
1D
100
AcDbEntity
100
AcDbBlockEnd
0
ENDSEC
0
SECTION
2
ENTITIES
0
SPLINE
5
100
100
AcDbEntity
8
0
100
AcDbSpline
70
1064
71
3
72
9
73
5
74
0
42
0.000000001
43
0.0000000001
44
0.0000000001
40
0
40
0
40
0
40
0
40
0.043688862947833855
40
0.084642736463627077
40
0.084642736463627077
40
0.084642736463627077
40
0.084642736463627077
10
-458.51835433506938
20
-16.74366340253702
30
0
10
-458.52846500605824
20
-16.892261520786018
30
0
10
-458.54805340461638
20
-17.180155288517142
30
0
10
-458.71725088260428
20
-17.413319176032815
30
0
10
-458.79911605381938
20
-17.52613410566202
30
0
0
SPLINE
5
101
100
AcDbEntity
8
0
100
AcDbSpline
70
1064
71
3
72
9
73
5
74
0
42
0.000000001
43
0.0000000001
44
0.0000000001
40
0
40
0
40
0
40
0
40
0.040448594855226699
40
0.082462700055327909
40
0.082462700055327909
40
0.082462700055327909
40
0.082462700055327909
10
-458.79911605381938
20
-17.52613410566202
30
0
10
-458.90098646824822
20
-17.618880941009088
30
0
10
-459.1086700592266
20
-17.807964257541592
30
0
10
-459.38557446981071
20
-17.856586208609102
30
0
10
-459.52665511631938
20
-17.881358715037024
30
0
0
LINE
5
102
100
AcDbEntity
8
0
100
AcDbLine
10
-459.52665511631938
20
-17.88135871503702
30
0
11
-459.58524886631938
21
-17.441905590037024
31
0
0
SPLINE
5
103
100
AcDbEntity
8
0
100
AcDbSpline
70
1064
71
3
72
9
73
5
74
0
42
0.000000001
43
0.0000000001
44
0.0000000001
40
0
40
0
40
0
40
0
40
0.033722048107625913
40
0.060407083299585926
40
0.060407083299585926
40
0.060407083299585926
40
0.060407083299585926
10
-459.58524886631938
20
-17.441905590037024
30
0
10
-459.4737451750288
20
-17.416579377796172
30
0
10
-459.27400603858882
20
-17.371211949115292
30
0
10
-459.11649834801426
20
-17.241595666038091
30
0
10
-459.04691878819438
20
-17.184337230662024
30
0
0
SPLINE
5
104
100
AcDbEntity
8
0
100
AcDbSpline
70
1064
71
3
72
9
73
5
74
0
42
0.000000001
43
0.0000000001
44
0.0000000001
40
0
40
0
40
0
40
0
40
0.023657442294653778
40
0.048145892505525728
40
0.048145892505525728
40
0.048145892505525728
40
0.048145892505525728
10
-459.04691878819438
20
-17.184337230662024
30
0
10
-458.99885762446502
20
-17.11967498750732
30
0
10
-458.90104706684917
20
-16.988079129877526
30
0
10
-458.88850376646957
20
-16.824449136494415
30
0
10
-458.88212386631938
20
-16.74122199628702
30
0
0
SPLINE
5
105
100
AcDbEntity
8
0
100
AcDbSpline
70
1064
71
3
72
9
73
5
74
0
42
0.000000001
43
0.0000000001
44
0.0000000001
40
0
40
0
40
0
40
0
40
0.029095033898998403
40
0.057814409852243509
40
0.057814409852243509
40
0.057814409852243509
40
0.057814409852243509
10
-458.88212386631938
20
-16.74122199628702
30
0
10
-458.8908407434181
20
-16.642121988399396
30
0
10
-458.90816195043124
20
-16.44520149357319
30
0
10
-459.03430560690566
20
-16.293097963002943
30
0
10
-459.09696761631938
20
-16.21754035566202
30
0
0
SPLINE
5
106
100
AcDbEntity
8
0
100
AcDbSpline
70
1064
71
3
72
9
73
5
74
0
42
0.000000001
43
0.0000000001
44
0.0000000001
40
0
40
0
40
0
40
0
40
0.028896279161864852
40
0.058555864162356197
40
0.058555864162356197
40
0.058555864162356197
40
0.058555864162356197
10
-459.09696761631938
20
-16.21754035566202
30
0
10
-459.17352788956543
20
-16.155236619717069
30
0
10
-459.32867080382499
20
-16.028983371734387
30
0
10
-459.52815293638542
20
-16.012344959858012
30
0
10
-459.62919417881938
20
-16.00391730878702
30
0
0
SPLINE
5
107
100
AcDbEntity
8
0
100
AcDbSpline
70
1064
71
3
72
9
73
5
74
0
42
0.000000001
43
0.0000000001
44
0.0000000001
40
0
40
0
40
0
40
0
40
0.028057407245193754
40
0.054846157293077277
40
0.054846157293077277
40
0.054846157293077277
40
0.054846157293077277
10
-459.62919417881938
20
-16.00391730878702
30
0
10
-459.7248821844392
20
-16.011367595638369
30
0
10
-459.91193152087374
20
-16.025931293593658
30
0
10
-460.05740668306919
20
-16.144001610423913
30
0
10
-460.12846175694438
20
-16.20167121503702
30
0
0
SPLINE
5
108
100
AcDbEntity
8
0
100
AcDbSpline
70
1064
71
3
72
9
73
5
74
0
42
0.000000001
43
0.0000000001
44
0.0000000001
40
0
40
0
40
0
40
0
40
0.026865610461859538
40
0.055128002008888677
40
0.055128002008888677
40
0.055128002008888677
40
0.055128002008888677
10
-460.12846175694438
20
-16.20167121503702
30
0
10
-460.18577368702609
20
-16.273295718687045
30
0
10
-460.30337727549329
20
-16.420268585233657
30
0
10
-460.31766836716366
20
-16.608235950431197
30
0
10
-460.32499496006938
20
-16.704600902537024
30
0
0
SPLINE
5
109
100
AcDbEntity
8
0
100
AcDbSpline
70
1064
71
3
72
9
73
5
74
0
42
0.000000001
43
0.0000000001
44
0.0000000001
40
0
40
0
40
0
40
0
40
0.014030255331284103
40
0.031448388618092904
40
0.031448388618092904
40
0.031448388618092904
40
0.031448388618092904
10
-460.32499496006938
20
-16.704600902537024
30
0
10
-460.32221165031359
20
-16.751384691332966
30
0
10
-460.31597294654256
20
-16.85624912439863
30
0
10
-460.29035544780953
20
-16.958195216366821
30
0
10
-460.27616683506938
20
-17.014659496287024
30
0
0
LINE
5
110
100
AcDbEntity
8
0
100
AcDbLine
10
-460.27616683506938
20
-17.014659496287024
30
0
11
-460.66190902256938
21
-16.965831371287024
31
0
0
SPLINE
5
111
100
AcDbEntity
8
0
100
AcDbSpline
70
1064
71
3
72
9
73
5
74
0
42
0.000000001
43
0.0000000001
44
0.0000000001
40
0
40
0
40
0
40
0
40
0.0039841513477459935
40
0.0070993369325054768
40
0.0070993369325054768
40
0.0070993369325054768
40
0.0070993369325054768
10
-460.66190902256938
20
-16.965831371287024
30
0
10
-460.66049181536573
20
-16.952620000812246
30
0
10
-460.65796650180107
20
-16.929078733888822
30
0
10
-460.65731297660619
20
-16.905414461308116
30
0
10
-460.65702621006938
20
-16.895030590037024
30
0
0
SPLINE
5
112
100
AcDbEntity
8
0
100
AcDbSpline
70
1064
71
3
72
9
73
5
74
0
42
0.000000001
43
0.0000000001
44
0.0000000001
40
0
40
0
40
0
40
0
40
0.026922592892985552
40
0.053194736158987316
40
0.053194736158987316
40
0.053194736158987316
40
0.053194736158987316
10
-460.65702621006938
20
-16.895030590037024
30
0
10
-460.66282565445056
20
-16.804252815538042
30
0
10
-460.67428442868368
20
-16.624890456839253
30
0
10
-460.76078777880286
20
-16.467428014957257
30
0
10
-460.80351058506938
20
-16.389659496287024
30
0
0
SPLINE
5
113
100
AcDbEntity
8
0
100
AcDbSpline
70
1064
71
3
72
9
73
5
74
0
42
0.000000001
43
0.0000000001
44
0.0000000001
40
0
40
0
40
0
40
0
40
0.02510623117455215
40
0.052243823437179968
40
0.052243823437179968
40
0.052243823437179968
40
0.052243823437179968
10
-460.80351058506938
20
-16.389659496287024
30
0
10
-460.86079971792537
20
-16.324175667169129
30
0
10
-460.98001328371265
20
-16.187909670785999
30
0
10
-461.1611045064617
20
-16.172864962180718
30
0
10
-461.25517074131938
20
-16.165050121287024
30
0
0
SPLINE
5
114
100
AcDbEntity
8
0
100
AcDbSpline
70
1064
71
3
72
9
73
5
74
0
42
0.000000001
43
0.0000000001
44
0.0000000001
40
0
40
0
40
0
40
0
40
0.022469974855825688
40
0.044207146833477561
40
0.044207146833477561
40
0.044207146833477561
40
0.044207146833477561
10
-461.25517074131938
20
-16.165050121287024
30
0
10
-461.33182334915216
20
-16.171402370896256
30
0
10
-461.48262872883669
20
-16.183899707141631
30
0
10
-461.59855772219538
20
-16.280918877438193
30
0
10
-461.65556136631938
20
-16.328624340037024
30
0
0
SPLINE
5
115
100
AcDbEntity
8
0
100
AcDbSpline
70
1064
71
3
72
9
73
5
74
0
42
0.000000001
43
0.0000000001
44
0.0000000001
40
0
40
0
40
0
40
0
40
0.022198176703025662
40
0.046029259473233955
40
0.046029259473233955
40
0.046029259473233955
40
0.046029259473233955
10
-461.65556136631938
20
-16.328624340037024
30
0
10
-461.70183028718407
20
-16.388551272663683
30
0
10
-461.79777168780078
20
-16.512813385188075
30
0
10
-461.80863066877413
20
-16.669740525267564
30
0
10
-461.81425277256938
20
-16.750987621287024
30
0
0
SPLINE
5
116
100
AcDbEntity
8
0
100
AcDbSpline
70
1064
71
3
72
9
73
5
74
0
42
0.000000001
43
0.0000000001
44
0.0000000001
40
0
40
0
40
0
40
0
40
0.023841319574000458
40
0.046550089041450346
40
0.046550089041450346
40
0.046550089041450346
40
0.046550089041450346
10
-461.81425277256938
20
-16.750987621287024
30
0
10
-461.80821673074968
20
-16.832144589816252
30
0
10
-461.79643138123112
20
-16.990603273264696
30
0
10
-461.70010927082728
20
-17.116712971856771
30
0
10
-461.65311996006938
20
-17.178233715037024
30
0
0
SPLINE
5
117
100
AcDbEntity
8
0
100
AcDbSpline
70
1064
71
3
72
9
73
5
74
0
42
0.000000001
43
0.0000000001
44
0.0000000001
40
0
40
0
40
0
40
0
40
0.024551007520896933
40
0.053844321920413274
40
0.053844321920413274
40
0.053844321920413274
40
0.053844321920413274
10
-461.65311996006938
20
-17.178233715037024
30
0
10
-461.5886346994223
20
-17.230641792064393
30
0
10
-461.44720811517942
20
-17.34558116342378
30
0
10
-461.26749314994277
20
-17.379504642693341
30
0
10
-461.16972152256938
20
-17.397960277537024
30
0
0
LINE
5
118
100
AcDbEntity
8
0
100
AcDbLine
10
-461.16972152256938
20
-17.397960277537024
30
0
11
-461.24784652256938
21
-17.837413402537024
31
0
0
SPLINE
5
119
100
AcDbEntity
8
0
100
AcDbSpline
70
1064
71
3
72
9
73
5
74
0
42
0.000000001
43
0.0000000001
44
0.0000000001
40
0
40
0
40
0
40
0
40
0.041371853504943219
40
0.078866334205373478
40
0.078866334205373478
40
0.078866334205373478
40
0.078866334205373478
10
-461.24784652256938
20
-17.837413402537024
30
0
10
-461.38461562142646
20
-17.804552174756495
30
0
10
-461.64533581028968
20
-17.741909475602863
30
0
10
-461.84007733507849
20
-17.558431303983784
30
0
10
-461.93266097569438
20
-17.471202465037024
30
0
0
SPLINE
5
120
100
AcDbEntity
8
0
100
AcDbSpline
70
1064
71
3
72
9
73
5
74
0
42
0.000000001
43
0.0000000001
44
0.0000000001
40
0
40
0
40
0
40
0
40
0.036860749938243162
40
0.076332202473406024
40
0.076332202473406024
40
0.076332202473406024
40
0.076332202473406024
10
-461.93266097569438
20
-17.471202465037024
30
0
10
-462.00348972272184
20
-17.367914809809193
30
0
10
-462.15016373961225
20
-17.154024039136775
30
0
10
-462.16691750828511
20
-16.894798837786585
30
0
10
-462.17558089756938
20
-16.760753246287024
30
0
0
SPLINE
5
121
100
AcDbEntity
8
0
100
AcDbSpline
70
1064
71
3
72
9
73
5
74
0
42
0.000000001
43
0.0000000001
44
0.0000000001
40
0
40
0
40
0
40
0
40
0.02831223800255854
40
0.055798345012470885
40
0.055798345012470885
40
0.055798345012470885
40
0.055798345012470885
10
-462.17558089756938
20
-16.760753246287024
30
0
10
-462.17065929903328
20
-16.665657392674927
30
0
10
-462.16095971071024
20
-16.478240514905547
30
0
10
-462.08651816879421
20
-16.306031928073011
30
0
10
-462.04984847569438
20
-16.221202465037024
30
0
0
SPLINE
5
122
100
AcDbEntity
8
0
100
AcDbSpline
70
1064
71
3
72
9
73
5
74
0
42
0.000000001
43
0.0000000001
44
0.0000000001
40
0
40
0
40
0
40
0
40
0.026350263179590345
40
0.051502709627026536
40
0.051502709627026536
40
0.051502709627026536
40
0.051502709627026536
10
-462.04984847569438
20
-16.221202465037024
30
0
10
-462.00500110207196
20
-16.144376161198053
30
0
10
-461.91734500370723
20
-15.994215884187957
30
0
10
-461.77590576548715
20
-15.893293028152327
30
0
10
-461.70683089756938
20
-15.844005199412024
30
0
0
SPLINE
5
123
100
AcDbEntity
8
0
100
AcDbSpline
70
1064
71
3
72
9
73
5
74
0
42
0.000000001
43
0.0000000001
44
0.0000000001
40
0
40
0
40
0
40
0
40
0.02444831352916782
40
0.048414484800573018
40
0.048414484800573018
40
0.048414484800573018
40
0.048414484800573018
10
-461.70683089756938
20
-15.844005199412024
30
0
10
-461.63369668008579
20
-15.805910179718621
30
0
10
-461.48887051624683
20
-15.730471407644496
30
0
10
-461.32601965879496
20
-15.719045851586133
30
0
10
-461.24540511631938
20
-15.713389965037024
30
0
0
SPLINE
5
124
100
AcDbEntity
8
0
100
AcDbSpline
70
1064
71
3
72
9
73
5
74
0
42
0.000000001
43
0.0000000001
44
0.0000000001
40
0
40
0
40
0
40
0
40
0.022373360440584855
40
0.044519115514470034
40
0.044519115514470034
40
0.044519115514470034
40
0.044519115514470034
10
-461.24540511631938
20
-15.713389965037024
30
0
10
-461.16998726932434
20
-15.718471040508536
30
0
10
-461.01991880503903
20
-15.728581501404872
30
0
10
-460.8884434344148
20
-15.801586035645789
30
0
10
-460.82304183506938
20
-15.83790168378702
30
0
0
SPLINE
5
125
100
AcDbEntity
8
0
100
AcDbSpline
70
1064
71
3
72
9
73
5
74
0
42
0.000000001
43
0.0000000001
44
0.0000000001
40
0
40
0
40
0
40
0
40
0.023032908329467704
40
0.048187761424364629
40
0.048187761424364629
40
0.048187761424364629
40
0.048187761424364629
10
-460.82304183506938
20
-15.83790168378702
30
0
10
-460.762077878539
20
-15.886049282588973
30
0
10
-460.63453356017737
20
-15.986780157345944
30
0
10
-460.55948442133058
20
-16.131176575356044
30
0
10
-460.52030746006938
20
-16.20655402753702
30
0
0
SPLINE
5
126
100
AcDbEntity
8
0
100
AcDbSpline
70
1064
71
3
72
9
73
5
74
0
42
0.000000001
43
0.0000000001
44
0.0000000001
40
0
40
0
40
0
40
0
40
0.030363640683342356
40
0.058861127691966025
40
0.058861127691966025
40
0.058861127691966025
40
0.058861127691966025
10
-460.52030746006938
20
-16.20655402753702
30
0
10
-460.49061742893804
20
-16.107661734412599
30
0
10
-460.43306212021128
20
-15.915955082563658
30
0
10
-460.28704584442733
20
-15.77946927301255
30
0
10
-460.21635238194438
20
-15.71338996503702
30
0
0
SPLINE
5
127
100
AcDbEntity
8
0
100
AcDbSpline
70
1064
71
3
72
9
73
5
74
0
42
0.000000001
43
0.0000000001
44
0.0000000001
40
0
40
0
40
0
40
0
40
0.029125107450860045
40
0.061196410572016552
40
0.061196410572016552
40
0.061196410572016552
40
0.061196410572016552
10
-460.21635238194438
20
-15.71338996503702
30
0
10
-460.13206858864305
20
-15.662152826097348
30
0
10
-459.95497514347272
20
-15.554495575514562
30
0
10
-459.74762574348523
20
-15.543415479239705
30
0
10
-459.63895980381938
20
-15.53760871503702
30
0
0
SPLINE
5
128
100
AcDbEntity
8
0
100
AcDbSpline
70
1064
71
3
72
9
73
5
74
0
42
0.000000001
43
0.0000000001
44
0.0000000001
40
0
40
0
40
0
40
0
40
0.044139443862776191
40
0.088466948315295307
40
0.088466948315295307
40
0.088466948315295307
40
0.088466948315295307
10
-459.63895980381938
20
-15.53760871503702
30
0
10
-459.48854580043485
20
-15.551970963233149
30
0
10
-459.18707693950671
20
-15.580756651444538
30
0
10
-458.95870884565579
20
-15.77971496381527
30
0
10
-458.84428206944438
20
-15.87940559003702
30
0
0
SPLINE
5
129
100
AcDbEntity
8
0
100
AcDbSpline
70
1064
71
3
72
9
73
5
74
0
42
0.000000001
43
0.0000000001
44
0.0000000001
40
0
40
0
40
0
40
0
40
0.045770517611279239
40
0.094190528758514497
40
0.094190528758514497
40
0.094190528758514497
40
0.094190528758514497
10
-458.84428206944438
20
-15.87940559003702
30
0
10
-458.74924071634734
20
-16.003192500813551
30
0
10
-458.55365640204809
20
-16.257931909234642
30
0
10
-458.53034031084474
20
-16.578744846476525
30
0
10
-458.51835433506938
20
-16.74366340253702
30
0
0
LWPOLYLINE
5
130
100
AcDbEntity
8
0
100
AcDbPolyline
90
84
70
1
43
0.0
10
0
20
-21.500000000000004
10
-489.00000000000006
20
-21.500000000000004
10
-489.00000000000006
20
1.3404472412935162e-30
10
-473.50000000000011
20
0
10
-473.50000000000011
20
-13.250000000000002
10
-471.50000000000011
20
-13.250000000000002
10
-471.50000000000011
20
0
10
-449.5
20
0
10
-449.5
20
-13.250000000000002
10
-447.50000000000006
20
-13.250000000000002
10
-447.50000000000006
20
0
10
-425.50000000000006
20
0
10
-425.50000000000006
20
-13.250000000000002
10
-423.50000000000011
20
-13.250000000000002
10
-423.50000000000011
20
0
10
-401.50000000000006
20
0
10
-401.50000000000006
20
-13.250000000000002
10
-399.50000000000011
20
-13.250000000000002
10
-399.50000000000011
20
0
10
-377.50000000000006
20
0
10
-377.50000000000006
20
-13.250000000000002
10
-375.50000000000011
20
-13.250000000000002
10
-375.50000000000011
20
0
10
-353.50000000000011
20
0
10
-353.50000000000011
20
-13.250000000000002
10
-351.50000000000011
20
-13.250000000000002
10
-351.50000000000011
20
0
10
-329.5
20
0
10
-329.5
20
-13.250000000000002
10
-327.50000000000006
20
-13.250000000000002
10
-327.50000000000006
20
0
10
-305.50000000000006
20
0
10
-305.50000000000006
20
-13.250000000000002
10
-303.50000000000006
20
-13.250000000000002
10
-303.50000000000006
20
0
10
-281.50000000000006
20
0
10
-281.50000000000006
20
-13.250000000000002
10
-279.50000000000006
20
-13.250000000000002
10
-279.50000000000006
20
0
10
-257.50000000000006
20
0
10
-257.50000000000006
20
-13.250000000000002
10
-255.50000000000006
20
-13.250000000000002
10
-255.50000000000006
20
0
10
-233.5
20
0
10
-233.5
20
-13.250000000000002
10
-231.50000000000003
20
-13.250000000000002
10
-231.50000000000003
20
0
10
-209.50000000000003
20
0
10
-209.50000000000003
20
-13.250000000000002
10
-207.50000000000003
20
-13.250000000000002
10
-207.50000000000003
20
0
10
-185.50000000000006
20
0
10
-185.50000000000006
20
-13.250000000000002
10
-183.50000000000006
20
-13.250000000000002
10
-183.50000000000006
20
0
10
-161.50000000000003
20
0
10
-161.50000000000003
20
-13.250000000000002
10
-159.50000000000003
20
-13.250000000000002
10
-159.50000000000003
20
0
10
-137.5
20
0
10
-137.5
20
-13.250000000000002
10
-135.5
20
-13.250000000000002
10
-135.5
20
0
10
-113.50000000000001
20
0
10
-113.50000000000001
20
-13.250000000000002
10
-111.49999999999999
20
-13.250000000000002
10
-111.49999999999999
20
0
10
-89.500000000000028
20
0
10
-89.500000000000028
20
-13.250000000000002
10
-87.5
20
-13.250000000000002
10
-87.5
20
0
10
-65.499999999999972
20
0
10
-65.499999999999972
20
-13.250000000000002
10
-63.500000000000014
20
-13.250000000000002
10
-63.500000000000014
20
0
10
-41.499999999999986
20
0
10
-41.499999999999986
20
-13.250000000000002
10
-39.500000000000028
20
-13.250000000000002
10
-39.500000000000028
20
0
10
-17.5
20
0
10
-17.5
20
-13.250000000000002
10
-15.499999999999972
20
-13.250000000000002
10
-15.499999999999972
20
0
10
0
20
0
0
ENDSEC
0
SECTION
2
OBJECTS
0
DICTIONARY
5
C
100
AcDbDictionary
3
ACAD_GROUP
350
D
3
ACAD_MLINESTYLE
350
17
0
DICTIONARY
5
D
100
AcDbDictionary
0
DICTIONARY
5
1A
330
C
100
AcDbDictionary
0
DICTIONARY
5
17
100
AcDbDictionary
0
ENDSEC
0
EOF
