0
SECTION
2
HEADER
9
$INSUNITS
70
4
9
$ACADVER
1
AC1014
9
$HANDSEED
5
FFFF
0
ENDSEC
0
SECTION
2
TABLES
0
TABLE
2
VPORT
5
8
100
AcDbSymbolTable
0
ENDTAB
0
TABLE
2
LTYPE
5
5
100
AcDbSymbolTable
0
LTYPE
5
14
100
AcDbSymbolTableRecord
100
AcDbLinetypeTableRecord
2
BYBLOCK
70
0
0
LTYPE
5
15
100
AcDbSymbolTableRecord
100
AcDbLinetypeTableRecord
2
BYLAYER
70
0
0
ENDTAB
0
TABLE
2
LAYER
5
2
100
AcDbSymbolTable
70
2
0
LAYER
5
50
100
AcDbSymbolTableRecord
100
AcDbLayerTableRecord
2
0
70
0
6
CONTINUOUS
0
ENDTAB
0
TABLE
2
STYLE
5
3
100
AcDbSymbolTable
70
1
0
STYLE
5
11
100
AcDbSymbolTableRecord
100
AcDbTextStyleTableRecord
2
STANDARD
70
0
0
ENDTAB
0
TABLE
2
VIEW
5
6
100
AcDbSymbolTable
70
0
0
ENDTAB
0
TABLE
2
UCS
5
7
100
AcDbSymbolTable
70
0
0
ENDTAB
0
TABLE
2
APPID
5
9
100
AcDbSymbolTable
70
2
0
APPID
5
12
100
AcDbSymbolTableRecord
100
AcDbRegAppTableRecord
2
ACAD
70
0
0
ENDTAB
0
TABLE
2
DIMSTYLE
5
A
100
AcDbSymbolTable
70
1
0
ENDTAB
0
TABLE
2
BLOCK_RECORD
5
1
100
AcDbSymbolTable
70
1
0
BLOCK_RECORD
5
1F
100
AcDbSymbolTableRecord
100
AcDbBlockTableRecord
2
*MODEL_SPACE
0
BLOCK_RECORD
5
1B
100
AcDbSymbolTableRecord
100
AcDbBlockTableRecord
2
*PAPER_SPACE
0
ENDTAB
0
ENDSEC
0
SECTION
2
BLOCKS
0
BLOCK
5
20
100
AcDbEntity
100
AcDbBlockBegin
2
*MODEL_SPACE
0
ENDBLK
5
21
100
AcDbEntity
100
AcDbBlockEnd
0
BLOCK
5
1C
100
AcDbEntity
100
AcDbBlockBegin
2
*PAPER_SPACE
0
ENDBLK
5
1D
100
AcDbEntity
100
AcDbBlockEnd
0
ENDSEC
0
SECTION
2
ENTITIES
0
LWPOLYLINE
5
100
100
AcDbEntity
8
0
100
AcDbPolyline
90
88
70
1
43
0.0
10
-464.00000000000006
20
21.500000000000004
10
-461.40000000000009
20
21.500000000000004
10
-461.40000000000009
20
13.250000000000002
10
-459.5
20
13.250000000000002
10
-459.5
20
26.500000000000004
10
-437.40000000000009
20
26.500000000000004
10
-437.40000000000009
20
13.250000000000002
10
-435.50000000000006
20
13.250000000000002
10
-435.50000000000006
20
26.500000000000004
10
-413.40000000000009
20
26.500000000000004
10
-413.40000000000009
20
13.250000000000002
10
-411.50000000000006
20
13.250000000000002
10
-411.50000000000006
20
26.500000000000004
10
-389.40000000000009
20
26.500000000000004
10
-389.40000000000009
20
13.250000000000002
10
-387.50000000000006
20
13.250000000000002
10
-387.50000000000006
20
26.500000000000004
10
-365.40000000000015
20
26.500000000000004
10
-365.40000000000015
20
13.250000000000002
10
-363.50000000000011
20
13.250000000000002
10
-363.50000000000011
20
26.500000000000004
10
-341.40000000000009
20
26.500000000000004
10
-341.40000000000009
20
13.250000000000002
10
-339.5
20
13.250000000000002
10
-339.5
20
26.500000000000004
10
-317.40000000000003
20
26.500000000000004
10
-317.40000000000003
20
13.250000000000002
10
-315.50000000000006
20
13.250000000000002
10
-315.50000000000006
20
26.500000000000004
10
-293.40000000000003
20
26.500000000000004
10
-293.40000000000003
20
13.250000000000002
10
-291.50000000000006
20
13.250000000000002
10
-291.50000000000006
20
26.500000000000004
10
-269.40000000000003
20
26.500000000000004
10
-269.40000000000003
20
13.250000000000002
10
-267.50000000000006
20
13.250000000000002
10
-267.50000000000006
20
26.500000000000004
10
-245.39999999999998
20
26.500000000000004
10
-245.39999999999998
20
13.250000000000002
10
-243.5
20
13.250000000000002
10
-243.5
20
26.500000000000004
10
-221.40000000000001
20
26.500000000000004
10
-221.40000000000001
20
13.250000000000002
10
-219.50000000000003
20
13.250000000000002
10
-219.50000000000003
20
26.500000000000004
10
-197.40000000000003
20
26.500000000000004
10
-197.40000000000003
20
13.250000000000002
10
-195.50000000000006
20
13.250000000000002
10
-195.50000000000006
20
26.500000000000004
10
-173.40000000000003
20
26.500000000000004
10
-173.40000000000003
20
13.250000000000002
10
-171.50000000000003
20
13.250000000000002
10
-171.50000000000003
20
26.500000000000004
10
-149.40000000000001
20
26.500000000000004
10
-149.40000000000001
20
13.250000000000002
10
-147.50000000000003
20
13.250000000000002
10
-147.50000000000003
20
26.500000000000004
10
-125.40000000000001
20
26.500000000000004
10
-125.40000000000001
20
13.250000000000002
10
-123.50000000000001
20
13.250000000000002
10
-123.50000000000001
20
26.500000000000004
10
-101.40000000000001
20
26.500000000000004
10
-101.40000000000001
20
13.250000000000002
10
-99.500000000000014
20
13.250000000000002
10
-99.500000000000014
20
26.500000000000004
10
-77.400000000000006
20
26.500000000000004
10
-77.400000000000006
20
13.250000000000002
10
-75.5
20
13.250000000000002
10
-75.5
20
26.500000000000004
10
-53.399999999999999
20
26.500000000000004
10
-53.399999999999999
20
13.250000000000002
10
-51.5
20
13.250000000000002
10
-51.5
20
26.500000000000004
10
-29.399999999999999
20
26.500000000000004
10
-29.399999999999999
20
13.250000000000002
10
-27.5
20
13.250000000000002
10
-27.5
20
21.500000000000004
10
-25.050000000000004
20
21.500000000000004
10
-25.050000000000004
20
6.5000000000000036
10
-4
20
6.5000000000000036
10
-3.9999999999999991
20
21.500000000000004
10
0
20
21.500000000000004
10
0
20
0
10
-489.00000000000006
20
0
10
-489.00000000000006
20
21.496897103210912
10
-485.00000000000006
20
21.500000000000004
10
-485.00000000000006
20
6.5000000000000036
10
-464.00000000000006
20
6.5000000000000036
0
SPLINE
5
101
100
AcDbEntity
8
0
100
AcDbSpline
70
1064
71
3
72
10
73
6
74
0
42
0.000000001
43
0.0000000001
44
0.0000000001
40
0
40
0
40
0
40
0
40
0.016090345814069564
40
0.016090345814069564
40
0.032137433905930643
40
0.032137433905930643
40
0.032137433905930643
40
0.032137433905930643
10
-15.605681238820829
20
2.6822587489888408
30
0
10
-15.560898304759238
20
2.7117739469443052
30
0
10
-15.521542503615857
20
2.7377122711247912
30
0
10
-15.442206260261313
20
2.7997945426922604
30
0
10
-15.404925194853586
20
2.8338000833405355
30
0
10
-15.367644129445829
20
2.8678056239888408
30
0
0
SPLINE
5
102
100
AcDbEntity
8
0
100
AcDbSpline
70
1064
71
3
72
10
73
6
74
0
42
0.000000001
43
0.0000000001
44
0.0000000001
40
0
40
0
40
0
40
0
40
0.038396160848859807
40
0.038396160848859807
40
0.073649511127695813
40
0.073649511127695813
40
0.073649511127695813
40
0.073649511127695813
10
-15.367644129445829
20
2.8678056239888408
30
0
10
-15.279303673025899
20
2.9604160329483449
30
0
10
-15.218363278572717
20
3.0243019928038741
30
0
10
-15.062226274534869
20
3.2017481767588403
30
0
10
-14.989715475427857
20
3.2886831503738279
30
0
10
-14.917204676320829
20
3.3756181239888408
30
0
0
SPLINE
5
103
100
AcDbEntity
8
0
100
AcDbSpline
70
1064
71
3
72
10
73
6
74
0
42
0.000000001
43
0.0000000001
44
0.0000000001
40
0
40
0
40
0
40
0
40
0.046314130659967902
40
0.046314130659967902
40
0.094615973198813624
40
0.094615973198813624
40
0.094615973198813624
40
0.094615973198813624
10
-14.917204676320829
20
3.3756181239888408
30
0
10
-14.817402571271092
20
3.4934012242327652
30
0
10
-14.717600466221333
20
3.6111843244767199
30
0
10
-14.504125588549988
20
3.8427926908281798
30
0
10
-14.414140591546429
20
3.9300848014071836
30
0
10
-14.287321863820829
20
4.0531083583638408
30
0
0
SPLINE
5
104
100
AcDbEntity
8
0
100
AcDbSpline
70
1064
71
3
72
10
73
6
74
0
42
0.000000001
43
0.0000000001
44
0.0000000001
40
0
40
0
40
0
40
0
40
0.026473593279763109
40
0.026473593279763109
40
0.053226876563902459
40
0.053226876563902459
40
0.053226876563902459
40
0.053226876563902459
10
-14.287321863820829
20
4.0531083583638408
30
0
10
-14.220162380833418
20
4.110352037023107
30
0
10
-14.153002897845973
20
4.1675957156824062
30
0
10
-14.007106930931332
20
4.2661850239130938
30
0
10
-13.937498497553062
20
4.3011104311893735
30
0
10
-13.850310145070829
20
4.3448564052388408
30
0
0
SPLINE
5
105
100
AcDbEntity
8
0
100
AcDbSpline
70
1064
71
3
72
10
73
6
74
0
42
0.000000001
43
0.0000000001
44
0.0000000001
40
0
40
0
40
0
40
0
40
0.021821006454256334
40
0.021821006454256334
40
0.043648472695449941
40
0.043648472695449941
40
0.043648472695449941
40
0.043648472695449941
10
-13.850310145070829
20
4.3448564052388408
30
0
10
-13.782123399185096
20
4.3701782040105215
30
0
10
-13.713936653299363
20
4.3955000027822031
30
0
10
-13.573163786062235
20
4.4249740098823844
30
0
10
-13.502248247404447
20
4.4287699030680265
30
0
10
-13.427946863820829
20
4.4327470302388408
30
0
0
SPLINE
5
106
100
AcDbEntity
8
0
100
AcDbSpline
70
1064
71
3
72
10
73
6
74
0
42
0.000000001
43
0.0000000001
44
0.0000000001
40
0
40
0
40
0
40
0
40
0.040400147722996695
40
0.040400147722996695
40
0.080802585401165
40
0.080802585401165
40
0.080802585401165
40
0.080802585401165
10
-13.427946863820829
20
4.4327470302388408
30
0
10
-13.293831375683114
20
4.4205700201230531
30
0
10
-13.159715887545396
20
4.4083930100072646
30
0
10
-12.923592314375504
20
4.3085611006891593
30
0
10
-12.822829821777425
20
4.2214277841504124
30
0
10
-12.719939051320829
20
4.1324540614888408
30
0
0
SPLINE
5
107
100
AcDbEntity
8
0
100
AcDbSpline
70
1064
71
3
72
10
73
6
74
0
42
0.000000001
43
0.0000000001
44
0.0000000001
40
0
40
0
40
0
40
0
40
0.049015784924465497
40
0.049015784924465497
40
0.097715175604353804
40
0.097715175604353804
40
0.097715175604353804
40
0.097715175604353804
10
-12.719939051320829
20
4.1324540614888408
30
0
10
-12.62343162335603
20
4.0006159603088456
30
0
10
-12.543363392483753
20
3.8912353276917115
30
0
10
-12.450803912310091
20
3.6174640516072225
30
0
10
-12.442549216190459
20
3.4672442127980401
30
0
10
-12.434294520070829
20
3.3170243739888408
30
0
0
SPLINE
5
108
100
AcDbEntity
8
0
100
AcDbSpline
70
1064
71
3
72
10
73
6
74
0
42
0.000000001
43
0.0000000001
44
0.0000000001
40
0
40
0
40
0
40
0
40
0.044446933169989905
40
0.044446933169989905
40
0.089227732887607408
40
0.089227732887607408
40
0.089227732887607408
40
0.089227732887607408
10
-12.434294520070829
20
3.3170243739888408
30
0
10
-12.441673671735845
20
3.1690518089986082
30
0
10
-12.449052823400862
20
3.0210792440083756
30
0
10
-12.534705210838998
20
2.7480554440104257
30
0
10
-12.6088404340521
20
2.638071120717798
30
0
10
-12.699187098195829
20
2.5040360927388399
30
0
0
SPLINE
5
109
100
AcDbEntity
8
0
100
AcDbSpline
70
1064
71
3
72
10
73
6
74
0
42
0.000000001
43
0.0000000001
44
0.0000000001
40
0
40
0
40
0
40
0
40
0.048148918843294822
40
0.048148918843294822
40
0.095946347258163242
40
0.095946347258163242
40
0.095946347258163242
40
0.095946347258163242
10
-12.699187098195829
20
2.5040360927388399
30
0
10
-12.819790125457825
20
2.3981399030502799
30
0
10
-12.918914894605201
20
2.3111028228477899
30
0
10
-13.17800312689416
20
2.1972661812286667
30
0
10
-13.323726948482493
20
2.1760905901087533
30
0
10
-13.469450770070829
20
2.1549149989888403
30
0
0
LINE
5
110
100
AcDbEntity
8
0
100
AcDbLine
10
-13.469450770070829
20
2.1549149989888399
30
0
11
-13.515837488820829
21
2.6065751552388408
31
0
0
SPLINE
5
111
100
AcDbEntity
8
0
100
AcDbSpline
70
1064
71
3
72
10
73
6
74
0
42
0.000000001
43
0.0000000001
44
0.0000000001
40
0
40
0
40
0
40
0
40
0.029396016326419291
40
0.029396016326419291
40
0.058995831921197325
40
0.058995831921197325
40
0.058995831921197325
40
0.058995831921197325
10
-13.515837488820829
20
2.6065751552388408
30
0
10
-13.418039944512024
20
2.6126610271367303
30
0
10
-13.32024240020322
20
2.6187468990346203
30
0
10
-13.143081034896637
20
2.6812326524669583
30
0
10
-13.073170449311446
20
2.73469358985811
30
0
10
-12.988493738820829
20
2.7994462489888399
30
0
0
SPLINE
5
112
100
AcDbEntity
8
0
100
AcDbSpline
70
1064
71
3
72
10
73
6
74
0
42
0.000000001
43
0.0000000001
44
0.0000000001
40
0
40
0
40
0
40
0
40
0.030418957999310371
40
0.030418957999310371
40
0.060720489743441824
40
0.060720489743441824
40
0.060720489743441824
40
0.060720489743441824
10
-12.988493738820829
20
2.7994462489888399
30
0
10
-12.926044584530437
20
2.8793296562021853
30
0
10
-12.872346439004041
20
2.9480189903401657
30
0
10
-12.810242000398201
20
3.1181946889988499
30
0
10
-12.804153025859515
20
3.212726718993848
30
0
10
-12.798064051320829
20
3.3072587489888408
30
0
0
SPLINE
5
113
100
AcDbEntity
8
0
100
AcDbSpline
70
1064
71
3
72
10
73
6
74
0
42
0.000000001
43
0.0000000001
44
0.0000000001
40
0
40
0
40
0
40
0
40
0.027130024123264762
40
0.027130024123264762
40
0.054345163665158652
40
0.054345163665158652
40
0.054345163665158652
40
0.054345163665158652
10
-12.798064051320829
20
3.3072587489888408
30
0
10
-12.803985075222625
20
3.3974981184313786
30
0
10
-12.809906099124426
20
3.4877374878739187
30
0
10
-12.868555542389634
20
3.65082130236802
30
0
10
-12.919279678949046
20
3.7176288930155477
30
0
10
-12.977507410695829
20
3.7943192958638408
30
0
0
SPLINE
5
114
100
AcDbEntity
8
0
100
AcDbSpline
70
1064
71
3
72
10
73
6
74
0
42
0.000000001
43
0.0000000001
44
0.0000000001
40
0
40
0
40
0
40
0
40
0.025240790689694061
40
0.025240790689694061
40
0.050481287019479071
40
0.050481287019479071
40
0.050481287019479071
40
0.050481287019479071
10
-12.977507410695829
20
3.7943192958638408
30
0
10
-13.041291871984113
20
3.8491864424267104
30
0
10
-13.104468333630697
20
3.9035305900525703
30
0
10
-13.251392485230472
20
3.9657113725783844
30
0
10
-13.334786862025654
20
3.9733991232836132
30
0
10
-13.418181238820829
20
3.9810868739888408
30
0
0
SPLINE
5
115
100
AcDbEntity
8
0
100
AcDbSpline
70
1064
71
3
72
10
73
6
74
0
42
0.000000001
43
0.0000000001
44
0.0000000001
40
0
40
0
40
0
40
0
40
0.032427217305681669
40
0.032427217305681669
40
0.064430592127478092
40
0.064430592127478092
40
0.064430592127478092
40
0.064430592127478092
10
-13.418181238820829
20
3.9810868739888408
30
0
10
-13.525402796608274
20
3.9674068799598974
30
0
10
-13.609381202411138
20
3.9566923920001082
30
0
10
-13.78591293080386
20
3.8856665836976085
30
0
10
-13.866329311374841
20
3.8308376663432271
30
0
10
-13.946745691945829
20
3.7760087489888408
30
0
0
SPLINE
5
116
100
AcDbEntity
8
0
100
AcDbSpline
70
1064
71
3
72
10
73
6
74
0
42
0.000000001
43
0.0000000001
44
0.0000000001
40
0
40
0
40
0
40
0
40
0.06283245016761492
40
0.06283245016761492
40
0.12261726737209888
40
0.12261726737209888
40
0.12261726737209888
40
0.12261726737209888
10
-13.946745691945829
20
3.7760087489888408
30
0
10
-14.104811320932647
20
3.63860060116169
30
0
10
-14.215731294540955
20
3.5421766775785013
30
0
10
-14.472711495402663
20
3.2705120066244922
30
0
10
-14.588756913986749
20
3.1289732684316629
30
0
10
-14.704802332570829
20
2.9874345302388408
30
0
0
SPLINE
5
117
100
AcDbEntity
8
0
100
AcDbSpline
70
1064
71
3
72
10
73
6
74
0
42
0.000000001
43
0.0000000001
44
0.0000000001
40
0
40
0
40
0
40
0
40
0.03959775968322897
40
0.03959775968322897
40
0.08002142770224599
40
0.08002142770224599
40
0.08002142770224599
40
0.08002142770224599
10
-14.704802332570829
20
2.9874345302388408
30
0
10
-14.789122972748485
20
2.8858862253931261
30
0
10
-14.87344361292612
20
2.7843379205474417
30
0
10
-15.055185108418971
20
2.5899208818970143
30
0
10
-15.137470385176163
20
2.513721620048821
30
0
10
-15.246794520070829
20
2.4124833583638408
30
0
0
SPLINE
5
118
100
AcDbEntity
8
0
100
AcDbSpline
70
1064
71
3
72
10
73
6
74
0
42
0.000000001
43
0.0000000001
44
0.0000000001
40
0
40
0
40
0
40
0
40
0.028096881465584495
40
0.028096881465584495
40
0.056296759161396495
40
0.056296759161396495
40
0.056296759161396495
40
0.056296759161396495
10
-15.246794520070829
20
2.4124833583638408
30
0
10
-15.319987011319272
20
2.3540508637580242
30
0
10
-15.393179502567731
20
2.2956183691521939
30
0
10
-15.551812864021697
20
2.1984268608637909
30
0
10
-15.631046242478208
20
2.1635708638036055
30
0
10
-15.722868738820829
20
2.1231767177388408
30
0
0
SPLINE
5
119
100
AcDbEntity
8
0
100
AcDbSpline
70
1064
71
3
72
10
73
6
74
0
42
0.000000001
43
0.0000000001
44
0.0000000001
40
0
40
0
40
0
40
0
40
0.015742117826475006
40
0.015742117826475006
40
0.031483938617342187
40
0.031483938617342187
40
0.031483938617342187
40
0.031483938617342187
10
-15.722868738820829
20
2.1231767177388408
30
0
10
-15.77274000680481
20
2.1068565290372816
30
0
10
-15.822008757852451
20
2.0907335117832213
30
0
10
-15.923740256392584
20
2.0736748663150122
30
0
10
-15.97589238823171
20
2.0727910264019265
30
0
10
-16.028044520070829
20
2.0719071864888408
30
0
0
LINE
5
120
100
AcDbEntity
8
0
100
AcDbLine
10
-16.028044520070829
20
2.0719071864888408
30
0
11
-16.028044520070829
21
4.4376298427388416
31
0
0
LINE
5
121
100
AcDbEntity
8
0
100
AcDbLine
10
-16.028044520070829
20
4.4376298427388416
30
0
11
-15.605681238820829
21
4.4376298427388416
31
0
0
LINE
5
122
100
AcDbEntity
8
0
100
AcDbLine
10
-15.605681238820829
20
4.4376298427388416
30
0
11
-15.605681238820829
21
2.6822587489888408
31
0
0
ENDSEC
0
SECTION
2
OBJECTS
0
DICTIONARY
5
C
100
AcDbDictionary
3
ACAD_GROUP
350
D
3
ACAD_MLINESTYLE
350
17
0
DICTIONARY
5
D
100
AcDbDictionary
0
DICTIONARY
5
1A
330
C
100
AcDbDictionary
0
DICTIONARY
5
17
100
AcDbDictionary
0
ENDSEC
0
EOF
