G70*
%FSLAX55Y55*%
%ADD11C,0.03937*%
%ADD12C,0.01575*%
%ADD13C,0.00945*%
%ADD14C,0.11800*%
%ADD15C,0.00100*%
%ADD16C,0.06500*%
%ADD17O,0.12224X0.07500*%
%ADD18C,0.06000*%
%ADD19R,0.06000X0.06000*%
%ADD20C,0.06000*%
%ADD21R,0.06500X0.06500*%
%ADD22R,0.12000X0.08000*%
%ADD23C,0.08700*%
%ADD24C,0.08000*%
%ADD25C,0.01181*%
%ADD26C,0.00591*%
%ADD27P,0.06061X8X22.500*%
D11*
X320118Y168681D02*
X327268Y161531D01*
X332500Y161531*
X338484Y167516*
D12*
X70000Y190000D02*
X94375Y190000D01*
X107675Y176700*
D11*
X340866Y26319D02*
X340866Y26665D01*
X329835Y37697*
X320669Y37697*
X412500Y35000D02*
X397500Y35000D01*
X382500Y20000*
X347185Y20000*
X340866Y26319*
X480000Y35295D02*
X480276Y35295D01*
X150157Y42461D02*
X155000Y42461D01*
X159439Y46900*
X163300Y46900*
D12*
X606929Y54390D02*
X602142Y54390D01*
X598000Y58531*
X598000Y75000*
X590000Y83000*
X521500Y83000*
X517000Y78500*
X490000Y78500*
X479500Y89000*
X416500Y89000*
X389500Y62000*
X375000Y62000*
X361826Y75174*
X361826Y79500*
X358826Y82500*
X286000Y82500*
X260000Y56500*
X92969Y56500*
X86000Y49531*
X44000Y49531*
X22559Y28091*
X05906Y28091*
D11*
X606929Y44390D02*
X592539Y30000D01*
X528991Y30000*
X520271Y38720*
X519409Y38720*
D12*
X280118Y228681D02*
X280118Y236925D01*
X279950Y236925*
D11*
X480000Y35295D02*
X455780Y35295D01*
X445484Y25000*
D12*
X210118Y168681D02*
X210118Y187413D01*
X209000Y188531*
X209000Y186531*
D11*
X412500Y15000D02*
X422500Y25000D01*
X433484Y25000*
X23000Y06531D02*
X309000Y06531D01*
X322469Y20000*
X337500Y20000*
X342500Y15000*
X384460Y15000*
X394460Y25000*
X402500Y25000*
X412500Y15000*
X338484Y167516D02*
X342327Y171358D01*
X359370Y171358*
X312500Y60000D02*
X320630Y60000D01*
X320630Y61122*
X338484Y167516D02*
X348500Y157500D01*
D12*
X250118Y228681D02*
X243969Y222531D01*
X167531Y222531*
X129168Y177500*
X126400Y177500*
X116400Y167500*
X106500Y167500*
X99500Y174500*
X62500Y174500*
X55000Y167000*
D11*
X348500Y177500D02*
X338040Y177500D01*
X330118Y169578*
X330118Y168681*
X457000Y170689D02*
X424843Y170689D01*
X416000Y179531*
X392040Y179531*
X381040Y168531*
X375000Y168531*
X366031Y177500*
X348500Y177500*
X624016Y150138D02*
X616394Y150138D01*
X607000Y159531*
X463000Y159531*
X457000Y165531*
X457000Y170689*
X457441Y170689*
D12*
X190118Y168681D02*
X182392Y157500D01*
X50000Y157500*
X33000Y174500*
X26619Y174500*
X19485Y181634*
X05906Y181634*
X537000Y189531D02*
X537000Y188531D01*
X531803Y183335*
X274772Y183335*
X260118Y168681*
X223000Y191531D02*
X223000Y189531D01*
X511000Y189531*
X517000Y195531*
X554469Y195531*
X584114Y165886*
X624016Y165886*
X140118Y168681D02*
X140118Y178650D01*
X141000Y179531*
D11*
X519409Y38720D02*
X517229Y38720D01*
X508509Y30000*
X485295Y30000*
X480000Y35295*
X26000Y150000D02*
X28500Y147500D01*
X310118Y147500*
X310118Y148000*
D12*
X270118Y168681D02*
X259969Y158531D01*
X225000Y158531*
D11*
X465433Y49193D02*
X479134Y49193D01*
X482165Y52224*
D12*
X360866Y26319D02*
X360866Y37697D01*
X360669Y37697*
X624016Y197382D02*
X612850Y197382D01*
X607000Y191531*
X565707Y191531*
X555707Y201531*
X508000Y201531*
X502000Y195531*
X370469Y195531*
X368500Y197500*
X240118Y168681D02*
X240118Y181531D01*
X240000Y181531*
X05906Y150138D02*
X17138Y150138D01*
X22000Y155000*
X36500Y155000*
X40000Y151500*
X264000Y151500*
X270000Y157500*
D11*
X310118Y148000D02*
X356469Y148000D01*
X359370Y150902*
X359370Y151358*
D12*
X170118Y168681D02*
X170118Y189650D01*
X178000Y197531*
X226000Y197531*
X231197Y192335*
X506803Y192335*
X513000Y198531*
X555088Y198531*
X571985Y181634*
X624016Y181634*
X05906Y43839D02*
X31307Y43839D01*
X40000Y52531*
X84000Y52531*
X93969Y62500*
X259000Y62500*
X282000Y85500*
X351207Y85500*
X360207Y94500*
X479000Y94500*
X490500Y83000*
X517000Y83000*
X520000Y86000*
X592500Y86000*
X601000Y77500*
X601000Y66531*
X603142Y64390*
X606929Y64390*
X05906Y228878D02*
X05906Y229531D01*
X74969Y229531*
X75000Y229500*
D13*
X142657Y34961D02*
X142657Y34531D01*
D12*
X142343Y34531D02*
X133000Y34531D01*
X121000Y46531*
X57181Y46531*
X51772Y41122*
X160118Y168681D02*
X154937Y163500D01*
X131031Y163500*
X126000Y168531*
X126000Y167500*
X250118Y168681D02*
X250000Y168681D01*
X250000Y181531*
D11*
X182500Y18000D02*
X91772Y18000D01*
D12*
X624016Y213130D02*
X605417Y194531D01*
X566326Y194531*
X556326Y204531*
X504000Y204531*
X498000Y198531*
X379469Y198531*
X375500Y202500*
X496457Y49508D02*
X495000Y48051D01*
X495000Y37500*
X280118Y168681D02*
X280118Y155531D01*
X280000Y155531*
D11*
X604500Y147500D02*
X464000Y147500D01*
X460500Y144000*
X448531Y144000*
X435000Y157531*
X417039Y157531*
X410039Y150531*
D12*
X260118Y228681D02*
X259975Y228681D01*
X259975Y236575*
X200118Y168681D02*
X187835Y154500D01*
X42686Y154500*
X31300Y165886*
X05906Y165886*
X624016Y228878D02*
X556346Y228878D01*
X535000Y207531*
X365031Y207531*
X352835Y195335*
X234197Y195335*
X229000Y200531*
X172000Y200531*
X150118Y178650*
X150118Y168681*
X624016Y244626D02*
X137594Y244626D01*
X128500Y235531*
X96000Y235531*
X93000Y232531*
X93000Y230531*
D11*
X480276Y15295D02*
X489512Y24531D01*
X513598Y24531*
X519409Y18720*
X457484Y25000D02*
X470571Y25000D01*
X480276Y15295*
X606929Y34390D02*
X597071Y24531D01*
X525220Y24531*
X519409Y18720*
D12*
X360551Y49193D02*
X402953Y49193D01*
X405433Y51673*
X05906Y197382D02*
X05906Y197531D01*
X29000Y197531*
X31531Y195000*
X68469Y195000*
X93000Y219531*
X109531Y219531*
X112500Y222500*
X163881Y222500*
X170062Y228681*
X170118Y228681*
D11*
X359370Y151358D02*
X365512Y157500D01*
X403858Y157500*
X410000Y151358*
X410039Y151358*
X410039Y150531*
X182500Y18000D02*
X310469Y18000D01*
X312000Y19531*
X312000Y59500*
X312500Y60000*
D12*
X465433Y56673D02*
X471094Y62335D01*
X487717Y62335*
X496457Y53594*
X496457Y49508*
D11*
X410039Y170531D02*
X402008Y162500D01*
X371031Y162500*
X370000Y163531*
X457130Y151000D02*
X444598Y163531D01*
X417039Y163531*
X410039Y170531*
X465433Y64154D02*
X473504Y72224D01*
X482165Y72224*
X457130Y151000D02*
X457441Y150689D01*
X592000Y153500D02*
X459630Y153500D01*
X457130Y151000*
X405433Y61673D02*
X400260Y56500D01*
X374500Y56500*
X374500Y57000*
X364000Y67500*
X352500Y67500*
X346122Y61122*
X320630Y61122*
X05906Y12343D02*
X05906Y12531D01*
X91772Y12531*
X91772Y18000*
D12*
X05906Y106831D02*
X30299Y106831D01*
X30969Y107500*
X600031Y107500*
X625409Y82122*
X625409Y57941*
X621858Y54390*
X616929Y54390*
D11*
X606929Y44390D02*
X616929Y34390D01*
X150157Y27461D02*
X163300Y27461D01*
X163300Y26900*
X359370Y171358D02*
X360000Y170959D01*
X362573Y170959*
X370000Y163531*
D12*
X208960Y348898D02*
X215874Y348898D01*
X227310Y360334*
X360396Y365036D02*
X376710Y381350D01*
X384618Y381350*
X384633Y381366*
X594810Y381366*
X608842Y367334*
X608842Y360803*
X614948Y354696*
X623826Y354696*
X254810Y295334D02*
X270310Y295334D01*
X270310Y294834*
X09614Y333712D02*
X18492Y324834D01*
X42310Y324834*
X51810Y315334*
X51810Y305834*
X220118Y168681D02*
X220118Y177500D01*
X220000Y177500*
X623826Y291704D02*
X614810Y291704D01*
X611810Y294704*
X611810Y298834*
D11*
X445484Y25000D02*
X437500Y35000D01*
X412500Y35000*
D12*
X578039Y296429D02*
X578039Y296606D01*
X547310Y327334*
X514810Y327334*
X589835Y315359D02*
X589220Y307610D01*
X578039Y296429*
D11*
X163300Y46900D02*
X182600Y27600D01*
X182500Y27500*
X182500Y18000*
D12*
X05906Y75335D02*
X11803Y75335D01*
X34469Y98000*
X275619Y98000*
X282119Y91500*
X349969Y91500*
X358969Y100500*
X599031Y100500*
X616929Y82602*
X616929Y74390*
X05906Y59587D02*
X86055Y59587D01*
X121469Y95000*
X275000Y95000*
X281500Y88500*
X350588Y88500*
X359588Y97500*
X598031Y97500*
X607000Y88531*
X607000Y74390*
X606929Y74390*
X270118Y228681D02*
X270118Y236925D01*
X270150Y236925*
D11*
X310118Y148000D02*
X310118Y168681D01*
D12*
X180118Y168681D02*
X180118Y178650D01*
X195803Y194335*
X211197Y194335*
X219000Y186531*
X520000Y186531*
X523000Y189531*
X55000Y243531D02*
X73469Y243531D01*
X86000Y231000*
X86000Y230500*
X616929Y64390D02*
X620858Y64390D01*
X622409Y65941*
X622409Y81122*
X600031Y103500*
X356000Y103500*
X347000Y94500*
X285000Y94500*
X278500Y101000*
X29469Y101000*
X19551Y91083*
X05906Y91083*
X30000Y180000D02*
X35000Y180000D01*
X45000Y190000*
X70000Y190000*
X324397Y319932D02*
X323782Y320548D01*
X313152Y309918*
X321070Y294460D02*
X302625Y294460D01*
X293688Y303397*
X547310Y337334D02*
X541279Y343366D01*
X434810Y343366*
X420826Y329381*
X333255Y329381*
X324397Y320523*
X324397Y319932*
X569835Y315359D02*
X568810Y315359D01*
X568810Y320834*
X563310Y326334*
X563310Y340834*
X571310Y341334D02*
X579835Y332809D01*
X579835Y315359*
X623826Y307452D02*
X617724Y307452D01*
X615342Y309834*
X615342Y315803*
X610310Y320834*
X602810Y320834*
D11*
X305278Y309918D02*
X297468Y317728D01*
X288629Y317728*
X281070Y294460D02*
X277153Y298377D01*
X277153Y312846*
X282035Y317728*
X288629Y317728*
X281503Y287834D02*
X281503Y294027D01*
X281070Y294460*
X446464Y320090D02*
X433566Y320090D01*
X401310Y287834*
X281503Y287834*
X91772Y18000D02*
X91772Y41122D01*
X472710Y315262D02*
X472310Y315458D01*
X467679Y320090*
X446464Y320090*
X511010Y291534D02*
X501179Y301366D01*
X483810Y301366*
X542645Y300090D02*
X519566Y300090D01*
X511010Y291534*
X598039Y296429D02*
X598039Y291834D01*
X594039Y287834*
X554901Y287834*
X542645Y300090*
X607310Y314334D02*
X607310Y305700D01*
X598039Y296429*
D12*
X05906Y213130D02*
X08598Y213130D01*
X22000Y226531*
X69000Y226531*
X73000Y222531*
X107531Y222531*
X117500Y232500*
X131969Y232500*
X141272Y241803*
X286728Y241803*
X290118Y238413*
X290118Y228681*
D11*
X281503Y287834D02*
X248810Y287834D01*
X59310Y289834D02*
X246810Y289834D01*
X248810Y287834*
X59310Y289834D02*
X12310Y289834D01*
X09614Y315995D02*
X09614Y289834D01*
X12310Y289834*
X09810Y289834*
X09810Y360976D02*
X09810Y349834D01*
X12310Y347334*
X32310Y347334*
X59810Y319834*
X59810Y290334*
X59310Y289834*
X242645Y312334D02*
X242645Y293334D01*
X243310Y293334*
X248810Y287834*
X242645Y312334D02*
X242645Y312413D01*
X208960Y318898D02*
X236081Y318898D01*
X242645Y312334*
D12*
X313152Y365036D02*
X313152Y358993D01*
X338779Y333366*
X419810Y333366*
X432810Y346366*
X556810Y346366*
X595310Y325334D02*
X595310Y328366D01*
X577310Y346366*
X556810Y346366*
X588039Y296429D02*
X595310Y303700D01*
X595310Y325334*
X623826Y323200D02*
X613944Y323200D01*
X611279Y325866*
X595310Y325866*
X595310Y325334*
X514810Y337334D02*
X539810Y337334D01*
X544810Y332334*
X554810Y332334*
X556810Y334334*
X556810Y346366*
X09810Y378692D02*
X15637Y372866D01*
X47842Y372866*
X64342Y389366*
X222310Y389366*
X623826Y386192D02*
X607984Y386192D01*
X604810Y389366*
X222310Y389366*
X222310Y382334*
X328900Y365036D02*
X328900Y353241D01*
X345775Y336366*
X417810Y336366*
X430810Y349366*
X578779Y349366*
X589196Y338948*
X623826Y338948*
D11*
X163300Y26900D02*
X174500Y26900D01*
X174500Y25500*
D12*
X344648Y365036D02*
X344648Y375400D01*
X348905Y379657*
D11*
X433484Y25000D02*
X443484Y15000D01*
X470000Y15000*
X477500Y07500*
X485000Y07500*
X492500Y15000*
X509531Y15000*
X514000Y10531*
X523031Y10531*
X530031Y17531*
X611000Y17531*
X624000Y30531*
X624000Y39531*
X619142Y44390*
X616929Y44390*
D12*
X360396Y309918D02*
X366844Y316366D01*
X405810Y316366*
X352522Y309918D02*
X365970Y323366D01*
X390810Y323366*
X05906Y244626D02*
X43906Y244626D01*
X51000Y237531*
X75469Y237531*
X80000Y233000*
X80000Y229531*
X84000Y225531*
X98000Y225531*
X101000Y228531*
X107000Y228531*
D11*
X511010Y311534D02*
X512310Y311044D01*
X533599Y311044*
X542645Y320090*
X559310Y295834D02*
X559310Y302866D01*
X542645Y319531*
X542645Y320090*
X568039Y296429D02*
X559905Y296429D01*
X559310Y295834*
X559310Y293834*
D12*
X321026Y309918D02*
X315442Y304334D01*
X301956Y304334*
X298169Y308121*
X283058Y308121*
X208960Y338898D02*
X215874Y338898D01*
X235310Y358334*
X623826Y370444D02*
X610732Y370444D01*
X596342Y384834*
X279810Y384834*
X277310Y382334*
D11*
X305278Y365036D02*
X305278Y354376D01*
X288629Y337728*
X305347Y372334D02*
X305347Y363633D01*
X305278Y365036*
X308905Y379657D02*
X305347Y376099D01*
X305347Y372334*
X262310Y372334*
D12*
X262310Y382334D01*
D11*
X270637Y343043D02*
X283314Y343043D01*
X288629Y337728*
X242645Y332413D02*
X260007Y332413D01*
X270637Y343043*
X208960Y328898D02*
X231295Y328898D01*
X234810Y332413*
X242645Y332413*
X446208Y299834D02*
X436708Y290334D01*
X426310Y290334*
X472710Y295262D02*
X468138Y299834D01*
X446208Y299834*
X446464Y300090*
D12*
X336774Y309918D02*
X336774Y300489D01*
X339810Y297453*
X339929Y297453*
X340016Y297366*
X398810Y297366*
X438810Y337366*
X328900Y309918D02*
X328900Y299183D01*
X335717Y292366*
X398310Y292366*
X430779Y324834*
X439279Y324834*
X449810Y335366*
X460810Y335366*
D14*
X330000Y10000D03*
D15*
G36*
X31794Y302693D02*
X31794Y299544D01*
X34943Y299544*
X34943Y300725*
X32975Y300725*
X32975Y302693*
X31794Y302693*
G37*
X31794Y299544*
X34943Y299544*
X34943Y300725*
X32975Y300725*
X32975Y302693*
X31794Y302693*
G36*
X27857Y299544D02*
X31006Y299544D01*
X31006Y302693*
X29825Y302693*
X29825Y300725*
X27857Y300725*
X27857Y299544*
G37*
X31006Y299544*
X31006Y302693*
X29825Y302693*
X29825Y300725*
X27857Y300725*
X27857Y299544*
G36*
X31006Y295607D02*
X31006Y298756D01*
X27857Y298756*
X27857Y297575*
X29825Y297575*
X29825Y295607*
X31006Y295607*
G37*
X31006Y298756*
X27857Y298756*
X27857Y297575*
X29825Y297575*
X29825Y295607*
X31006Y295607*
G36*
X34943Y298756D02*
X31794Y298756D01*
X31794Y295607*
X32975Y295607*
X32975Y297575*
X34943Y297575*
X34943Y298756*
G37*
X31794Y298756*
X31794Y295607*
X32975Y295607*
X32975Y297575*
X34943Y297575*
X34943Y298756*
D16*
X09614Y333712D03*
X09614Y315995D03*
D17*
X19456Y311074D03*
X19456Y338633D03*
D18*
X472710Y295262D03*
X472710Y315262D03*
X511010Y311534D03*
X511010Y291534D03*
X446464Y300090D03*
X446464Y320090D03*
X359370Y151358D03*
X359370Y171358D03*
X348500Y177500D03*
X348500Y157500D03*
X542645Y320090D03*
X542645Y300090D03*
D19*
X305278Y309918D03*
D18*
X313152Y309918D03*
X321026Y309918D03*
X328900Y309918D03*
X336774Y309918D03*
X344648Y309918D03*
X352522Y309918D03*
X360396Y309918D03*
X360396Y365036D03*
X352522Y365036D03*
X344648Y365036D03*
X336774Y365036D03*
X328900Y365036D03*
X321026Y365036D03*
X313152Y365036D03*
X305278Y365036D03*
D15*
G36*
X258943Y38699D02*
X261014Y37454D01*
X261824Y44171*
X262606Y36498*
X264909Y35113*
X266899Y45785*
X264542Y47188*
X263590Y40349*
X262883Y48198*
X260695Y49512*
X259930Y42548*
X259050Y50501*
X256718Y51902*
X258943Y38699*
X256126Y40391*
X252871Y38317*
X250587Y39689*
X253843Y41763*
X251036Y43449*
X241417Y37321*
X244224Y35635*
X247987Y38032*
X250270Y36660*
X246507Y34263*
X249324Y32571*
X258943Y38699*
G37*
X261014Y37454*
X261824Y44171*
X262606Y36498*
X264909Y35113*
X266899Y45785*
X264542Y47188*
X263590Y40349*
X262883Y48198*
X260695Y49512*
X259930Y42548*
X259050Y50501*
X256718Y51902*
X258943Y38699*
X256126Y40391*
X252871Y38317*
X250587Y39689*
X253843Y41763*
X251036Y43449*
X241417Y37321*
X244224Y35635*
X247987Y38032*
X250270Y36660*
X246507Y34263*
X249324Y32571*
X258943Y38699*
G36*
X571935Y211238D02*
X574006Y209994D01*
X574816Y216711*
X575598Y209037*
X577902Y207653*
X579891Y218324*
X577534Y219727*
X576582Y212888*
X575875Y220737*
X573687Y222052*
X572922Y215088*
X572042Y223040*
X569710Y224442*
X571935Y211238*
X569118Y212930*
X565863Y210856*
X563579Y212228*
X566835Y214302*
X564028Y215989*
X554409Y209861*
X557216Y208174*
X560979Y210571*
X563262Y209200*
X559499Y206802*
X562316Y205110*
X571935Y211238*
G37*
X574006Y209994*
X574816Y216711*
X575598Y209037*
X577902Y207653*
X579891Y218324*
X577534Y219727*
X576582Y212888*
X575875Y220737*
X573687Y222052*
X572922Y215088*
X572042Y223040*
X569710Y224442*
X571935Y211238*
X569118Y212930*
X565863Y210856*
X563579Y212228*
X566835Y214302*
X564028Y215989*
X554409Y209861*
X557216Y208174*
X560979Y210571*
X563262Y209200*
X559499Y206802*
X562316Y205110*
X571935Y211238*
D20*
X611024Y06831D03*
D15*
G36*
X581779Y377925D02*
X581779Y374775D01*
X584929Y374775*
X584929Y375956*
X582960Y375956*
X582960Y377925*
X581779Y377925*
G37*
X581779Y374775*
X584929Y374775*
X584929Y375956*
X582960Y375956*
X582960Y377925*
X581779Y377925*
G36*
X577842Y374775D02*
X580991Y374775D01*
X580992Y377925*
X579810Y377925*
X579810Y375956*
X577842Y375956*
X577842Y374775*
G37*
X580991Y374775*
X580992Y377925*
X579810Y377925*
X579810Y375956*
X577842Y375956*
X577842Y374775*
G36*
X580992Y370838D02*
X580991Y373988D01*
X577842Y373988*
X577842Y372806*
X579810Y372806*
X579810Y370838*
X580992Y370838*
G37*
X580991Y373988*
X577842Y373988*
X577842Y372806*
X579810Y372806*
X579810Y370838*
X580992Y370838*
G36*
X584929Y373988D02*
X581779Y373988D01*
X581779Y370838*
X582960Y370838*
X582960Y372806*
X584929Y372806*
X584929Y373988*
G37*
X581779Y373988*
X581779Y370838*
X582960Y370838*
X582960Y372806*
X584929Y372806*
X584929Y373988*
D20*
X20150Y299150D03*
X06925Y388425D03*
D15*
G36*
X19219Y40368D02*
X19219Y37219D01*
X22368Y37219*
X22368Y38400*
X20400Y38400*
X20400Y40368*
X19219Y40368*
G37*
X19219Y37219*
X22368Y37219*
X22368Y38400*
X20400Y38400*
X20400Y40368*
X19219Y40368*
G36*
X15282Y37219D02*
X18431Y37219D01*
X18431Y40368*
X17250Y40368*
X17250Y38400*
X15282Y38400*
X15282Y37219*
G37*
X18431Y37219*
X18431Y40368*
X17250Y40368*
X17250Y38400*
X15282Y38400*
X15282Y37219*
G36*
X18431Y33282D02*
X18431Y36431D01*
X15282Y36431*
X15282Y35250*
X17250Y35250*
X17250Y33282*
X18431Y33282*
G37*
X18431Y36431*
X15282Y36431*
X15282Y35250*
X17250Y35250*
X17250Y33282*
X18431Y33282*
G36*
X22368Y36431D02*
X19219Y36431D01*
X19219Y33282*
X20400Y33282*
X20400Y35250*
X22368Y35250*
X22368Y36431*
G37*
X19219Y36431*
X19219Y33282*
X20400Y33282*
X20400Y35250*
X22368Y35250*
X22368Y36431*
D16*
X262310Y382334D03*
X222310Y382334D03*
X321070Y294460D03*
X281070Y294460D03*
X308905Y379657D03*
X348905Y379657D03*
X70000Y180000D03*
X30000Y180000D03*
X51772Y41122D03*
X91772Y41122D03*
X208960Y348898D03*
X208960Y338898D03*
X208960Y328898D03*
X208960Y318898D03*
X75810Y309134D03*
X75810Y319134D03*
X75810Y329134D03*
X75810Y339134D03*
X75810Y349134D03*
X75810Y359134D03*
X09810Y378692D03*
X09810Y360976D03*
D17*
X19653Y356055D03*
X19653Y383614D03*
D14*
X70475Y165450D03*
D21*
X514810Y337334D03*
D16*
X514810Y327334D03*
D21*
X178787Y356271D03*
D16*
X188787Y356271D03*
X198787Y356271D03*
D21*
X568039Y296429D03*
D16*
X578039Y296429D03*
X588039Y296429D03*
X598039Y296429D03*
D21*
X462251Y356271D03*
D16*
X472251Y356271D03*
X482251Y356271D03*
D21*
X556740Y356271D03*
D16*
X566740Y356271D03*
X576740Y356271D03*
D21*
X273275Y356271D03*
D16*
X283275Y356271D03*
X293275Y356271D03*
D21*
X367763Y356271D03*
D16*
X377763Y356271D03*
X387763Y356271D03*
D21*
X21496Y214705D03*
D16*
X31496Y214705D03*
X41496Y214705D03*
D21*
X569835Y315359D03*
D16*
X579835Y315359D03*
X589835Y315359D03*
D22*
X623826Y291704D03*
X623826Y307452D03*
X623826Y323200D03*
X623826Y338948D03*
X623826Y354696D03*
X623826Y370444D03*
X623826Y386192D03*
D18*
X482165Y72224D03*
X482165Y52224D03*
D16*
X410039Y150531D03*
X410039Y170531D03*
D18*
X385000Y237500D03*
X365000Y237500D03*
D16*
X457441Y170689D03*
X457441Y150689D03*
D18*
X360866Y26319D03*
X340866Y26319D03*
X163300Y46900D03*
X163300Y26900D03*
X288629Y337728D03*
X288629Y317728D03*
X480276Y15295D03*
X480276Y35295D03*
X412500Y15000D03*
X412500Y35000D03*
D23*
X519409Y18720D03*
X519409Y38720D03*
D18*
X242645Y332413D03*
X242645Y312413D03*
X385000Y227500D03*
X365000Y227500D03*
D16*
X457484Y25000D03*
X445484Y25000D03*
X433484Y25000D03*
D18*
X150157Y42461D03*
X142657Y34961D03*
X150157Y27461D03*
D15*
G36*
X97345Y326472D02*
X99416Y325228D01*
X100227Y331945*
X101008Y324271*
X103312Y322887*
X105301Y333558*
X102944Y334961*
X101993Y328122*
X101286Y335971*
X99097Y337286*
X98332Y330322*
X97453Y338274*
X95120Y339676*
X97345Y326472*
X94529Y328164*
X91273Y326090*
X88990Y327462*
X92245Y329536*
X89439Y331223*
X79820Y325095*
X82626Y323408*
X86389Y325806*
X88673Y324434*
X84910Y322036*
X87726Y320344*
X97345Y326472*
G37*
X99416Y325228*
X100227Y331945*
X101008Y324271*
X103312Y322887*
X105301Y333558*
X102944Y334961*
X101993Y328122*
X101286Y335971*
X99097Y337286*
X98332Y330322*
X97453Y338274*
X95120Y339676*
X97345Y326472*
X94529Y328164*
X91273Y326090*
X88990Y327462*
X92245Y329536*
X89439Y331223*
X79820Y325095*
X82626Y323408*
X86389Y325806*
X88673Y324434*
X84910Y322036*
X87726Y320344*
X97345Y326472*
D18*
X405433Y61673D03*
X405433Y51673D03*
X465433Y49193D03*
X465433Y56673D03*
X465433Y64154D03*
D16*
X330118Y228681D03*
X320118Y228681D03*
X310118Y228681D03*
X300118Y228681D03*
X290118Y228681D03*
X280118Y228681D03*
X270118Y228681D03*
X260118Y228681D03*
X250118Y228681D03*
X240118Y228681D03*
X230118Y228681D03*
X220118Y228681D03*
X210118Y228681D03*
X200118Y228681D03*
X190118Y228681D03*
X180118Y228681D03*
X170118Y228681D03*
X160118Y228681D03*
X150118Y228681D03*
X140118Y228681D03*
X140118Y168681D03*
X150118Y168681D03*
X160118Y168681D03*
X170118Y168681D03*
X180118Y168681D03*
X190118Y168681D03*
X200118Y168681D03*
X210118Y168681D03*
X220118Y168681D03*
X230118Y168681D03*
X240118Y168681D03*
X250118Y168681D03*
X260118Y168681D03*
X270118Y168681D03*
X280118Y168681D03*
X290118Y168681D03*
X300118Y168681D03*
X310118Y168681D03*
X320118Y168681D03*
X330118Y168681D03*
D20*
X591661Y374618D03*
D21*
X115984Y214705D03*
D16*
X125984Y214705D03*
X135984Y214705D03*
X262310Y372334D03*
X222310Y372334D03*
X270637Y343043D03*
X270637Y303043D03*
X70000Y190000D03*
X30000Y190000D03*
X320630Y61122D03*
X360630Y61122D03*
X360551Y49193D03*
X320551Y49193D03*
X496457Y89508D03*
X496457Y49508D03*
X311181Y100965D03*
X323681Y100965D03*
X360669Y37697D03*
X320669Y37697D03*
D22*
X624016Y150138D03*
X624016Y165886D03*
X624016Y181634D03*
X624016Y197382D03*
X624016Y213130D03*
X624016Y228878D03*
X624016Y244626D03*
X05906Y12343D03*
X05906Y28091D03*
X05906Y43839D03*
X05906Y59587D03*
X05906Y75335D03*
X05906Y91083D03*
X05906Y106831D03*
D24*
X107675Y176700D03*
D22*
X05906Y150138D03*
X05906Y165886D03*
X05906Y181634D03*
X05906Y197382D03*
X05906Y213130D03*
X05906Y228878D03*
X05906Y244626D03*
D21*
X210472Y214705D03*
D16*
X220472Y214705D03*
X230472Y214705D03*
D21*
X304961Y214705D03*
D16*
X314961Y214705D03*
X324961Y214705D03*
D21*
X399449Y214705D03*
D16*
X409449Y214705D03*
X419449Y214705D03*
D21*
X493937Y214705D03*
D16*
X503937Y214705D03*
X513937Y214705D03*
D21*
X588425Y214705D03*
D16*
X598425Y214705D03*
X608425Y214705D03*
D21*
X52992Y76909D03*
D16*
X62992Y76909D03*
X72992Y76909D03*
D21*
X147480Y76909D03*
D16*
X157480Y76909D03*
X167480Y76909D03*
D21*
X241969Y76909D03*
D16*
X251969Y76909D03*
X261969Y76909D03*
D21*
X336457Y76909D03*
D16*
X346457Y76909D03*
X356457Y76909D03*
D21*
X430945Y76909D03*
D16*
X440945Y76909D03*
X450945Y76909D03*
D21*
X525433Y76909D03*
D16*
X535433Y76909D03*
X545433Y76909D03*
D21*
X84299Y356271D03*
D16*
X94299Y356271D03*
X104299Y356271D03*
D21*
X606929Y74390D03*
D16*
X616929Y74390D03*
X606929Y64390D03*
X616929Y64390D03*
X606929Y54390D03*
X616929Y54390D03*
X606929Y44390D03*
X616929Y44390D03*
X606929Y34390D03*
X616929Y34390D03*
D14*
X09810Y289834D03*
D25*
X117984Y-56111D02*
X117984Y-45000*
X119624Y-53796D01*
X121264Y-45000*
X122905Y-53796*
X124545Y-45000*
X129794Y-49167D02*
X129138Y-48241D01*
X126513Y-48241*
X125857Y-49167*
X125857Y-52870*
X126513Y-53796*
X129138Y-53796*
X129794Y-52870*
X129794Y-49167*
X133731Y-53796D02*
X133731Y-48241D01*
X133731Y-49167D02*
X134387Y-48241D01*
X136356Y-48241*
X137012Y-49167*
X143901Y-45000D02*
X143901Y-52870D01*
X144557Y-53796*
X145214Y-53796*
X142917Y-48241D02*
X144886Y-48241D01*
X149478Y-48241D02*
X149478Y-52870D01*
X150135Y-53796*
X152759Y-53796*
X153415Y-52870*
X153415Y-53796D02*
X153415Y-48241D01*
X157352Y-53796D02*
X157352Y-45000D01*
X157352Y-49167D02*
X158008Y-48241D01*
X160633Y-48241*
X161289Y-49167*
X161289Y-53796*
X165226Y-53796D02*
X165226Y-48241D01*
X165226Y-49167D02*
X165882Y-48241D01*
X167850Y-48241*
X168507Y-49167*
X173756Y-49167D02*
X177693Y-49167D01*
X180973Y-52870D02*
X181629Y-53796D01*
X184910Y-53796*
X185566Y-52870*
X185566Y-50093*
X184910Y-49167*
X181629Y-49167*
X180973Y-48241*
X180973Y-45926*
X181629Y-45000*
X184910Y-45000*
X185566Y-45926*
X191144Y-45000D02*
X191144Y-52870D01*
X191800Y-53796*
X192456Y-53796*
X190159Y-48241D02*
X192128Y-48241D01*
X196721Y-51019D02*
X200658Y-51019D01*
X200658Y-49167*
X200001Y-48241*
X197377Y-48241*
X196721Y-49167*
X196721Y-52870*
X197377Y-53796*
X200001Y-53796*
X200658Y-52870*
X204594Y-48241D02*
X204594Y-52870D01*
X205250Y-53796*
X207875Y-53796*
X208531Y-52870*
X208531Y-53796D02*
X208531Y-48241D01*
X212468Y-51019D02*
X216405Y-51019D01*
X216405Y-49167*
X215749Y-48241*
X213124Y-48241*
X212468Y-49167*
X212468Y-52870*
X213124Y-53796*
X215749Y-53796*
X216405Y-52870*
X220342Y-53796D02*
X220342Y-48241D01*
X220342Y-49167D02*
X220998Y-48241D01*
X222966Y-48241*
X223623Y-49167*
X228215Y-48241D02*
X228215Y-56111D01*
X228215Y-49167D02*
X228872Y-48241D01*
X231496Y-48241*
X232152Y-49167*
X232152Y-52870*
X231496Y-53796*
X228872Y-53796*
X228215Y-52870*
X237237Y-45000D02*
X237237Y-52870D01*
X237566Y-53796*
X237894Y-53796*
X240026Y-49167D02*
X240682Y-48241D01*
X243307Y-48241*
X243963Y-49167*
X243963Y-53796*
X243963Y-52870D02*
X243963Y-53796D01*
X240682Y-53796*
X240026Y-52870*
X240026Y-51944*
X240682Y-51019*
X243963Y-51019*
X250196Y-45000D02*
X250196Y-52870D01*
X250852Y-53796*
X251509Y-53796*
X249212Y-48241D02*
X251181Y-48241D01*
X257086Y-53796D02*
X257086Y-48704D01*
X257086Y-45463D02*
X257086Y-45000D01*
X256758Y-53796D02*
X257414Y-53796D01*
X259710Y-53796D02*
X259710Y-48241D01*
X259710Y-49167D02*
X260366Y-48241D01*
X262991Y-48241*
X263647Y-49167*
X263647Y-53796*
X267584Y-51019D02*
X271521Y-51019D01*
X271521Y-49167*
X270865Y-48241*
X268240Y-48241*
X267584Y-49167*
X267584Y-52870*
X268240Y-53796*
X270865Y-53796*
X271521Y-52870*
X275458Y-53796D02*
X280707Y-53796D01*
X283331Y-45000D02*
X285956Y-53796D01*
X288581Y-45000*
X291205Y-51019D02*
X295142Y-51019D01*
X295142Y-49167*
X294486Y-48241*
X291861Y-48241*
X291205Y-49167*
X291205Y-52870*
X291861Y-53796*
X294486Y-53796*
X295142Y-52870*
X299079Y-53796D02*
X299079Y-48241D01*
X299079Y-49167D02*
X299735Y-48241D01*
X301703Y-48241*
X302360Y-49167*
X306952Y-52870D02*
X307609Y-53796D01*
X310233Y-53796*
X310889Y-52870*
X310889Y-51944*
X310233Y-51019*
X307609Y-51019*
X306952Y-50093*
X306952Y-49167*
X307609Y-48241*
X310233Y-48241*
X310889Y-49167*
X316138Y-53796D02*
X316138Y-48704D01*
X316138Y-45463D02*
X316138Y-45000D01*
X315810Y-53796D02*
X316467Y-53796D01*
X322700Y-49167D02*
X322044Y-48241D01*
X319419Y-48241*
X318763Y-49167*
X318763Y-52870*
X319419Y-53796*
X322044Y-53796*
X322700Y-52870*
X322700Y-49167*
X326637Y-53796D02*
X326637Y-48241D01*
X326637Y-49167D02*
X327293Y-48241D01*
X329918Y-48241*
X330574Y-49167*
X330574Y-53796*
X334510Y-53796D02*
X339760Y-53796D01*
X342384Y-45926D02*
X343040Y-45000D01*
X346321Y-45000*
X346977Y-45926*
X346977Y-47778*
X346321Y-48704*
X342384Y-53796*
X346977Y-53796*
X351242Y-53796D02*
X351078Y-53796D01*
X351078Y-53333*
X351242Y-53333*
X351242Y-53796*
X354195Y-45926D02*
X354851Y-45000D01*
X358132Y-45000*
X358788Y-45926*
X358788Y-47778*
X358132Y-48704*
X354195Y-53796*
X358788Y-53796*
X362724Y-49167D02*
X366661Y-49167D01*
X369942Y-53796D02*
X369942Y-45000D01*
X369942Y-49167D02*
X370270Y-49167D01*
X374535Y-45000*
X370270Y-49167D02*
X374535Y-53796D01*
X377816Y-49167D02*
X378472Y-48241D01*
X381097Y-48241*
X381753Y-49167*
X381753Y-53796*
X381753Y-52870D02*
X381753Y-53796D01*
X378472Y-53796*
X377816Y-52870*
X377816Y-51944*
X378472Y-51019*
X381753Y-51019*
X387986Y-45000D02*
X387986Y-52870D01*
X388642Y-53796*
X389298Y-53796*
X387002Y-48241D02*
X388970Y-48241D01*
X394875Y-53796D02*
X394875Y-48704D01*
X394875Y-45463D02*
X394875Y-45000D01*
X394547Y-53796D02*
X395204Y-53796D01*
X579685Y48051D02*
X575092Y50366*
X579685Y50366D01*
X579685Y59162*
X567874Y54996D02*
X568531Y55922D01*
X571155Y55922*
X571811Y54996*
X571811Y51292*
X571155Y50366*
X568531Y50366*
X567874Y51292*
X567874Y54996*
X570499Y57310D02*
X570499Y56848D01*
X569187Y56848D02*
X569187Y57310D01*
X561641Y59162D02*
X561641Y51292D01*
X560985Y50366*
X560329Y50366*
X562625Y55922D02*
X560657Y55922D01*
X556064Y51292D02*
X555408Y50366D01*
X552783Y50366*
X552127Y51292*
X552127Y52218*
X552783Y53144*
X555408Y53144*
X556064Y54070*
X556064Y54996*
X555408Y55922*
X552783Y55922*
X552127Y54996*
X548190Y53144D02*
X544253Y53144D01*
X544253Y54996*
X544909Y55922*
X547534Y55922*
X548190Y54996*
X548190Y51292*
X547534Y50366*
X544909Y50366*
X544253Y51292*
X539004Y50366D02*
X539004Y55459D01*
X539004Y58699D02*
X539004Y59162D01*
X539332Y50366D02*
X538676Y50366D01*
X534083Y59162D02*
X534083Y51292D01*
X533427Y50366*
X532771Y50366*
X535067Y55922D02*
X533099Y55922D01*
X528506Y53144D02*
X524569Y53144D01*
X524569Y54996*
X525225Y55922*
X527850Y55922*
X528506Y54996*
X528506Y51292*
X527850Y50366*
X525225Y50366*
X524569Y51292*
D26*
X-22500Y-25000D02*
X-24744Y-23570*
X-26240Y-25000D01*
X-27986Y-23570*
X-23747Y-20709D02*
X-28484Y-20709D01*
X-23747Y-17848*
X-28484Y-17848*
X-26240Y-14273D02*
X-26739Y-14631D01*
X-26739Y-16061*
X-26240Y-16419*
X-24245Y-16419*
X-23747Y-16061*
X-23747Y-14631*
X-24245Y-14273*
X-26240Y-14273*
X-28484Y-10876D02*
X-24245Y-10876D01*
X-23747Y-10519*
X-23747Y-10161*
X-26739Y-11413D02*
X-26739Y-10340D01*
X-22500Y-04976D02*
X-24245Y-03546*
X-23747Y-03189D01*
X-23747Y-01401*
X-24245Y-01043*
X-25741Y-01043*
X-26240Y-01401*
X-26240Y-03189*
X-26739Y-03546*
X-27986Y-03546*
X-28484Y-03189*
X-28484Y-01401*
X-27986Y-01043*
X-26240Y00744D02*
X-26739Y01102D01*
X-26739Y02532*
X-26240Y02890*
X-23747Y02890*
X-24245Y02890D02*
X-23747Y02890D01*
X-23747Y01102*
X-24245Y00744*
X-24744Y00744*
X-25243Y01102*
X-25243Y02890*
X-26739Y05035D02*
X-23747Y06108D01*
X-26739Y07181*
X-25243Y09326D02*
X-25243Y11471D01*
X-26240Y11471*
X-26739Y11114*
X-26739Y09683*
X-26240Y09326*
X-24245Y09326*
X-23747Y09683*
X-23747Y11114*
X-24245Y11471*
X-26240Y15762D02*
X-26739Y15404D01*
X-26739Y13974*
X-26240Y13616*
X-24245Y13616*
X-23747Y13974*
X-23747Y15404*
X-24245Y15762*
X-23747Y15762D02*
X-28484Y15762D01*
X-24495Y19338D02*
X-26240Y20768D01*
X-27986Y19338*
D25*
X220342Y-30000D02*
X220342Y-27685*
X220342Y-18889D01*
X220342Y-24907D02*
X220670Y-24907D01*
X223623Y-22130*
X220670Y-24907D02*
X223623Y-27685D01*
X228215Y-23056D02*
X228872Y-22130D01*
X231496Y-22130*
X232152Y-23056*
X232152Y-27685*
X232152Y-26759D02*
X232152Y-27685D01*
X228872Y-27685*
X228215Y-26759*
X228215Y-25833*
X228872Y-24907*
X232152Y-24907*
X236089Y-18889D02*
X240682Y-18889D01*
X236745Y-27685*
X243963Y-26759D02*
X244619Y-27685D01*
X247900Y-27685*
X248556Y-26759*
X248556Y-23519*
X247900Y-22593*
X244619Y-22593*
X243963Y-23519*
X243963Y-18889*
X248556Y-18889*
X251837Y-23519D02*
X252493Y-22593D01*
X255774Y-22593*
X256430Y-23519*
X256430Y-26759*
X255774Y-27685*
X252493Y-27685*
X251837Y-26759*
X251837Y-19815*
X252493Y-18889*
X255774Y-18889*
X256430Y-19815*
X259710Y-18889D02*
X264303Y-18889D01*
X260366Y-27685*
X267584Y-26759D02*
X268240Y-27685D01*
X271521Y-27685*
X272177Y-26759*
X272177Y-23519*
X271521Y-22593*
X268240Y-22593*
X267584Y-23519*
X267584Y-18889*
X272177Y-18889*
X280707Y-30000D02*
X283331Y-19815*
X283987Y-18889D01*
X287268Y-18889*
X287924Y-19815*
X287924Y-21667*
X287268Y-22593*
X283331Y-27685*
X287924Y-27685*
X291205Y-18889D02*
X295798Y-18889D01*
X291861Y-27685*
X300063Y-27685D02*
X299899Y-27685D01*
X299899Y-27222*
X300063Y-27222*
X300063Y-27685*
X307609Y-26759D02*
X306953Y-27685D01*
X303672Y-27685*
X303016Y-26759*
X303016Y-19815*
X303672Y-18889*
X306953Y-18889*
X307609Y-19815*
X307609Y-26759*
X303016Y-26759D02*
X307609Y-19815D01*
X310889Y-26759D02*
X311545Y-27685D01*
X314826Y-27685*
X315482Y-26759*
X315482Y-23519*
X314826Y-22593*
X311545Y-22593*
X310889Y-23519*
X310889Y-18889*
X315482Y-18889*
X319747Y-27685D02*
X319583Y-27685D01*
X319583Y-27222*
X319747Y-27222*
X319747Y-27685*
X322700Y-19815D02*
X323356Y-18889D01*
X326637Y-18889*
X327293Y-19815*
X327293Y-21667*
X326637Y-22593*
X322700Y-27685*
X327293Y-27685*
X335167Y-26759D02*
X334511Y-27685D01*
X331230Y-27685*
X330574Y-26759*
X330574Y-19815*
X331230Y-18889*
X334511Y-18889*
X335167Y-19815*
X335167Y-26759*
X330574Y-26759D02*
X335167Y-19815D01*
X339596Y-27685D02*
X339596Y-18889D01*
X338939Y-20741*
X346977Y-22593D02*
X346321Y-23519D01*
X342712Y-23519*
X342384Y-22593*
X342384Y-19815*
X343040Y-18889*
X346321Y-18889*
X346977Y-19815*
X346977Y-26759*
X346321Y-27685*
X343040Y-27685*
X342384Y-26759*
X355507Y-30000D02*
X363381Y-30000*
X367153Y-27685*
X367153Y-18889D01*
X366497Y-20741*
X369942Y-26759D02*
X370598Y-27685D01*
X373879Y-27685*
X374535Y-26759*
X374535Y-23519*
X373879Y-22593*
X370598Y-22593*
X369942Y-23519*
X369942Y-18889*
X374535Y-18889*
X378800Y-27685D02*
X378636Y-27685D01*
X378636Y-27222*
X378800Y-27222*
X378800Y-27685*
X378800Y-23056D02*
X378636Y-23056D01*
X378636Y-22593*
X378800Y-22593*
X378800Y-23056*
X386346Y-26759D02*
X385690Y-27685D01*
X382409Y-27685*
X381753Y-26759*
X381753Y-19815*
X382409Y-18889*
X385690Y-18889*
X386346Y-19815*
X386346Y-26759*
X381753Y-26759D02*
X386346Y-19815D01*
X389626Y-18889D02*
X394219Y-18889D01*
X390282Y-27685*
X-60000Y-25000D02*
X-71111Y-25000*
X-62315Y-23360D01*
X-71111Y-21719*
X-62315Y-20079*
X-71111Y-18438*
X-65093Y-17126D02*
X-65093Y-13189D01*
X-66944Y-13189*
X-67870Y-13845*
X-67870Y-16470*
X-66944Y-17126*
X-63241Y-17126*
X-62315Y-16470*
X-62315Y-13845*
X-63241Y-13189*
X-63241Y-09253D02*
X-62315Y-08596D01*
X-62315Y-05972*
X-63241Y-05316*
X-64167Y-05316*
X-65093Y-05972*
X-65093Y-08596*
X-66019Y-09253*
X-66944Y-09253*
X-67870Y-08596*
X-67870Y-05972*
X-66944Y-05316*
X-71111Y00918D02*
X-63241Y00918D01*
X-62315Y01574*
X-62315Y02230*
X-67870Y-00067D02*
X-67870Y01902D01*
X-62315Y08463D02*
X-70185Y08463D01*
X-71111Y09119*
X-71111Y09776*
X-67870Y07479D02*
X-67870Y09448D01*
X-66944Y14369D02*
X-67870Y15025D01*
X-67870Y17649*
X-66944Y18306*
X-62315Y18306*
X-63241Y18306D02*
X-62315Y18306D01*
X-62315Y15025*
X-63241Y14369*
X-64167Y14369*
X-65093Y15025*
X-65093Y18306*
X-68333Y15681D02*
X-68796Y15681D01*
X-68333Y16993D02*
X-68796Y16993D01*
X-71111Y23390D02*
X-63241Y23390D01*
X-62315Y23719*
X-62315Y24047*
X-62315Y27491D02*
X-67407Y27491D01*
X-70648Y27491D02*
X-71111Y27491D01*
X-62315Y27163D02*
X-62315Y27819D01*
X-63241Y30116D02*
X-62315Y30772D01*
X-62315Y33397*
X-63241Y34053*
X-64167Y34053*
X-65093Y33397*
X-65093Y30772*
X-66019Y30116*
X-66944Y30116*
X-67870Y30772*
X-67870Y33397*
X-66944Y34053*
X-66944Y41927D02*
X-67870Y41270D01*
X-67870Y38646*
X-66944Y37990*
X-63241Y37990*
X-62315Y38646*
X-62315Y41270*
X-63241Y41927*
X-62315Y45863D02*
X-71111Y45863D01*
X-66944Y45863D02*
X-67870Y46519D01*
X-67870Y49144*
X-66944Y49800*
X-62315Y49800*
X-65093Y53737D02*
X-65093Y57674D01*
X-66944Y57674*
X-67870Y57018*
X-67870Y54393*
X-66944Y53737*
X-63241Y53737*
X-62315Y54393*
X-62315Y57018*
X-63241Y57674*
X-60000Y66860D02*
X-62315Y69484*
X-71111Y69484D01*
X-66944Y69484D02*
X-66944Y74734D01*
X-71111Y74734D02*
X-62315Y74734D01*
X-66944Y81295D02*
X-67870Y80639D01*
X-67870Y78014*
X-66944Y77358*
X-63241Y77358*
X-62315Y78014*
X-62315Y80639*
X-63241Y81295*
X-66944Y81295*
X-66944Y89169D02*
X-67870Y88513D01*
X-67870Y85888*
X-66944Y85232*
X-63241Y85232*
X-62315Y85888*
X-62315Y88513*
X-63241Y89169*
X-62315Y93106D02*
X-71111Y93106D01*
X-66944Y93106D02*
X-67870Y93762D01*
X-67870Y96386*
X-66944Y97043*
X-62315Y97043*
X-63241Y100979D02*
X-62315Y101635D01*
X-62315Y104260*
X-63241Y104916*
X-64167Y104916*
X-65093Y104260*
X-65093Y101635*
X-66019Y100979*
X-66944Y100979*
X-67870Y101635*
X-67870Y104260*
X-66944Y104916*
X-66944Y112790D02*
X-67870Y112134D01*
X-67870Y109509*
X-66944Y108853*
X-63241Y108853*
X-62315Y109509*
X-62315Y112134*
X-63241Y112790*
X-62315Y116727D02*
X-71111Y116727D01*
X-66944Y116727D02*
X-67870Y117383D01*
X-67870Y120007*
X-66944Y120664*
X-62315Y120664*
X-67870Y124600D02*
X-63241Y124600D01*
X-62315Y125256*
X-62315Y127881*
X-63241Y128537*
X-62315Y128537D02*
X-67870Y128537D01*
X-71111Y133622D02*
X-63241Y133622D01*
X-62315Y133950*
X-62315Y134278*
X-65093Y136411D02*
X-65093Y140348D01*
X-66944Y140348*
X-67870Y139692*
X-67870Y137067*
X-66944Y136411*
X-63241Y136411*
X-62315Y137067*
X-62315Y139692*
X-63241Y140348*
X-60000Y149534D02*
X-63241Y157408*
X-62315Y156751D01*
X-62315Y152814*
X-63241Y152158*
X-70185Y152158*
X-71111Y152814*
X-71111Y156751*
X-70185Y157408*
X-66944Y160032D02*
X-67870Y160688D01*
X-67870Y163313*
X-66944Y163969*
X-62315Y163969*
X-63241Y163969D02*
X-62315Y163969D01*
X-62315Y160688*
X-63241Y160032*
X-64167Y160032*
X-65093Y160688*
X-65093Y163969*
X-62315Y167906D02*
X-67870Y167906D01*
X-66944Y167906D02*
X-67870Y168562D01*
X-67870Y169874*
X-66944Y170530*
X-62315Y170530*
X-66944Y170530D02*
X-67870Y171186D01*
X-67870Y172499*
X-66944Y173155*
X-62315Y173155*
X-67870Y175779D02*
X-60000Y175779D01*
X-66944Y175779D02*
X-67870Y176436D01*
X-67870Y179060*
X-66944Y179716*
X-63241Y179716*
X-62315Y179060*
X-62315Y176436*
X-63241Y175779*
X-67870Y183653D02*
X-63241Y183653D01*
X-62315Y184309*
X-62315Y186934*
X-63241Y187590*
X-62315Y187590D02*
X-67870Y187590D01*
X-63241Y191527D02*
X-62315Y192183D01*
X-62315Y194808*
X-63241Y195464*
X-64167Y195464*
X-65093Y194808*
X-65093Y192183*
X-66019Y191527*
X-66944Y191527*
X-67870Y192183*
X-67870Y194808*
X-66944Y195464*
X-60000Y204650D02*
X-62315Y207274*
X-71111Y207274D01*
X-71111Y211867*
X-70185Y212524*
X-67870Y212524*
X-66944Y211867*
X-66944Y207274D02*
X-66944Y211867D01*
X-66019Y212524*
X-63241Y212524*
X-62315Y211867*
X-62315Y207274*
X-66944Y219085D02*
X-67870Y218429D01*
X-67870Y215804*
X-66944Y215148*
X-63241Y215148*
X-62315Y215804*
X-62315Y218429*
X-63241Y219085*
X-66944Y219085*
X-66944Y226959D02*
X-67870Y226302D01*
X-67870Y223678*
X-66944Y223022*
X-63241Y223022*
X-62315Y223678*
X-62315Y226302*
X-63241Y226959*
X-62315Y230895D02*
X-71111Y230895D01*
X-66944Y230895D02*
X-67870Y231551D01*
X-67870Y234176*
X-66944Y234832*
X-62315Y234832*
X-66944Y242706D02*
X-67870Y242050D01*
X-67870Y239425*
X-66944Y238769*
X-63241Y238769*
X-62315Y239425*
X-62315Y242050*
X-63241Y242706*
X-66944Y242706*
X-71111Y247791D02*
X-63241Y247791D01*
X-62315Y248119*
X-62315Y248447*
X-71111Y252876D02*
X-63241Y252876D01*
X-62315Y253532*
X-62315Y254188*
X-67870Y251892D02*
X-67870Y253860D01*
X-47870Y-20407D02*
X-47870Y-25000D01*
X-56667Y-25000*
X-52500Y-17126D02*
X-53426Y-16470D01*
X-53426Y-13845*
X-52500Y-13189*
X-47870Y-13189*
X-48796Y-13189D02*
X-47870Y-13189D01*
X-47870Y-16470*
X-48796Y-17126*
X-49722Y-17126*
X-50648Y-16470*
X-50648Y-13189*
X-47870Y-09253D02*
X-56667Y-09253D01*
X-52500Y-09253D02*
X-53426Y-08596D01*
X-53426Y-05972*
X-52500Y-05316*
X-48796Y-05316*
X-47870Y-05972*
X-47870Y-08596*
X-48796Y-09253*
X-52500Y02558D02*
X-53426Y01902D01*
X-53426Y-00723*
X-52500Y-01379*
X-48796Y-01379*
X-47870Y-00723*
X-47870Y01902*
X-48796Y02558*
X-52500Y02558*
X-47870Y06495D02*
X-53426Y06495D01*
X-52500Y06495D02*
X-53426Y07151D01*
X-53426Y09119*
X-52500Y09776*
X-45555Y19618D02*
X-47870Y22242*
X-56667Y22242D01*
X-56667Y26835*
X-55741Y27492*
X-53426Y27492*
X-52500Y26835*
X-52500Y22242*
X-52500Y26179D02*
X-52500Y26835D01*
X-47870Y27492*
X-56667Y30116D02*
X-56667Y35365D01*
X-56667Y32741D02*
X-47870Y32741D01*
X537500Y222500D02*
X532907Y224815*
X537500Y224815D01*
X537500Y233611*
X525689Y229444D02*
X526345Y230370D01*
X528970Y230370*
X529626Y229444*
X529626Y225741*
X528970Y224815*
X526345Y224815*
X525689Y225741*
X525689Y229444*
X528314Y231759D02*
X528314Y231296D01*
X527002Y231296D02*
X527002Y231759D01*
X519456Y233611D02*
X519456Y225741D01*
X518800Y224815*
X518144Y224815*
X520440Y230370D02*
X518472Y230370D01*
X513879Y225741D02*
X513223Y224815D01*
X510598Y224815*
X509942Y225741*
X509942Y226667*
X510598Y227593*
X513223Y227593*
X513879Y228519*
X513879Y229444*
X513223Y230370*
X510598Y230370*
X509942Y229444*
X506005Y227593D02*
X502068Y227593D01*
X502068Y229444*
X502724Y230370*
X505349Y230370*
X506005Y229444*
X506005Y225741*
X505349Y224815*
X502724Y224815*
X502068Y225741*
X496819Y224815D02*
X496819Y229907D01*
X496819Y233148D02*
X496819Y233611D01*
X497147Y224815D02*
X496491Y224815D01*
X491898Y233611D02*
X491898Y225741D01*
X491242Y224815*
X490586Y224815*
X492882Y230370D02*
X490914Y230370D01*
X486321Y227593D02*
X482384Y227593D01*
X482384Y229444*
X483040Y230370*
X485665Y230370*
X486321Y229444*
X486321Y225741*
X485665Y224815*
X483040Y224815*
X482384Y225741*
D26*
X351000Y04200D02*
X349570Y07441*
X348139Y07441D01*
X348139Y05945*
X348497Y05447*
X350642Y05447*
X351000Y05945*
X351000Y09686*
X350642Y10184*
X348497Y10184*
X348139Y09686*
X346709Y05447D02*
X346709Y10184D01*
X343848Y05447*
X343848Y10184*
X342419Y10184D02*
X340631Y10184D01*
X339915Y09686*
X339558Y08688*
X339558Y06943*
X339915Y05945*
X340631Y05447*
X342419Y05447*
X341703Y05447D02*
X341703Y10184D01*
X90925Y166125D02*
X89495Y169366*
X88064Y169366D01*
X88064Y167870*
X88422Y167372*
X90567Y167372*
X90925Y167870*
X90925Y171611*
X90567Y172109*
X88422Y172109*
X88064Y171611*
X86634Y167372D02*
X86634Y172109D01*
X83773Y167372*
X83773Y172109*
X82344Y172109D02*
X80556Y172109D01*
X79840Y171611*
X79483Y170613*
X79483Y168868*
X79840Y167870*
X80556Y167372*
X82344Y167372*
X81628Y167372D02*
X81628Y172109D01*
D25*
X552133Y365720D02*
X547540Y368035*
X552133Y368035D01*
X552133Y376831*
X540323Y372664D02*
X540979Y373590D01*
X543603Y373590*
X544260Y372664*
X544260Y368961*
X543603Y368035*
X540979Y368035*
X540323Y368961*
X540323Y372664*
X542947Y374979D02*
X542947Y374516D01*
X541635Y374516D02*
X541635Y374979D01*
X534089Y376831D02*
X534089Y368961D01*
X533433Y368035*
X532777Y368035*
X535074Y373590D02*
X533105Y373590D01*
X528512Y368961D02*
X527856Y368035D01*
X525231Y368035*
X524575Y368961*
X524575Y369887*
X525231Y370812*
X527856Y370812*
X528512Y371738*
X528512Y372664*
X527856Y373590*
X525231Y373590*
X524575Y372664*
X520638Y370812D02*
X516701Y370812D01*
X516701Y372664*
X517358Y373590*
X519982Y373590*
X520638Y372664*
X520638Y368961*
X519982Y368035*
X517358Y368035*
X516701Y368961*
X511452Y368035D02*
X511452Y373127D01*
X511452Y376368D02*
X511452Y376831D01*
X511781Y368035D02*
X511124Y368035D01*
X506531Y376831D02*
X506531Y368961D01*
X505875Y368035*
X505219Y368035*
X507516Y373590D02*
X505547Y373590D01*
X500954Y370812D02*
X497017Y370812D01*
X497017Y372664*
X497673Y373590*
X500298Y373590*
X500954Y372664*
X500954Y368961*
X500298Y368035*
X497673Y368035*
X497017Y368961*
X193660Y370334D02*
X193660Y381445*
X192020Y372649D01*
X190380Y381445*
X188739Y372649*
X187099Y381445*
X181850Y377279D02*
X182506Y378204D01*
X185131Y378204*
X185787Y377279*
X185787Y373575*
X185131Y372649*
X182506Y372649*
X181850Y373575*
X181850Y377279*
X177913Y372649D02*
X177913Y378204D01*
X177913Y377279D02*
X177257Y378204D01*
X175288Y378204*
X174632Y377279*
X167743Y381445D02*
X167743Y373575D01*
X167087Y372649*
X166430Y372649*
X168727Y378204D02*
X166759Y378204D01*
X162166Y381445D02*
X162166Y373575D01*
X161509Y372649*
X157572Y372649*
X156916Y373575*
X156916Y381445*
X154292Y372649D02*
X154292Y381445D01*
X154292Y377279D02*
X153636Y378204D01*
X151011Y378204*
X150355Y377279*
X150355Y372649*
X146418Y372649D02*
X146418Y378204D01*
X146418Y377279D02*
X145762Y378204D01*
X143794Y378204*
X143137Y377279*
X133295Y370334D02*
X130671Y380519*
X130015Y381445D01*
X126734Y381445*
X126078Y380519*
X126078Y378667*
X126734Y377741*
X130671Y372649*
X126078Y372649*
X118204Y373575D02*
X118860Y372649D01*
X122141Y372649*
X122797Y373575*
X122797Y380519*
X122141Y381445*
X118860Y381445*
X118204Y380519*
X118204Y373575*
X122797Y373575D02*
X118204Y380519D01*
X113775Y372649D02*
X113775Y381445D01*
X114431Y379593*
X110987Y373575D02*
X110987Y376353D01*
X110330Y377279*
X107050Y377279*
X106393Y378204*
X106393Y380519*
X107050Y381445*
X110330Y381445*
X110987Y380519*
X110987Y378204*
X110330Y377279*
X107050Y377279*
X106393Y376353*
X106393Y373575*
X107050Y372649*
X110330Y372649*
X110987Y373575*
D27*
X592000Y153500D03*
X370000Y163531D03*
X86000Y230500D03*
X209000Y186531D03*
X368500Y197500D03*
X279950Y236925D03*
X537000Y189531D03*
X240000Y181531D03*
X375500Y202500D03*
X23000Y06531D03*
X604500Y147500D03*
X250000Y181531D03*
X141000Y179531D03*
X223000Y191531D03*
X270000Y157500D03*
X75000Y229500D03*
X126000Y167500D03*
X55000Y167000D03*
X107000Y228531D03*
X220000Y177500D03*
X270150Y236925D03*
X312500Y60000D03*
X495000Y37500D03*
X280000Y155531D03*
X93000Y230531D03*
X55000Y243531D03*
X225000Y158531D03*
X259975Y236575D03*
X523000Y189531D03*
X174500Y25500D03*
X26000Y150000D03*
X563310Y340834D03*
X547310Y337334D03*
X293688Y303397D03*
X324397Y319932D03*
X270310Y294834D03*
X611810Y298834D03*
X483810Y301366D03*
X607310Y314334D03*
X559310Y293834D03*
X426310Y290334D03*
X460810Y335366D03*
X283058Y308121D03*
X602810Y320834D03*
X438810Y337366D03*
X571310Y341334D03*
X51810Y305834D03*
X254810Y295334D03*
X227310Y360334D03*
X235310Y358334D03*
X277310Y382334D03*
X390810Y323366D03*
X405810Y316366D03*
M02*
