G70*
%FSLAX55Y55*%
%ADD11C,0.01000*%
%ADD12C,0.00591*%
%ADD13C,0.00500*%
%ADD14C,0.00984*%
%ADD15C,0.01500*%
%ADD16C,0.00100*%
%ADD17C,0.01181*%
D11*
X35204Y312245D02*
G75*
G02X35204Y319745I00000J03750D01*
G02X35204Y312245I00000J-03750*
G01X330000Y02500D02*
G75*
G02X330000Y17500I00000J07500D01*
G02X330000Y02500I00000J-07500*
D12*
G01X308563Y08612D02*
X308563Y09859*
X311424Y14596D01*
X308563Y14596D02*
X311424Y09859D01*
X312854Y14098D02*
X313211Y14596D01*
X314999Y14596*
X315357Y14098*
X315357Y12851*
X314999Y12352*
X313927Y12352*
X314999Y12352*
X315357Y11854*
X315357Y10607*
X314999Y09859*
X313211Y09859*
X312854Y10358*
X319648Y10358D02*
X319290Y09859D01*
X317502Y09859*
X317144Y10358*
X317144Y14098*
X317502Y14596*
X319290Y14596*
X319648Y14098*
X319648Y10358*
X317144Y10358D02*
X319648Y14098D01*
D11*
X35992Y357226D02*
G75*
G02X35992Y364726I00000J03750D01*
G02X35992Y357226I00000J-03750*
G01X35992Y374942D02*
G75*
G02X35992Y382442I00000J03750D01*
G02X35992Y374942I00000J-03750*
G01X12763Y329972D02*
X12763Y319736D01*
X11582Y340479D02*
X-00229Y340479D01*
X-00229Y309229*
X11582Y309229*
X24653Y334229D02*
X25903Y334229D01*
X25903Y335479*
X24653Y315479D02*
X25903Y315479D01*
X25903Y314229*
D12*
X01999Y321112D02*
X01999Y322858*
X02357Y322359D01*
X04145Y322359*
X04503Y322858*
X04503Y324354*
X04145Y324852*
X02357Y324852*
X01999Y325351*
X01999Y326598*
X02357Y327096*
X04145Y327096*
X04503Y326598*
X06916Y322359D02*
X06916Y327096D01*
X06558Y326099*
X09061Y322359D02*
X09061Y327096D01*
X08704Y326099*
D11*
X35204Y329962D02*
G75*
G02X35204Y337462I00000J03750D01*
G02X35204Y329962I00000J-03750*
G01X467710Y289012D02*
X477710Y289012D01*
X477710Y321512*
X467710Y321512*
X467710Y289012*
D12*
X476310Y301059D02*
X474565Y303920*
X475064Y303562D01*
X475064Y301417*
X474565Y301059*
X470825Y301059*
X470326Y301417*
X470326Y303562*
X470825Y303920*
X475064Y305976D02*
X470326Y305976D01*
X471324Y305618*
X470825Y307495D02*
X470326Y307853D01*
X470326Y309641*
X470825Y309998*
X472072Y309998*
X472570Y309641*
X472570Y308568*
X472570Y309641*
X473069Y309998*
X474316Y309998*
X475064Y309641*
X475064Y307853*
X474565Y307495*
D11*
X516010Y317784D02*
X506010Y317784D01*
X506010Y285284*
X516010Y285284*
X516010Y317784*
D12*
X515020Y297182D02*
X513274Y300043*
X513773Y299686D01*
X513773Y297540*
X513274Y297182*
X509534Y297182*
X509035Y297540*
X509035Y299686*
X509534Y300043*
X513773Y302099D02*
X509035Y302099D01*
X510033Y301741*
X513773Y305406D02*
X509035Y305406D01*
X512028Y303618*
X512028Y306122*
D13*
X440214Y293840D02*
X440214Y296340D01*
D11*
X466464Y310090D02*
G75*
G02X426464Y310090I-20000J00000D01*
G02X466464Y310090I20000J00000*
D13*
G01X438964Y295090D02*
X441464Y295090D01*
X438964Y295090D02*
X441464Y295090D01*
X440214Y293840D02*
X440214Y296340D01*
D12*
X450310Y305634D02*
X448565Y308495*
X449064Y308137D01*
X449064Y305992*
X448565Y305634*
X444825Y305634*
X444326Y305992*
X444326Y308137*
X444825Y308495*
X449064Y310551D02*
X444326Y310551D01*
X445324Y310193*
X444825Y312070D02*
X444326Y312428D01*
X444326Y314216*
X444825Y314573*
X445822Y314573*
X446321Y314216*
X449064Y312070*
X449064Y314573*
D11*
X354370Y145108D02*
X364370Y145108D01*
X364370Y177608*
X354370Y177608*
X354370Y145108*
D12*
X362700Y157425D02*
X360955Y160286*
X361453Y159928D01*
X361453Y157783*
X360955Y157425*
X357214Y157425*
X356716Y157783*
X356716Y159928*
X357214Y160286*
X357214Y161716D02*
X356716Y162073D01*
X356716Y163861*
X357214Y164219*
X358212Y164219*
X358711Y163861*
X361453Y161716*
X361453Y164219*
X361453Y166632D02*
X356716Y166632D01*
X357713Y166275*
D11*
X353500Y183750D02*
X343500Y183750D01*
X343500Y151250*
X353500Y151250*
X353500Y183750*
D12*
X352050Y161550D02*
X350305Y164411*
X350803Y164053D01*
X350803Y161908*
X350305Y161550*
X346564Y161550*
X346066Y161908*
X346066Y164053*
X346564Y164411*
X346564Y165841D02*
X346066Y166198D01*
X346066Y167986*
X346564Y168344*
X347562Y168344*
X348061Y167986*
X350803Y165841*
X350803Y168344*
X350305Y172635D02*
X350803Y172277D01*
X350803Y170489*
X350305Y170131*
X346564Y170131*
X346066Y170489*
X346066Y172277*
X346564Y172635*
X350305Y172635*
X350305Y170131D02*
X346564Y172635D01*
D13*
X548895Y326340D02*
X548895Y323840D01*
D11*
X522645Y310090D02*
G75*
G02X562645Y310090I20000J00000D01*
G02X522645Y310090I-20000J00000*
D13*
G01X550145Y325090D02*
X547645Y325090D01*
X550145Y325090D02*
X547645Y325090D01*
X548895Y326340D02*
X548895Y323840D01*
D12*
X546020Y305032D02*
X544274Y307893*
X544773Y307536D01*
X544773Y305390*
X544274Y305032*
X540534Y305032*
X540035Y305390*
X540035Y307536*
X540534Y307893*
X544773Y309949D02*
X540035Y309949D01*
X541033Y309591*
X544274Y311468D02*
X544773Y311826D01*
X544773Y313614*
X544274Y313972*
X542529Y313972*
X542030Y313614*
X542030Y311826*
X542529Y311468*
X540035Y311468*
X540035Y313972*
D11*
X363964Y302905D02*
X383905Y302905D01*
X383905Y371803*
X363964Y371803*
D12*
X301218Y305489D02*
X301218Y307811D01*
X299190Y307811*
X299190Y371985*
X301218Y371985*
D14*
G36*
X301095Y304012D02*
G75*
G02X302079Y304012I00492J00000D01*
G02X301095Y304012I-00492J00000*
G37*
G02X302079Y304012I00492J00000*
G02X301095Y304012I-00492J00000*
D12*
G01X332058Y335837D02*
X334561Y337083*
X332058Y337083D01*
X332058Y341821*
X334561Y341821*
X334561Y339577D02*
X332058Y339577D01*
X336349Y337582D02*
X336706Y337083D01*
X338495Y337083*
X338852Y337582*
X338852Y339078*
X338495Y339577*
X336706Y339577*
X336349Y340075*
X336349Y341322*
X336706Y341821*
X338495Y341821*
X338852Y341322*
X340640Y337083D02*
X340640Y341821D01*
X343143Y341821*
X343500Y341322*
X343500Y340075*
X343143Y339577*
X340640Y339577*
X345556Y337083D02*
X345556Y341821D01*
X345199Y340823*
D11*
X479889Y317137D02*
X504692Y317137D01*
X504692Y330129*
X479889Y330129*
X479889Y317137*
D12*
X485885Y320434D02*
X486601Y321681*
X486601Y326418D01*
X486243Y321681D02*
X486958Y321681D01*
X486243Y326418D02*
X486958Y326418D01*
X490892Y322179D02*
X490534Y321681D01*
X488388Y321681*
X488031Y322179*
X488031Y325920*
X488388Y326418*
X490534Y326418*
X490892Y325920*
X492947Y321681D02*
X492947Y326418D01*
X492590Y325421*
X496970Y322179D02*
X496613Y321681D01*
X494824Y321681*
X494467Y322179*
X494467Y325920*
X494824Y326418*
X496613Y326418*
X496970Y325920*
X496970Y322179*
X494467Y322179D02*
X496970Y325920D01*
X616800Y02150D02*
X616800Y03397*
X616800Y08134D01*
X618409Y03397*
X620019Y08134*
X620019Y03397*
X621716Y03397D02*
X621716Y08134D01*
X621359Y07137*
X564631Y379612D02*
X564631Y380859*
X564631Y385596D01*
X566241Y380859*
X567850Y385596*
X567850Y380859*
X569548Y380859D02*
X569548Y385596D01*
X569190Y384599*
X573571Y381357D02*
X573213Y380859D01*
X571425Y380859*
X571067Y381357*
X571067Y385097*
X571425Y385596*
X573213Y385596*
X573571Y385097*
X573571Y381357*
X571067Y381357D02*
X573571Y385097D01*
X25591Y298967D02*
X25591Y300213*
X25591Y304951D01*
X27200Y300213*
X28809Y304951*
X28809Y300213*
X29881Y304452D02*
X30239Y304951D01*
X32027Y304951*
X32385Y304452*
X32385Y303455*
X32027Y302956*
X29881Y300213*
X32385Y300213*
X11565Y387549D02*
X11565Y388796*
X11565Y393533D01*
X13174Y388796*
X14783Y393533*
X14783Y388796*
X18359Y391539D02*
X18001Y391040D01*
X16034Y391040*
X15856Y391539*
X15856Y393035*
X16213Y393533*
X18001Y393533*
X18359Y393035*
X18359Y389295*
X18001Y388796*
X16213Y388796*
X15856Y389295*
X31865Y07959D02*
X31865Y09206*
X31865Y13944D01*
X33474Y09206*
X35083Y13944*
X35083Y09206*
X37943Y09206D02*
X37943Y13944D01*
X36155Y10952*
X38659Y10952*
D15*
X229810Y387334D02*
X229810Y377334D01*
X254810Y377334*
X254810Y387334*
X229810Y387334*
D12*
X238009Y378625D02*
X238009Y379871*
X238009Y384609D01*
X240512Y384609*
X240870Y384110*
X240870Y382864*
X240512Y382365*
X238009Y382365*
X240154Y382365D02*
X240512Y382365D01*
X240870Y379871*
X242925Y379871D02*
X242925Y384609D01*
X242568Y383612*
X246948Y380370D02*
X246590Y379871D01*
X244802Y379871*
X244445Y380370*
X244445Y384110*
X244802Y384609*
X246590Y384609*
X246948Y384110*
X246948Y380370*
X244445Y380370D02*
X246948Y384110D01*
D15*
X288570Y299460D02*
X288570Y289460D01*
X313570Y289460*
X313570Y299460*
X288570Y299460*
D12*
X296309Y291050D02*
X296309Y292296*
X296309Y297034D01*
X298812Y297034*
X299170Y296535*
X299170Y295289*
X298812Y294790*
X296309Y294790*
X298454Y294790D02*
X298812Y294790D01*
X299170Y292296*
X301225Y292296D02*
X301225Y297034D01*
X300868Y296037*
X302745Y296535D02*
X303102Y297034D01*
X304890Y297034*
X305248Y296535*
X305248Y295289*
X304890Y294790*
X303818Y294790*
X304890Y294790*
X305248Y294291*
X305248Y293045*
X304890Y292296*
X303102Y292296*
X302745Y292795*
D15*
X341405Y374657D02*
X341405Y384657D01*
X316405Y384657*
X316405Y374657*
X341405Y374657*
D12*
X324885Y376134D02*
X324885Y377381*
X324885Y382118D01*
X327389Y382118*
X327746Y381620*
X327746Y380373*
X327389Y379874*
X324885Y379874*
X327031Y379874D02*
X327389Y379874D01*
X327746Y377381*
X329802Y377381D02*
X329802Y382118D01*
X329444Y381121*
X333110Y377381D02*
X333110Y382118D01*
X331321Y379126*
X333825Y379126*
D15*
X37500Y185000D02*
X37500Y175000D01*
X62500Y175000*
X62500Y185000*
X37500Y185000*
D12*
X44473Y176791D02*
X44473Y178037*
X44473Y182775D01*
X46976Y182775*
X47334Y182276*
X47334Y181030*
X46976Y180531*
X44473Y180531*
X46619Y180531D02*
X46976Y180531D01*
X47334Y178037*
X48764Y182276D02*
X49122Y182775D01*
X50910Y182775*
X51267Y182276*
X51267Y181279*
X50910Y180780*
X48764Y178037*
X51267Y178037*
X53680Y178037D02*
X53680Y182775D01*
X53323Y181778*
D15*
X84272Y36122D02*
X84272Y46122D01*
X59272Y46122*
X59272Y36122*
X84272Y36122*
D12*
X66725Y37450D02*
X66725Y38697*
X66725Y43434D01*
X69228Y43434*
X69586Y42936*
X69586Y41689*
X69228Y41190*
X66725Y41190*
X68871Y41190D02*
X69228Y41190D01*
X69586Y38697*
X71016Y42936D02*
X71373Y43434D01*
X73161Y43434*
X73519Y42936*
X73519Y41689*
X73161Y41190*
X72089Y41190*
X73161Y41190*
X73519Y40691*
X73519Y39445*
X73161Y38697*
X71373Y38697*
X71016Y39195*
X77810Y39195D02*
X77452Y38697D01*
X75664Y38697*
X75306Y39195*
X75306Y42936*
X75664Y43434*
X77452Y43434*
X77810Y42936*
X77810Y39195*
X75306Y39195D02*
X77810Y42936D01*
D11*
X68488Y288858D02*
X216283Y288858D01*
X216283Y378977*
X68488Y378977*
X68488Y288858*
D12*
X74810Y382334D02*
X74810Y383581*
X74810Y388318D01*
X77314Y388318*
X77671Y387820*
X77671Y386573*
X77314Y386074*
X74810Y386074*
X76956Y386074D02*
X77314Y386074D01*
X77671Y383581*
X79101Y388318D02*
X81962Y388318D01*
X80532Y388318D02*
X80532Y383581D01*
X86253Y384079D02*
X85895Y383581D01*
X83749Y383581*
X83392Y384079*
X83392Y387820*
X83749Y388318*
X85895Y388318*
X86253Y387820*
X88308Y383581D02*
X88308Y388318D01*
X87951Y387321*
X92331Y384079D02*
X91974Y383581D01*
X90186Y383581*
X89828Y384079*
X89828Y387820*
X90186Y388318*
X91974Y388318*
X92331Y387820*
X92331Y384079*
X89828Y384079D02*
X92331Y387820D01*
D11*
X12960Y374952D02*
X12960Y364716D01*
X11779Y385459D02*
X-00032Y385459D01*
X-00032Y354209*
X11779Y354209*
X24850Y379209D02*
X26100Y379209D01*
X26100Y380459*
X24850Y360459D02*
X26100Y360459D01*
X26100Y359209*
D12*
X02069Y366634D02*
X02069Y368379*
X02426Y367881D01*
X04214Y367881*
X04572Y368379*
X04572Y369875*
X04214Y370374*
X02426Y370374*
X02069Y370873*
X02069Y372119*
X02426Y372618*
X04214Y372618*
X04572Y372119*
X06985Y367881D02*
X06985Y372618D01*
X06627Y371621*
X11008Y368379D02*
X10650Y367881D01*
X08862Y367881*
X08505Y368379*
X08505Y372119*
X08862Y372618*
X10650Y372618*
X11008Y372119*
X11008Y368379*
X08505Y368379D02*
X11008Y372119D01*
D11*
X70475Y157950D02*
G75*
G02X70475Y172950I00000J07500D01*
G02X70475Y157950I00000J-07500*
D12*
G01X44875Y157025D02*
X44875Y158272*
X47736Y163009D01*
X44875Y163009D02*
X47736Y158272D01*
X49166Y162511D02*
X49523Y163009D01*
X51311Y163009*
X51669Y162511*
X51669Y161513*
X51311Y161014*
X49166Y158272*
X51669Y158272*
X55960Y158770D02*
X55602Y158272D01*
X53814Y158272*
X53456Y158770*
X53456Y162511*
X53814Y163009*
X55602Y163009*
X55960Y162511*
X55960Y158770*
X53456Y158770D02*
X55960Y162511D01*
D13*
X519810Y342334D02*
X519810Y332334D01*
X509810Y332334*
X509810Y342334*
X519810Y342334*
D11*
X509810Y342334D02*
X519810Y342334D01*
X519810Y322334*
X509810Y322334*
X509810Y342334*
D12*
X519045Y344703D02*
X517798Y344703*
X513060Y347564D01*
X513060Y344703D02*
X517798Y347564D01*
X517798Y349619D02*
X513060Y349619D01*
X514058Y349262*
X517798Y351764D02*
X513060Y351764D01*
X514058Y351407*
D13*
X563039Y301429D02*
X573039Y301429D01*
X573039Y291429*
X563039Y291429*
X563039Y301429*
D11*
X563039Y291429D02*
X563039Y301429D01*
X603039Y301429*
X603039Y291429*
X563039Y291429*
D12*
X604435Y290409D02*
X604435Y291656*
X607296Y296393D01*
X604435Y296393D02*
X607296Y291656D01*
X609352Y291656D02*
X609352Y296393D01*
X608994Y295396*
X610871Y295895D02*
X611229Y296393D01*
X613017Y296393*
X613375Y295895*
X613375Y294648*
X613017Y294149*
X611944Y294149*
X613017Y294149*
X613375Y293651*
X613375Y292404*
X613017Y291656*
X611229Y291656*
X610871Y292154*
D13*
X564835Y320359D02*
X574835Y320359D01*
X574835Y310359*
X564835Y310359*
X564835Y320359*
D11*
X564835Y310359D02*
X564835Y320359D01*
X594835Y320359*
X594835Y310359*
X564835Y310359*
D12*
X596285Y306734D02*
X596285Y307981*
X599146Y312718D01*
X596285Y312718D02*
X599146Y307981D01*
X601202Y307981D02*
X601202Y312718D01*
X600844Y311721*
X602721Y312220D02*
X603079Y312718D01*
X604867Y312718*
X605225Y312220*
X605225Y311222*
X604867Y310724*
X602721Y307981*
X605225Y307981*
X600886Y371801D02*
X600886Y373048*
X603747Y377785D01*
X600886Y377785D02*
X603747Y373048D01*
X605802Y373048D02*
X605802Y377785D01*
X605445Y376788*
X607322Y377287D02*
X607679Y377785D01*
X609468Y377785*
X609825Y377287*
X609825Y376040*
X609468Y375541*
X608395Y375541*
X609468Y375541*
X609825Y375043*
X609825Y373796*
X609468Y373048*
X607679Y373048*
X607322Y373547*
X611613Y377287D02*
X611970Y377785D01*
X613758Y377785*
X614116Y377287*
X614116Y376289*
X613758Y375791*
X611613Y373048*
X614116Y373048*
D11*
X409449Y339144D02*
G75*
G02X409449Y366644I00000J13750D01*
G02X409449Y339144I00000J-13750*
G01X598425Y339144D02*
G75*
G02X598425Y366644I00000J13750D01*
G02X598425Y339144I00000J-13750*
G01X62992Y197411D02*
G75*
G02X62992Y224911I00000J13750D01*
G02X62992Y197411I00000J-13750*
G01X346457Y197411D02*
G75*
G02X346457Y224911I00000J13750D01*
G02X346457Y197411I00000J-13750*
G01X380000Y66250D02*
G75*
G02X380000Y93750I00000J13750D01*
G02X380000Y66250I00000J-13750*
G01X205000Y66250D02*
G75*
G02X205000Y93750I00000J13750D01*
G02X205000Y66250I00000J-13750*
G01X51181Y339144D02*
G75*
G02X51181Y366644I00000J13750D01*
G02X51181Y339144I00000J-13750*
G01X251969Y339144D02*
G75*
G02X251969Y366644I00000J13750D01*
G02X251969Y339144I00000J-13750*
G01X487165Y78474D02*
X477165Y78474D01*
X477165Y45974*
X487165Y45974*
X487165Y78474*
D12*
X485634Y56553D02*
X483889Y59414*
X484388Y59056D01*
X484388Y56910*
X483889Y56553*
X480149Y56553*
X479650Y56910*
X479650Y59056*
X480149Y59414*
X480149Y60844D02*
X479650Y61201D01*
X479650Y62989*
X480149Y63347*
X481395Y63347*
X481894Y62989*
X481894Y61916*
X481894Y62989*
X482393Y63347*
X483640Y63347*
X484388Y62989*
X484388Y61201*
X483889Y60844*
X480149Y65134D02*
X479650Y65492D01*
X479650Y67280*
X480149Y67638*
X481395Y67638*
X481894Y67280*
X481894Y66207*
X481894Y67280*
X482393Y67638*
X483640Y67638*
X484388Y67280*
X484388Y65492*
X483889Y65134*
D13*
X403789Y144281D02*
X403789Y146781D01*
D11*
X430039Y160531D02*
G75*
G02X390039Y160531I-20000J00000D01*
G02X430039Y160531I20000J00000*
D13*
G01X402539Y145531D02*
X405039Y145531D01*
D12*
X417425Y155150D02*
X415680Y158011*
X416178Y157653D01*
X416178Y155508*
X415680Y155150*
X411939Y155150*
X411441Y155508*
X411441Y157653*
X411939Y158011*
X411939Y159441D02*
X411441Y159798D01*
X411441Y161586*
X411939Y161944*
X412937Y161944*
X413436Y161586*
X416178Y159441*
X416178Y161944*
X416178Y165519D02*
X411441Y165519D01*
X414433Y163731*
X414433Y166235*
D11*
X391250Y232500D02*
X391250Y242500D01*
X358750Y242500*
X358750Y232500*
X391250Y232500*
D12*
X369303Y233566D02*
X372164Y235311*
X371806Y234812D01*
X369660Y234812*
X369303Y235311*
X369303Y239051*
X369660Y239550*
X371806Y239550*
X372164Y239051*
X373594Y239051D02*
X373951Y239550D01*
X375739Y239550*
X376097Y239051*
X376097Y238054*
X375739Y237555*
X373594Y234812*
X376097Y234812*
X377884Y239051D02*
X378242Y239550D01*
X380030Y239550*
X380388Y239051*
X380388Y238054*
X380030Y237555*
X377884Y234812*
X380388Y234812*
D13*
X463691Y176939D02*
X463691Y174439D01*
D11*
X437441Y160689D02*
G75*
G02X477441Y160689I20000J00000D01*
G02X437441Y160689I-20000J00000*
D13*
G01X464941Y175689D02*
X462441Y175689D01*
D12*
X456484Y154678D02*
X454739Y157539*
X455238Y157181D01*
X455238Y155035*
X454739Y154678*
X450999Y154678*
X450500Y155035*
X450500Y157181*
X450999Y157539*
X450999Y158969D02*
X450500Y159326D01*
X450500Y161114*
X450999Y161472*
X451996Y161472*
X452495Y161114*
X455238Y158969*
X455238Y161472*
X454739Y163259D02*
X455238Y163617D01*
X455238Y165405*
X454739Y165763*
X452993Y165763*
X452495Y165405*
X452495Y163617*
X452993Y163259*
X450500Y163259*
X450500Y165763*
D11*
X367116Y21319D02*
X367116Y31319D01*
X334616Y31319*
X334616Y21319*
X367116Y21319*
D12*
X346223Y22766D02*
X349084Y24511*
X348726Y24012D01*
X346581Y24012*
X346223Y24511*
X346223Y28251*
X346581Y28750*
X348726Y28750*
X349084Y28251*
X350514Y28251D02*
X350872Y28750D01*
X352660Y28750*
X353017Y28251*
X353017Y27005*
X352660Y26506*
X351587Y26506*
X352660Y26506*
X353017Y26007*
X353017Y24760*
X352660Y24012*
X350872Y24012*
X350514Y24511*
X355430Y24012D02*
X355430Y28750D01*
X355073Y27753*
D11*
X168300Y53150D02*
X158300Y53150D01*
X158300Y20650*
X168300Y20650*
X168300Y53150*
D12*
X167134Y31328D02*
X165389Y34189*
X165888Y33831D01*
X165888Y31685*
X165389Y31328*
X161649Y31328*
X161150Y31685*
X161150Y33831*
X161649Y34189*
X161649Y35619D02*
X161150Y35976D01*
X161150Y37764*
X161649Y38122*
X162895Y38122*
X163394Y37764*
X163394Y36691*
X163394Y37764*
X163893Y38122*
X165140Y38122*
X165888Y37764*
X165888Y35976*
X165389Y35619*
X165389Y42413D02*
X165888Y42055D01*
X165888Y40267*
X165389Y39909*
X161649Y39909*
X161150Y40267*
X161150Y42055*
X161649Y42413*
X165389Y42413*
X165389Y39909D02*
X161649Y42413D01*
D11*
X293629Y343978D02*
X283629Y343978D01*
X283629Y311478*
X293629Y311478*
X293629Y343978*
D12*
X292245Y324353D02*
X290499Y327214*
X290998Y326856D01*
X290998Y324710*
X290499Y324353*
X286759Y324353*
X286260Y324710*
X286260Y326856*
X286759Y327214*
X290998Y329269D02*
X286260Y329269D01*
X287258Y328912*
X290998Y331414D02*
X286260Y331414D01*
X287258Y331057*
D11*
X475276Y09045D02*
X485276Y09045D01*
X485276Y41545*
X475276Y41545*
X475276Y09045*
D12*
X484000Y20050D02*
X482255Y22911*
X482753Y22553D01*
X482753Y20408*
X482255Y20050*
X478514Y20050*
X478016Y20408*
X478016Y22553*
X478514Y22911*
X478514Y24341D02*
X478016Y24698D01*
X478016Y26486*
X478514Y26844*
X479761Y26844*
X480260Y26486*
X480260Y25414*
X480260Y26486*
X480759Y26844*
X482005Y26844*
X482753Y26486*
X482753Y24698*
X482255Y24341*
X482753Y30419D02*
X478016Y30419D01*
X481008Y28631*
X481008Y31135*
D11*
X407500Y08750D02*
X417500Y08750D01*
X417500Y41250*
X407500Y41250*
X407500Y08750*
D12*
X416125Y19600D02*
X414380Y22461*
X414878Y22103D01*
X414878Y19958*
X414380Y19600*
X410639Y19600*
X410141Y19958*
X410141Y22103*
X410639Y22461*
X410639Y23891D02*
X410141Y24248D01*
X410141Y26036*
X410639Y26394*
X411886Y26394*
X412385Y26036*
X412385Y24964*
X412385Y26036*
X412884Y26394*
X414130Y26394*
X414878Y26036*
X414878Y24248*
X414380Y23891*
X410639Y28181D02*
X410141Y28539D01*
X410141Y30327*
X410639Y30685*
X411637Y30685*
X412136Y30327*
X414878Y28181*
X414878Y30685*
D13*
X513159Y12470D02*
X513159Y14970D01*
D11*
X539409Y28720D02*
G75*
G02X499409Y28720I-20000J00000D01*
G02X539409Y28720I20000J00000*
D13*
G01X511909Y13720D02*
X514409Y13720D01*
X511909Y13720D02*
X514409Y13720D01*
X513159Y12470D02*
X513159Y14970D01*
D12*
X530550Y22425D02*
X528805Y25286*
X529303Y24928D01*
X529303Y22783*
X528805Y22425*
X525064Y22425*
X524566Y22783*
X524566Y24928*
X525064Y25286*
X525064Y26716D02*
X524566Y27073D01*
X524566Y28861*
X525064Y29219*
X526311Y29219*
X526810Y28861*
X526810Y27789*
X526810Y28861*
X527309Y29219*
X528555Y29219*
X529303Y28861*
X529303Y27073*
X528805Y26716*
X528805Y31006D02*
X529303Y31364D01*
X529303Y33152*
X528805Y33510*
X527059Y33510*
X526561Y33152*
X526561Y31364*
X527059Y31006*
X524566Y31006*
X524566Y33510*
D11*
X247645Y338663D02*
X237645Y338663D01*
X237645Y306163*
X247645Y306163*
X247645Y338663*
D12*
X246245Y318407D02*
X244499Y321268*
X244998Y320911D01*
X244998Y318765*
X244499Y318407*
X240759Y318407*
X240260Y318765*
X240260Y320911*
X240759Y321268*
X244998Y323324D02*
X240260Y323324D01*
X241258Y322966*
X244499Y327347D02*
X244998Y326989D01*
X244998Y325201*
X244499Y324843*
X240759Y324843*
X240260Y325201*
X240260Y326989*
X240759Y327347*
X244499Y327347*
X244499Y324843D02*
X240759Y327347D01*
D11*
X391250Y222500D02*
X391250Y232500D01*
X358750Y232500*
X358750Y222500*
X391250Y222500*
D12*
X369428Y223666D02*
X372289Y225411*
X371931Y224912D01*
X369785Y224912*
X369428Y225411*
X369428Y229151*
X369785Y229650*
X371931Y229650*
X372289Y229151*
X373719Y229151D02*
X374076Y229650D01*
X375864Y229650*
X376222Y229151*
X376222Y228154*
X375864Y227655*
X373719Y224912*
X376222Y224912*
X378009Y229151D02*
X378367Y229650D01*
X380155Y229650*
X380513Y229151*
X380513Y227905*
X380155Y227406*
X379082Y227406*
X380155Y227406*
X380513Y226907*
X380513Y225660*
X380155Y224912*
X378367Y224912*
X378009Y225411*
D15*
X468917Y36811D02*
X420886Y36811D01*
X420886Y02165*
X468917Y02165*
X468917Y36811*
D12*
X437500Y05000D02*
X438215Y06247*
X438215Y10984D01*
X437858Y06247D02*
X438573Y06247D01*
X437858Y10984D02*
X438573Y10984D01*
X442506Y06745D02*
X442149Y06247D01*
X440003Y06247*
X439645Y06745*
X439645Y10486*
X440003Y10984*
X442149Y10984*
X442506Y10486*
X443936Y10486D02*
X444294Y10984D01*
X446082Y10984*
X446439Y10486*
X446439Y09239*
X446082Y08740*
X445009Y08740*
X446082Y08740*
X446439Y08241*
X446439Y06995*
X446082Y06247*
X444294Y06247*
X443936Y06745*
X448853Y06247D02*
X448853Y10984D01*
X448495Y09987*
D15*
X141407Y29961D02*
G75*
G03X145157Y26211I07188J03438D01*
G01X141407Y39961D02*
G75*
G02X145157Y43711I07188J-03437D01*
G01X155157Y43086D02*
X155157Y26211D01*
D12*
X127500Y45000D02*
X128215Y46247*
X128215Y50984D01*
X127858Y46247D02*
X128573Y46247D01*
X127858Y50984D02*
X128573Y50984D01*
X132506Y46745D02*
X132149Y46247D01*
X130003Y46247*
X129645Y46745*
X129645Y50486*
X130003Y50984*
X132149Y50984*
X132506Y50486*
X133936Y50486D02*
X134294Y50984D01*
X136082Y50984*
X136439Y50486*
X136439Y49239*
X136082Y48740*
X135009Y48740*
X136082Y48740*
X136439Y48241*
X136439Y46995*
X136082Y46247*
X134294Y46247*
X133936Y46745*
X140730Y46745D02*
X140372Y46247D01*
X138584Y46247*
X138227Y46745*
X138227Y50486*
X138584Y50984*
X140372Y50984*
X140730Y50486*
X140730Y46745*
X138227Y46745D02*
X140730Y50486D01*
X110059Y335530D02*
X112562Y336777*
X110059Y336777D01*
X110059Y341514*
X117210Y337525D02*
X116674Y336777D01*
X114886Y336777*
X114350Y337525*
X114350Y340766*
X114886Y341514*
X116674Y341514*
X117210Y340766*
X117210Y337525*
X120071Y338772D02*
X121501Y338772D01*
X121501Y337276*
X121144Y336777*
X118998Y336777*
X118640Y337276*
X118640Y341016*
X118998Y341514*
X121144Y341514*
X121501Y341016*
X125792Y337525D02*
X125255Y336777D01*
X123467Y336777*
X122931Y337525*
X122931Y340766*
X123467Y341514*
X125255Y341514*
X125792Y340766*
X125792Y337525*
X127222Y337276D02*
X127579Y336777D01*
X129367Y336777*
X129725Y337276*
X129725Y339021*
X129367Y339520*
X127579Y339520*
X127222Y339021*
X127222Y341514*
X129725Y341514*
X46649Y302462D02*
X46649Y303709*
X46649Y308446D01*
X48259Y303709*
X49868Y308446*
X49868Y303709*
X50940Y304207D02*
X51298Y303709D01*
X53086Y303709*
X53443Y304207*
X53443Y305953*
X53086Y306451*
X51298Y306451*
X50940Y305953*
X50940Y308446*
X53443Y308446*
D11*
X398433Y70673D02*
X398433Y42673D01*
X475433Y42673D02*
X395433Y42673D01*
X395433Y70673*
X475433Y70673*
X475433Y42673*
D15*
X401433Y66673D02*
G75*
G02X401433Y68673I00000J01000D01*
G02X401433Y66673I00000J-01000*
D12*
G01X423750Y47150D02*
X426611Y49145*
X426074Y48397D01*
X424286Y48397*
X423750Y49145*
X423750Y52386*
X424286Y53134*
X426074Y53134*
X426611Y52386*
X426611Y49145*
X428041Y48397D02*
X428041Y53134D01*
X428041Y50890D02*
X428219Y50890D01*
X430544Y53134*
X428219Y50890D02*
X430544Y48397D01*
X432331Y52636D02*
X432689Y53134D01*
X434477Y53134*
X434835Y52636*
X434835Y51389*
X434477Y50890*
X433404Y50890*
X434477Y50890*
X434835Y50391*
X434835Y49145*
X434477Y48397*
X432689Y48397*
X432331Y48895*
X437248Y48397D02*
X437248Y53134D01*
X436890Y52137*
D13*
X130118Y211181D02*
X130118Y186181D01*
X145118Y186181*
X145118Y211181*
X130118Y211181*
D11*
X130118Y241181D02*
X130118Y153681D01*
X340118Y153681*
X340118Y241181*
X130118Y241181*
D13*
X245118Y198681D02*
X235118Y208681D01*
X225118Y198681*
X235118Y188681*
X245118Y198681*
D16*
X140118Y233681D02*
X141168Y235814*
X142218Y235814D01*
X142218Y234829*
X141955Y234501*
X140381Y234501*
X140118Y234829*
X140118Y237290*
X140381Y237618*
X141955Y237618*
X142218Y237290*
X143267Y234501D02*
X143267Y237618D01*
X145367Y234501*
X145367Y237618*
X146417Y237618D02*
X147729Y237618D01*
X148254Y237290*
X148516Y236634*
X148516Y235486*
X148254Y234829*
X147729Y234501*
X146417Y234501*
X146942Y234501D02*
X146942Y237618D01*
X331555Y232383D02*
X327618Y232383*
X330735Y233432D01*
X327618Y234482*
X330735Y235532D02*
X327618Y235532D01*
X327618Y237369*
X327946Y237632*
X328766Y237632*
X329094Y237369*
X329094Y235532D02*
X329094Y237369D01*
X329423Y237632*
X330407Y237632*
X330735Y237369*
X330735Y235532*
X331555Y155808D02*
X327946Y155808*
X327618Y156070D01*
X327618Y157383*
X327946Y157645*
X328766Y157645*
X329094Y157383*
X329094Y156595*
X329094Y157383*
X329423Y157645*
X330243Y157645*
X330735Y157383*
X330735Y156070*
X330407Y155808*
X330735Y159351D02*
X330735Y159285D01*
X330571Y159285*
X330571Y159351*
X330735Y159351*
X327946Y160532D02*
X327618Y160794D01*
X327618Y162107*
X327946Y162369*
X328766Y162369*
X329094Y162107*
X329094Y161319*
X329094Y162107*
X329423Y162369*
X330243Y162369*
X330735Y162107*
X330735Y160794*
X330407Y160532*
X141555Y155808D02*
X140735Y155808*
X137618Y155808D01*
X137618Y157645*
X137946Y157908*
X138766Y157908*
X139094Y157645*
X139094Y155808D02*
X139094Y157645D01*
X139423Y157908*
X140407Y157908*
X140735Y157645*
X140735Y155808*
X140735Y159416D02*
X137618Y159416D01*
X138274Y159154*
X137946Y160532D02*
X137618Y160794D01*
X137618Y162107*
X137946Y162369*
X138602Y162369*
X138930Y162107*
X140735Y160532*
X140735Y162369*
D12*
X259512Y203116D02*
X259512Y204362*
X259512Y209100D01*
X262015Y209100*
X262373Y208601*
X262373Y207355*
X262015Y206856*
X259512Y206856*
X266306Y204362D02*
X263803Y204362D01*
X263803Y209100*
X268094Y208601D02*
X268451Y209100D01*
X270239Y209100*
X270597Y208601*
X270597Y207604*
X270239Y207105*
X268094Y204362*
X270597Y204362*
X274888Y204861D02*
X274530Y204362D01*
X272742Y204362*
X272384Y204861*
X272384Y208601*
X272742Y209100*
X274530Y209100*
X274888Y208601*
X274888Y204861*
X272384Y204861D02*
X274888Y208601D01*
X592310Y379834D02*
X592310Y381081*
X592310Y385818D01*
X593920Y381081*
X595529Y385818*
X595529Y381081*
X596601Y381579D02*
X596601Y383076D01*
X596959Y383574*
X598747Y383574*
X599104Y384073*
X599104Y385320*
X598747Y385818*
X596959Y385818*
X596601Y385320*
X596601Y384073*
X596959Y383574*
X598747Y383574*
X599104Y383076*
X599104Y381579*
X598747Y381081*
X596959Y381081*
X596601Y381579*
D15*
X229810Y377334D02*
X229810Y367334D01*
X254810Y367334*
X254810Y377334*
X229810Y377334*
D12*
X239504Y368825D02*
X239504Y370071*
X239504Y374809D01*
X242007Y374809*
X242365Y374310*
X242365Y373064*
X242007Y372565*
X239504Y372565*
X241650Y372565D02*
X242007Y372565D01*
X242365Y370071*
X244421Y370071D02*
X244421Y374809D01*
X244063Y373812*
X246566Y370071D02*
X246566Y374809D01*
X246208Y373812*
D15*
X265637Y310543D02*
X275637Y310543D01*
X275637Y335543*
X265637Y335543*
X265637Y310543*
D12*
X273870Y317757D02*
X272623Y317757*
X267885Y317757D01*
X267885Y320261*
X268384Y320618*
X269631Y320618*
X270130Y320261*
X270130Y317757*
X270130Y319903D02*
X270130Y320261D01*
X272623Y320618*
X272623Y322674D02*
X267885Y322674D01*
X268883Y322316*
X268384Y324193D02*
X267885Y324551D01*
X267885Y326339*
X268384Y326697*
X269381Y326697*
X269880Y326339*
X272623Y324193*
X272623Y326697*
D15*
X37500Y195000D02*
X37500Y185000D01*
X62500Y185000*
X62500Y195000*
X37500Y195000*
D12*
X44378Y186366D02*
X44378Y187612*
X44378Y192350D01*
X46881Y192350*
X47239Y191851*
X47239Y190605*
X46881Y190106*
X44378Y190106*
X46524Y190106D02*
X46881Y190106D01*
X47239Y187612*
X48669Y191851D02*
X49026Y192350D01*
X50814Y192350*
X51172Y191851*
X51172Y190854*
X50814Y190355*
X48669Y187612*
X51172Y187612*
X55463Y188111D02*
X55105Y187612D01*
X53317Y187612*
X52959Y188111*
X52959Y191851*
X53317Y192350*
X55105Y192350*
X55463Y191851*
X55463Y188111*
X52959Y188111D02*
X55463Y191851D01*
D15*
X353130Y56122D02*
X353130Y66122D01*
X328130Y66122*
X328130Y56122*
X353130Y56122*
D12*
X335200Y58100D02*
X335200Y59347*
X335200Y64084D01*
X337703Y64084*
X338061Y63586*
X338061Y62339*
X337703Y61840*
X335200Y61840*
X337346Y61840D02*
X337703Y61840D01*
X338061Y59347*
X339491Y63586D02*
X339848Y64084D01*
X341636Y64084*
X341994Y63586*
X341994Y62339*
X341636Y61840*
X340564Y61840*
X341636Y61840*
X341994Y61341*
X341994Y60095*
X341636Y59347*
X339848Y59347*
X339491Y59845*
X344407Y59347D02*
X344407Y64084D01*
X344050Y63087*
D15*
X328051Y54193D02*
X328051Y44193D01*
X353051Y44193*
X353051Y54193*
X328051Y54193*
D12*
X334503Y46041D02*
X334503Y47287*
X334503Y52025D01*
X337006Y52025*
X337364Y51526*
X337364Y50280*
X337006Y49781*
X334503Y49781*
X336649Y49781D02*
X337006Y49781D01*
X337364Y47287*
X338794Y51526D02*
X339151Y52025D01*
X340939Y52025*
X341297Y51526*
X341297Y50280*
X340939Y49781*
X339866Y49781*
X340939Y49781*
X341297Y49282*
X341297Y48035*
X340939Y47287*
X339151Y47287*
X338794Y47786*
X343084Y51526D02*
X343442Y52025D01*
X345230Y52025*
X345588Y51526*
X345588Y50529*
X345230Y50030*
X343084Y47287*
X345588Y47287*
D15*
X491457Y57008D02*
X501457Y57008D01*
X501457Y82008*
X491457Y82008*
X491457Y57008*
D12*
X499984Y64828D02*
X498738Y64828*
X494000Y64828D01*
X494000Y67331*
X494499Y67689*
X495745Y67689*
X496244Y67331*
X496244Y64828*
X496244Y66974D02*
X496244Y67331D01*
X498738Y67689*
X494499Y69119D02*
X494000Y69476D01*
X494000Y71264*
X494499Y71622*
X495745Y71622*
X496244Y71264*
X496244Y70191*
X496244Y71264*
X496743Y71622*
X497990Y71622*
X498738Y71264*
X498738Y69476*
X498239Y69119*
X498738Y75197D02*
X494000Y75197D01*
X496992Y73409*
X496992Y75913*
D15*
X317431Y90965D02*
G75*
G02X317431Y110965I00000J10000D01*
G02X317431Y90965I00000J-10000*
D12*
G01X330000Y102500D02*
X330000Y103747*
X330000Y108484D01*
X332503Y108484*
X332861Y107986*
X332861Y106739*
X332503Y106240*
X330000Y106240*
X332146Y106240D02*
X332503Y106240D01*
X332861Y103747*
X334291Y107986D02*
X334648Y108484D01*
X336436Y108484*
X336794Y107986*
X336794Y106739*
X336436Y106240*
X335364Y106240*
X336436Y106240*
X336794Y105741*
X336794Y104495*
X336436Y103747*
X334648Y103747*
X334291Y104245*
X338581Y104245D02*
X338939Y103747D01*
X340727Y103747*
X341085Y104245*
X341085Y105991*
X340727Y106489*
X338939Y106489*
X338581Y105991*
X338581Y108484*
X341085Y108484*
D15*
X328169Y42697D02*
X328169Y32697D01*
X353169Y32697*
X353169Y42697*
X328169Y42697*
D12*
X334503Y34516D02*
X334503Y35762*
X334503Y40500D01*
X337006Y40500*
X337364Y40001*
X337364Y38755*
X337006Y38256*
X334503Y38256*
X336649Y38256D02*
X337006Y38256D01*
X337364Y35762*
X338794Y40001D02*
X339151Y40500D01*
X340939Y40500*
X341297Y40001*
X341297Y38755*
X340939Y38256*
X339866Y38256*
X340939Y38256*
X341297Y37757*
X341297Y36510*
X340939Y35762*
X339151Y35762*
X338794Y36261*
X343084Y40001D02*
X343442Y40500D01*
X345230Y40500*
X345588Y40001*
X345588Y38755*
X345230Y38256*
X344157Y38256*
X345230Y38256*
X345588Y37757*
X345588Y36510*
X345230Y35762*
X343442Y35762*
X343084Y36261*
X606053Y234006D02*
X606053Y235253*
X608914Y239990D01*
X606053Y239990D02*
X608914Y235253D01*
X610344Y239491D02*
X610701Y239990D01*
X612490Y239990*
X612847Y239491*
X612847Y238494*
X612490Y237995*
X610344Y235253*
X612847Y235253*
X14764Y95719D02*
X14764Y96965*
X17625Y101703D01*
X14764Y101703D02*
X17625Y96965D01*
X19054Y101204D02*
X19412Y101703D01*
X21200Y101703*
X21558Y101204*
X21558Y99957*
X21200Y99459*
X20127Y99459*
X21200Y99459*
X21558Y98960*
X21558Y97713*
X21200Y96965*
X19412Y96965*
X19054Y97464*
X114173Y171998D02*
X114173Y173245*
X117034Y177982D01*
X114173Y177982D02*
X117034Y173245D01*
X118464Y177484D02*
X118822Y177982D01*
X120610Y177982*
X120967Y177484*
X120967Y176486*
X120610Y175988*
X118464Y173245*
X120967Y173245*
X123380Y173245D02*
X123380Y177982D01*
X123023Y176985*
X17470Y234990D02*
X17470Y236237*
X20331Y240974D01*
X17470Y240974D02*
X20331Y236237D01*
X22387Y236237D02*
X22387Y240974D01*
X22029Y239977*
X25695Y236237D02*
X25695Y240974D01*
X23907Y237982*
X26410Y237982*
D15*
X594429Y94390D02*
X594429Y61890D01*
X599429Y61890*
X599429Y46890*
X594429Y46890*
X594429Y14390*
X629429Y14390*
X629429Y94390*
X594429Y94390*
D12*
X606142Y84626D02*
X606142Y85873*
X609003Y90610D01*
X606142Y90610D02*
X609003Y85873D01*
X610432Y90112D02*
X610790Y90610D01*
X612578Y90610*
X612936Y90112*
X612936Y88865*
X612578Y88366*
X611505Y88366*
X612578Y88366*
X612936Y87867*
X612936Y86621*
X612578Y85873*
X610790Y85873*
X610432Y86371*
X615349Y85873D02*
X615349Y90610D01*
X614991Y89613*
D11*
X09810Y282334D02*
G75*
G02X09810Y297334I00000J07500D01*
G02X09810Y282334I00000J-07500*
D12*
G01X22146Y290108D02*
X22146Y291355*
X25007Y296093D01*
X22146Y296093D02*
X25007Y291355D01*
X27062Y291355D02*
X27062Y296093D01*
X26705Y295095*
X31085Y291854D02*
X30727Y291355D01*
X28939Y291355*
X28582Y291854*
X28582Y295594*
X28939Y296093*
X30727Y296093*
X31085Y295594*
X31085Y291854*
X28582Y291854D02*
X31085Y295594D01*
D17*
X117984Y-56111D02*
X117984Y-45000*
X119624Y-53796D01*
X121264Y-45000*
X122905Y-53796*
X124545Y-45000*
X129794Y-49167D02*
X129138Y-48241D01*
X126513Y-48241*
X125857Y-49167*
X125857Y-52870*
X126513Y-53796*
X129138Y-53796*
X129794Y-52870*
X129794Y-49167*
X133731Y-53796D02*
X133731Y-48241D01*
X133731Y-49167D02*
X134387Y-48241D01*
X136356Y-48241*
X137012Y-49167*
X143901Y-45000D02*
X143901Y-52870D01*
X144557Y-53796*
X145214Y-53796*
X142917Y-48241D02*
X144886Y-48241D01*
X149478Y-48241D02*
X149478Y-52870D01*
X150135Y-53796*
X152759Y-53796*
X153415Y-52870*
X153415Y-53796D02*
X153415Y-48241D01*
X157352Y-53796D02*
X157352Y-45000D01*
X157352Y-49167D02*
X158008Y-48241D01*
X160633Y-48241*
X161289Y-49167*
X161289Y-53796*
X165226Y-53796D02*
X165226Y-48241D01*
X165226Y-49167D02*
X165882Y-48241D01*
X167850Y-48241*
X168507Y-49167*
X173756Y-49167D02*
X177693Y-49167D01*
X180973Y-52870D02*
X181629Y-53796D01*
X184910Y-53796*
X185566Y-52870*
X185566Y-50093*
X184910Y-49167*
X181629Y-49167*
X180973Y-48241*
X180973Y-45926*
X181629Y-45000*
X184910Y-45000*
X185566Y-45926*
X191144Y-45000D02*
X191144Y-52870D01*
X191800Y-53796*
X192456Y-53796*
X190159Y-48241D02*
X192128Y-48241D01*
X196721Y-51019D02*
X200658Y-51019D01*
X200658Y-49167*
X200001Y-48241*
X197377Y-48241*
X196721Y-49167*
X196721Y-52870*
X197377Y-53796*
X200001Y-53796*
X200658Y-52870*
X204594Y-48241D02*
X204594Y-52870D01*
X205250Y-53796*
X207875Y-53796*
X208531Y-52870*
X208531Y-53796D02*
X208531Y-48241D01*
X212468Y-51019D02*
X216405Y-51019D01*
X216405Y-49167*
X215749Y-48241*
X213124Y-48241*
X212468Y-49167*
X212468Y-52870*
X213124Y-53796*
X215749Y-53796*
X216405Y-52870*
X220342Y-53796D02*
X220342Y-48241D01*
X220342Y-49167D02*
X220998Y-48241D01*
X222966Y-48241*
X223623Y-49167*
X228215Y-48241D02*
X228215Y-56111D01*
X228215Y-49167D02*
X228872Y-48241D01*
X231496Y-48241*
X232152Y-49167*
X232152Y-52870*
X231496Y-53796*
X228872Y-53796*
X228215Y-52870*
X237237Y-45000D02*
X237237Y-52870D01*
X237566Y-53796*
X237894Y-53796*
X240026Y-49167D02*
X240682Y-48241D01*
X243307Y-48241*
X243963Y-49167*
X243963Y-53796*
X243963Y-52870D02*
X243963Y-53796D01*
X240682Y-53796*
X240026Y-52870*
X240026Y-51944*
X240682Y-51019*
X243963Y-51019*
X250196Y-45000D02*
X250196Y-52870D01*
X250852Y-53796*
X251509Y-53796*
X249212Y-48241D02*
X251181Y-48241D01*
X257086Y-53796D02*
X257086Y-48704D01*
X257086Y-45463D02*
X257086Y-45000D01*
X256758Y-53796D02*
X257414Y-53796D01*
X259710Y-53796D02*
X259710Y-48241D01*
X259710Y-49167D02*
X260366Y-48241D01*
X262991Y-48241*
X263647Y-49167*
X263647Y-53796*
X267584Y-51019D02*
X271521Y-51019D01*
X271521Y-49167*
X270865Y-48241*
X268240Y-48241*
X267584Y-49167*
X267584Y-52870*
X268240Y-53796*
X270865Y-53796*
X271521Y-52870*
X275458Y-53796D02*
X280707Y-53796D01*
X283331Y-45000D02*
X285956Y-53796D01*
X288581Y-45000*
X291205Y-51019D02*
X295142Y-51019D01*
X295142Y-49167*
X294486Y-48241*
X291861Y-48241*
X291205Y-49167*
X291205Y-52870*
X291861Y-53796*
X294486Y-53796*
X295142Y-52870*
X299079Y-53796D02*
X299079Y-48241D01*
X299079Y-49167D02*
X299735Y-48241D01*
X301703Y-48241*
X302360Y-49167*
X306952Y-52870D02*
X307609Y-53796D01*
X310233Y-53796*
X310889Y-52870*
X310889Y-51944*
X310233Y-51019*
X307609Y-51019*
X306952Y-50093*
X306952Y-49167*
X307609Y-48241*
X310233Y-48241*
X310889Y-49167*
X316138Y-53796D02*
X316138Y-48704D01*
X316138Y-45463D02*
X316138Y-45000D01*
X315810Y-53796D02*
X316467Y-53796D01*
X322700Y-49167D02*
X322044Y-48241D01*
X319419Y-48241*
X318763Y-49167*
X318763Y-52870*
X319419Y-53796*
X322044Y-53796*
X322700Y-52870*
X322700Y-49167*
X326637Y-53796D02*
X326637Y-48241D01*
X326637Y-49167D02*
X327293Y-48241D01*
X329918Y-48241*
X330574Y-49167*
X330574Y-53796*
X334510Y-53796D02*
X339760Y-53796D01*
X342384Y-45926D02*
X343040Y-45000D01*
X346321Y-45000*
X346977Y-45926*
X346977Y-47778*
X346321Y-48704*
X342384Y-53796*
X346977Y-53796*
X351242Y-53796D02*
X351078Y-53796D01*
X351078Y-53333*
X351242Y-53333*
X351242Y-53796*
X354195Y-45926D02*
X354851Y-45000D01*
X358132Y-45000*
X358788Y-45926*
X358788Y-47778*
X358132Y-48704*
X354195Y-53796*
X358788Y-53796*
X362724Y-49167D02*
X366661Y-49167D01*
X369942Y-53796D02*
X369942Y-45000D01*
X369942Y-49167D02*
X370270Y-49167D01*
X374535Y-45000*
X370270Y-49167D02*
X374535Y-53796D01*
X377816Y-49167D02*
X378472Y-48241D01*
X381097Y-48241*
X381753Y-49167*
X381753Y-53796*
X381753Y-52870D02*
X381753Y-53796D01*
X378472Y-53796*
X377816Y-52870*
X377816Y-51944*
X378472Y-51019*
X381753Y-51019*
X387986Y-45000D02*
X387986Y-52870D01*
X388642Y-53796*
X389298Y-53796*
X387002Y-48241D02*
X388970Y-48241D01*
X394875Y-53796D02*
X394875Y-48704D01*
X394875Y-45463D02*
X394875Y-45000D01*
X394547Y-53796D02*
X395204Y-53796D01*
D12*
X338600Y03800D02*
X340030Y07041*
X341461Y07041D01*
X341461Y05545*
X341103Y05047*
X338958Y05047*
X338600Y05545*
X338600Y09286*
X338958Y09784*
X341103Y09784*
X341461Y09286*
X342891Y05047D02*
X342891Y09784D01*
X345752Y05047*
X345752Y09784*
X347181Y09784D02*
X348969Y09784D01*
X349685Y09286*
X350042Y08288*
X350042Y06543*
X349685Y05545*
X348969Y05047*
X347181Y05047*
X347897Y05047D02*
X347897Y09784D01*
D17*
X62325Y91875D02*
X62325Y94190*
X62325Y102986D01*
X66918Y102986*
X67574Y102060*
X67574Y99745*
X66918Y98819*
X62325Y98819D02*
X66918Y98819D01*
X67574Y97894*
X67574Y95116*
X66918Y94190*
X62325Y94190*
X70199Y98819D02*
X70855Y99745D01*
X73480Y99745*
X74136Y98819*
X74136Y94190*
X74136Y95116D02*
X74136Y94190D01*
X70855Y94190*
X70199Y95116*
X70199Y96042*
X70855Y96968*
X74136Y96968*
X78072Y99745D02*
X78072Y95116D01*
X78729Y94190*
X81353Y94190*
X82009Y95116*
X82009Y94190D02*
X82009Y99745D01*
X88243Y102986D02*
X88243Y95116D01*
X88899Y94190*
X89555Y94190*
X87258Y99745D02*
X89227Y99745D01*
X93820Y96968D02*
X97757Y96968D01*
X97757Y98819*
X97101Y99745*
X94476Y99745*
X93820Y98819*
X93820Y95116*
X94476Y94190*
X97101Y94190*
X97757Y95116*
X103006Y94190D02*
X103006Y99282D01*
X103006Y102523D02*
X103006Y102986D01*
X102678Y94190D02*
X103334Y94190D01*
X106779Y102986D02*
X106779Y95116D01*
X107107Y94190*
X107435Y94190*
X109567Y95116D02*
X110223Y94190D01*
X112848Y94190*
X113504Y95116*
X113504Y96042*
X112848Y96968*
X110223Y96968*
X109567Y97894*
X109567Y98819*
X110223Y99745*
X112848Y99745*
X113504Y98819*
X117441Y96968D02*
X121378Y96968D01*
X121378Y98819*
X120722Y99745*
X118097Y99745*
X117441Y98819*
X117441Y95116*
X118097Y94190*
X120722Y94190*
X121378Y95116*
X126627Y94190D02*
X126627Y99282D01*
X126627Y102523D02*
X126627Y102986D01*
X126299Y94190D02*
X126955Y94190D01*
X131548Y102986D02*
X131548Y95116D01*
X132204Y94190*
X132860Y94190*
X130564Y99745D02*
X132532Y99745D01*
X137125Y96968D02*
X141062Y96968D01*
X141062Y98819*
X140406Y99745*
X137781Y99745*
X137125Y98819*
X137125Y95116*
X137781Y94190*
X140406Y94190*
X141062Y95116*
D12*
X581825Y40800D02*
X583255Y44041*
X584686Y44041D01*
X584686Y42545*
X584328Y42047*
X582183Y42047*
X581825Y42545*
X581825Y46286*
X582183Y46784*
X584328Y46784*
X584686Y46286*
X586116Y42047D02*
X586116Y46784D01*
X588977Y42047*
X588977Y46784*
X590406Y46784D02*
X592194Y46784D01*
X592910Y46286*
X593267Y45288*
X593267Y43543*
X592910Y42545*
X592194Y42047*
X590406Y42047*
X591122Y42047D02*
X591122Y46784D01*
D17*
X153050Y190425D02*
X156331Y192740*
X156331Y201536D01*
X153050Y195981*
X157643Y195981*
X160924Y200610D02*
X161580Y201536D01*
X164861Y201536*
X165517Y200610*
X165517Y198758*
X164861Y197832*
X160924Y192740*
X165517Y192740*
X168797Y198295D02*
X170766Y192740D01*
X172734Y198295*
X180608Y197369D02*
X179952Y198295D01*
X177327Y198295*
X176671Y197369*
X176671Y193666*
X177327Y192740*
X179952Y192740*
X180608Y193666*
X180608Y197369*
X185693Y201536D02*
X185693Y193666D01*
X186021Y192740*
X186349Y192740*
X190778Y201536D02*
X190778Y193666D01*
X191434Y192740*
X192091Y192740*
X189794Y198295D02*
X191762Y198295D01*
X197340Y192740D02*
X197176Y192740D01*
X197176Y193203*
X197340Y193203*
X197340Y192740*
X204229Y197369D02*
X203573Y198295D01*
X200948Y198295*
X200292Y197369*
X200292Y193666*
X200948Y192740*
X203573Y192740*
X204229Y193666*
X204229Y192740D02*
X204229Y201536D01*
X208166Y195518D02*
X212103Y195518D01*
X212103Y197369*
X211447Y198295*
X208822Y198295*
X208166Y197369*
X208166Y193666*
X208822Y192740*
X211447Y192740*
X212103Y193666*
D12*
X294850Y385050D02*
X300834Y385050*
X296097Y383620D01*
X300834Y382189*
X296595Y377898D02*
X296097Y378256D01*
X296097Y380402*
X296595Y380759*
X300336Y380759*
X300834Y380402*
X300834Y378256*
X300336Y377898*
X296595Y373608D02*
X296097Y373965D01*
X296097Y376111*
X296595Y376469*
X300336Y376469*
X300834Y376111*
X300834Y373965*
X300336Y373608*
X16925Y321550D02*
X16925Y327534*
X17819Y322797D01*
X18713Y327534*
X19607Y322797*
X20501Y327534*
X21216Y323295D02*
X21573Y322797D01*
X23361Y322797*
X23719Y323295*
X23719Y324791*
X23361Y325290*
X21573Y325290*
X21216Y325789*
X21216Y327036*
X21573Y327534*
X23361Y327534*
X23719Y327036*
X25506Y322797D02*
X25506Y327534D01*
X28010Y327534*
X28367Y327036*
X28367Y325789*
X28010Y325290*
X25506Y325290*
X596625Y282675D02*
X598055Y285916*
X599486Y285916D01*
X599486Y284420*
X599128Y283922*
X596983Y283922*
X596625Y284420*
X596625Y288161*
X596983Y288659*
X599128Y288659*
X599486Y288161*
X600916Y283922D02*
X600916Y288659D01*
X603777Y283922*
X603777Y288659*
X605206Y288659D02*
X606994Y288659D01*
X607710Y288161*
X608067Y287163*
X608067Y285418*
X607710Y284420*
X606994Y283922*
X605206Y283922*
X605922Y283922D02*
X605922Y288659D01*
X556950Y282250D02*
X556950Y288234*
X558380Y283497D01*
X559811Y288234*
X564102Y283995D02*
X563744Y283497D01*
X561598Y283497*
X561241Y283995*
X561241Y287736*
X561598Y288234*
X563744Y288234*
X564102Y287736*
X568392Y283995D02*
X568035Y283497D01*
X565889Y283497*
X565531Y283995*
X565531Y287736*
X565889Y288234*
X568035Y288234*
X568392Y287736*
X76050Y298300D02*
X77480Y301541*
X78911Y301541D01*
X78911Y300045*
X78553Y299547*
X76408Y299547*
X76050Y300045*
X76050Y303786*
X76408Y304284*
X78553Y304284*
X78911Y303786*
X80341Y299547D02*
X80341Y304284D01*
X83202Y299547*
X83202Y304284*
X84631Y304284D02*
X86419Y304284D01*
X87135Y303786*
X87492Y302788*
X87492Y301043*
X87135Y300045*
X86419Y299547*
X84631Y299547*
X85347Y299547D02*
X85347Y304284D01*
X584900Y282325D02*
X584900Y283572*
X584900Y288309D01*
X587403Y288309*
X587761Y287811*
X587761Y286564*
X587403Y286065*
X584900Y286065*
X587046Y286065D02*
X587403Y286065D01*
X587761Y283572*
X589191Y283572D02*
X592052Y288309D01*
X589191Y288309D02*
X592052Y283572D01*
D17*
X431525Y186075D02*
X431525Y188390*
X431525Y197186D01*
X436118Y197186*
X436774Y196260*
X436774Y193945*
X436118Y193019*
X431525Y193019D02*
X436118Y193019D01*
X436774Y192094*
X436774Y189316*
X436118Y188390*
X431525Y188390*
X439399Y193019D02*
X440055Y193945D01*
X442680Y193945*
X443336Y193019*
X443336Y188390*
X443336Y189316D02*
X443336Y188390D01*
X440055Y188390*
X439399Y189316*
X439399Y190242*
X440055Y191168*
X443336Y191168*
X447272Y193945D02*
X447272Y189316D01*
X447929Y188390*
X450553Y188390*
X451209Y189316*
X451209Y188390D02*
X451209Y193945D01*
X457443Y197186D02*
X457443Y189316D01*
X458099Y188390*
X458755Y188390*
X456458Y193945D02*
X458427Y193945D01*
X463020Y191168D02*
X466957Y191168D01*
X466957Y193019*
X466301Y193945*
X463676Y193945*
X463020Y193019*
X463020Y189316*
X463676Y188390*
X466301Y188390*
X466957Y189316*
X472206Y188390D02*
X472206Y193482D01*
X472206Y196723D02*
X472206Y197186D01*
X471878Y188390D02*
X472534Y188390D01*
X475979Y197186D02*
X475979Y189316D01*
X476307Y188390*
X476635Y188390*
X478767Y189316D02*
X479423Y188390D01*
X482048Y188390*
X482704Y189316*
X482704Y190242*
X482048Y191168*
X479423Y191168*
X478767Y192094*
X478767Y193019*
X479423Y193945*
X482048Y193945*
X482704Y193019*
X486641Y191168D02*
X490578Y191168D01*
X490578Y193019*
X489922Y193945*
X487297Y193945*
X486641Y193019*
X486641Y189316*
X487297Y188390*
X489922Y188390*
X490578Y189316*
X495827Y188390D02*
X495827Y193482D01*
X495827Y196723D02*
X495827Y197186D01*
X495499Y188390D02*
X496155Y188390D01*
X500748Y197186D02*
X500748Y189316D01*
X501404Y188390*
X502060Y188390*
X499764Y193945D02*
X501732Y193945D01*
X506325Y191168D02*
X510262Y191168D01*
X510262Y193019*
X509606Y193945*
X506981Y193945*
X506325Y193019*
X506325Y189316*
X506981Y188390*
X509606Y188390*
X510262Y189316*
X364100Y285275D02*
X364100Y296386*
X364100Y288516D01*
X364756Y287590*
X368693Y287590*
X369349Y288516*
X369349Y296386*
X372630Y291294D02*
X376567Y291294D01*
X372630Y293145D02*
X376567Y293145D01*
X379847Y287590D02*
X379847Y296386D01*
X384441Y296386*
X385097Y295460*
X385097Y293145*
X384441Y292219*
X379847Y292219*
X383784Y292219D02*
X384441Y292219D01*
X385097Y287590*
X388377Y293608D02*
X392314Y293608D01*
X389033Y290831D02*
X391658Y296386D01*
X389033Y296386D02*
X391658Y290831D01*
X396907Y287590D02*
X396907Y296386D01*
X396251Y287590D02*
X397563Y287590D01*
X396251Y296386D02*
X397563Y296386D01*
X208750Y45975D02*
X208750Y53845*
X210390Y48290D01*
X212031Y53845*
X213671Y48290*
X215312Y53845*
X217936Y48290D02*
X217936Y53382D01*
X217936Y56623D02*
X217936Y57086D01*
X217608Y48290D02*
X218264Y48290D01*
X220561Y48290D02*
X220561Y53845D01*
X220561Y52919D02*
X221217Y53845D01*
X223841Y53845*
X224498Y52919*
X224498Y48290*
X229419Y48290D02*
X229254Y48290D01*
X229254Y48753*
X229419Y48753*
X229419Y48290*
X232371Y53845D02*
X234011Y48290D01*
X235652Y53845*
X237292Y48290*
X238933Y53845*
X240901Y52919D02*
X244838Y52919D01*
X248119Y48290D02*
X248119Y57086D01*
X248119Y52919D02*
X248775Y53845D01*
X251399Y53845*
X252056Y52919*
X252056Y48290*
X255992Y49216D02*
X256648Y48290D01*
X259273Y48290*
X259929Y49216*
X259929Y50142*
X259273Y51068*
X256648Y51068*
X255992Y51994*
X255992Y52919*
X256648Y53845*
X259273Y53845*
X259929Y52919*
X264850Y48290D02*
X264686Y48290D01*
X264686Y48753*
X264850Y48753*
X264850Y48290*
X271740Y52919D02*
X271084Y53845D01*
X268459Y53845*
X267803Y52919*
X267803Y49216*
X268459Y48290*
X271084Y48290*
X271740Y49216*
X271740Y48290D02*
X271740Y57086D01*
X275676Y51068D02*
X279613Y51068D01*
X279613Y52919*
X278957Y53845*
X276333Y53845*
X275676Y52919*
X275676Y49216*
X276333Y48290*
X278957Y48290*
X279613Y49216*
D12*
X192000Y316375D02*
X193430Y319616*
X194861Y319616D01*
X194861Y318120*
X194503Y317622*
X192358Y317622*
X192000Y318120*
X192000Y321861*
X192358Y322359*
X194503Y322359*
X194861Y321861*
X196291Y317622D02*
X196291Y322359D01*
X199152Y317622*
X199152Y322359*
X200581Y322359D02*
X202369Y322359D01*
X203085Y321861*
X203442Y320863*
X203442Y319118*
X203085Y318120*
X202369Y317622*
X200581Y317622*
X201297Y317622D02*
X201297Y322359D01*
X-22500Y-25000D02*
X-24744Y-23570*
X-26240Y-25000D01*
X-27986Y-23570*
X-23747Y-20709D02*
X-28484Y-20709D01*
X-23747Y-17848*
X-28484Y-17848*
X-26240Y-14273D02*
X-26739Y-14631D01*
X-26739Y-16061*
X-26240Y-16419*
X-24245Y-16419*
X-23747Y-16061*
X-23747Y-14631*
X-24245Y-14273*
X-26240Y-14273*
X-28484Y-10876D02*
X-24245Y-10876D01*
X-23747Y-10519*
X-23747Y-10161*
X-26739Y-11413D02*
X-26739Y-10340D01*
X-22500Y-04976D02*
X-24245Y-03546*
X-23747Y-03189D01*
X-23747Y-01401*
X-24245Y-01043*
X-25741Y-01043*
X-26240Y-01401*
X-26240Y-03189*
X-26739Y-03546*
X-27986Y-03546*
X-28484Y-03189*
X-28484Y-01401*
X-27986Y-01043*
X-26240Y00744D02*
X-26739Y01102D01*
X-26739Y02532*
X-26240Y02890*
X-23747Y02890*
X-24245Y02890D02*
X-23747Y02890D01*
X-23747Y01102*
X-24245Y00744*
X-24744Y00744*
X-25243Y01102*
X-25243Y02890*
X-26739Y05035D02*
X-23747Y06108D01*
X-26739Y07181*
X-25243Y09326D02*
X-25243Y11471D01*
X-26240Y11471*
X-26739Y11114*
X-26739Y09683*
X-26240Y09326*
X-24245Y09326*
X-23747Y09683*
X-23747Y11114*
X-24245Y11471*
X-26240Y15762D02*
X-26739Y15404D01*
X-26739Y13974*
X-26240Y13616*
X-24245Y13616*
X-23747Y13974*
X-23747Y15404*
X-24245Y15762*
X-23747Y15762D02*
X-28484Y15762D01*
X-24495Y19338D02*
X-26240Y20768D01*
X-27986Y19338*
D17*
X220342Y-30000D02*
X220342Y-27685*
X220342Y-18889D01*
X220342Y-24907D02*
X220670Y-24907D01*
X223623Y-22130*
X220670Y-24907D02*
X223623Y-27685D01*
X228215Y-23056D02*
X228872Y-22130D01*
X231496Y-22130*
X232152Y-23056*
X232152Y-27685*
X232152Y-26759D02*
X232152Y-27685D01*
X228872Y-27685*
X228215Y-26759*
X228215Y-25833*
X228872Y-24907*
X232152Y-24907*
X236089Y-18889D02*
X240682Y-18889D01*
X236745Y-27685*
X243963Y-26759D02*
X244619Y-27685D01*
X247900Y-27685*
X248556Y-26759*
X248556Y-23519*
X247900Y-22593*
X244619Y-22593*
X243963Y-23519*
X243963Y-18889*
X248556Y-18889*
X251837Y-23519D02*
X252493Y-22593D01*
X255774Y-22593*
X256430Y-23519*
X256430Y-26759*
X255774Y-27685*
X252493Y-27685*
X251837Y-26759*
X251837Y-19815*
X252493Y-18889*
X255774Y-18889*
X256430Y-19815*
X259710Y-18889D02*
X264303Y-18889D01*
X260366Y-27685*
X267584Y-26759D02*
X268240Y-27685D01*
X271521Y-27685*
X272177Y-26759*
X272177Y-23519*
X271521Y-22593*
X268240Y-22593*
X267584Y-23519*
X267584Y-18889*
X272177Y-18889*
X280707Y-30000D02*
X283331Y-19815*
X283987Y-18889D01*
X287268Y-18889*
X287924Y-19815*
X287924Y-21667*
X287268Y-22593*
X283331Y-27685*
X287924Y-27685*
X291205Y-18889D02*
X295798Y-18889D01*
X291861Y-27685*
X300063Y-27685D02*
X299899Y-27685D01*
X299899Y-27222*
X300063Y-27222*
X300063Y-27685*
X307609Y-26759D02*
X306953Y-27685D01*
X303672Y-27685*
X303016Y-26759*
X303016Y-19815*
X303672Y-18889*
X306953Y-18889*
X307609Y-19815*
X307609Y-26759*
X303016Y-26759D02*
X307609Y-19815D01*
X310889Y-26759D02*
X311545Y-27685D01*
X314826Y-27685*
X315482Y-26759*
X315482Y-23519*
X314826Y-22593*
X311545Y-22593*
X310889Y-23519*
X310889Y-18889*
X315482Y-18889*
X319747Y-27685D02*
X319583Y-27685D01*
X319583Y-27222*
X319747Y-27222*
X319747Y-27685*
X322700Y-19815D02*
X323356Y-18889D01*
X326637Y-18889*
X327293Y-19815*
X327293Y-21667*
X326637Y-22593*
X322700Y-27685*
X327293Y-27685*
X335167Y-26759D02*
X334511Y-27685D01*
X331230Y-27685*
X330574Y-26759*
X330574Y-19815*
X331230Y-18889*
X334511Y-18889*
X335167Y-19815*
X335167Y-26759*
X330574Y-26759D02*
X335167Y-19815D01*
X339596Y-27685D02*
X339596Y-18889D01*
X338939Y-20741*
X346977Y-22593D02*
X346321Y-23519D01*
X342712Y-23519*
X342384Y-22593*
X342384Y-19815*
X343040Y-18889*
X346321Y-18889*
X346977Y-19815*
X346977Y-26759*
X346321Y-27685*
X343040Y-27685*
X342384Y-26759*
X355507Y-30000D02*
X363381Y-30000*
X367153Y-27685*
X367153Y-18889D01*
X366497Y-20741*
X369942Y-26759D02*
X370598Y-27685D01*
X373879Y-27685*
X374535Y-26759*
X374535Y-23519*
X373879Y-22593*
X370598Y-22593*
X369942Y-23519*
X369942Y-18889*
X374535Y-18889*
X378800Y-27685D02*
X378636Y-27685D01*
X378636Y-27222*
X378800Y-27222*
X378800Y-27685*
X378800Y-23056D02*
X378636Y-23056D01*
X378636Y-22593*
X378800Y-22593*
X378800Y-23056*
X386346Y-26759D02*
X385690Y-27685D01*
X382409Y-27685*
X381753Y-26759*
X381753Y-19815*
X382409Y-18889*
X385690Y-18889*
X386346Y-19815*
X386346Y-26759*
X381753Y-26759D02*
X386346Y-19815D01*
X389626Y-18889D02*
X394219Y-18889D01*
X390282Y-27685*
X-60000Y-25000D02*
X-71111Y-25000*
X-62315Y-23360D01*
X-71111Y-21719*
X-62315Y-20079*
X-71111Y-18438*
X-65093Y-17126D02*
X-65093Y-13189D01*
X-66944Y-13189*
X-67870Y-13845*
X-67870Y-16470*
X-66944Y-17126*
X-63241Y-17126*
X-62315Y-16470*
X-62315Y-13845*
X-63241Y-13189*
X-63241Y-09253D02*
X-62315Y-08596D01*
X-62315Y-05972*
X-63241Y-05316*
X-64167Y-05316*
X-65093Y-05972*
X-65093Y-08596*
X-66019Y-09253*
X-66944Y-09253*
X-67870Y-08596*
X-67870Y-05972*
X-66944Y-05316*
X-71111Y00918D02*
X-63241Y00918D01*
X-62315Y01574*
X-62315Y02230*
X-67870Y-00067D02*
X-67870Y01902D01*
X-62315Y08463D02*
X-70185Y08463D01*
X-71111Y09119*
X-71111Y09776*
X-67870Y07479D02*
X-67870Y09448D01*
X-66944Y14369D02*
X-67870Y15025D01*
X-67870Y17649*
X-66944Y18306*
X-62315Y18306*
X-63241Y18306D02*
X-62315Y18306D01*
X-62315Y15025*
X-63241Y14369*
X-64167Y14369*
X-65093Y15025*
X-65093Y18306*
X-68333Y15681D02*
X-68796Y15681D01*
X-68333Y16993D02*
X-68796Y16993D01*
X-71111Y23390D02*
X-63241Y23390D01*
X-62315Y23719*
X-62315Y24047*
X-62315Y27491D02*
X-67407Y27491D01*
X-70648Y27491D02*
X-71111Y27491D01*
X-62315Y27163D02*
X-62315Y27819D01*
X-63241Y30116D02*
X-62315Y30772D01*
X-62315Y33397*
X-63241Y34053*
X-64167Y34053*
X-65093Y33397*
X-65093Y30772*
X-66019Y30116*
X-66944Y30116*
X-67870Y30772*
X-67870Y33397*
X-66944Y34053*
X-66944Y41927D02*
X-67870Y41270D01*
X-67870Y38646*
X-66944Y37990*
X-63241Y37990*
X-62315Y38646*
X-62315Y41270*
X-63241Y41927*
X-62315Y45863D02*
X-71111Y45863D01*
X-66944Y45863D02*
X-67870Y46519D01*
X-67870Y49144*
X-66944Y49800*
X-62315Y49800*
X-65093Y53737D02*
X-65093Y57674D01*
X-66944Y57674*
X-67870Y57018*
X-67870Y54393*
X-66944Y53737*
X-63241Y53737*
X-62315Y54393*
X-62315Y57018*
X-63241Y57674*
X-60000Y66860D02*
X-62315Y69484*
X-71111Y69484D01*
X-66944Y69484D02*
X-66944Y74734D01*
X-71111Y74734D02*
X-62315Y74734D01*
X-66944Y81295D02*
X-67870Y80639D01*
X-67870Y78014*
X-66944Y77358*
X-63241Y77358*
X-62315Y78014*
X-62315Y80639*
X-63241Y81295*
X-66944Y81295*
X-66944Y89169D02*
X-67870Y88513D01*
X-67870Y85888*
X-66944Y85232*
X-63241Y85232*
X-62315Y85888*
X-62315Y88513*
X-63241Y89169*
X-62315Y93106D02*
X-71111Y93106D01*
X-66944Y93106D02*
X-67870Y93762D01*
X-67870Y96386*
X-66944Y97043*
X-62315Y97043*
X-63241Y100979D02*
X-62315Y101635D01*
X-62315Y104260*
X-63241Y104916*
X-64167Y104916*
X-65093Y104260*
X-65093Y101635*
X-66019Y100979*
X-66944Y100979*
X-67870Y101635*
X-67870Y104260*
X-66944Y104916*
X-66944Y112790D02*
X-67870Y112134D01*
X-67870Y109509*
X-66944Y108853*
X-63241Y108853*
X-62315Y109509*
X-62315Y112134*
X-63241Y112790*
X-62315Y116727D02*
X-71111Y116727D01*
X-66944Y116727D02*
X-67870Y117383D01*
X-67870Y120007*
X-66944Y120664*
X-62315Y120664*
X-67870Y124600D02*
X-63241Y124600D01*
X-62315Y125256*
X-62315Y127881*
X-63241Y128537*
X-62315Y128537D02*
X-67870Y128537D01*
X-71111Y133622D02*
X-63241Y133622D01*
X-62315Y133950*
X-62315Y134278*
X-65093Y136411D02*
X-65093Y140348D01*
X-66944Y140348*
X-67870Y139692*
X-67870Y137067*
X-66944Y136411*
X-63241Y136411*
X-62315Y137067*
X-62315Y139692*
X-63241Y140348*
X-60000Y149534D02*
X-63241Y157408*
X-62315Y156751D01*
X-62315Y152814*
X-63241Y152158*
X-70185Y152158*
X-71111Y152814*
X-71111Y156751*
X-70185Y157408*
X-66944Y160032D02*
X-67870Y160688D01*
X-67870Y163313*
X-66944Y163969*
X-62315Y163969*
X-63241Y163969D02*
X-62315Y163969D01*
X-62315Y160688*
X-63241Y160032*
X-64167Y160032*
X-65093Y160688*
X-65093Y163969*
X-62315Y167906D02*
X-67870Y167906D01*
X-66944Y167906D02*
X-67870Y168562D01*
X-67870Y169874*
X-66944Y170530*
X-62315Y170530*
X-66944Y170530D02*
X-67870Y171186D01*
X-67870Y172499*
X-66944Y173155*
X-62315Y173155*
X-67870Y175779D02*
X-60000Y175779D01*
X-66944Y175779D02*
X-67870Y176436D01*
X-67870Y179060*
X-66944Y179716*
X-63241Y179716*
X-62315Y179060*
X-62315Y176436*
X-63241Y175779*
X-67870Y183653D02*
X-63241Y183653D01*
X-62315Y184309*
X-62315Y186934*
X-63241Y187590*
X-62315Y187590D02*
X-67870Y187590D01*
X-63241Y191527D02*
X-62315Y192183D01*
X-62315Y194808*
X-63241Y195464*
X-64167Y195464*
X-65093Y194808*
X-65093Y192183*
X-66019Y191527*
X-66944Y191527*
X-67870Y192183*
X-67870Y194808*
X-66944Y195464*
X-60000Y204650D02*
X-62315Y207274*
X-71111Y207274D01*
X-71111Y211867*
X-70185Y212524*
X-67870Y212524*
X-66944Y211867*
X-66944Y207274D02*
X-66944Y211867D01*
X-66019Y212524*
X-63241Y212524*
X-62315Y211867*
X-62315Y207274*
X-66944Y219085D02*
X-67870Y218429D01*
X-67870Y215804*
X-66944Y215148*
X-63241Y215148*
X-62315Y215804*
X-62315Y218429*
X-63241Y219085*
X-66944Y219085*
X-66944Y226959D02*
X-67870Y226302D01*
X-67870Y223678*
X-66944Y223022*
X-63241Y223022*
X-62315Y223678*
X-62315Y226302*
X-63241Y226959*
X-62315Y230895D02*
X-71111Y230895D01*
X-66944Y230895D02*
X-67870Y231551D01*
X-67870Y234176*
X-66944Y234832*
X-62315Y234832*
X-66944Y242706D02*
X-67870Y242050D01*
X-67870Y239425*
X-66944Y238769*
X-63241Y238769*
X-62315Y239425*
X-62315Y242050*
X-63241Y242706*
X-66944Y242706*
X-71111Y247791D02*
X-63241Y247791D01*
X-62315Y248119*
X-62315Y248447*
X-71111Y252876D02*
X-63241Y252876D01*
X-62315Y253532*
X-62315Y254188*
X-67870Y251892D02*
X-67870Y253860D01*
X-47870Y-20407D02*
X-47870Y-25000D01*
X-56667Y-25000*
X-52500Y-17126D02*
X-53426Y-16470D01*
X-53426Y-13845*
X-52500Y-13189*
X-47870Y-13189*
X-48796Y-13189D02*
X-47870Y-13189D01*
X-47870Y-16470*
X-48796Y-17126*
X-49722Y-17126*
X-50648Y-16470*
X-50648Y-13189*
X-47870Y-09253D02*
X-56667Y-09253D01*
X-52500Y-09253D02*
X-53426Y-08596D01*
X-53426Y-05972*
X-52500Y-05316*
X-48796Y-05316*
X-47870Y-05972*
X-47870Y-08596*
X-48796Y-09253*
X-52500Y02558D02*
X-53426Y01902D01*
X-53426Y-00723*
X-52500Y-01379*
X-48796Y-01379*
X-47870Y-00723*
X-47870Y01902*
X-48796Y02558*
X-52500Y02558*
X-47870Y06495D02*
X-53426Y06495D01*
X-52500Y06495D02*
X-53426Y07151D01*
X-53426Y09119*
X-52500Y09776*
X-45555Y19618D02*
X-47870Y22242*
X-56667Y22242D01*
X-56667Y26835*
X-55741Y27492*
X-53426Y27492*
X-52500Y26835*
X-52500Y22242*
X-52500Y26179D02*
X-52500Y26835D01*
X-47870Y27492*
X-56667Y30116D02*
X-56667Y35365D01*
X-56667Y32741D02*
X-47870Y32741D01*
D12*
X16875Y366850D02*
X16875Y372834*
X16875Y368595D01*
X17233Y368097*
X19378Y368097*
X19736Y368595*
X19736Y372834*
X21166Y368595D02*
X21523Y368097D01*
X23311Y368097*
X23669Y368595*
X23669Y370091*
X23311Y370590*
X21523Y370590*
X21166Y371089*
X21166Y372336*
X21523Y372834*
X23311Y372834*
X23669Y372336*
X27960Y368097D02*
X25456Y368097D01*
X25456Y372834*
X27960Y372834*
X27960Y370590D02*
X25456Y370590D01*
X29747Y368097D02*
X29747Y372834D01*
X32250Y372834*
X32608Y372336*
X32608Y371089*
X32250Y370590*
X29747Y370590*
X31893Y370590D02*
X32250Y370590D01*
X32608Y368097*
X02950Y299075D02*
X04380Y302316*
X05811Y302316D01*
X05811Y300820*
X05453Y300322*
X03308Y300322*
X02950Y300820*
X02950Y304561*
X03308Y305059*
X05453Y305059*
X05811Y304561*
X07241Y300322D02*
X07241Y305059D01*
X10102Y300322*
X10102Y305059*
X11531Y305059D02*
X13319Y305059D01*
X14035Y304561*
X14392Y303563*
X14392Y301818*
X14035Y300820*
X13319Y300322*
X11531Y300322*
X12247Y300322D02*
X12247Y305059D01*
X573775Y282150D02*
X573775Y288134*
X576636Y288134D01*
X575205Y288134D02*
X575205Y283397D01*
X578066Y283397D02*
X580927Y288134D01*
X578066Y288134D02*
X580927Y283397D01*
X566425Y328750D02*
X566425Y329997*
X566425Y334734D01*
X568928Y334734*
X569286Y334236*
X569286Y332989*
X568928Y332490*
X566425Y332490*
X568571Y332490D02*
X568928Y332490D01*
X569286Y329997*
X570716Y332989D02*
X570716Y330495D01*
X571073Y329997*
X572504Y329997*
X572861Y330495*
X572861Y329997D02*
X572861Y332989D01*
X575006Y329997D02*
X575006Y332989D01*
X575006Y332490D02*
X575364Y332989D01*
X576794Y332989*
X577152Y332490*
X577152Y329997*
X567051Y322217D02*
X567051Y326955D01*
X566693Y325957*
X571431Y320970D02*
X572861Y326456*
X573219Y326955D01*
X575007Y326955*
X575364Y326456*
X575364Y325459*
X575007Y324960*
X572861Y322217*
X575364Y322217*
D17*
X93450Y364475D02*
X97387Y371419*
X96731Y372345D01*
X94106Y372345*
X93450Y371419*
X93450Y367716*
X94106Y366790*
X96731Y366790*
X97387Y367716*
X101324Y371419D02*
X101980Y372345D01*
X104605Y372345*
X105261Y371419*
X105261Y366790*
X105261Y367716D02*
X105261Y366790D01*
X101980Y366790*
X101324Y367716*
X101324Y368642*
X101980Y369568*
X105261Y369568*
X109197Y366790D02*
X109197Y372345D01*
X109197Y371419D02*
X109854Y372345D01*
X111166Y372345*
X111822Y371419*
X111822Y366790*
X111822Y371419D02*
X112478Y372345D01*
X113791Y372345*
X114447Y371419*
X114447Y366790*
X117071Y372345D02*
X117071Y364475D01*
X117071Y371419D02*
X117727Y372345D01*
X120352Y372345*
X121008Y371419*
X121008Y367716*
X120352Y366790*
X117727Y366790*
X117071Y367716*
X124945Y372345D02*
X124945Y367716D01*
X125601Y366790*
X128226Y366790*
X128882Y367716*
X128882Y366790D02*
X128882Y372345D01*
X132819Y367716D02*
X133475Y366790D01*
X136099Y366790*
X136756Y367716*
X136756Y368642*
X136099Y369568*
X133475Y369568*
X132819Y370494*
X132819Y371419*
X133475Y372345*
X136099Y372345*
X136756Y371419*
X140692Y372345D02*
X142333Y366790D01*
X143973Y372345*
X145613Y366790*
X147254Y372345*
X152503Y371419D02*
X151847Y372345D01*
X149222Y372345*
X148566Y371419*
X148566Y367716*
X149222Y366790*
X151847Y366790*
X152503Y367716*
X152503Y371419*
X160377Y371419D02*
X159720Y372345D01*
X157096Y372345*
X156440Y371419*
X156440Y367716*
X157096Y366790*
X159720Y366790*
X160377Y367716*
X164313Y366790D02*
X164313Y375586D01*
X164313Y371419D02*
X164969Y372345D01*
X167594Y372345*
X168250Y371419*
X168250Y366790*
X172187Y369568D02*
X176124Y369568D01*
X176124Y371419*
X175468Y372345*
X172843Y372345*
X172187Y371419*
X172187Y367716*
X172843Y366790*
X175468Y366790*
X176124Y367716*
X181045Y366790D02*
X180881Y366790D01*
X180881Y367253*
X181045Y367253*
X181045Y366790*
X187935Y371419D02*
X187278Y372345D01*
X184654Y372345*
X183998Y371419*
X183998Y367716*
X184654Y366790*
X187278Y366790*
X187935Y367716*
X187935Y366790D02*
X187935Y375586D01*
X191871Y369568D02*
X195808Y369568D01*
X195808Y371419*
X195152Y372345*
X192527Y372345*
X191871Y371419*
X191871Y367716*
X192527Y366790*
X195152Y366790*
X195808Y367716*
D12*
X583825Y328200D02*
X583825Y329447*
X583825Y334184D01*
X586328Y334184*
X586686Y333686*
X586686Y332439*
X586328Y331940*
X583825Y331940*
X588116Y329447D02*
X588116Y332439D01*
X588116Y331940D02*
X588473Y332439D01*
X589546Y332439*
X589904Y331940*
X594552Y331940D02*
X594194Y332439D01*
X592764Y332439*
X592406Y331940*
X592406Y329945*
X592764Y329447*
X594194Y329447*
X594552Y329945*
X594552Y331940*
X598843Y331940D02*
X598485Y332439D01*
X597055Y332439*
X596697Y331940*
X596697Y330444*
X597055Y329945*
X598485Y329945*
X598843Y330444*
X598843Y332439D02*
X598843Y328699D01*
X598485Y328200*
X596697Y328200*
X583825Y325906D02*
X584183Y326405D01*
X585971Y326405*
X586328Y325906*
X586328Y324909*
X585971Y324410*
X583825Y321667*
X586328Y321667*
X590977Y320420D02*
X592406Y325906*
X592764Y326405D01*
X594552Y326405*
X594910Y325906*
X594910Y324659*
X594552Y324161*
X593479Y324161*
X594552Y324161*
X594910Y323662*
X594910Y322415*
X594552Y321667*
X592764Y321667*
X592406Y322166*
X64300Y149375D02*
X65730Y152616*
X67161Y152616D01*
X67161Y151120*
X66803Y150622*
X64658Y150622*
X64300Y151120*
X64300Y154861*
X64658Y155359*
X66803Y155359*
X67161Y154861*
X68591Y150622D02*
X68591Y155359D01*
X71452Y150622*
X71452Y155359*
X72881Y155359D02*
X74669Y155359D01*
X75385Y154861*
X75742Y153863*
X75742Y152118*
X75385Y151120*
X74669Y150622*
X72881Y150622*
X73597Y150622D02*
X73597Y155359D01*
D17*
X388025Y375775D02*
X388025Y378090*
X388025Y386886D01*
X392618Y386886*
X393274Y385960*
X393274Y383645*
X392618Y382719*
X388025Y382719D02*
X392618Y382719D01*
X393274Y381794*
X393274Y379016*
X392618Y378090*
X388025Y378090*
X395899Y382719D02*
X396555Y383645D01*
X399180Y383645*
X399836Y382719*
X399836Y378090*
X399836Y379016D02*
X399836Y378090D01*
X396555Y378090*
X395899Y379016*
X395899Y379942*
X396555Y380868*
X399836Y380868*
X403772Y383645D02*
X403772Y379016D01*
X404429Y378090*
X407053Y378090*
X407709Y379016*
X407709Y378090D02*
X407709Y383645D01*
X413943Y386886D02*
X413943Y379016D01*
X414599Y378090*
X415255Y378090*
X412958Y383645D02*
X414927Y383645D01*
X419520Y380868D02*
X423457Y380868D01*
X423457Y382719*
X422801Y383645*
X420176Y383645*
X419520Y382719*
X419520Y379016*
X420176Y378090*
X422801Y378090*
X423457Y379016*
X428706Y378090D02*
X428706Y383182D01*
X428706Y386423D02*
X428706Y386886D01*
X428378Y378090D02*
X429034Y378090D01*
X432479Y386886D02*
X432479Y379016D01*
X432807Y378090*
X433135Y378090*
X435267Y379016D02*
X435923Y378090D01*
X438548Y378090*
X439204Y379016*
X439204Y379942*
X438548Y380868*
X435923Y380868*
X435267Y381794*
X435267Y382719*
X435923Y383645*
X438548Y383645*
X439204Y382719*
X443141Y380868D02*
X447078Y380868D01*
X447078Y382719*
X446422Y383645*
X443797Y383645*
X443141Y382719*
X443141Y379016*
X443797Y378090*
X446422Y378090*
X447078Y379016*
X452327Y378090D02*
X452327Y383182D01*
X452327Y386423D02*
X452327Y386886D01*
X451999Y378090D02*
X452655Y378090D01*
X457248Y386886D02*
X457248Y379016D01*
X457904Y378090*
X458560Y378090*
X456264Y383645D02*
X458232Y383645D01*
X462825Y380868D02*
X466762Y380868D01*
X466762Y382719*
X466106Y383645*
X463481Y383645*
X462825Y382719*
X462825Y379016*
X463481Y378090*
X466106Y378090*
X466762Y379016*
D12*
X298925Y323875D02*
X302166Y322445*
X302166Y321014D01*
X300670Y321014*
X300172Y321372*
X300172Y323517*
X300670Y323875*
X304411Y323875*
X304909Y323517*
X304909Y321372*
X304411Y321014*
X300172Y319584D02*
X304909Y319584D01*
X300172Y316723*
X304909Y316723*
X304909Y315294D02*
X304909Y313506D01*
X304411Y312790*
X303413Y312433*
X301668Y312433*
X300670Y312790*
X300172Y313506*
X300172Y315294*
X300172Y314578D02*
X304909Y314578D01*
M02*
