G70*
%FSLAX55Y55*%
%ADD11C,0.03937*%
%ADD12C,0.01575*%
%ADD13C,0.00945*%
%ADD14C,0.01181*%
%ADD15C,0.11800*%
%ADD16C,0.06500*%
%ADD17O,0.12224X0.07500*%
%ADD18C,0.06000*%
%ADD19R,0.06000X0.06000*%
%ADD20R,0.05900X0.08000*%
%ADD21R,0.15000X0.07900*%
%ADD22C,0.06000*%
%ADD23C,0.00100*%
%ADD24R,0.06500X0.06500*%
%ADD25R,0.13000X0.09000*%
%ADD26C,0.08700*%
%ADD27C,0.08000*%
%ADD28C,0.00591*%
%ADD29P,0.06061X8X22.500*%
D11*
X320669Y37697D02*
X320669Y19331D01*
X322500Y17500*
D12*
X126000Y167500D02*
X126000Y186500D01*
X93000Y219500*
X93000Y230531*
X05906Y228878D02*
X14000Y228878D01*
X17654Y232531*
X52531Y232531*
X65000Y245000*
X263531Y245000*
X270000Y238531*
X270150Y236925*
X280000Y155531D02*
X276969Y152500D01*
X122531Y152500*
X115500Y159531*
X115500Y185000*
X75000Y225500*
X75000Y229500*
D11*
X624016Y165886D02*
X613354Y165886D01*
X600969Y153500*
X592000Y153500*
D12*
X107000Y228531D02*
X129469Y228531D01*
X135500Y222500*
X333500Y222500*
X348500Y237500*
X365000Y237500*
X23000Y06531D02*
X23000Y05531D01*
X22000Y06531*
D11*
X21165Y07367D02*
X16189Y12343D01*
X05906Y12343*
X496457Y72224D02*
X496457Y89508D01*
D12*
X220000Y177500D02*
X236000Y193500D01*
X356000Y193500*
X365000Y202500*
X365000Y227500*
D11*
X05906Y28091D02*
X14441Y28091D01*
X36197Y06335*
X174500Y06335*
X322500Y17500D02*
X330000Y10000D01*
X70350Y148000D02*
X70350Y165000D01*
D12*
X05906Y197382D02*
X22618Y197382D01*
X30000Y190000*
X62992Y76909D02*
X62992Y82539D01*
X56000Y89531*
X26000Y89531*
X11803Y75335*
X05906Y75335*
D11*
X05906Y150138D02*
X13394Y150138D01*
X13531Y150000*
X26000Y150000*
D12*
X624016Y197382D02*
X610850Y197382D01*
X603000Y189531*
X537000Y189531*
X05906Y244626D02*
X05906Y243531D01*
X55000Y243531*
X225000Y158531D02*
X124500Y158531D01*
X119500Y163531*
X119500Y187000*
X86000Y220500*
X86000Y230500*
X141000Y179531D02*
X211000Y179531D01*
X223000Y191531*
X323681Y100965D02*
X323681Y77850D01*
X333000Y68531*
X354000Y68531*
X360630Y61902*
X360630Y61122*
X360417Y37949D02*
X355000Y43366D01*
X355000Y55492*
X360630Y61122*
X360417Y37949D02*
X360669Y37697D01*
X05906Y43839D02*
X27693Y43839D01*
X36000Y35531*
X61000Y35531*
X84000Y58531*
X279000Y58531*
X294197Y43335*
X355031Y43335*
X360417Y37949*
X240000Y181531D02*
X248969Y190500D01*
X362969Y190500*
X369969Y197500*
X368500Y197500*
X503937Y214705D02*
X493764Y204531D01*
X419622Y204531*
X409449Y214705*
X365000Y237500D02*
X360000Y232500D01*
X360000Y202500*
X354000Y196500*
X218969Y196500*
X209000Y186531*
D11*
X322500Y17500D02*
X319969Y17500D01*
X308803Y06335*
X174500Y06335*
X385000Y237500D02*
X385000Y205000D01*
X386909Y203091*
X386909Y194409*
X363858Y171358*
X359370Y171358*
X70350Y148000D02*
X300500Y148000D01*
X304500Y144000*
X364469Y144000*
X370000Y149531*
X370000Y163531*
X05906Y165886D02*
X27614Y165886D01*
X45500Y148000*
X70350Y148000*
D12*
X250000Y181531D02*
X255469Y187000D01*
X367000Y187000*
X375500Y195500*
X375500Y202500*
X495000Y37500D02*
X507008Y49508D01*
X523492Y49508*
X523500Y49500*
X535433Y61433*
X535433Y76909*
D11*
X174500Y25500D02*
X174500Y06335D01*
D12*
X05906Y59587D02*
X32945Y59587D01*
X51409Y41122*
X51772Y41122*
X320551Y49193D02*
X305807Y49193D01*
X248169Y106831*
X05906Y106831*
X220472Y214705D02*
X226646Y208531D01*
X312000Y208531*
X314961Y211492*
X314961Y214705*
X598425Y214705D02*
X604252Y220531D01*
X610005Y220531*
X617407Y213130*
X624016Y213130*
X05906Y213130D02*
X22307Y229531D01*
X58000Y229531*
X64750Y236500*
X70250Y242000*
X254550Y242000*
X259975Y236575*
X157480Y76909D02*
X157480Y70020D01*
X165000Y62500*
X242500Y62500*
X251969Y71969*
X251969Y76909*
D11*
X525433Y76909D02*
X513524Y65000D01*
X494941Y65000*
X482165Y52224*
D12*
X279950Y236925D02*
X284287Y243000D01*
X388500Y243000*
X392500Y239000*
X392500Y206031*
X398531Y200000*
X497500Y200000*
X515969Y181531*
X604000Y181531*
X604102Y181634*
X624016Y181634*
D11*
X496457Y72224D02*
X508693Y72224D01*
X523000Y86531*
X540000Y86531*
X545433Y81098*
X545433Y76909*
X70350Y165000D02*
X70475Y165450D01*
X70000Y180000D02*
X70350Y179650D01*
X70350Y165000*
X496457Y72224D02*
X482165Y72224D01*
D12*
X365000Y227500D02*
X372500Y227500D01*
X376500Y223500*
X376500Y208500*
X381000Y204000*
X381000Y196000*
X367500Y182500*
X362500Y182500*
X342500Y162500*
X275000Y162500*
X270000Y157500*
X440945Y76909D02*
X422323Y95531D01*
X365079Y95531*
X346457Y76909*
X623826Y323200D02*
X610976Y323200D01*
X600842Y333334*
X591810Y333334*
X577810Y347334*
X472779Y347334*
X460810Y335366*
X227310Y360334D02*
X256342Y389366D01*
X609810Y389366*
X612984Y386192*
X623826Y386192*
X472251Y356271D02*
X478814Y362834D01*
X560177Y362834*
X566740Y356271*
X270310Y294834D02*
X270310Y292834D01*
X278310Y300834*
X285621Y300834*
X293688Y292767*
X311606Y292767*
X319673Y300834*
X336810Y300834*
X342310Y295334*
X440810Y295334*
X450810Y285334*
X537810Y285334*
X562810Y310334*
X603810Y310334*
X611810Y302334*
X611810Y298834*
X222310Y372334D02*
X222310Y344834D01*
X254810Y312334*
X254810Y295334*
X51810Y305834D02*
X62310Y295334D01*
X254810Y295334*
D11*
X385000Y237500D02*
X385000Y227500D01*
D12*
X624016Y244626D02*
X578094Y244626D01*
X523000Y189531*
X31496Y214705D02*
X43323Y226531D01*
X59000Y226531*
X67969Y235500*
X95500Y235500*
X98000Y233000*
X98000Y225531*
X103000Y220531*
X120157Y220531*
X125984Y214705*
X293688Y303397D02*
X293688Y324161D01*
X300089Y330562*
X309043Y330562*
X319673Y319932*
X324397Y319932*
X563310Y340834D02*
X550810Y340834D01*
X547310Y337334*
X602810Y320834D02*
X602810Y322334D01*
X594810Y330334*
X591191Y330334*
X580191Y341334*
X571310Y341334*
D11*
X483236Y301366D02*
X478279Y301366D01*
X472710Y306934*
X472710Y315262*
X483236Y301366D02*
X483810Y301366D01*
X623826Y307452D02*
X614192Y307452D01*
X607310Y314334*
X483236Y301366D02*
X483236Y311625D01*
X624016Y150138D02*
X610606Y150138D01*
X607969Y147500*
X604500Y147500*
D12*
X94299Y356271D02*
X94299Y361822D01*
X99810Y367334*
X184287Y367334*
X188787Y362834*
X188787Y356271*
X283275Y356271D02*
X289712Y349834D01*
X371326Y349834*
X377763Y356271*
X623826Y354696D02*
X620480Y354696D01*
X593810Y381366*
X473842Y381366*
X408842Y316366*
X405810Y316366*
X623826Y370444D02*
X613732Y370444D01*
X598810Y385366*
X474223Y385366*
X412223Y323366*
X390810Y323366*
X05906Y181634D02*
X17366Y181634D01*
X27500Y171500*
X50500Y171500*
X55000Y167000*
D11*
X501346Y311625D02*
X510919Y311625D01*
X511010Y311534*
X623826Y291704D02*
X604181Y291704D01*
X602310Y289834*
X563310Y289834*
X559310Y293834*
D12*
X270637Y303043D02*
X275716Y308121D01*
X283058Y308121*
X235310Y358334D02*
X254310Y377334D01*
X259495Y377334*
D13*
X259810Y377334D02*
X267310Y377334D01*
D12*
X267625Y377334D02*
X272310Y377334D01*
X277310Y382334*
D11*
X426310Y290334D02*
X423810Y287834D01*
X262310Y287834*
X262310Y312747*
X242645Y332413*
X492291Y311625D02*
X492291Y299846D01*
X484810Y292366*
X475607Y292366*
X472710Y295262*
D12*
X623826Y338948D02*
X610393Y338948D01*
X607810Y336366*
X593279Y336366*
X578810Y350834*
X456279Y350834*
X442810Y337366*
X438810Y337366*
D11*
X311181Y100965D02*
X311000Y100965D01*
X311000Y61500*
X312500Y60000*
D14*
X363275Y372275D02*
X385150Y372275D01*
X385150Y363279*
X384181Y363279*
X459409Y37067D02*
G75*
G02X459409Y40217I00000J01575D01*
G02X459409Y37067I00000J-01575*
G01X384574Y347885D02*
X384574Y302275D01*
X347250Y302278*
D15*
X330000Y10000D03*
D16*
X09614Y333712D03*
X09614Y315995D03*
D17*
X19456Y311074D03*
X19456Y338633D03*
D18*
X472710Y295262D03*
X472710Y315262D03*
X511010Y311534D03*
X511010Y291534D03*
X446464Y300090D03*
X446464Y320090D03*
X359370Y151358D03*
X359370Y171358D03*
X348500Y177500D03*
X348500Y157500D03*
X542645Y320090D03*
X542645Y300090D03*
D19*
X305278Y309918D03*
D18*
X313152Y309918D03*
X321026Y309918D03*
X328900Y309918D03*
X336774Y309918D03*
X344648Y309918D03*
X352522Y309918D03*
X360396Y309918D03*
X360396Y365036D03*
X352522Y365036D03*
X344648Y365036D03*
X336774Y365036D03*
X328900Y365036D03*
X321026Y365036D03*
X313152Y365036D03*
X305278Y365036D03*
D20*
X483236Y311625D03*
X492291Y311625D03*
X501346Y311625D03*
D21*
X492291Y335641D03*
D14*
X133610Y325234D02*
X146110Y325234D01*
X146110Y355234*
X133610Y355234*
X133610Y325234*
X168610Y330234D02*
X168610Y325234D01*
X163610Y325234*
X139860Y360234D02*
X139860Y355234D01*
X153610Y355234D02*
X153610Y325234D01*
X153610Y340234D02*
X146110Y340234D01*
X139860Y325234D02*
X139860Y320234D01*
X168610Y355234D02*
X153610Y340234D01*
X168610Y325234*
D22*
X611024Y06831D03*
D23*
G36*
X568667Y377702D02*
X568667Y374553D01*
X565517Y374553*
X565517Y375734*
X567486Y375734*
X567486Y377702*
X568667Y377702*
G37*
X568667Y374553*
X565517Y374553*
X565517Y375734*
X567486Y375734*
X567486Y377702*
X568667Y377702*
G36*
X572604Y374553D02*
X569454Y374553D01*
X569454Y377702*
X570635Y377702*
X570635Y375734*
X572604Y375734*
X572604Y374553*
G37*
X569454Y374553*
X569454Y377702*
X570635Y377702*
X570635Y375734*
X572604Y375734*
X572604Y374553*
G36*
X569454Y370616D02*
X569454Y373765D01*
X572604Y373765*
X572604Y372584*
X570635Y372584*
X570635Y370616*
X569454Y370616*
G37*
X569454Y373765*
X572604Y373765*
X572604Y372584*
X570635Y372584*
X570635Y370616*
X569454Y370616*
G36*
X565517Y373765D02*
X568667Y373765D01*
X568667Y370616*
X567486Y370616*
X567486Y372584*
X565517Y372584*
X565517Y373765*
G37*
X568667Y373765*
X568667Y370616*
X567486Y370616*
X567486Y372584*
X565517Y372584*
X565517Y373765*
D22*
X20150Y299150D03*
X06925Y388425D03*
D23*
G36*
X33006Y27093D02*
X33006Y23944D01*
X29857Y23944*
X29857Y25125*
X31825Y25125*
X31825Y27093*
X33006Y27093*
G37*
X33006Y23944*
X29857Y23944*
X29857Y25125*
X31825Y25125*
X31825Y27093*
X33006Y27093*
G36*
X36943Y23944D02*
X33794Y23944D01*
X33794Y27093*
X34975Y27093*
X34975Y25125*
X36943Y25125*
X36943Y23944*
G37*
X33794Y23944*
X33794Y27093*
X34975Y27093*
X34975Y25125*
X36943Y25125*
X36943Y23944*
G36*
X33794Y20007D02*
X33794Y23156D01*
X36943Y23156*
X36943Y21975*
X34975Y21975*
X34975Y20007*
X33794Y20007*
G37*
X33794Y23156*
X36943Y23156*
X36943Y21975*
X34975Y21975*
X34975Y20007*
X33794Y20007*
G36*
X29857Y23156D02*
X33006Y23156D01*
X33006Y20007*
X31825Y20007*
X31825Y21975*
X29857Y21975*
X29857Y23156*
G37*
X33006Y23156*
X33006Y20007*
X31825Y20007*
X31825Y21975*
X29857Y21975*
X29857Y23156*
D16*
X262310Y382334D03*
X222310Y382334D03*
X321070Y294460D03*
X281070Y294460D03*
X308905Y379657D03*
X348905Y379657D03*
X70000Y180000D03*
X30000Y180000D03*
X51772Y41122D03*
X91772Y41122D03*
X208960Y348898D03*
X208960Y338898D03*
X208960Y328898D03*
X208960Y318898D03*
X75810Y309134D03*
X75810Y319134D03*
X75810Y329134D03*
X75810Y339134D03*
X75810Y349134D03*
X75810Y359134D03*
X09810Y378692D03*
X09810Y360976D03*
D17*
X19653Y356055D03*
X19653Y383614D03*
D15*
X70475Y165450D03*
D24*
X514810Y337334D03*
D16*
X514810Y327334D03*
D24*
X178787Y356271D03*
D16*
X188787Y356271D03*
X198787Y356271D03*
D24*
X568039Y296429D03*
D16*
X578039Y296429D03*
X588039Y296429D03*
X598039Y296429D03*
D24*
X462251Y356271D03*
D16*
X472251Y356271D03*
X482251Y356271D03*
D24*
X556740Y356271D03*
D16*
X566740Y356271D03*
X576740Y356271D03*
D24*
X273275Y356271D03*
D16*
X283275Y356271D03*
X293275Y356271D03*
D24*
X367763Y356271D03*
D16*
X377763Y356271D03*
X387763Y356271D03*
D24*
X21496Y214705D03*
D16*
X31496Y214705D03*
X41496Y214705D03*
D24*
X569835Y315359D03*
D16*
X579835Y315359D03*
X589835Y315359D03*
D25*
X623826Y291704D03*
X623826Y307452D03*
X623826Y323200D03*
X623826Y338948D03*
X623826Y354696D03*
X623826Y370444D03*
X623826Y386192D03*
D18*
X482165Y72224D03*
X482165Y52224D03*
D16*
X410039Y150531D03*
X410039Y170531D03*
D18*
X385000Y237500D03*
X365000Y237500D03*
D16*
X457441Y170689D03*
X457441Y150689D03*
D18*
X360866Y26319D03*
X340866Y26319D03*
X163300Y46900D03*
X163300Y26900D03*
X288629Y337728D03*
X288629Y317728D03*
X480276Y15295D03*
X480276Y35295D03*
X412500Y15000D03*
X412500Y35000D03*
D26*
X519409Y18720D03*
X519409Y38720D03*
D18*
X242645Y332413D03*
X242645Y312413D03*
X385000Y227500D03*
X365000Y227500D03*
D16*
X457484Y25000D03*
X445484Y25000D03*
X433484Y25000D03*
D18*
X150157Y42461D03*
X142657Y34961D03*
X150157Y27461D03*
D23*
G36*
X94276Y325272D02*
X92204Y324028D01*
X91394Y330745*
X90613Y323071*
X88309Y321687*
X86319Y332358*
X88677Y333761*
X89628Y326922*
X90335Y334771*
X92523Y336086*
X93289Y329122*
X94168Y337074*
X96501Y338476*
X94276Y325272*
X97092Y326964*
X100348Y324890*
X102631Y326262*
X99375Y328336*
X102182Y330023*
X111801Y323895*
X108994Y322208*
X105232Y324606*
X102948Y323234*
X106711Y320836*
X103895Y319144*
X94276Y325272*
G37*
X92204Y324028*
X91394Y330745*
X90613Y323071*
X88309Y321687*
X86319Y332358*
X88677Y333761*
X89628Y326922*
X90335Y334771*
X92523Y336086*
X93289Y329122*
X94168Y337074*
X96501Y338476*
X94276Y325272*
X97092Y326964*
X100348Y324890*
X102631Y326262*
X99375Y328336*
X102182Y330023*
X111801Y323895*
X108994Y322208*
X105232Y324606*
X102948Y323234*
X106711Y320836*
X103895Y319144*
X94276Y325272*
D14*
X540500Y09100D02*
X553000Y09100D01*
X553000Y39100*
X540500Y39100*
X540500Y09100*
X575500Y14100D02*
X575500Y09100D01*
X570500Y09100*
X546750Y44100D02*
X546750Y39100D01*
X560500Y39100D02*
X560500Y09100D01*
X560500Y24100D02*
X553000Y24100D01*
X546750Y09100D02*
X546750Y04100D01*
X575500Y39100D02*
X560500Y24100D01*
X575500Y09100*
D23*
G36*
X41006Y302068D02*
X41006Y298919D01*
X37857Y298919*
X37857Y300100*
X39825Y300100*
X39825Y302068*
X41006Y302068*
G37*
X41006Y298919*
X37857Y298919*
X37857Y300100*
X39825Y300100*
X39825Y302068*
X41006Y302068*
G36*
X44943Y298919D02*
X41794Y298919D01*
X41794Y302068*
X42975Y302068*
X42975Y300100*
X44943Y300100*
X44943Y298919*
G37*
X41794Y298919*
X41794Y302068*
X42975Y302068*
X42975Y300100*
X44943Y300100*
X44943Y298919*
G36*
X41794Y294982D02*
X41794Y298131D01*
X44943Y298131*
X44943Y296950*
X42975Y296950*
X42975Y294982*
X41794Y294982*
G37*
X41794Y298131*
X44943Y298131*
X44943Y296950*
X42975Y296950*
X42975Y294982*
X41794Y294982*
G36*
X37857Y298131D02*
X41006Y298131D01*
X41006Y294982*
X39825Y294982*
X39825Y296950*
X37857Y296950*
X37857Y298131*
G37*
X41006Y298131*
X41006Y294982*
X39825Y294982*
X39825Y296950*
X37857Y296950*
X37857Y298131*
D18*
X405433Y61673D03*
X405433Y51673D03*
X465433Y49193D03*
X465433Y56673D03*
X465433Y64154D03*
D16*
X330118Y228681D03*
X320118Y228681D03*
X310118Y228681D03*
X300118Y228681D03*
X290118Y228681D03*
X280118Y228681D03*
X270118Y228681D03*
X260118Y228681D03*
X250118Y228681D03*
X240118Y228681D03*
X230118Y228681D03*
X220118Y228681D03*
X210118Y228681D03*
X200118Y228681D03*
X190118Y228681D03*
X180118Y228681D03*
X170118Y228681D03*
X160118Y228681D03*
X150118Y228681D03*
X140118Y228681D03*
X140118Y168681D03*
X150118Y168681D03*
X160118Y168681D03*
X170118Y168681D03*
X180118Y168681D03*
X190118Y168681D03*
X200118Y168681D03*
X210118Y168681D03*
X220118Y168681D03*
X230118Y168681D03*
X240118Y168681D03*
X250118Y168681D03*
X260118Y168681D03*
X270118Y168681D03*
X280118Y168681D03*
X290118Y168681D03*
X300118Y168681D03*
X310118Y168681D03*
X320118Y168681D03*
X330118Y168681D03*
D22*
X591661Y374618D03*
D24*
X115984Y214705D03*
D16*
X125984Y214705D03*
X135984Y214705D03*
X262310Y372334D03*
X222310Y372334D03*
X270637Y343043D03*
X270637Y303043D03*
X70000Y190000D03*
X30000Y190000D03*
X320630Y61122D03*
X360630Y61122D03*
X360551Y49193D03*
X320551Y49193D03*
X496457Y89508D03*
X496457Y49508D03*
X311181Y100965D03*
X323681Y100965D03*
X360669Y37697D03*
X320669Y37697D03*
D25*
X624016Y150138D03*
X624016Y165886D03*
X624016Y181634D03*
X624016Y197382D03*
X624016Y213130D03*
X624016Y228878D03*
X624016Y244626D03*
X05906Y12343D03*
X05906Y28091D03*
X05906Y43839D03*
X05906Y59587D03*
X05906Y75335D03*
X05906Y91083D03*
X05906Y106831D03*
D27*
X107675Y176700D03*
D25*
X05906Y150138D03*
X05906Y165886D03*
X05906Y181634D03*
X05906Y197382D03*
X05906Y213130D03*
X05906Y228878D03*
X05906Y244626D03*
D24*
X210472Y214705D03*
D16*
X220472Y214705D03*
X230472Y214705D03*
D24*
X304961Y214705D03*
D16*
X314961Y214705D03*
X324961Y214705D03*
D24*
X399449Y214705D03*
D16*
X409449Y214705D03*
X419449Y214705D03*
D24*
X493937Y214705D03*
D16*
X503937Y214705D03*
X513937Y214705D03*
D24*
X588425Y214705D03*
D16*
X598425Y214705D03*
X608425Y214705D03*
D24*
X52992Y76909D03*
D16*
X62992Y76909D03*
X72992Y76909D03*
D24*
X147480Y76909D03*
D16*
X157480Y76909D03*
X167480Y76909D03*
D24*
X241969Y76909D03*
D16*
X251969Y76909D03*
X261969Y76909D03*
D24*
X336457Y76909D03*
D16*
X346457Y76909D03*
X356457Y76909D03*
D24*
X430945Y76909D03*
D16*
X440945Y76909D03*
X450945Y76909D03*
D24*
X525433Y76909D03*
D16*
X535433Y76909D03*
X545433Y76909D03*
D24*
X84299Y356271D03*
D16*
X94299Y356271D03*
X104299Y356271D03*
D24*
X606929Y74390D03*
D16*
X616929Y74390D03*
X606929Y64390D03*
X616929Y64390D03*
X606929Y54390D03*
X616929Y54390D03*
X606929Y44390D03*
X616929Y44390D03*
X606929Y34390D03*
X616929Y34390D03*
D15*
X09810Y289834D03*
D28*
X328500Y147600D02*
X328500Y153086*
X328858Y153584D01*
X330646Y153584*
X331003Y153086*
X331003Y151839*
X330646Y151340*
X329573Y151340*
X330646Y151340*
X331003Y150841*
X331003Y149595*
X330646Y148847*
X328858Y148847*
X328500Y149345*
X333327Y148847D02*
X333238Y148847D01*
X333238Y149096*
X333327Y149096*
X333327Y148847*
X334936Y153086D02*
X335294Y153584D01*
X337082Y153584*
X337439Y153086*
X337439Y151839*
X337082Y151340*
X336009Y151340*
X337082Y151340*
X337439Y150841*
X337439Y149595*
X337082Y148847*
X335294Y148847*
X334936Y149345*
D14*
X117984Y-56111D02*
X117984Y-45000*
X119624Y-53796D01*
X121264Y-45000*
X122905Y-53796*
X124545Y-45000*
X129794Y-49167D02*
X129138Y-48241D01*
X126513Y-48241*
X125857Y-49167*
X125857Y-52870*
X126513Y-53796*
X129138Y-53796*
X129794Y-52870*
X129794Y-49167*
X133731Y-53796D02*
X133731Y-48241D01*
X133731Y-49167D02*
X134387Y-48241D01*
X136356Y-48241*
X137012Y-49167*
X143901Y-45000D02*
X143901Y-52870D01*
X144557Y-53796*
X145214Y-53796*
X142917Y-48241D02*
X144886Y-48241D01*
X149478Y-48241D02*
X149478Y-52870D01*
X150135Y-53796*
X152759Y-53796*
X153415Y-52870*
X153415Y-53796D02*
X153415Y-48241D01*
X157352Y-53796D02*
X157352Y-45000D01*
X157352Y-49167D02*
X158008Y-48241D01*
X160633Y-48241*
X161289Y-49167*
X161289Y-53796*
X165226Y-53796D02*
X165226Y-48241D01*
X165226Y-49167D02*
X165882Y-48241D01*
X167850Y-48241*
X168507Y-49167*
X173756Y-49167D02*
X177693Y-49167D01*
X180973Y-52870D02*
X181629Y-53796D01*
X184910Y-53796*
X185566Y-52870*
X185566Y-50093*
X184910Y-49167*
X181629Y-49167*
X180973Y-48241*
X180973Y-45926*
X181629Y-45000*
X184910Y-45000*
X185566Y-45926*
X191144Y-45000D02*
X191144Y-52870D01*
X191800Y-53796*
X192456Y-53796*
X190159Y-48241D02*
X192128Y-48241D01*
X196721Y-51019D02*
X200658Y-51019D01*
X200658Y-49167*
X200001Y-48241*
X197377Y-48241*
X196721Y-49167*
X196721Y-52870*
X197377Y-53796*
X200001Y-53796*
X200658Y-52870*
X204594Y-48241D02*
X204594Y-52870D01*
X205250Y-53796*
X207875Y-53796*
X208531Y-52870*
X208531Y-53796D02*
X208531Y-48241D01*
X212468Y-51019D02*
X216405Y-51019D01*
X216405Y-49167*
X215749Y-48241*
X213124Y-48241*
X212468Y-49167*
X212468Y-52870*
X213124Y-53796*
X215749Y-53796*
X216405Y-52870*
X220342Y-53796D02*
X220342Y-48241D01*
X220342Y-49167D02*
X220998Y-48241D01*
X222966Y-48241*
X223623Y-49167*
X228215Y-48241D02*
X228215Y-56111D01*
X228215Y-49167D02*
X228872Y-48241D01*
X231496Y-48241*
X232152Y-49167*
X232152Y-52870*
X231496Y-53796*
X228872Y-53796*
X228215Y-52870*
X237237Y-45000D02*
X237237Y-52870D01*
X237566Y-53796*
X237894Y-53796*
X240026Y-49167D02*
X240682Y-48241D01*
X243307Y-48241*
X243963Y-49167*
X243963Y-53796*
X243963Y-52870D02*
X243963Y-53796D01*
X240682Y-53796*
X240026Y-52870*
X240026Y-51944*
X240682Y-51019*
X243963Y-51019*
X250196Y-45000D02*
X250196Y-52870D01*
X250852Y-53796*
X251509Y-53796*
X249212Y-48241D02*
X251181Y-48241D01*
X257086Y-53796D02*
X257086Y-48704D01*
X257086Y-45463D02*
X257086Y-45000D01*
X256758Y-53796D02*
X257414Y-53796D01*
X259710Y-53796D02*
X259710Y-48241D01*
X259710Y-49167D02*
X260366Y-48241D01*
X262991Y-48241*
X263647Y-49167*
X263647Y-53796*
X267584Y-51019D02*
X271521Y-51019D01*
X271521Y-49167*
X270865Y-48241*
X268240Y-48241*
X267584Y-49167*
X267584Y-52870*
X268240Y-53796*
X270865Y-53796*
X271521Y-52870*
X275458Y-53796D02*
X280707Y-53796D01*
X283331Y-45000D02*
X285956Y-53796D01*
X288581Y-45000*
X291205Y-51019D02*
X295142Y-51019D01*
X295142Y-49167*
X294486Y-48241*
X291861Y-48241*
X291205Y-49167*
X291205Y-52870*
X291861Y-53796*
X294486Y-53796*
X295142Y-52870*
X299079Y-53796D02*
X299079Y-48241D01*
X299079Y-49167D02*
X299735Y-48241D01*
X301703Y-48241*
X302360Y-49167*
X306952Y-52870D02*
X307609Y-53796D01*
X310233Y-53796*
X310889Y-52870*
X310889Y-51944*
X310233Y-51019*
X307609Y-51019*
X306952Y-50093*
X306952Y-49167*
X307609Y-48241*
X310233Y-48241*
X310889Y-49167*
X316138Y-53796D02*
X316138Y-48704D01*
X316138Y-45463D02*
X316138Y-45000D01*
X315810Y-53796D02*
X316467Y-53796D01*
X322700Y-49167D02*
X322044Y-48241D01*
X319419Y-48241*
X318763Y-49167*
X318763Y-52870*
X319419Y-53796*
X322044Y-53796*
X322700Y-52870*
X322700Y-49167*
X326637Y-53796D02*
X326637Y-48241D01*
X326637Y-49167D02*
X327293Y-48241D01*
X329918Y-48241*
X330574Y-49167*
X330574Y-53796*
X334510Y-53796D02*
X339760Y-53796D01*
X342384Y-45926D02*
X343040Y-45000D01*
X346321Y-45000*
X346977Y-45926*
X346977Y-47778*
X346321Y-48704*
X342384Y-53796*
X346977Y-53796*
X351242Y-53796D02*
X351078Y-53796D01*
X351078Y-53333*
X351242Y-53333*
X351242Y-53796*
X354195Y-45926D02*
X354851Y-45000D01*
X358132Y-45000*
X358788Y-45926*
X358788Y-47778*
X358132Y-48704*
X354195Y-53796*
X358788Y-53796*
X362724Y-49167D02*
X366661Y-49167D01*
X369942Y-53796D02*
X369942Y-45000D01*
X369942Y-49167D02*
X370270Y-49167D01*
X374535Y-45000*
X370270Y-49167D02*
X374535Y-53796D01*
X377816Y-49167D02*
X378472Y-48241D01*
X381097Y-48241*
X381753Y-49167*
X381753Y-53796*
X381753Y-52870D02*
X381753Y-53796D01*
X378472Y-53796*
X377816Y-52870*
X377816Y-51944*
X378472Y-51019*
X381753Y-51019*
X387986Y-45000D02*
X387986Y-52870D01*
X388642Y-53796*
X389298Y-53796*
X387002Y-48241D02*
X388970Y-48241D01*
X394875Y-53796D02*
X394875Y-48704D01*
X394875Y-45463D02*
X394875Y-45000D01*
X394547Y-53796D02*
X395204Y-53796D01*
X464200Y166600D02*
X464856Y173544*
X468793Y173544D01*
X466825Y170767D02*
X466825Y176322D01*
D28*
X338300Y03800D02*
X339730Y07041*
X341161Y07041D01*
X341161Y05545*
X340803Y05047*
X338658Y05047*
X338300Y05545*
X338300Y09286*
X338658Y09784*
X340803Y09784*
X341161Y09286*
X342591Y05047D02*
X342591Y09784D01*
X345452Y05047*
X345452Y09784*
X346881Y09784D02*
X348669Y09784D01*
X349385Y09286*
X349742Y08288*
X349742Y06543*
X349385Y05545*
X348669Y05047*
X346881Y05047*
X347597Y05047D02*
X347597Y09784D01*
D14*
X206772Y11358D02*
X206772Y13673*
X206772Y22469D01*
X211365Y22469*
X212021Y21544*
X212021Y19229*
X211365Y18303*
X206772Y18303D02*
X211365Y18303D01*
X212021Y17377*
X212021Y14599*
X211365Y13673*
X206772Y13673*
X214645Y18303D02*
X215301Y19229D01*
X217926Y19229*
X218582Y18303*
X218582Y13673*
X218582Y14599D02*
X218582Y13673D01*
X215301Y13673*
X214645Y14599*
X214645Y15525*
X215301Y16451*
X218582Y16451*
X222519Y19229D02*
X222519Y14599D01*
X223175Y13673*
X225800Y13673*
X226456Y14599*
X226456Y13673D02*
X226456Y19229D01*
X232689Y22469D02*
X232689Y14599D01*
X233346Y13673*
X234002Y13673*
X231705Y19229D02*
X233674Y19229D01*
X238266Y16451D02*
X242203Y16451D01*
X242203Y18303*
X241547Y19229*
X238923Y19229*
X238266Y18303*
X238266Y14599*
X238923Y13673*
X241547Y13673*
X242203Y14599*
X247452Y13673D02*
X247452Y18766D01*
X247452Y22006D02*
X247452Y22469D01*
X247124Y13673D02*
X247781Y13673D01*
X251225Y22469D02*
X251225Y14599D01*
X251553Y13673*
X251881Y13673*
X254014Y14599D02*
X254670Y13673D01*
X257295Y13673*
X257951Y14599*
X257951Y15525*
X257295Y16451*
X254670Y16451*
X254014Y17377*
X254014Y18303*
X254670Y19229*
X257295Y19229*
X257951Y18303*
X261888Y16451D02*
X265825Y16451D01*
X265825Y18303*
X265168Y19229*
X262544Y19229*
X261888Y18303*
X261888Y14599*
X262544Y13673*
X265168Y13673*
X265825Y14599*
X271074Y13673D02*
X271074Y18766D01*
X271074Y22006D02*
X271074Y22469D01*
X270746Y13673D02*
X271402Y13673D01*
X275995Y22469D02*
X275995Y14599D01*
X276651Y13673*
X277307Y13673*
X275010Y19229D02*
X276979Y19229D01*
X281572Y16451D02*
X285509Y16451D01*
X285509Y18303*
X284853Y19229*
X282228Y19229*
X281572Y18303*
X281572Y14599*
X282228Y13673*
X284853Y13673*
X285509Y14599*
D28*
X306900Y147900D02*
X306900Y149645*
X307258Y149147D01*
X309046Y149147*
X309403Y149645*
X309403Y151391*
X309046Y151889*
X307258Y151889*
X306900Y151391*
X306900Y153884*
X309403Y153884*
X311191Y153884D02*
X312621Y149147D01*
X314052Y153884*
X84950Y173925D02*
X84950Y175172*
X84950Y179909D01*
X87453Y179909*
X87811Y179411*
X87811Y178164*
X87453Y177665*
X84950Y177665D02*
X87453Y177665D01*
X87811Y177166*
X87811Y175670*
X87453Y175172*
X84950Y175172*
X92102Y175920D02*
X91565Y175172D01*
X89777Y175172*
X89241Y175920*
X89241Y179161*
X89777Y179909*
X91565Y179909*
X92102Y179161*
X92102Y175920*
X96392Y175920D02*
X95856Y175172D01*
X94068Y175172*
X93531Y175920*
X93531Y179161*
X94068Y179909*
X95856Y179909*
X96392Y179161*
X96392Y175920*
X97822Y179909D02*
X100683Y179909D01*
X99253Y179909D02*
X99253Y175172D01*
D14*
X484173Y142461D02*
X484173Y144775*
X484173Y153572D01*
X488766Y153572*
X489423Y152646*
X489423Y150331*
X488766Y149405*
X484173Y149405D02*
X488766Y149405D01*
X489423Y148479*
X489423Y145701*
X488766Y144775*
X484173Y144775*
X492047Y149405D02*
X492703Y150331D01*
X495328Y150331*
X495984Y149405*
X495984Y144775*
X495984Y145701D02*
X495984Y144775D01*
X492703Y144775*
X492047Y145701*
X492047Y146627*
X492703Y147553*
X495984Y147553*
X499921Y150331D02*
X499921Y145701D01*
X500577Y144775*
X503201Y144775*
X503858Y145701*
X503858Y144775D02*
X503858Y150331D01*
X510091Y153572D02*
X510091Y145701D01*
X510747Y144775*
X511403Y144775*
X509107Y150331D02*
X511075Y150331D01*
X515668Y147553D02*
X519605Y147553D01*
X519605Y149405*
X518949Y150331*
X516324Y150331*
X515668Y149405*
X515668Y145701*
X516324Y144775*
X518949Y144775*
X519605Y145701*
X524854Y144775D02*
X524854Y149868D01*
X524854Y153109D02*
X524854Y153572D01*
X524526Y144775D02*
X525182Y144775D01*
X528627Y153572D02*
X528627Y145701D01*
X528955Y144775*
X529283Y144775*
X531415Y145701D02*
X532072Y144775D01*
X534696Y144775*
X535352Y145701*
X535352Y146627*
X534696Y147553*
X532072Y147553*
X531415Y148479*
X531415Y149405*
X532072Y150331*
X534696Y150331*
X535352Y149405*
X539289Y147553D02*
X543226Y147553D01*
X543226Y149405*
X542570Y150331*
X539945Y150331*
X539289Y149405*
X539289Y145701*
X539945Y144775*
X542570Y144775*
X543226Y145701*
X548475Y144775D02*
X548475Y149868D01*
X548475Y153109D02*
X548475Y153572D01*
X548147Y144775D02*
X548803Y144775D01*
X553396Y153572D02*
X553396Y145701D01*
X554052Y144775*
X554709Y144775*
X552412Y150331D02*
X554381Y150331D01*
X558973Y147553D02*
X562910Y147553D01*
X562910Y149405*
X562254Y150331*
X559630Y150331*
X558973Y149405*
X558973Y145701*
X559630Y144775*
X562254Y144775*
X562910Y145701*
X441417Y98524D02*
X441417Y101764*
X442073Y100838D01*
X445354Y100838*
X446010Y101764*
X446010Y104542*
X445354Y105468*
X442073Y105468*
X441417Y106394*
X441417Y108709*
X442073Y109635*
X445354Y109635*
X446010Y108709*
X451588Y109635D02*
X451588Y101764D01*
X452244Y100838*
X452900Y100838*
X450603Y106394D02*
X452572Y106394D01*
X457165Y103616D02*
X461102Y103616D01*
X461102Y105468*
X460446Y106394*
X457821Y106394*
X457165Y105468*
X457165Y101764*
X457821Y100838*
X460446Y100838*
X461102Y101764*
X465038Y106394D02*
X465038Y101764D01*
X465695Y100838*
X468319Y100838*
X468975Y101764*
X468975Y100838D02*
X468975Y106394D01*
X472912Y103616D02*
X476849Y103616D01*
X476849Y105468*
X476193Y106394*
X473568Y106394*
X472912Y105468*
X472912Y101764*
X473568Y100838*
X476193Y100838*
X476849Y101764*
X480786Y100838D02*
X480786Y106394D01*
X480786Y105468D02*
X481442Y106394D01*
X483410Y106394*
X484067Y105468*
X488660Y106394D02*
X488660Y98524D01*
X488660Y105468D02*
X489316Y106394D01*
X491940Y106394*
X492597Y105468*
X492597Y101764*
X491940Y100838*
X489316Y100838*
X488660Y101764*
X497681Y109635D02*
X497681Y101764D01*
X498010Y100838*
X498338Y100838*
X500470Y105468D02*
X501126Y106394D01*
X503751Y106394*
X504407Y105468*
X504407Y100838*
X504407Y101764D02*
X504407Y100838D01*
X501126Y100838*
X500470Y101764*
X500470Y102690*
X501126Y103616*
X504407Y103616*
X510640Y109635D02*
X510640Y101764D01*
X511297Y100838*
X511953Y100838*
X509656Y106394D02*
X511625Y106394D01*
X517530Y100838D02*
X517530Y105931D01*
X517530Y109172D02*
X517530Y109635D01*
X517202Y100838D02*
X517858Y100838D01*
X520154Y100838D02*
X520154Y106394D01*
X520154Y105468D02*
X520810Y106394D01*
X523435Y106394*
X524091Y105468*
X524091Y100838*
X528028Y103616D02*
X531965Y103616D01*
X531965Y105468*
X531309Y106394*
X528684Y106394*
X528028Y105468*
X528028Y101764*
X528684Y100838*
X531309Y100838*
X531965Y101764*
X541151Y98524D02*
X543775Y108709*
X544432Y109635D01*
X547712Y109635*
X548369Y108709*
X548369Y106394*
X547712Y105468*
X545744Y105468*
X547712Y105468*
X548369Y104542*
X548369Y102227*
X547712Y100838*
X544432Y100838*
X543775Y101764*
X486260Y160295D02*
X486260Y171406*
X487900Y162610D01*
X489541Y171406*
X491181Y162610*
X492821Y171406*
X498071Y167240D02*
X497414Y168166D01*
X494790Y168166*
X494134Y167240*
X494134Y163536*
X494790Y162610*
X497414Y162610*
X498071Y163536*
X498071Y167240*
X502007Y162610D02*
X502007Y168166D01*
X502007Y167240D02*
X502663Y168166D01*
X504632Y168166*
X505288Y167240*
X512178Y171406D02*
X512178Y163536D01*
X512834Y162610*
X513490Y162610*
X511193Y168166D02*
X513162Y168166D01*
X517755Y171406D02*
X517755Y163536D01*
X518411Y162610*
X522348Y162610*
X523004Y163536*
X523004Y171406*
X525628Y162610D02*
X525628Y171406D01*
X525628Y167240D02*
X526284Y168166D01*
X528909Y168166*
X529565Y167240*
X529565Y162610*
X533502Y162610D02*
X533502Y168166D01*
X533502Y167240D02*
X534158Y168166D01*
X536127Y168166*
X536783Y167240*
X546625Y160295D02*
X549249Y170481*
X549906Y171406D01*
X553186Y171406*
X553843Y170481*
X553843Y168629*
X553186Y167703*
X549249Y162610*
X553843Y162610*
X561716Y163536D02*
X561060Y162610D01*
X557779Y162610*
X557123Y163536*
X557123Y170481*
X557779Y171406*
X561060Y171406*
X561716Y170481*
X561716Y163536*
X557123Y163536D02*
X561716Y170481D01*
X566145Y162610D02*
X566145Y171406D01*
X565489Y169555*
X568934Y163536D02*
X568934Y166314D01*
X569590Y167240*
X572871Y167240*
X573527Y168166*
X573527Y170481*
X572871Y171406*
X569590Y171406*
X568934Y170481*
X568934Y168166*
X569590Y167240*
X572871Y167240*
X573527Y166314*
X573527Y163536*
X572871Y162610*
X569590Y162610*
X568934Y163536*
D28*
X582800Y31000D02*
X582800Y36984*
X584230Y32247D01*
X585661Y36984*
X589236Y34740D02*
X588879Y35239D01*
X587448Y35239*
X587091Y34740*
X587091Y32745*
X587448Y32247*
X588879Y32247*
X589236Y32745*
X593527Y34740D02*
X593169Y35239D01*
X591739Y35239*
X591381Y34740*
X591381Y32745*
X591739Y32247*
X593169Y32247*
X593527Y32745*
D14*
X199610Y300734D02*
X199610Y311845*
X202235Y303049D01*
X204860Y311845*
X207484Y310919D02*
X208140Y311845D01*
X211421Y311845*
X212077Y310919*
X212077Y309067*
X211421Y308141*
X207484Y303049*
X212077Y303049*
X216342Y303049D02*
X216178Y303049D01*
X216178Y303512*
X216342Y303512*
X216342Y303049*
X219295Y310919D02*
X219951Y311845D01*
X223232Y311845*
X223888Y310919*
X223888Y309067*
X223232Y308141*
X219295Y303049*
X223888Y303049*
X419925Y234650D02*
X419925Y237891*
X420581Y236965D01*
X423862Y236965*
X424518Y237891*
X424518Y240669*
X423862Y241594*
X420581Y241594*
X419925Y242520*
X419925Y244835*
X420581Y245761*
X423862Y245761*
X424518Y244835*
X430095Y245761D02*
X430095Y237891D01*
X430751Y236965*
X431408Y236965*
X429111Y242520D02*
X431080Y242520D01*
X435672Y239743D02*
X439609Y239743D01*
X439609Y241594*
X438953Y242520*
X436329Y242520*
X435672Y241594*
X435672Y237891*
X436329Y236965*
X438953Y236965*
X439609Y237891*
X443546Y242520D02*
X443546Y237891D01*
X444202Y236965*
X446827Y236965*
X447483Y237891*
X447483Y236965D02*
X447483Y242520D01*
X451420Y239743D02*
X455357Y239743D01*
X455357Y241594*
X454701Y242520*
X452076Y242520*
X451420Y241594*
X451420Y237891*
X452076Y236965*
X454701Y236965*
X455357Y237891*
X459294Y236965D02*
X459294Y242520D01*
X459294Y241594D02*
X459950Y242520D01*
X461918Y242520*
X462574Y241594*
X467167Y242520D02*
X467167Y234650D01*
X467167Y241594D02*
X467823Y242520D01*
X470448Y242520*
X471104Y241594*
X471104Y237891*
X470448Y236965*
X467823Y236965*
X467167Y237891*
X476189Y245761D02*
X476189Y237891D01*
X476517Y236965*
X476845Y236965*
X478978Y241594D02*
X479634Y242520D01*
X482259Y242520*
X482915Y241594*
X482915Y236965*
X482915Y237891D02*
X482915Y236965D01*
X479634Y236965*
X478978Y237891*
X478978Y238817*
X479634Y239743*
X482915Y239743*
X489148Y245761D02*
X489148Y237891D01*
X489804Y236965*
X490460Y236965*
X488164Y242520D02*
X490132Y242520D01*
X496037Y236965D02*
X496037Y242057D01*
X496037Y245298D02*
X496037Y245761D01*
X495709Y236965D02*
X496366Y236965D01*
X498662Y236965D02*
X498662Y242520D01*
X498662Y241594D02*
X499318Y242520D01*
X501943Y242520*
X502599Y241594*
X502599Y236965*
X506536Y239743D02*
X510473Y239743D01*
X510473Y241594*
X509817Y242520*
X507192Y242520*
X506536Y241594*
X506536Y237891*
X507192Y236965*
X509817Y236965*
X510473Y237891*
X519659Y234650D02*
X522283Y244835*
X522939Y245761D01*
X526220Y245761*
X526876Y244835*
X526876Y242983*
X526220Y242057*
X522283Y236965*
X526876Y236965*
D28*
X153975Y235350D02*
X150734Y236780*
X150734Y238211D01*
X152230Y238211*
X152728Y237853*
X152728Y235708*
X152230Y235350*
X148489Y235350*
X147991Y235708*
X147991Y237853*
X148489Y238211*
D14*
X395175Y143300D02*
X395831Y150244*
X399768Y150244D01*
X397800Y147467D02*
X397800Y153022D01*
X500000Y05000D02*
X500656Y11944*
X504593Y11944D01*
X502625Y09167D02*
X502625Y14722D01*
D28*
X143700Y235400D02*
X140459Y236830*
X140459Y238261D01*
X141955Y238261*
X142453Y237903*
X142453Y235758*
X141955Y235400*
X138214Y235400*
X137716Y235758*
X137716Y237903*
X138214Y238261*
X79500Y160150D02*
X80930Y163391*
X82361Y163391D01*
X82361Y161895*
X82003Y161397*
X79858Y161397*
X79500Y161895*
X79500Y165636*
X79858Y166134*
X82003Y166134*
X82361Y165636*
X83791Y161397D02*
X83791Y166134D01*
X86652Y161397*
X86652Y166134*
X88081Y166134D02*
X89869Y166134D01*
X90585Y165636*
X90942Y164638*
X90942Y162893*
X90585Y161895*
X89869Y161397*
X88081Y161397*
X88797Y161397D02*
X88797Y166134D01*
X164475Y235300D02*
X158491Y235300*
X163228Y236730D01*
X158491Y238161*
D14*
X555748Y98169D02*
X555748Y109280*
X558373Y100484D01*
X560997Y109280*
X563622Y108355D02*
X564278Y109280D01*
X567559Y109280*
X568215Y108355*
X568215Y106503*
X567559Y105577*
X563622Y100484*
X568215Y100484*
X572480Y100484D02*
X572316Y100484D01*
X572316Y100947*
X572480Y100947*
X572480Y100484*
X575432Y108355D02*
X576088Y109280D01*
X579369Y109280*
X580025Y108355*
X580025Y106503*
X579369Y105577*
X575432Y100484*
X580025Y100484*
D28*
X-22500Y-25000D02*
X-24744Y-23570*
X-26240Y-25000D01*
X-27986Y-23570*
X-23747Y-20709D02*
X-28484Y-20709D01*
X-23747Y-17848*
X-28484Y-17848*
X-26240Y-14273D02*
X-26739Y-14631D01*
X-26739Y-16061*
X-26240Y-16419*
X-24245Y-16419*
X-23747Y-16061*
X-23747Y-14631*
X-24245Y-14273*
X-26240Y-14273*
X-28484Y-10876D02*
X-24245Y-10876D01*
X-23747Y-10519*
X-23747Y-10161*
X-26739Y-11413D02*
X-26739Y-10340D01*
X-22500Y-04976D02*
X-24245Y-03546*
X-23747Y-03189D01*
X-23747Y-01401*
X-24245Y-01043*
X-25741Y-01043*
X-26240Y-01401*
X-26240Y-03189*
X-26739Y-03546*
X-27986Y-03546*
X-28484Y-03189*
X-28484Y-01401*
X-27986Y-01043*
X-26240Y00744D02*
X-26739Y01102D01*
X-26739Y02532*
X-26240Y02890*
X-23747Y02890*
X-24245Y02890D02*
X-23747Y02890D01*
X-23747Y01102*
X-24245Y00744*
X-24744Y00744*
X-25243Y01102*
X-25243Y02890*
X-26739Y05035D02*
X-23747Y06108D01*
X-26739Y07181*
X-25243Y09326D02*
X-25243Y11471D01*
X-26240Y11471*
X-26739Y11114*
X-26739Y09683*
X-26240Y09326*
X-24245Y09326*
X-23747Y09683*
X-23747Y11114*
X-24245Y11471*
X-26240Y15762D02*
X-26739Y15404D01*
X-26739Y13974*
X-26240Y13616*
X-24245Y13616*
X-23747Y13974*
X-23747Y15404*
X-24245Y15762*
X-23747Y15762D02*
X-28484Y15762D01*
X-24495Y19338D02*
X-26240Y20768D01*
X-27986Y19338*
D14*
X220342Y-30000D02*
X220342Y-27685*
X220342Y-18889D01*
X220342Y-24907D02*
X220670Y-24907D01*
X223623Y-22130*
X220670Y-24907D02*
X223623Y-27685D01*
X228215Y-23056D02*
X228872Y-22130D01*
X231496Y-22130*
X232152Y-23056*
X232152Y-27685*
X232152Y-26759D02*
X232152Y-27685D01*
X228872Y-27685*
X228215Y-26759*
X228215Y-25833*
X228872Y-24907*
X232152Y-24907*
X236089Y-18889D02*
X240682Y-18889D01*
X236745Y-27685*
X243963Y-26759D02*
X244619Y-27685D01*
X247900Y-27685*
X248556Y-26759*
X248556Y-23519*
X247900Y-22593*
X244619Y-22593*
X243963Y-23519*
X243963Y-18889*
X248556Y-18889*
X251837Y-23519D02*
X252493Y-22593D01*
X255774Y-22593*
X256430Y-23519*
X256430Y-26759*
X255774Y-27685*
X252493Y-27685*
X251837Y-26759*
X251837Y-19815*
X252493Y-18889*
X255774Y-18889*
X256430Y-19815*
X259710Y-18889D02*
X264303Y-18889D01*
X260366Y-27685*
X267584Y-26759D02*
X268240Y-27685D01*
X271521Y-27685*
X272177Y-26759*
X272177Y-23519*
X271521Y-22593*
X268240Y-22593*
X267584Y-23519*
X267584Y-18889*
X272177Y-18889*
X280707Y-30000D02*
X283331Y-19815*
X283987Y-18889D01*
X287268Y-18889*
X287924Y-19815*
X287924Y-21667*
X287268Y-22593*
X283331Y-27685*
X287924Y-27685*
X291205Y-18889D02*
X295798Y-18889D01*
X291861Y-27685*
X300063Y-27685D02*
X299899Y-27685D01*
X299899Y-27222*
X300063Y-27222*
X300063Y-27685*
X307609Y-26759D02*
X306953Y-27685D01*
X303672Y-27685*
X303016Y-26759*
X303016Y-19815*
X303672Y-18889*
X306953Y-18889*
X307609Y-19815*
X307609Y-26759*
X303016Y-26759D02*
X307609Y-19815D01*
X310889Y-26759D02*
X311545Y-27685D01*
X314826Y-27685*
X315482Y-26759*
X315482Y-23519*
X314826Y-22593*
X311545Y-22593*
X310889Y-23519*
X310889Y-18889*
X315482Y-18889*
X319747Y-27685D02*
X319583Y-27685D01*
X319583Y-27222*
X319747Y-27222*
X319747Y-27685*
X322700Y-19815D02*
X323356Y-18889D01*
X326637Y-18889*
X327293Y-19815*
X327293Y-21667*
X326637Y-22593*
X322700Y-27685*
X327293Y-27685*
X335167Y-26759D02*
X334511Y-27685D01*
X331230Y-27685*
X330574Y-26759*
X330574Y-19815*
X331230Y-18889*
X334511Y-18889*
X335167Y-19815*
X335167Y-26759*
X330574Y-26759D02*
X335167Y-19815D01*
X339596Y-27685D02*
X339596Y-18889D01*
X338939Y-20741*
X346977Y-22593D02*
X346321Y-23519D01*
X342712Y-23519*
X342384Y-22593*
X342384Y-19815*
X343040Y-18889*
X346321Y-18889*
X346977Y-19815*
X346977Y-26759*
X346321Y-27685*
X343040Y-27685*
X342384Y-26759*
X355507Y-30000D02*
X363381Y-30000*
X367153Y-27685*
X367153Y-18889D01*
X366497Y-20741*
X369942Y-26759D02*
X370598Y-27685D01*
X373879Y-27685*
X374535Y-26759*
X374535Y-23519*
X373879Y-22593*
X370598Y-22593*
X369942Y-23519*
X369942Y-18889*
X374535Y-18889*
X378800Y-27685D02*
X378636Y-27685D01*
X378636Y-27222*
X378800Y-27222*
X378800Y-27685*
X378800Y-23056D02*
X378636Y-23056D01*
X378636Y-22593*
X378800Y-22593*
X378800Y-23056*
X386346Y-26759D02*
X385690Y-27685D01*
X382409Y-27685*
X381753Y-26759*
X381753Y-19815*
X382409Y-18889*
X385690Y-18889*
X386346Y-19815*
X386346Y-26759*
X381753Y-26759D02*
X386346Y-19815D01*
X389626Y-18889D02*
X394219Y-18889D01*
X390282Y-27685*
D28*
X118100Y198925D02*
X118100Y204909*
X118100Y200670D01*
X118458Y200172*
X120603Y200172*
X120961Y200670*
X120961Y204909*
X122391Y200670D02*
X122748Y200172D01*
X124536Y200172*
X124894Y200670*
X124894Y202166*
X124536Y202665*
X122748Y202665*
X122391Y203164*
X122391Y204411*
X122748Y204909*
X124536Y204909*
X124894Y204411*
X126681Y200172D02*
X126681Y204909D01*
X129185Y204909*
X129542Y204411*
X129542Y203164*
X129185Y202665*
X126681Y202665D02*
X129185Y202665D01*
X129542Y202166*
X129542Y200670*
X129185Y200172*
X126681Y200172*
D14*
X-60000Y-25000D02*
X-71111Y-25000*
X-62315Y-23360D01*
X-71111Y-21719*
X-62315Y-20079*
X-71111Y-18438*
X-65093Y-17126D02*
X-65093Y-13189D01*
X-66944Y-13189*
X-67870Y-13845*
X-67870Y-16470*
X-66944Y-17126*
X-63241Y-17126*
X-62315Y-16470*
X-62315Y-13845*
X-63241Y-13189*
X-63241Y-09253D02*
X-62315Y-08596D01*
X-62315Y-05972*
X-63241Y-05316*
X-64167Y-05316*
X-65093Y-05972*
X-65093Y-08596*
X-66019Y-09253*
X-66944Y-09253*
X-67870Y-08596*
X-67870Y-05972*
X-66944Y-05316*
X-71111Y00918D02*
X-63241Y00918D01*
X-62315Y01574*
X-62315Y02230*
X-67870Y-00067D02*
X-67870Y01902D01*
X-62315Y08463D02*
X-70185Y08463D01*
X-71111Y09119*
X-71111Y09776*
X-67870Y07479D02*
X-67870Y09448D01*
X-66944Y14369D02*
X-67870Y15025D01*
X-67870Y17649*
X-66944Y18306*
X-62315Y18306*
X-63241Y18306D02*
X-62315Y18306D01*
X-62315Y15025*
X-63241Y14369*
X-64167Y14369*
X-65093Y15025*
X-65093Y18306*
X-68333Y15681D02*
X-68796Y15681D01*
X-68333Y16993D02*
X-68796Y16993D01*
X-71111Y23390D02*
X-63241Y23390D01*
X-62315Y23719*
X-62315Y24047*
X-62315Y27491D02*
X-67407Y27491D01*
X-70648Y27491D02*
X-71111Y27491D01*
X-62315Y27163D02*
X-62315Y27819D01*
X-63241Y30116D02*
X-62315Y30772D01*
X-62315Y33397*
X-63241Y34053*
X-64167Y34053*
X-65093Y33397*
X-65093Y30772*
X-66019Y30116*
X-66944Y30116*
X-67870Y30772*
X-67870Y33397*
X-66944Y34053*
X-66944Y41927D02*
X-67870Y41270D01*
X-67870Y38646*
X-66944Y37990*
X-63241Y37990*
X-62315Y38646*
X-62315Y41270*
X-63241Y41927*
X-62315Y45863D02*
X-71111Y45863D01*
X-66944Y45863D02*
X-67870Y46519D01*
X-67870Y49144*
X-66944Y49800*
X-62315Y49800*
X-65093Y53737D02*
X-65093Y57674D01*
X-66944Y57674*
X-67870Y57018*
X-67870Y54393*
X-66944Y53737*
X-63241Y53737*
X-62315Y54393*
X-62315Y57018*
X-63241Y57674*
X-60000Y66860D02*
X-62315Y69484*
X-71111Y69484D01*
X-66944Y69484D02*
X-66944Y74734D01*
X-71111Y74734D02*
X-62315Y74734D01*
X-66944Y81295D02*
X-67870Y80639D01*
X-67870Y78014*
X-66944Y77358*
X-63241Y77358*
X-62315Y78014*
X-62315Y80639*
X-63241Y81295*
X-66944Y81295*
X-66944Y89169D02*
X-67870Y88513D01*
X-67870Y85888*
X-66944Y85232*
X-63241Y85232*
X-62315Y85888*
X-62315Y88513*
X-63241Y89169*
X-62315Y93106D02*
X-71111Y93106D01*
X-66944Y93106D02*
X-67870Y93762D01*
X-67870Y96386*
X-66944Y97043*
X-62315Y97043*
X-63241Y100979D02*
X-62315Y101635D01*
X-62315Y104260*
X-63241Y104916*
X-64167Y104916*
X-65093Y104260*
X-65093Y101635*
X-66019Y100979*
X-66944Y100979*
X-67870Y101635*
X-67870Y104260*
X-66944Y104916*
X-66944Y112790D02*
X-67870Y112134D01*
X-67870Y109509*
X-66944Y108853*
X-63241Y108853*
X-62315Y109509*
X-62315Y112134*
X-63241Y112790*
X-62315Y116727D02*
X-71111Y116727D01*
X-66944Y116727D02*
X-67870Y117383D01*
X-67870Y120007*
X-66944Y120664*
X-62315Y120664*
X-67870Y124600D02*
X-63241Y124600D01*
X-62315Y125256*
X-62315Y127881*
X-63241Y128537*
X-62315Y128537D02*
X-67870Y128537D01*
X-71111Y133622D02*
X-63241Y133622D01*
X-62315Y133950*
X-62315Y134278*
X-65093Y136411D02*
X-65093Y140348D01*
X-66944Y140348*
X-67870Y139692*
X-67870Y137067*
X-66944Y136411*
X-63241Y136411*
X-62315Y137067*
X-62315Y139692*
X-63241Y140348*
X-60000Y149534D02*
X-63241Y157408*
X-62315Y156751D01*
X-62315Y152814*
X-63241Y152158*
X-70185Y152158*
X-71111Y152814*
X-71111Y156751*
X-70185Y157408*
X-66944Y160032D02*
X-67870Y160688D01*
X-67870Y163313*
X-66944Y163969*
X-62315Y163969*
X-63241Y163969D02*
X-62315Y163969D01*
X-62315Y160688*
X-63241Y160032*
X-64167Y160032*
X-65093Y160688*
X-65093Y163969*
X-62315Y167906D02*
X-67870Y167906D01*
X-66944Y167906D02*
X-67870Y168562D01*
X-67870Y169874*
X-66944Y170530*
X-62315Y170530*
X-66944Y170530D02*
X-67870Y171186D01*
X-67870Y172499*
X-66944Y173155*
X-62315Y173155*
X-67870Y175779D02*
X-60000Y175779D01*
X-66944Y175779D02*
X-67870Y176436D01*
X-67870Y179060*
X-66944Y179716*
X-63241Y179716*
X-62315Y179060*
X-62315Y176436*
X-63241Y175779*
X-67870Y183653D02*
X-63241Y183653D01*
X-62315Y184309*
X-62315Y186934*
X-63241Y187590*
X-62315Y187590D02*
X-67870Y187590D01*
X-63241Y191527D02*
X-62315Y192183D01*
X-62315Y194808*
X-63241Y195464*
X-64167Y195464*
X-65093Y194808*
X-65093Y192183*
X-66019Y191527*
X-66944Y191527*
X-67870Y192183*
X-67870Y194808*
X-66944Y195464*
X-60000Y204650D02*
X-62315Y207274*
X-71111Y207274D01*
X-71111Y211867*
X-70185Y212524*
X-67870Y212524*
X-66944Y211867*
X-66944Y207274D02*
X-66944Y211867D01*
X-66019Y212524*
X-63241Y212524*
X-62315Y211867*
X-62315Y207274*
X-66944Y219085D02*
X-67870Y218429D01*
X-67870Y215804*
X-66944Y215148*
X-63241Y215148*
X-62315Y215804*
X-62315Y218429*
X-63241Y219085*
X-66944Y219085*
X-66944Y226959D02*
X-67870Y226302D01*
X-67870Y223678*
X-66944Y223022*
X-63241Y223022*
X-62315Y223678*
X-62315Y226302*
X-63241Y226959*
X-62315Y230895D02*
X-71111Y230895D01*
X-66944Y230895D02*
X-67870Y231551D01*
X-67870Y234176*
X-66944Y234832*
X-62315Y234832*
X-66944Y242706D02*
X-67870Y242050D01*
X-67870Y239425*
X-66944Y238769*
X-63241Y238769*
X-62315Y239425*
X-62315Y242050*
X-63241Y242706*
X-66944Y242706*
X-71111Y247791D02*
X-63241Y247791D01*
X-62315Y248119*
X-62315Y248447*
X-71111Y252876D02*
X-63241Y252876D01*
X-62315Y253532*
X-62315Y254188*
X-67870Y251892D02*
X-67870Y253860D01*
X-47870Y-20407D02*
X-47870Y-25000D01*
X-56667Y-25000*
X-52500Y-17126D02*
X-53426Y-16470D01*
X-53426Y-13845*
X-52500Y-13189*
X-47870Y-13189*
X-48796Y-13189D02*
X-47870Y-13189D01*
X-47870Y-16470*
X-48796Y-17126*
X-49722Y-17126*
X-50648Y-16470*
X-50648Y-13189*
X-47870Y-09253D02*
X-56667Y-09253D01*
X-52500Y-09253D02*
X-53426Y-08596D01*
X-53426Y-05972*
X-52500Y-05316*
X-48796Y-05316*
X-47870Y-05972*
X-47870Y-08596*
X-48796Y-09253*
X-52500Y02558D02*
X-53426Y01902D01*
X-53426Y-00723*
X-52500Y-01379*
X-48796Y-01379*
X-47870Y-00723*
X-47870Y01902*
X-48796Y02558*
X-52500Y02558*
X-47870Y06495D02*
X-53426Y06495D01*
X-52500Y06495D02*
X-53426Y07151D01*
X-53426Y09119*
X-52500Y09776*
X-45555Y19618D02*
X-47870Y22242*
X-56667Y22242D01*
X-56667Y26835*
X-55741Y27492*
X-53426Y27492*
X-52500Y26835*
X-52500Y22242*
X-52500Y26179D02*
X-52500Y26835D01*
X-47870Y27492*
X-56667Y30116D02*
X-56667Y35365D01*
X-56667Y32741D02*
X-47870Y32741D01*
X536525Y234675D02*
X536525Y245786*
X539150Y236990D01*
X541774Y245786*
X544399Y244860D02*
X545055Y245786D01*
X548336Y245786*
X548992Y244860*
X548992Y243008*
X548336Y242082*
X544399Y236990*
X548992Y236990*
X553257Y236990D02*
X553093Y236990D01*
X553093Y237453*
X553257Y237453*
X553257Y236990*
X556209Y244860D02*
X556865Y245786D01*
X560146Y245786*
X560802Y244860*
X560802Y243008*
X560146Y242082*
X556209Y236990*
X560802Y236990*
D28*
X581900Y40600D02*
X583330Y43841*
X584761Y43841D01*
X584761Y42345*
X584403Y41847*
X582258Y41847*
X581900Y42345*
X581900Y46086*
X582258Y46584*
X584403Y46584*
X584761Y46086*
X586191Y41847D02*
X586191Y46584D01*
X589052Y41847*
X589052Y46584*
X590481Y46584D02*
X592269Y46584D01*
X592985Y46086*
X593342Y45088*
X593342Y43343*
X592985Y42345*
X592269Y41847*
X590481Y41847*
X591197Y41847D02*
X591197Y46584D01*
X467500Y77500D02*
X468930Y80741*
X470361Y80741D01*
X470361Y79245*
X470003Y78747*
X467858Y78747*
X467500Y79245*
X467500Y82986*
X467858Y83484*
X470003Y83484*
X470361Y82986*
X471791Y78747D02*
X471791Y83484D01*
X474652Y78747*
X474652Y83484*
X476081Y83484D02*
X477869Y83484D01*
X478585Y82986*
X478942Y81988*
X478942Y80243*
X478585Y79245*
X477869Y78747*
X476081Y78747*
X476797Y78747D02*
X476797Y83484D01*
X319400Y147900D02*
X320830Y151141*
X322261Y151141D01*
X322261Y149645*
X321903Y149147*
X319758Y149147*
X319400Y149645*
X319400Y153386*
X319758Y153884*
X321903Y153884*
X322261Y153386*
D14*
X457960Y288134D02*
X458617Y295079*
X462554Y295079D01*
X460585Y292301D02*
X460585Y297856D01*
D28*
X18610Y284534D02*
X20041Y287776*
X21471Y287776D01*
X21471Y286279*
X21114Y285781*
X18968Y285781*
X18610Y286279*
X18610Y290020*
X18968Y290518*
X21114Y290518*
X21471Y290020*
X22901Y285781D02*
X22901Y290518D01*
X25762Y285781*
X25762Y290518*
X27192Y290518D02*
X28980Y290518D01*
X29695Y290020*
X30053Y289022*
X30053Y287277*
X29695Y286279*
X28980Y285781*
X27192Y285781*
X27907Y285781D02*
X27907Y290518D01*
D14*
X478354Y365720D02*
X478354Y368035*
X478354Y376831D01*
X482947Y376831*
X483603Y375905*
X483603Y373590*
X482947Y372664*
X478354Y372664D02*
X482947Y372664D01*
X483603Y371738*
X483603Y368961*
X482947Y368035*
X478354Y368035*
X486227Y372664D02*
X486884Y373590D01*
X489508Y373590*
X490164Y372664*
X490164Y368035*
X490164Y368961D02*
X490164Y368035D01*
X486884Y368035*
X486227Y368961*
X486227Y369887*
X486884Y370812*
X490164Y370812*
X494101Y373590D02*
X494101Y368961D01*
X494757Y368035*
X497382Y368035*
X498038Y368961*
X498038Y368035D02*
X498038Y373590D01*
X504271Y376831D02*
X504271Y368961D01*
X504928Y368035*
X505584Y368035*
X503287Y373590D02*
X505256Y373590D01*
X509849Y370812D02*
X513786Y370812D01*
X513786Y372664*
X513129Y373590*
X510505Y373590*
X509849Y372664*
X509849Y368961*
X510505Y368035*
X513129Y368035*
X513786Y368961*
X519035Y368035D02*
X519035Y373127D01*
X519035Y376368D02*
X519035Y376831D01*
X518706Y368035D02*
X519363Y368035D01*
X522807Y376831D02*
X522807Y368961D01*
X523135Y368035*
X523464Y368035*
X525596Y368961D02*
X526252Y368035D01*
X528877Y368035*
X529533Y368961*
X529533Y369887*
X528877Y370812*
X526252Y370812*
X525596Y371738*
X525596Y372664*
X526252Y373590*
X528877Y373590*
X529533Y372664*
X533470Y370812D02*
X537407Y370812D01*
X537407Y372664*
X536750Y373590*
X534126Y373590*
X533470Y372664*
X533470Y368961*
X534126Y368035*
X536750Y368035*
X537407Y368961*
X542656Y368035D02*
X542656Y373127D01*
X542656Y376368D02*
X542656Y376831D01*
X542328Y368035D02*
X542984Y368035D01*
X547577Y376831D02*
X547577Y368961D01*
X548233Y368035*
X548889Y368035*
X546593Y373590D02*
X548561Y373590D01*
X553154Y370812D02*
X557091Y370812D01*
X557091Y372664*
X556435Y373590*
X553810Y373590*
X553154Y372664*
X553154Y368961*
X553810Y368035*
X556435Y368035*
X557091Y368961*
D23*
X593885Y302084D02*
X594935Y304217*
X595985Y304217D01*
X595985Y303232*
X595723Y302904*
X594148Y302904*
X593885Y303232*
X593885Y305693*
X594148Y306021*
X595723Y306021*
X595985Y305693*
X597035Y302904D02*
X597035Y306021D01*
X599134Y302904*
X599134Y306021*
X600184Y306021D02*
X601496Y306021D01*
X602021Y305693*
X602284Y305037*
X602284Y303889*
X602021Y303232*
X601496Y302904*
X600184Y302904*
X600709Y302904D02*
X600709Y306021D01*
D28*
X301587Y327757D02*
X304828Y326327*
X304828Y324896D01*
X303332Y324896*
X302834Y325254*
X302834Y327400*
X303332Y327757*
X307073Y327757*
X307571Y327400*
X307571Y325254*
X307073Y324896*
X302834Y323467D02*
X307571Y323467D01*
X302834Y320606*
X307571Y320606*
X307571Y319176D02*
X307571Y317388D01*
X307073Y316673*
X306075Y316315*
X304330Y316315*
X303332Y316673*
X302834Y317388*
X302834Y319176*
X302834Y318461D02*
X307571Y318461D01*
D14*
X86010Y305534D02*
X86010Y308775*
X86667Y307849D01*
X89947Y307849*
X90604Y308775*
X90604Y311553*
X89947Y312479*
X86667Y312479*
X86010Y313404*
X86010Y315719*
X86667Y316645*
X89947Y316645*
X90604Y315719*
X96181Y316645D02*
X96181Y308775D01*
X96837Y307849*
X97493Y307849*
X95196Y313404D02*
X97165Y313404D01*
X101758Y310627D02*
X105695Y310627D01*
X105695Y312479*
X105039Y313404*
X102414Y313404*
X101758Y312479*
X101758Y308775*
X102414Y307849*
X105039Y307849*
X105695Y308775*
X109632Y313404D02*
X109632Y308775D01*
X110288Y307849*
X112912Y307849*
X113569Y308775*
X113569Y307849D02*
X113569Y313404D01*
X117505Y310627D02*
X121442Y310627D01*
X121442Y312479*
X120786Y313404*
X118161Y313404*
X117505Y312479*
X117505Y308775*
X118161Y307849*
X120786Y307849*
X121442Y308775*
X125379Y307849D02*
X125379Y313404D01*
X125379Y312479D02*
X126035Y313404D01*
X128004Y313404*
X128660Y312479*
X133253Y313404D02*
X133253Y305534D01*
X133253Y312479D02*
X133909Y313404D01*
X136533Y313404*
X137190Y312479*
X137190Y308775*
X136533Y307849*
X133909Y307849*
X133253Y308775*
X142275Y316645D02*
X142275Y308775D01*
X142603Y307849*
X142931Y307849*
X145063Y312479D02*
X145719Y313404D01*
X148344Y313404*
X149000Y312479*
X149000Y307849*
X149000Y308775D02*
X149000Y307849D01*
X145719Y307849*
X145063Y308775*
X145063Y309701*
X145719Y310627*
X149000Y310627*
X155233Y316645D02*
X155233Y308775D01*
X155890Y307849*
X156546Y307849*
X154249Y313404D02*
X156218Y313404D01*
X162123Y307849D02*
X162123Y312941D01*
X162123Y316182D02*
X162123Y316645D01*
X161795Y307849D02*
X162451Y307849D01*
X164747Y307849D02*
X164747Y313404D01*
X164747Y312479D02*
X165404Y313404D01*
X168028Y313404*
X168684Y312479*
X168684Y307849*
X172621Y310627D02*
X176558Y310627D01*
X176558Y312479*
X175902Y313404*
X173277Y313404*
X172621Y312479*
X172621Y308775*
X173277Y307849*
X175902Y307849*
X176558Y308775*
X185744Y305534D02*
X189517Y307849*
X189517Y316645D01*
X188861Y314793*
D28*
X522310Y334834D02*
X522310Y336081*
X522310Y340818D01*
X524814Y340818*
X525171Y340320*
X525171Y339073*
X524814Y338574*
X522310Y338574*
X524456Y338574D02*
X524814Y338574D01*
X525171Y336081*
X526601Y336081D02*
X529462Y340818D01*
X526601Y340818D02*
X529462Y336081D01*
X294810Y384834D02*
X300795Y384834*
X296057Y383404D01*
X300795Y381973*
X296556Y377682D02*
X296057Y378040D01*
X296057Y380186*
X296556Y380543*
X300296Y380543*
X300795Y380186*
X300795Y378040*
X300296Y377682*
X296556Y373392D02*
X296057Y373749D01*
X296057Y375895*
X296556Y376253*
X300296Y376253*
X300795Y375895*
X300795Y373749*
X300296Y373392*
X553485Y324384D02*
X553843Y328124*
X555989Y328124D01*
X554916Y326628D02*
X554916Y329620D01*
D23*
X564035Y302609D02*
X564035Y306546*
X565085Y303429D01*
X566135Y306546*
X568760Y305070D02*
X568497Y305398D01*
X567447Y305398*
X567185Y305070*
X567185Y303757*
X567447Y303429*
X568497Y303429*
X568760Y303757*
X571909Y305070D02*
X571646Y305398D01*
X570596Y305398*
X570334Y305070*
X570334Y303757*
X570596Y303429*
X571646Y303429*
X571909Y303757*
D28*
X578910Y320559D02*
X578910Y326045*
X579268Y326543D01*
X581056Y326543*
X581414Y326045*
X581414Y325047*
X581056Y324549*
X578910Y321806*
X581414Y321806*
X46510Y318534D02*
X40526Y318534*
X45264Y319428D01*
X40526Y320322*
X45264Y321216*
X40526Y322110*
X44765Y322825D02*
X45264Y323182D01*
X45264Y324970*
X44765Y325328*
X43269Y325328*
X42770Y324970*
X42770Y323182*
X42272Y322825*
X41025Y322825*
X40526Y323182*
X40526Y324970*
X41025Y325328*
X45264Y327115D02*
X40526Y327115D01*
X40526Y329619*
X41025Y329976*
X42272Y329976*
X42770Y329619*
X42770Y327115*
X588535Y320234D02*
X588535Y325720*
X588893Y326218D01*
X590681Y326218*
X591039Y325720*
X591039Y324473*
X590681Y323974*
X589608Y323974*
X590681Y323974*
X591039Y323476*
X591039Y322229*
X590681Y321481*
X588893Y321481*
X588535Y321979*
X217710Y315334D02*
X219141Y318576*
X220571Y318576D01*
X220571Y317079*
X220214Y316581*
X218068Y316581*
X217710Y317079*
X217710Y320820*
X218068Y321318*
X220214Y321318*
X220571Y320820*
X222001Y316581D02*
X222001Y321318D01*
X224862Y316581*
X224862Y321318*
X226292Y321318D02*
X228080Y321318D01*
X228795Y320820*
X229153Y319822*
X229153Y318077*
X228795Y317079*
X228080Y316581*
X226292Y316581*
X227007Y316581D02*
X227007Y321318D01*
X569285Y320709D02*
X569911Y321956*
X569911Y326693D01*
X569554Y325696*
X47685Y367109D02*
X41701Y367109*
X45940Y367109D01*
X46439Y367467*
X46439Y369612*
X45940Y369970*
X41701Y369970*
X45940Y371400D02*
X46439Y371757D01*
X46439Y373545*
X45940Y373903*
X44444Y373903*
X43945Y373545*
X43945Y371757*
X43447Y371400*
X42200Y371400*
X41701Y371757*
X41701Y373545*
X42200Y373903*
X46439Y378194D02*
X46439Y375690D01*
X41701Y375690*
X41701Y378194*
X43945Y378194D02*
X43945Y375690D01*
X46439Y379981D02*
X41701Y379981D01*
X41701Y382484*
X42200Y382842*
X43447Y382842*
X43945Y382484*
X43945Y379981*
X43945Y382127D02*
X43945Y382484D01*
X46439Y382842*
X522310Y324834D02*
X522310Y330818*
X525171Y330818D01*
X523741Y330818D02*
X523741Y326081D01*
X526601Y326081D02*
X529462Y330818D01*
X526601Y330818D02*
X529462Y326081D01*
D29*
X592000Y153500D03*
X370000Y163531D03*
X86000Y230500D03*
X209000Y186531D03*
X368500Y197500D03*
X279950Y236925D03*
X537000Y189531D03*
X240000Y181531D03*
X375500Y202500D03*
X23000Y06531D03*
X604500Y147500D03*
X250000Y181531D03*
X141000Y179531D03*
X223000Y191531D03*
X270000Y157500D03*
X75000Y229500D03*
X126000Y167500D03*
X55000Y167000D03*
X107000Y228531D03*
X220000Y177500D03*
X270150Y236925D03*
X312500Y60000D03*
X495000Y37500D03*
X280000Y155531D03*
X93000Y230531D03*
X55000Y243531D03*
X225000Y158531D03*
X259975Y236575D03*
X523000Y189531D03*
X174500Y25500D03*
X26000Y150000D03*
X563310Y340834D03*
X547310Y337334D03*
X293688Y303397D03*
X324397Y319932D03*
X270310Y294834D03*
X611810Y298834D03*
X483810Y301366D03*
X607310Y314334D03*
X559310Y293834D03*
X426310Y290334D03*
X460810Y335366D03*
X283058Y308121D03*
X602810Y320834D03*
X438810Y337366D03*
X571310Y341334D03*
X51810Y305834D03*
X254810Y295334D03*
X227310Y360334D03*
X235310Y358334D03*
X277310Y382334D03*
X390810Y323366D03*
X405810Y316366D03*
M02*
